<svg id="Layer_1" xmlns="http://www.w3.org/2000/svg" width="24.8" height="35.3" viewBox="0 0 24.8 35.3"><style>.st0{fill:none}.st1{fill:#363d42}.st2{fill:#85bd7e}</style><path class="st0" d="M20.3 25.8c.6 0 1.2-.5 1.2-1.2v-1.1c0-.6-.5-1.2-1.2-1.2s-1.2.5-1.2 1.2v1.1c.1.7.6 1.2 1.2 1.2zm-2.2 1.1v-9.6c0-.3-.3-.6-.6-.6H1.7c-.3 0-.6.3-.6.6v9.6c0 1.6.6 3.2 1.7 4.4h13.6c1.1-1.2 1.7-2.8 1.7-4.4z"/><path class="st0" d="M20.3 20.1c-.4 0-.8.1-1.2.2v1.3c.3-.2.7-.3 1.2-.3 1.2 0 2.2 1 2.2 2.2v1.1c0 1.2-1 2.2-2.2 2.2-.4 0-.8-.1-1.2-.3v.4c0 .3 0 .6-.1.9.4.2.8.2 1.2.2 1.9 0 3.4-1.5 3.4-3.4v-1.1c.2-1.9-1.4-3.4-3.3-3.4z"/><path class="st1" d="M9.7 10.5c-.6.5-1.3 1.2-1.3 2.5 0 .3.2.5.5.5s.5-.2.5-.5c0-.8.4-1.2 1-1.7s1.3-1.2 1.3-2.5-.7-1.9-1.3-2.5c-.5-.5-1-.9-1-1.7s.4-1.2 1-1.7 1.3-1.2 1.3-2.5c0-.3-.2-.5-.5-.5s-.5.2-.5.5c0 .8-.4 1.2-1 1.7-.6.6-1.3 1.3-1.3 2.6s.7 1.9 1.3 2.5c.5.5 1 .9 1 1.7 0 .7-.4 1.1-1 1.6zm3.4 0c-.6.5-1.3 1.2-1.3 2.5 0 .3.2.5.5.5s.5-.2.5-.5c0-.8.4-1.2 1-1.7s1.3-1.2 1.3-2.5-.7-1.9-1.3-2.5c-.5-.5-1-.9-1-1.7 0-.3-.2-.5-.5-.5s-.5.2-.5.5c0 1.3.7 1.9 1.3 2.5.5.5 1 .9 1 1.7 0 .8-.4 1.2-1 1.7zm-6.8 0C5.8 11 5 11.7 5 13c0 .3.2.5.5.5s.5-.2.5-.5c0-.8.4-1.2 1-1.7s1.3-1.2 1.3-2.5S7.6 6.9 7 6.3c-.5-.5-1-.9-1-1.7 0-.3-.2-.5-.5-.5-.2.1-.5.3-.5.6 0 1.3.8 1.9 1.3 2.4s1 .9 1 1.7c0 .8-.4 1.2-1 1.7z"/><path class="st2" d="M3.9 33.7c0 .3.3.6.6.6h10.2c.3 0 .6-.3.6-.6v-.6H3.9v.6z"/><path class="st1" d="M20.3 19c-.4 0-.8.1-1.2.2v-1.9c0-.9-.7-1.7-1.7-1.7H1.7c-.9 0-1.7.7-1.7 1.7v9.6c0 1.6.5 3.1 1.4 4.4.4.6.9 1.1 1.4 1.5v.9c0 .9.7 1.7 1.7 1.7h10.2c.9 0 1.7-.7 1.7-1.7v-.9c.5-.4 1-.9 1.4-1.5.5-.7.9-1.5 1.2-2.4.5.2.9.2 1.4.2 2.5 0 4.5-2 4.5-4.5v-1.1c-.1-2.5-2.1-4.5-4.6-4.5zm-5 14.7c0 .3-.3.6-.6.6H4.5c-.3 0-.6-.3-.6-.6v-.6h11.4v.6zm2.8-10.2v3.4c0 1.6-.6 3.2-1.7 4.4-.2.3-.5.5-.8.7H3.5c-.3-.2-.5-.5-.8-.7C1.6 30.1 1 28.5 1 26.9v-9.6c0-.3.3-.6.6-.6h15.8c.3 0 .6.3.6.6v6.2zm1.1 0c0-.6.5-1.2 1.2-1.2s1.2.5 1.2 1.2v1.1c0 .6-.5 1.2-1.2 1.2s-1.2-.5-1.2-1.2v-1.1zm4.6 1.1c0 1.9-1.5 3.4-3.4 3.4-.4 0-.8-.1-1.2-.2 0-.3.1-.6.1-.9v-.4c.3.2.7.3 1.2.3 1.2 0 2.2-1 2.2-2.2v-1.1c0-1.2-1-2.2-2.2-2.2-.4 0-.8.1-1.2.3v-1.3c.4-.1.8-.2 1.2-.2 1.9 0 3.4 1.5 3.4 3.4v1.1z"/></svg>