<svg id="Layer_1" xmlns="http://www.w3.org/2000/svg" width="353.5" height="243.4" viewBox="0 0 353.5 243.4"><style>.st0{opacity:.9}.st1{fill:#84a668}.st2{fill:#2e8f58}.st3,.st4{opacity:.8;fill:#172e57}.st4{fill:#197a48}.st5{fill:#57bd7f}</style><g class="st0"><g class="st0"><path class="st1" d="M341.6 149.5c-2.5-.5-5-.8-7.6-1.1-2.5-.3-5-.6-7.6-.8-2.5-.2-5.1-.4-7.6-.6-1.3-.1-2.6-.1-3.9-.1-.7 0-1.3 0-2 .1l-1.1.1c-.4.1-.9.3-1.4.4l-5 2 5.6 2c3 1.1 6 2.3 9 3.5 3 1.2 6 2.5 9 3.9s5.9 2.8 8.8 4.3c.7.4 1.4.8 2.2 1.2l2.1 1.2c.7.4 1.4.8 2.1 1.3l2.1 1.4-1.9-1.6c-.6-.5-1.3-1-2-1.5s-1.3-1-2-1.5-1.4-1-2-1.4c-2.8-1.9-5.6-3.6-8.4-5.3-2.9-1.7-5.7-3.3-8.7-4.9-2.9-1.6-5.8-3.1-8.9-4.6l.6 4c.1 0 .1-.1.3-.2l.7-.2c.5-.1 1.1-.2 1.7-.3 1.2-.2 2.4-.3 3.6-.5 2.4-.3 4.9-.4 7.4-.6l7.5-.3c2.4.1 4.9 0 7.4.1z"/><path class="st1" d="M302.7 148.7s1.2.8 2.4.4 1.8-.5 3.9-1.1c2.1-.6 4.6-1.2 7.3-1.8 2.7-.6 5.6-1.2 8.5-1.6 1.5-.2 2.9-.4 4.4-.5 1.5-.2 2.9-.2 4.3-.3 1.4-.1 2.8 0 4.1-.1 1.3 0 2.5.1 3.7.2 1.1 0 2.2.3 3.1.4.5.1.9.1 1.3.2s.8.2 1.1.3c1.3.3 2.1.5 2.1.5s-.7-.3-2-.7c-.3-.1-.7-.2-1.1-.4-.4-.1-.8-.2-1.3-.3-.9-.2-2-.5-3.1-.7-1.2-.2-2.4-.4-3.7-.5-1.3-.1-2.7-.3-4.2-.3-1.4 0-2.9-.1-4.4-.1-1.5 0-3 0-4.6.1-3.1.1-6.1.4-8.9.8-2.8.3-5.5.7-7.7 1.1-2.2.4-4.1.7-5.4 1-1.3.3-4.8 1.9-4.8 1.9l5 1.5z"/><path class="st1" d="M291.1 146.5s1.5.8 6.3-.5 11.3-3 17.8-4.5 13.2-2.7 18.2-3.2c2.5-.2 4.7-.3 6.2-.1.4 0 .7.1 1 .2.3.1.5.1.7.2.4.1.6.2.6.2l-.6-.3c-.2-.1-.4-.2-.7-.3-.3-.1-.6-.2-1-.2-1.5-.3-3.7-.5-6.3-.4-5.2.1-12 .8-18.7 1.7-6.7 1-13.4 2.1-18.4 3.1-5 .9-11.7 2.5-11.7 2.5l6.6 1.6z"/><path class="st1" d="M281.8 145.5s.9.2 5.2-2.1c5.5-1.9 12.1-4.6 19.5-6.8 1.9-.5 3.7-1.1 5.6-1.5.9-.2 1.8-.4 2.8-.6.9-.1 1.9-.2 2.8-.3 3.7-.3 7.2-.3 10.2-.2 3 .1 5.5.3 7.3.6.9.1 1.6.2 2 .3.5.1.7.2.7.2s-.2-.1-.7-.2c-.5-.1-1.2-.3-2-.5-1.8-.3-4.3-.7-7.3-1-3-.3-6.6-.5-10.4-.4-1 0-1.9.1-2.9.2s-2 .2-2.9.4c-1.9.3-3.9.8-5.8 1.2-7.7 1.8-15.3 3.8-21 5.4-5.7 1.6-12.5 4-12.5 4l9.4 1.3zm-12-1.1l6.2-2.2c3.1-1.1 6.8-2.4 10.6-3.9 1.9-.8 3.9-1.6 5.9-2.7 1.9-1.2 3.6-2.1 5.6-3 3.9-1.8 7.9-3.4 11.8-4.7 1.9-.6 3.8-1.2 5.6-1.7 1.8-.5 3.6-.9 5.2-1.1 1.6-.3 3.1-.4 4.5-.6.7 0 1.3 0 1.9-.1.6 0 1.1.1 1.6.1 1 0 1.8.3 2.3.4.5.1.8.2.8.2s-.3-.1-.8-.2-1.3-.4-2.3-.5c-.5-.1-1.1-.2-1.7-.2-.6 0-1.3-.1-2-.1-1.4 0-3 0-4.6.2-1.7.1-3.5.4-5.4.8-1.9.3-3.9.8-5.9 1.3-4 1-8.3 2.3-12.4 3.9-2 .8-4.2 1.7-6 2.7-1.8.8-3.8 1.5-5.7 2.1-3.9 1.2-7.6 2.2-10.8 3.1-6.4 1.7-14.2 4-14.2 4l9.8 2.2z"/><path class="st1" d="M258.1 142.4s-.5.3 0 0-1 .5 0 0c1.9-1 2.8-1.4 6.3-2.7l2.7-.9c.5-.2 1-.3 1.6-.5l.8-.2.9-.3c2.3-.8 4.5-1.8 6.8-2.8 2.3-1.1 4.5-2.2 6.8-3.5 2.3-1.2 4.6-2.6 6.8-3.8 4.4-2.4 9.3-4.3 14-5.7 2.3-.7 4.7-1.2 6.9-1.6 2.2-.4 4.4-.6 6.4-.7 1 0 2 0 2.9-.1.9 0 1.8.1 2.6.1 1.7.1 3.1.4 4.3.5 1.2.2 2.1.5 2.7.6.6.1 1 .2 1 .2s-.3-.1-1-.3l-2.7-.9c-1.2-.2-2.6-.7-4.3-.9-.8-.1-1.7-.2-2.7-.4-.9-.1-1.9-.1-3-.2-2.1-.1-4.3 0-6.6.2s-4.8.5-7.3 1c-5 1-10.2 2.5-15.1 4.6-2.5 1.1-4.8 2.2-7.1 3.2s-4.7 1.9-6.9 2.8c-2.2.8-4.5 1.6-6.5 2.1l-.7.2-.8.2c-.5.1-1.1.2-1.6.3-1.1.2-2.2.5-3.2.8-2.3.8-4 2.1-6.2 3-1.1.5-4.3 2.2-4.9 2.5-.6.3-3.3 1.9-3.3 1.9l10.4 1.3z"/><path class="st1" d="M323.2 113.1c-1.8-.4-3.7-.7-5.5-.8-1.9-.1-3.7-.2-5.5-.1-1.8 0-3.7.2-5.5.4-1.8.2-3.6.5-5.4.8-1.8.3-3.6.7-5.3 1.1-1.8.4-3.5.9-5.2 1.5-1.7.6-3.4 1.3-5 2.1-1.7.9-3 1.9-4.5 2.7-6.1 3.4-12.6 6.1-19.2 8.7l-5 1.9c-1.7.6-3.4 1.3-5.1 2.1-1.6.8-3.2 1.7-4.8 2.7-1.6 1-3 2-4.5 3.3l-2.3 2.2 3.1 1.5c7 3.4 14 7 21 10.7 7 3.6 13.9 7.4 20.8 11.2 3.5 1.9 6.9 3.9 10.3 5.8l5.1 3c1.7 1 3.4 2 5.1 3.1 1.7 1 3.4 2 5 3.1 1.7 1.1 3.4 2.1 5 3.2l4.9 3.3 4.8 3.5-4.7-3.7-4.8-3.6c-1.6-1.2-3.2-2.3-4.9-3.5-1.6-1.2-3.3-2.3-4.9-3.4-1.6-1.1-3.3-2.2-5-3.3l-5-3.2c-3.4-2.1-6.7-4.3-10.1-6.3-6.7-4.2-13.5-8.2-20.4-12.2-6.8-4-13.7-7.9-20.7-11.7l.8 3.8c1-1.1 2.4-2.2 3.8-3.1 1.4-1 2.8-1.9 4.3-2.7 1.5-.8 3-1.6 4.6-2.3l4.9-2.2c6.5-3 12.9-6.1 18.9-9.9 1.5-.9 3-2.1 4.4-2.9 1.5-.9 3-1.6 4.6-2.3 1.6-.7 3.3-1.3 5-1.8 1.7-.5 3.4-1 5.1-1.4 1.7-.4 3.5-.8 5.3-1.1 1.8-.3 3.6-.5 5.4-.7 1.8-.2 3.6-.2 5.5-.2 1.9.2 3.7.4 5.6.7z"/><path class="st1" d="M237.5 141.3c.7-.5-.8.6 0 0 .8-.5 1.6-1.1 2.5-1.6 1.7-1 3.4-2 5.2-2.8.9-.4 1.8-.8 2.7-1.1l.7-.2.8-.3c.5-.2 1-.3 1.5-.6l1.6-.7 1.4-.7c1-.5 1.9-1 2.8-1.5 3.6-2 7.2-4.2 10.6-6.4 3.5-2.2 6.9-4.5 10.3-6.8h-.1c5.2-2.9 10.6-5.7 16.1-8.2l4.2-1.8c.7-.3 1.4-.6 2.1-.8.7-.3 1.4-.5 2.1-.8l2.2-.7 2.2-.6c.7-.2 1.5-.3 2.3-.5.8-.1 1.5-.1 2.3-.2-.8 0-1.6 0-2.4.1-.8.1-1.6.2-2.3.3l-2.3.5-2.2.6c-.7.2-1.5.4-2.2.7-.7.2-1.5.5-2.2.7-1.5.5-2.9 1-4.3 1.5-5.7 2.1-11.3 4.5-16.9 7.1h-.1c-3.5 2.1-7.1 4.1-10.7 6-3.6 1.9-7.2 3.8-10.9 5.6-.9.4-1.8.9-2.8 1.2l-1.4.6-1.3.5c-.4.2-1 .3-1.5.5l-.7.2-.8.2c-1.1.3-2.1.6-3.1 1-2 .8-4 1.6-5.9 2.6-1 .5-1.9 1-2.8 1.5-.9.5-3.1 3.3-4 4l7.3.9z"/><path class="st1" d="M228.4 140.4s4.1-1.3 11.5-6.2c1.8-1.2 3.8-2.6 5.9-4 2.1-1.5 4.2-3 6.4-4.8 2.1-1.9 4.2-3.4 6.6-5 2.4-1.6 4.9-3 7.5-4.4 2.6-1.4 5.2-2.8 7.8-4 2.6-1.3 5.2-2.5 7.7-3.5 2.5-1.1 5.1-2 7.5-2.8 2.4-.8 4.8-1.2 7-1.7 4.4-.9 8.1-1.8 10.7-2.1 1.3-.2 2.4-.2 3.1-.1.7 0 1.1.1 1.1.1s-.4-.1-1.1-.1c-.7-.1-1.8-.1-3.1 0-2.7.2-6.4.9-10.9 1.7-2.2.4-4.7.7-7.2 1.4-2.5.6-5.1 1.5-7.7 2.5-2.6.9-5.3 2.1-8 3.2-2.7 1.2-5.4 2.4-8 3.7-2.7 1.3-5.3 2.7-7.8 4.2-2.5 1.4-5.1 3.1-7.1 4.9-2.1 1.6-4.3 3.1-6.4 4.4-2.1 1.4-4.1 2.6-6 3.7-7.5 4.5-16.2 9.1-16.2 9.1l6.7-.2zm-7 .2c2.1-1.6 5.2-3.9 8.7-6.8 1.8-1.4 3.7-3 5.7-4.8 1.9-1.8 4-3.6 6.1-5.5 4.2-3.8 8.7-7.8 13.3-11.7 2.3-1.9 4.7-3.8 7-5.6 2.4-1.8 4.7-3.4 7.2-4.8s4.9-2.6 7.3-3.7c2.4-1.1 4.7-2.1 6.8-3 4.3-1.8 7.8-3.3 10.3-4.3 2.5-1.1 3.8-1.8 3.8-1.8s-1.4.6-4 1.5-6.2 2.1-10.6 3.6c-2.2.7-4.6 1.6-7.1 2.5-2.5.9-5.1 2-7.7 3.2-2.7 1.2-5.2 2.8-7.8 4.4-2.5 1.6-5.1 3.4-7.6 5.1-5 3.5-9.8 7.2-14.3 10.8-2.2 1.8-4.4 3.4-6.4 5-2 1.5-4 3-5.9 4.2-3.7 2.6-6.9 4.6-9.1 6.1-2.2 1.4-4.3 5.1-4.3 5.1l8.6.5z"/><path class="st1" d="M211 140.8s-.9.8 1.1-.9c2-1.8 4.8-4.3 8.1-7.4 1.7-1.6 3.4-3.3 5.3-5.1 1.9-1.9 3.7-3.8 5.7-5.7 4.1-3.9 8.6-7.9 13.1-11.9s9.1-8 13.3-11.7c2.1-1.9 4.2-3.6 6.3-5 2.1-1.5 4.2-2.7 6.2-3.8 4-2.2 7.6-3.5 10.2-4.2 1.3-.4 2.3-.6 3.1-.7.7-.1 1.1-.2 1.1-.2s-.4.1-1.1.2c-.7.1-1.8.3-3.1.6-2.7.6-6.4 1.7-10.6 3.7-2.1 1-4.3 2.1-6.6 3.5-2.2 1.3-4.6 3-6.8 4.7-4.5 3.5-9.3 7.2-14.1 10.9-4.8 3.7-9.5 7.5-13.9 11.1-2.2 1.8-4.3 3.8-6.1 5.4-1.9 1.7-3.8 3.3-5.5 4.7-3.5 2.9-6.4 5.2-8.5 6.8-2.1 1.6-4.8 4.3-4.8 4.3l7.6.7z"/><path class="st1" d="M201.3 140.9s3.1-3.1 10.1-9.9c3.5-3.4 7.6-7.4 11.9-11.7 2.2-2.1 4.4-4.4 6.6-6.7 2.2-2.3 4.5-4.7 6.7-7.1 2.2-2.4 4.4-4.8 6.6-7.1 2.2-2.3 4.5-4.5 6.9-6.2 2.5-1.6 5.2-2.9 7.7-4.2 2.6-1.2 5-2.3 7.3-3.1 2.3-.9 4.5-1.6 6.4-2.2 2-.5 3.7-1 5.1-1.2.7-.1 1.4-.2 2-.3.6-.1 1.1-.1 1.5-.1h-1.5c-.6 0-1.2.1-2 .2-1.5.2-3.2.5-5.2 1s-4.2 1.1-6.6 1.9c-2.4.8-4.9 1.7-7.6 2.8-2.6 1.1-5.4 2.3-8.1 3.9-2.7 1.7-5.1 3.8-7.5 6-2.4 2.2-4.7 4.5-7 6.8s-4.7 4.6-7 6.8-4.6 4.3-6.9 6.3c-4.6 4.1-8.8 7.9-12.5 11.1l-14.6 13h7.7z"/><path class="st1" d="M192 141.5s17.7-18.9 36.2-39.2c2.3-2.5 4.6-5.1 6.8-7.6 1.1-1.2 2.2-2.6 3.2-3.9 1-1.3 2.1-2.4 3.3-3.5 2.3-2.2 4.7-4.1 7.3-5.5 2.5-1.5 5.2-2.4 7.7-3.1 5.1-1.2 9.7-1 12.8-.6 3.2.4 4.9 1 4.9 1s-1.8-.6-4.9-1.2c-1.6-.3-3.5-.5-5.7-.5s-4.7.1-7.3.7c-2.6.5-5.4 1.5-8 2.8-2.7 1.4-5.3 3.2-7.7 5.3-1.2 1.1-2.4 2.3-3.5 3.5-1.1 1.3-2.1 2.5-3.3 3.7-2.3 2.4-4.7 4.9-7.1 7.3-19.3 19.4-40 39.9-40 39.9l5.3.9z"/><path class="st1" d="M185.2 142.1s1-3.3 7.1-10.4c3.1-3.6 6.6-7.7 10.5-12.2 3.8-4.5 7.9-9.2 11.9-14.1 2-2.5 3.8-5.1 5.7-7.5 1.8-2.5 3.6-4.9 5.4-7.3 1.8-2.3 3.6-4.5 5.4-6.5 1.8-2 3.6-3.8 5.6-5 2-1.2 4-2 5.9-2.5 1.9-.5 3.6-.8 5-1 2.8-.4 4.5-.3 4.5-.3s-1.7-.2-4.5 0c-1.4.1-3.2.3-5.1.8-1.9.5-4.1 1.1-6.2 2.3-2.1 1.2-4.1 2.9-6 4.8-1.9 1.9-3.8 4-5.8 6.3-1.9 2.2-3.9 4.6-5.8 7-2 2.4-3.9 4.9-6 7.1-4.2 4.6-8.5 9.2-12.6 13.4-4.1 4.3-7.8 8.2-11.1 11.6-6.5 6.8-11.3 13.3-11.3 13.3l7.4.2z"/><path class="st1" d="M174.9 142.3s2-2.8 7.6-10.7c5.6-7.8 13.2-18.2 21.1-28.2 2-2.5 4-5 6-7.4 1-1.2 2-2.4 3-3.5s2-2.2 3.1-3.3c4.2-4.3 7.9-8.6 11.6-11.5 1.9-1.5 3.8-2.5 5.7-3.1 1.9-.7 3.6-.9 5-1.2 1.4-.2 2.6-.3 3.4-.3.8 0 1.2-.1 1.2-.1h-1.2c-.8 0-1.9 0-3.4.1s-3.2.3-5.2.9c-2 .5-4 1.5-6.1 2.9-2 1.4-4 3.1-6.1 5-2 1.9-4.2 3.8-6.4 5.9-1.1 1-2.2 2.1-3.3 3.2-1.1 1.1-2.2 2.2-3.3 3.4-2.2 2.3-4.3 4.7-6.5 7.1-8.5 9.6-16.7 19.5-22.8 27-6.1 7.5-12.2 14.9-12.2 14.9l8.8-1.1z"/><path class="st1" d="M165.2 144.3s2.5-4.5 7.2-12.4c4.7-7.8 11-18.3 17.5-28.6 1.6-2.6 3.2-5.2 4.9-7.6 1.7-2.4 3.5-4.7 5.4-6.8 1.9-2.1 3.8-4 5.9-5.5 2-1.6 4.2-2.9 6.2-3.9 4.1-2 7.9-3 10.6-3.5 2.7-.5 4.3-.6 4.3-.6s-1.6 0-4.4.3c-1.4.2-3 .5-4.9.9-1.8.5-3.9 1.1-6.1 2-2.2.9-4.4 2.1-6.6 3.6-2.2 1.5-4.4 3.3-6.4 5.3s-4 4.3-5.9 6.6c-1.9 2.4-3.6 4.9-5.4 7.4-7.1 9.9-13.9 20-19.1 27.5-5.2 7.5-10.3 15.1-10.3 15.1l7.1.2zm-9.5.4s1.3-2.7 5.3-10.9 9.4-19 15-29.7c1.4-2.7 2.8-5.3 4.3-7.9 1.4-2.6 2.9-5.1 4.4-7.5 1.5-2.3 3.1-4.6 4.6-6.6 1.5-2.1 3-4 4.6-5.6 1.5-1.6 3.1-2.9 4.7-3.8 1.5-.9 3.1-1.5 4.4-1.7.7-.2 1.3-.2 1.8-.3.5-.1 1-.1 1.4-.1h1.1s-.4 0-1.1-.1c-.4 0-.8-.1-1.4 0-.5 0-1.2 0-1.8.1-1.4.2-3 .6-4.7 1.4-1.7.8-3.4 2.1-5.1 3.6-1.7 1.5-3.4 3.3-5.1 5.3-1.7 2-3.5 4-5.2 6.3-1.8 2.3-3.4 4.7-5 7.2s-3.3 5-4.9 7.6c-6.4 10.2-12.6 20.6-17.3 28.4-4.6 7.8-8 15.1-8 15.1l8-.8z"/><path class="st1" d="M145.2 146.9s9.9-21.6 20.7-44.3c1.4-2.8 2.7-5.7 4-8.5 1.3-2.8 2.6-5.5 4-8 2.8-5.1 5.9-9.6 9.5-12.4 1.8-1.4 3.7-2.5 5.4-3.2 1.7-.8 3.4-1.3 4.7-1.6 2.7-.6 4.4-.6 4.4-.6s-1.7-.2-4.5.3c-2.8.4-6.8 1.5-10.8 4.2-4 2.7-7.6 7.1-10.8 12-1.6 2.5-3.2 5.1-4.7 7.8s-3.1 5.4-4.7 8.1c-12.5 21.7-26.7 48-26.7 48l9.5-1.8z"/><path class="st1" d="M135.9 148.6s9.6-22.9 20.9-48.7c.7-1.6 1.4-3.3 2.1-4.8.8-1.5 1.6-3.1 2.4-4.6 1.6-3 3.3-5.9 5-8.7 1.7-2.8 3.4-5.4 5.2-7.8 1.8-2.3 3.6-4.6 5.7-5.9 2.2-1.3 4.5-2.2 6.6-2.7 2.1-.5 4-.7 5.6-.8 1.6-.1 2.9 0 3.7 0 .9 0 1.3.1 1.3.1s-.5-.1-1.3-.2c-.9-.1-2.1-.2-3.7-.3-1.6 0-3.6 0-5.8.4-2.2.4-4.6 1.2-7 2.4-2.4 1.4-4.4 3.5-6.4 5.8s-3.9 4.9-5.8 7.5c-1.9 2.7-3.8 5.5-5.6 8.5l-2.7 4.5c-.9 1.6-1.6 3.1-2.5 4.7-12.8 24.9-28.5 53.3-28.5 53.3l10.8-2.7z"/><path class="st1" d="M126.3 151.2s2.7-3.6 7.1-13.9c4.3-10.3 10.1-24 15.8-37.9.7-1.7 1.4-3.5 2.1-5.2.7-1.8 1.2-3.5 1.9-5.2 1.3-3.3 2.8-6.6 4.5-9.5 1.7-2.9 3.6-5.6 5.7-7.9 2.1-2.3 4.4-4.1 6.8-5.3 1.2-.6 2.5-1 3.7-1.4 1.2-.4 2.4-.8 3.5-1.1 2.2-.6 4.2-1.1 5.8-1.4 3.3-.6 5.2-.7 5.2-.7s-2-.1-5.3.3c-1.7.2-3.7.5-6 1-1.1.2-2.3.5-3.6.9-1.3.3-2.6.6-3.9 1.2-2.7 1-5.3 2.8-7.7 5.1-2.4 2.2-4.5 4.9-6.5 7.8-2 2.9-3.8 6.1-5.4 9.4-.8 1.7-1.5 3.5-2.3 5.1-.8 1.7-1.6 3.3-2.4 5-6.6 13.3-13.3 26.5-18.4 36.4-5.1 9.9-10.6 20.4-10.6 20.4l10-3.1z"/><path class="st1" d="M116.9 154.8s3-5 6.4-15.8c1.7-5.4 3.7-11.7 5.9-18.4 1.1-3.4 2.2-6.8 3.3-10.4 1.1-3.5 2.2-7.2 3.4-10.6 1.2-3.4 2.7-6.9 4.3-10.1 1.5-3.3 3.2-6.5 4.8-9.5 1.7-3 3.4-5.9 5.2-8.5.9-1.3 1.9-2.5 2.8-3.5 1-1 2.2-1.8 3.3-2.5 2.4-1.4 4.7-2.4 6.8-3.3 2.1-.9 4-1.5 5.6-2 1.6-.5 2.8-.8 3.7-1.1.9-.2 1.3-.3 1.3-.3s-.5 0-1.4.2c-.9.1-2.2.4-3.8.8-1.6.4-3.6.9-5.8 1.6-2.2.7-4.7 1.6-7.3 2.8-1.3.7-2.6 1.4-3.8 2.4-1.2 1-2.2 2.2-3.3 3.4-2.1 2.5-4.1 5.2-6 8.2-1.9 2.9-3.8 6-5.6 9.3-1.8 3.2-3.6 6.5-5.2 10-1.6 3.6-2.9 7-4.3 10.4-1.4 3.4-2.8 6.8-4.1 10-2.6 6.5-5.1 12.6-7.2 17.8-4.2 10.4-7.8 20.4-7.8 20.4l8.8-1.3z"/><path class="st1" d="M108.3 157.5s3-3.8 5.5-12.5 5.9-20.2 9.3-31.7c.9-2.9 1.8-5.7 2.6-8.6.9-2.8 1.8-5.5 2.9-8 2.1-5.1 4.4-9.7 6.8-13.4 1.2-1.9 2.4-3.5 3.5-4.8.6-.7 1.2-1.3 1.7-1.9.6-.5 1.1-1 1.5-1.5 1-.8 1.8-1.4 2.4-1.8l.9-.6s-.3.2-1 .5c-.6.3-1.5.8-2.6 1.6-.5.4-1.1.8-1.7 1.3-.6.5-1.2 1.1-1.9 1.7-1.3 1.3-2.7 2.8-4 4.6-2.8 3.5-5.5 8-8.1 13-1.3 2.5-2.5 5.2-3.7 7.9-1.1 2.7-2.2 5.5-3.4 8.3-4.5 11.1-8.8 22.2-12.1 30.6-3.3 8.4-6.3 17.5-6.3 17.5l7.7-2.2z"/><path class="st1" d="M100.8 159.7s1.3-2.7 3.2-11.7c2-8.9 4.6-20.9 7.6-32.7.8-2.9 1.5-5.9 2.4-8.7.8-2.9 1.7-5.6 2.7-8.2 2.1-5.3 4-10.2 6.2-14 1.1-1.9 2.4-3.5 3.6-4.8 1.2-1.3 2.5-2.3 3.5-3 1.1-.7 2-1.3 2.6-1.6.6-.3.9-.5.9-.5s-.3.2-1 .4c-.7.3-1.6.7-2.8 1.4-1.1.7-2.5 1.5-3.9 2.7-1.4 1.2-2.8 2.7-4.2 4.6-2.7 3.7-5.1 8.5-7.7 13.5-1.3 2.6-2.5 5.3-3.5 8.1-1.1 2.8-2.1 5.6-3.2 8.5-4.1 11.5-7.8 23-10.6 31.7-2.7 8.7-5.8 18.5-5.8 18.5l10-4.2z"/><path class="st1" d="M93.9 163s.5-3.4 2-12.9 3.6-22.2 6-34.7c.6-3.1 1.2-6.3 1.9-9.3.4-1.5.7-3 1.1-4.4.4-1.4.9-2.9 1.4-4.3 1.9-5.6 3.8-10.7 6-14.9 1.1-2.1 2.1-3.9 3.2-5.5 1-1.6 2.1-2.8 3-3.9.9-1 1.7-1.8 2.2-2.2.6-.5.8-.7.8-.7s-.3.2-.9.7c-.6.4-1.4 1.1-2.5 2-1 .9-2.2 2.1-3.4 3.6-1.2 1.5-2.5 3.3-3.7 5.3-2.5 4-5 9-7.3 14.4-.6 1.4-1.2 2.7-1.8 4.2-.6 1.5-1.1 3-1.6 4.5-1 3-1.8 6.1-2.7 9.1-3.5 12.3-6.6 24.7-8.9 33.9-2.3 9.3-3.1 18.5-3.1 18.5l8.3-3.4z"/><path class="st1" d="M86.6 165.9s-.4-2.5.6-11.4 2.5-20.7 4.3-32.4c.5-2.9.9-5.9 1.5-8.7.3-1.4.5-2.8.8-4.2.3-1.4.6-2.8.9-4.1.3-1.3.6-2.6 1.1-3.8.4-1.2.9-2.4 1.3-3.6.9-2.3 1.8-4.5 2.6-6.6.8-2 1.6-3.9 2.4-5.4.8-1.6 1.6-2.9 2.4-3.9.7-1 1.4-1.8 1.9-2.3.5-.5.7-.8.7-.8s-.3.2-.8.7c-.5.5-1.2 1.1-2.1 2.1-.8.9-1.8 2.2-2.7 3.7-.9 1.5-1.9 3.3-2.9 5.2-1 2-2 4.1-3.2 6.3-1.1 2.2-2.3 4.8-3.1 7.4-.5 1.3-.9 2.7-1.3 4l-1.2 4.2c-.8 2.8-1.5 5.7-2.2 8.6-2.8 11.5-5.3 23.2-7 31.9-1.8 8.7-3.9 18.2-3.9 18.2l9.9-5.1z"/><path class="st1" d="M96.7 80.8s-.3.3-.8.7c-.5.5-1.2 1.2-1.9 2.3-1.6 2-3.6 5.2-5.6 9.2-1 2-2 4.2-3 6.6-.5 1.2-1 2.4-1.4 3.7-.4 1.3-.9 2.5-1.3 3.9-.8 2.8-1.6 5.6-2.3 8.5-.7 2.9-1.4 5.8-2.1 8.8-2.7 11.8-5 23.7-6.6 32.6-1.6 9-2.4 18.4-2.4 18.4l8.3-4.9s.7-2.7 1.5-11.8c.9-9.1 2.1-21.2 3.6-33.2.4-3 .8-6 1.3-8.9.5-2.9.9-5.8 1.5-8.5.2-1.4.6-2.7.9-4 .3-1.3.7-2.5 1.1-3.8.8-2.4 1.5-4.7 2.3-6.8 1.6-4.1 3.2-7.4 4.6-9.6.7-1.1 1.3-1.9 1.7-2.4.4-.5.6-.8.6-.8z"/><path class="st1" d="M70.1 176.4s1-4.8 1.2-14.5c.2-9.8.5-22.8 1-35.7.1-3.2.3-6.5.4-9.7.2-3.2.3-6.3.6-9.2.4-3 .6-6 1.1-8.6.5-2.6 1.4-4.9 2.5-7 1-2.1 2.2-3.9 3.2-5.5s2-2.9 2.8-4c1.6-2.2 2.5-3.5 2.5-3.5s-1 1.2-2.8 3.2c-.9 1-2 2.3-3.2 3.8-1.2 1.5-2.5 3.2-3.8 5.2-1.3 2-2.5 4.4-3.3 7.1-.8 2.7-1.2 5.6-1.9 8.5-.6 3.1-1 6.1-1.5 9.3l-1.2 9.6c-1.6 12.8-3 25.6-4.1 35.3-1 9.6-2 20.2-2 20.2l8.5-4.5z"/><path class="st1" d="M62.4 181.4s.8-5.4.6-14.7c-.2-9.4-.4-21.8-.3-34.3 0-3.1.1-6.2.2-9.3.1-3 .2-6 .5-8.9.5-5.7 1.3-11 2.4-15.4 1.1-4.4 2.4-7.9 3.6-10.2.6-1.2 1.1-2 1.5-2.6l.6-.9s-.2.3-.7.8c-.4.6-1 1.4-1.7 2.5-1.4 2.2-3.1 5.6-4.6 10-1.5 4.3-2.7 9.6-3.7 15.3-.5 2.8-.9 5.9-1.3 8.9-.3 3-.7 6.1-.9 9.2-1.1 12.4-1.9 24.7-2.5 34-.5 9.3-.7 20.4-.7 20.4l7-4.8z"/><path class="st1" d="M58.3 184.2s.5-2.5-.1-12c-.6-9.4-1.5-22-2.1-34.6-.2-3.1-.3-6.3-.4-9.3v-2.2c0-.8.1-1.5.1-2.2.1-1.5.2-2.9.3-4.4.4-5.8 1.1-11.1 1.8-15.7.3-2.3.7-4.3 1.1-6.2.4-1.8.8-3.4 1.2-4.7.4-1.3.7-2.3 1-2.9.3-.7.4-1 .4-1s-.2.3-.5 1c-.4.6-.8 1.6-1.3 2.8-.5 1.2-1.1 2.7-1.7 4.5-.6 1.8-1.2 3.8-1.8 6-1.2 4.4-2.4 9.7-3.5 15.4-.3 1.4-.5 2.9-.8 4.4-.1.7-.2 1.5-.3 2.2-.1.8-.2 1.6-.2 2.4l-.6 9.3c-.6 12.5-1.1 25-1.5 34.3-.3 9.4 1.5 19.3 1.5 19.3l7.4-6.4zm291.4-26.9s-1.6-.7-4-1.5-5.7-1.8-9-2.5c-3.3-.8-6.7-1.4-9.2-1.9-2.5-.4-15.7-3.5-15.7-3.5l.9 2.7s12.3 3.5 14.7 3.6c2.5.1 5.8.4 9.1.7 3.3.4 6.6.9 9.1 1.4 2.5.5 4.1 1 4.1 1zm-53.6-10.1l50.3 25-39.9-23.4zm-9.2-1.3s5.6 3.9 10.3 6.2c4.8 2.4 11.1 5.7 17.4 9.1 3.1 1.7 6.3 3.4 9.2 5.1 2.9 1.7 5.6 3.3 7.9 4.7 1.1.7 2.2 1.4 3.1 1.9.9.6 1.7 1.1 2.4 1.5 1.3.9 2.1 1.4 2.1 1.4s-.7-.5-2-1.5c-.6-.5-1.4-1.1-2.3-1.7-.9-.6-1.9-1.4-3-2.2-2.2-1.6-4.8-3.4-7.6-5.2-2.8-1.9-5.8-3.8-8.9-5.8-6.1-3.9-12.2-7.6-16.8-10.4-4.6-2.7-7.3-3.2-7.3-3.2l-4.5.1z"/><path class="st1" d="M275.9 145.3s15.8 6.6 26.8 12.2c5.5 2.8 11 5.8 14.9 8.2 1 .6 1.9 1.2 2.7 1.7.8.5 1.5.9 2 1.4 1.1.8 1.8 1.2 1.8 1.2s-.6-.5-1.7-1.4c-.5-.4-1.2-.9-2-1.5s-1.6-1.2-2.6-1.9c-3.8-2.7-9.1-6.1-14.4-9.3-10.7-6.5-22-11.5-22-11.5l-5.5.9zm-12.1-2.2s18.7 9.2 33.4 17.1c7.4 3.9 14.7 8 20 11.3 1.3.8 2.6 1.6 3.6 2.3 1.1.7 2 1.3 2.8 1.8 1.5 1.1 2.4 1.7 2.4 1.7s-.8-.6-2.3-1.8c-.7-.6-1.6-1.2-2.7-2-1-.8-2.2-1.6-3.5-2.5-5.2-3.5-12.4-8-19.6-12.3-14.4-8.6-26.6-15.3-26.6-15.3l-7.5-.3zm-11.5-1.1l76.7 41.5-67-40.6zm-22.1-1.5s26.7 14.5 48.4 27.3c5.4 3.2 10.8 6.4 15.8 9.5 2.5 1.6 4.9 3.1 7.2 4.5 2.3 1.5 4.4 2.8 6.4 4.1 2 1.3 3.8 2.5 5.3 3.6 1.6 1.1 2.9 2.1 4 2.9 1.1.8 1.9 1.6 2.5 2 .6.5.9.7.9.7l-.8-.8c-.6-.5-1.3-1.2-2.4-2.1-1.1-.9-2.4-1.9-3.9-3.1-1.5-1.1-3.3-2.4-5.2-3.9-1.9-1.4-4-2.9-6.2-4.4-2.2-1.5-4.6-3.2-7-4.8-4.9-3.3-10.2-6.8-15.4-10.3-21.1-13.8-41-24.8-41-24.8l-8.6-.4z"/><path class="st1" d="M223.2 140.3s25.6 13.9 46.7 26.2c10.6 6.1 21.1 12.5 28.8 17.4 2 1.2 3.7 2.4 5.3 3.4 1.6 1 2.9 1.9 4 2.7 2.2 1.5 3.5 2.4 3.5 2.4s-1.2-.9-3.4-2.5c-1.1-.8-2.4-1.8-3.9-2.9-1.5-1.1-3.2-2.4-5.1-3.7-7.5-5.3-17.7-12.2-28.1-18.8-20.6-13.4-38.9-24.4-38.9-24.4l-8.9.2zm-9.4.7s7.8 3.5 15.6 7.5c3.9 2 8.4 4.3 13.2 6.9 2.4 1.3 4.9 2.6 7.4 4s5.1 2.8 7.6 4.3c2.5 1.4 5 2.9 7.5 4.4 2.5 1.5 4.8 3 7.2 4.5 2.3 1.4 4.5 3 6.6 4.4 2.1 1.4 4 2.9 5.8 4.1 1.8 1.3 3.3 2.6 4.7 3.7.7.6 1.3 1.1 2 1.6.6.5 1.1 1 1.6 1.4 1.9 1.7 3 2.7 3 2.7l-2.9-2.9-1.5-1.5c-.6-.5-1.2-1.1-1.9-1.7-1.4-1.2-2.8-2.6-4.6-3.9-1.7-1.4-3.6-2.9-5.6-4.4-2-1.5-4.1-3.2-6.4-4.7-2.3-1.6-4.6-3.2-7-4.8-2.4-1.6-4.9-3.2-7.3-4.8-2.5-1.6-5-3.1-7.4-4.7-2.5-1.5-4.9-3-7.3-4.4-4.7-2.8-9.2-5.4-13-7.5-7.7-4.3-9.3-5-9.3-5l-8 .8z"/><path class="st1" d="M205 141.1s8.7 4.2 16.8 8.6c8.1 4.4 18.9 10.4 29.5 16.7 2.7 1.6 5.3 3.2 7.9 4.8 2.6 1.6 5.1 3.2 7.6 4.7s4.8 3.1 7 4.6c2.2 1.5 4.3 2.9 6.2 4.3.9.7 1.9 1.3 2.7 1.9.8.6 1.6 1.3 2.4 1.8 1.5 1.2 2.8 2.1 3.8 3 2.1 1.8 3.3 2.8 3.3 2.8s-1.1-1.1-3.1-2.9c-1-1-2.2-2-3.7-3.2-.7-.6-1.5-1.3-2.3-2-.8-.7-1.7-1.4-2.6-2.1-1.8-1.5-3.8-3-6-4.6-2.1-1.6-4.4-3.3-6.8-5-2.4-1.7-4.8-3.4-7.4-5.2-2.5-1.8-5.1-3.5-7.7-5.2-10.3-6.9-20.9-13.5-28.8-18.3-7.9-4.9-9.5-5.8-9.5-5.8l-9.3 1.1z"/><path class="st1" d="M193.8 140.7s9.7 4.6 19.2 9.5c2.3 1.2 4.9 2.6 7.6 4 2.7 1.4 5.5 2.9 8.4 4.6 2.9 1.6 5.9 3.3 8.9 5 3 1.7 6.1 3.5 9.1 5.3 3.1 1.8 6.1 3.7 9 5.5 3 1.8 5.8 3.8 8.6 5.6 2.8 1.8 5.4 3.7 7.9 5.4 2.5 1.8 4.8 3.5 6.9 5.1 2.1 1.6 4 3.2 5.7 4.6 1.7 1.3 3.1 2.6 4.3 3.7 2.3 2.1 3.6 3.3 3.6 3.3s-1.3-1.2-3.5-3.4c-1.1-1.1-2.5-2.4-4.1-3.8-1.7-1.4-3.5-3.1-5.6-4.8-2.1-1.7-4.4-3.5-6.8-5.4-2.5-1.8-5-3.8-7.8-5.7-2.7-1.9-5.5-4-8.5-5.9-2.9-1.9-5.9-4-8.9-5.9-3-1.9-6-3.9-9-5.7-3-1.9-5.9-3.6-8.8-5.4-2.9-1.7-5.7-3.3-8.3-4.9-2.7-1.5-5.2-2.9-7.5-4.3-9.3-5.2-12.5-6.8-12.5-6.8l-7.9.4z"/><path class="st1" d="M185.8 141.5s10.3 4.7 19.5 9.7c4.6 2.5 10 5.4 15.6 8.7 2.8 1.6 5.7 3.4 8.7 5.2 1.5.9 2.9 1.8 4.4 2.8 1.5.9 2.9 1.9 4.4 2.9 2.9 1.9 5.7 4.1 8.5 6.1s5.7 4 8.4 5.8c5.5 3.7 10.8 6.9 15.3 9.6 9.1 5.4 15.3 8.6 15.3 8.6s-6.1-3.5-14.9-9.3c-4.4-2.9-9.5-6.3-14.8-10.2-2.7-2-5.4-4-8.1-6.1-2.7-2.1-5.5-4.4-8.3-6.5-1.4-1.1-2.9-2.1-4.3-3.1s-2.9-2-4.3-3c-2.9-2-5.7-3.8-8.5-5.6-5.6-3.6-10.9-6.8-15.4-9.5-9.1-5.4-11.6-6.7-11.6-6.7l-9.9.6z"/><path class="st1" d="M178.3 142.5s9.1 4.1 18.6 9.1c4.7 2.5 10.2 5.5 16.1 8.7 2.9 1.7 5.9 3.4 8.9 5.2 3 1.8 6.1 3.7 9 5.7 6 4 11.8 8.2 17.2 12.2 2.7 2 5.3 4 7.8 5.8 2.5 1.8 4.8 3.6 7.1 5.1 4.6 2.8 8.6 5 11.3 6.5 2.8 1.5 4.3 2.3 4.3 2.3s-1.6-.9-4.3-2.5c-2.7-1.6-6.6-3.9-11.1-6.9-2.2-1.5-4.5-3.4-6.9-5.3-2.4-1.9-5-4-7.6-6.1-5.3-4.2-11-8.7-16.9-12.9-3-2.1-5.9-4.2-8.9-6.1-3-2-5.9-3.8-8.8-5.6-5.8-3.5-11.2-6.7-15.9-9.4-9.4-5.4-12.6-7-12.6-7l-7.3 1.2z"/><path class="st1" d="M169.4 143.5s8 3.4 15.3 7.1c7.2 3.6 16.9 8.6 26.4 13.7 2.4 1.3 4.8 2.6 7.1 3.8 2.3 1.3 4.6 2.6 6.8 3.8 4.4 2.5 8.5 4.9 12 7 1.8 1 3.3 2 4.7 2.9 1.4.9 2.6 1.6 3.6 2.3 2 1.3 3.1 2 3.1 2s-1.1-.8-3-2.2c-1-.7-2.1-1.6-3.5-2.5-1.4-.9-2.9-2-4.6-3.2-3.4-2.3-7.4-4.9-11.7-7.7-2.2-1.4-4.4-2.8-6.7-4.2-2.3-1.4-4.6-2.8-6.9-4.3-9.3-5.7-18.7-11.2-25.8-15.2-7.1-4.1-9.3-5.5-9.3-5.5l-7.5 2.2z"/><path class="st1" d="M160.5 144.3s8.6 4.9 18.5 9.7c4.9 2.4 10.7 5.2 16.9 8.3 6.1 3.1 12.7 6.4 19.1 10 3.2 1.8 6.4 3.6 9.3 5.6 3 2 5.9 4.1 8.7 6.2 5.5 4.2 10.6 8.2 15.1 11.5 2.2 1.7 4.3 3.1 6.2 4.3 1.9 1.2 3.6 2.2 5.1 2.9.7.4 1.4.6 2 .8.6.2 1.1.4 1.5.4.8.1 1.3.2 1.3.2s-.4-.1-1.3-.3c-.4-.1-.9-.3-1.5-.5s-1.2-.5-1.9-.9c-1.4-.7-3.1-1.8-4.9-3.1-1.8-1.3-3.8-2.9-6-4.6-4.3-3.5-9.2-7.8-14.5-12.2-2.7-2.2-5.5-4.5-8.5-6.7s-6.1-4.2-9.3-6.2c-6.3-3.9-12.7-7.6-18.8-11-6-3.4-11.7-6.5-16.5-9.2-9.7-5.3-12.7-6.6-12.7-6.6l-7.8 1.4z"/><path class="st1" d="M153.6 145.4s7.4 4.9 15.5 8.9c8.1 4.1 18.9 9.5 29.5 15.1 2.7 1.4 5.3 2.8 7.9 4.3 1.3.7 2.5 1.5 3.8 2.2l3.6 2.4c4.7 3.2 9 6.3 12.7 9 3.7 2.7 6.8 4.9 8.9 6.5 2.2 1.6 3.4 2.4 3.4 2.4s-1.2-.9-3.3-2.6c-2.1-1.7-5-4.1-8.6-7-3.5-2.9-7.7-6.3-12.3-9.7-1.2-.9-2.3-1.7-3.5-2.6-1.2-.9-2.5-1.7-3.7-2.5-2.5-1.6-5.1-3.2-7.7-4.8-10.4-6.3-20.9-12.4-28.8-16.9-7.9-4.5-10.5-5.8-10.5-5.8l-6.9 1.1z"/><path class="st1" d="M145.2 146.9s7.3 4 15.6 8.2c4.2 2.1 9 4.6 14.2 7.4 2.6 1.4 5.2 2.9 7.9 4.4 2.7 1.5 5.4 3.1 8 4.8 2.6 1.6 5.3 3.4 7.8 5.1 2.5 1.7 5 3.5 7.4 5.2 4.8 3.5 9.1 6.9 12.9 9.7 1.9 1.4 3.7 2.7 5.3 3.8 1.6 1.1 3 2 4.3 2.6l1.6.8c.5.2.9.4 1.2.5.7.2 1.1.4 1.1.4s-.4-.1-1-.4c-.3-.1-.8-.3-1.2-.6-.5-.2-1-.5-1.6-.9-1.2-.7-2.6-1.6-4.1-2.8-1.5-1.1-3.2-2.5-5.1-4-3.6-3-7.8-6.6-12.5-10.4-2.3-1.9-4.7-3.8-7.2-5.7-2.5-1.9-5-3.7-7.7-5.6-2.6-1.8-5.2-3.6-7.9-5.3-2.6-1.7-5.2-3.3-7.7-4.9-5.1-3.1-9.8-5.9-13.9-8.2-8.2-4.7-10.8-6-10.8-6l-6.6 1.9z"/><path class="st1" d="M135.1 149.4s3.6 1.8 4.1 1.9c.5.1 1.3.3 2.4.6 1 .3 2.3.7 3.8 1.1 1.5.5 3.1 1 4.9 1.7.9.3 1.8.7 2.8 1.1l3 1.2c2 .8 4.2 1.9 6.4 2.9 2.2 1.1 4.5 2.2 6.7 3.4 2.3 1.2 4.6 2.4 6.9 3.7 2.3 1.3 4.6 2.6 6.8 3.9 2.2 1.4 4.4 2.6 6.5 4 2.1 1.4 4.1 2.7 6 3.9 1.9 1.3 3.6 2.5 5.3 3.6 1.6 1.1 3.1 2.2 4.4 3.1 1.3 1 2.4 1.8 3.4 2.5 1.9 1.4 2.9 2.2 2.9 2.2s-1-.9-2.8-2.4c-.9-.8-2-1.7-3.2-2.7-1.2-1.1-2.6-2.2-4.2-3.4-1.6-1.2-3.3-2.6-5-4-1.8-1.4-3.8-2.8-5.7-4.3-2-1.5-4.1-3-6.2-4.5-2.1-1.5-4.4-3-6.6-4.5-2.2-1.5-4.5-2.9-6.7-4.3s-4.5-2.6-6.6-3.9c-2.2-1.2-4.3-2.4-6.4-3.4l-3-1.5c-1-.5-1.9-.9-2.8-1.3-1.8-.9-3.5-1.6-5-2.2-1.5-.6-2.9-1.1-4-1.5 0 0 .7.2 0 0-.6-.2 0 0 0 0l-8.1 3.1z"/><path class="st1" d="M127.4 150.9s2.4 2 3 2.1c.5.1 2.3.8 3.4 1 2 .5 5 1.2 8.4 2.4 1.7.6 3.6 1.3 5.5 2.1s3.9 1.8 6 2.9c1 .6 2 1.1 3 1.8l1.5.9c.5.3 1 .7 1.5 1 2 1.4 4.1 3 6.2 4.5 8.5 5.9 17.5 11.1 24.4 14.4 1.7.8 3.3 1.6 4.8 2.1 1.4.6 2.7 1.1 3.8 1.4 1.1.3 1.9.6 2.5.7.6.1.9.2.9.2l-.9-.3c-.6-.2-1.4-.5-2.4-.9s-2.2-1-3.6-1.7-2.9-1.5-4.6-2.5c-6.6-3.9-15-9.7-22.9-16.2-2-1.6-3.8-3.3-5.8-5-.5-.4-1-.8-1.5-1.3-.5-.4-1-.8-1.6-1.2-1-.8-2.1-1.5-3.1-2.2-2.1-1.4-4.2-2.6-6.2-3.6s-4-2-5.8-2.7c-3.6-1.6-6.7-2.6-8.9-3.3-1.1-.3.6.2 0 0l-7.6 3.4zm-8.7 3.4s3 2.1 4.9 2.7c1.9.6 4.7 1.5 8 2.6s7.1 2.5 11.2 4.1c2 .8 4.1 1.7 6.2 2.6 2.1 1 4.2 2 6.2 3.1s4.1 2.4 6 3.6c2 1.3 3.9 2.5 5.7 3.8 3.7 2.5 7.2 4.9 10.4 6.6 1.6.9 3.1 1.6 4.4 2.2 1.3.6 2.5 1.1 3.5 1.4 1 .4 1.7.6 2.3.8.5.2.8.3.8.3s-.3-.1-.8-.3c-.5-.2-1.3-.5-2.2-.9-.9-.4-2.1-1-3.3-1.6-1.3-.7-2.7-1.5-4.2-2.5-3-1.9-6.3-4.5-9.8-7.3-1.8-1.4-3.6-2.8-5.5-4.2-2-1.4-3.8-2.8-5.9-4.1-2-1.3-4.2-2.5-6.2-3.7-2.1-1.1-4.2-2.2-6.2-3.2-4-2-7.9-3.7-11.2-5.1-3.3-1.4-6.1-2.5-8-3.3l-6.3 2.4z"/><path class="st1" d="M112 155.6s-3.4-2.7 0 0c.4.1 4.5 2.9 5.4 3.1 1.7.3 4.2.9 7.1 1.7 1.5.4 3 .9 4.7 1.5 1.7.6 3.4 1.2 5.2 2 1.8.7 3.6 1.6 5.4 2.5.9.4 1.8.9 2.7 1.5.9.5 1.8 1 2.7 1.6 3.5 2.2 6.8 4.9 10.1 7.2 3.3 2.4 6.5 4.3 9.4 5.7 2.8 1.4 5.2 2.6 6.9 3.3 1.7.7 2.7 1.2 2.7 1.2s-.9-.5-2.6-1.4c-1.6-.9-3.9-2.2-6.7-3.8-2.7-1.7-5.7-3.8-8.8-6.3-3-2.5-6.1-5.6-9.7-8.1-.9-.6-1.8-1.3-2.7-1.9-.9-.6-1.8-1.2-2.7-1.7-1.8-1.1-3.7-2.2-5.5-3.1-1.8-.9-3.6-1.8-5.3-2.5-1.7-.7-3.3-1.4-4.8-2-3-1.1-5.6-1.9-7.4-2.4 0 0 .5.1 0 0l-6.1 1.9z"/><path class="st1" d="M105.1 158.5s2.5 1.7 4 2.2c1.6.5 3.8 1.2 6.5 2.1 2.7.9 5.8 2 9.1 3.3 1.7.6 3.3 1.3 5 2.1.8.4 1.7.8 2.5 1.2.9.4 1.7.9 2.5 1.3 3.2 1.9 6.4 4.2 9.6 6.1 1.6.9 3.1 1.8 4.7 2.5 1.5.7 3 1.4 4.3 1.9 1.4.5 2.6.9 3.7 1.3 1.1.3 2.1.6 2.9.8 1.6.4 2.5.6 2.5.6s-.9-.3-2.5-.9c-.8-.3-1.7-.7-2.8-1.1-1.1-.5-2.3-1-3.6-1.6-1.3-.6-2.7-1.4-4.1-2.2-1.4-.8-2.9-1.8-4.3-2.9-2.9-2.1-5.8-4.7-9.2-7-.8-.6-1.7-1.1-2.5-1.6-.9-.5-1.7-1-2.6-1.5-1.7-1-3.4-1.8-5-2.7-3.3-1.6-6.4-3-9.1-4.2-2.7-1.2-4.9-2.1-6.5-2.7-1.6-.6 0 0 0 0l-5.1 3zm-9.4 3.3s-2-1.8 0 0c.1 0-.1 0 0 0 .4 0 3.5 1.9 4.3 2 1.6.2 3.9.5 6.7 1.2 2.8.7 6 1.7 9.4 3.1.9.3 1.7.7 2.6 1.1.8.3 1.7.8 2.6 1.2.9.4 1.7.9 2.6 1.3.8.5 1.7 1 2.6 1.5 3.4 2.1 6.7 4.5 10 6.5 1.7 1 3.3 1.8 4.9 2.6.8.3 1.6.7 2.4 1 .8.3 1.5.5 2.2.8 1.4.4 2.8.9 3.9 1.1 1.2.3 2.2.5 3.1.7 1.7.3 2.7.5 2.7.5s-1-.3-2.6-.7c-.8-.2-1.8-.6-3-.9-1.2-.3-2.4-.9-3.8-1.4l-2.1-.9c-.7-.4-1.5-.7-2.2-1.1-1.5-.8-3-1.8-4.6-2.9-3.1-2.1-6.1-4.8-9.5-7.2-.8-.6-1.7-1.2-2.5-1.8-.9-.6-1.8-1.2-2.6-1.7-.9-.5-1.7-1-2.6-1.5-.9-.5-1.7-.9-2.6-1.4-3.5-1.7-6.8-3.1-9.8-4.1-2.9-1-5.5-1.6-7.3-1.9-.9-.2.5.1 0 0-.3 0 .6.1 0 0-.1 0 0 0 0 0l-4.8 2.9zm-8.4 3.3s3.7 2 5 2.3c1.3.3 3.2.7 5.5 1.3 2.3.6 4.9 1.3 7.7 2.2 2.8.9 5.8 1.8 8.8 2.9 3 1.1 6 2.2 8.7 3.4 1.4.6 2.7 1.1 4 1.7 1.2.6 2.4 1.1 3.5 1.7 1.1.5 2.1 1 2.9 1.5.9.5 1.6.9 2.2 1.2 1.2.7 1.9 1.1 1.9 1.1s-.7-.5-1.8-1.3c-.6-.4-1.3-.9-2.1-1.5-.8-.5-1.8-1.2-2.8-1.8-1-.7-2.2-1.4-3.3-2.1-1.2-.7-2.5-1.5-3.8-2.2-2.7-1.5-5.5-3-8.5-4.5-2.9-1.5-5.9-2.8-8.7-4-2.8-1.2-5.4-2.3-7.7-3.2-2.3-.9-4.2-1.6-5.5-2.1-1.4-.5 0 0 0 0l-6 3.4z"/><path class="st1" d="M83.6 167.5s1.6 1.5 1.9 1.8c.3.3.7.6 1.3 1.1 1.1.9 2.6 2.1 4.6 3.5 1.9 1.4 4.2 3 6.6 4.6 1.3.8 2.5 1.6 3.8 2.4 1.3.8 2.7 1.6 4 2.3 1.4.8 2.7 1.5 4.1 2.1 1.4.7 2.7 1.3 4 1.9 1.3.6 2.6 1.1 3.8 1.6 1.2.5 2.4.9 3.5 1.3s2.1.7 2.9 1c.9.2 1.7.5 2.3.6 1.3.4 2 .6 2 .6s-.7-.3-1.9-.8c-.6-.3-1.3-.6-2.2-.9l-2.8-1.4c-1-.5-2.1-1.1-3.2-1.7-1.1-.6-2.3-1.3-3.5-2.1-1.2-.7-2.5-1.5-3.7-2.3-1.2-.8-2.5-1.7-3.7-2.6l-3.6-2.7c-1.2-.9-2.3-1.9-3.4-2.7-2.2-1.8-4.1-3.6-5.7-5.2l-3.8-3.8c-.4-.5-.8-.8-1-1.1-.2-.3-.3-.4-.3-.4l-6 2.9z"/><path class="st1" d="M77.6 171.9s.1.1.3.2c.2.2.4.4.8.7.6.5 1.5 1.2 2.6 2s2.4 1.7 3.8 2.5c1.4.9 2.9 1.7 4.5 2.4.8.4 1.6.7 2.3 1.1.8.3 1.5.6 2.3.9.7.3 1.5.5 2.1.7.7.2 1.3.4 1.9.6 1.2.4 2.2.6 2.9.7.7.2 1.1.2 1.1.2l-1-.5c-.6-.3-1.5-.8-2.6-1.5-.5-.3-1.1-.7-1.7-1.1-.6-.4-1.2-.8-1.8-1.3-.6-.5-1.2-.9-1.8-1.4-.6-.5-1.2-1-1.8-1.6-1.2-1.1-2.3-2.2-3.3-3.3-1-1.1-1.9-2.1-2.6-3-.7-.9-1.3-1.7-1.6-2.2-.2-.3-.3-.5-.4-.6-.1-.1-.1-.2-.1-.2l-5.9 4.7zM63 180.8s2.4 1.4 2.6 1.5c.3.2.6.4 1 .6.9.5 2.1 1.1 3.5 1.8s3.1 1.4 5 2c1.8.6 3.8 1.3 5.8 1.7 1 .3 2 .4 2.9.6 1 .2 1.9.3 2.8.5.9.2 1.8.2 2.6.3.8.1 1.6.1 2.3.1 1.4.1 2.6 0 3.5 0 .8 0 1.3-.1 1.3-.1s-.5-.1-1.3-.3c-.8-.2-2-.5-3.4-1-.7-.2-1.4-.5-2.2-.8-.8-.3-1.6-.6-2.4-1-.8-.4-1.7-.7-2.5-1.2-.8-.4-1.7-.9-2.5-1.4-1.7-.9-3.2-2-4.7-3-1.4-1-2.7-2-3.8-2.9-1.1-.9-1.9-1.7-2.4-2.2l-.6-.6-.2-.2-7.3 5.6zm-7.9 6.1s2 .7 2.8 1.1c.7.3 1.8.8 3 1.3 2.5 1.1 5.9 2.3 9.3 3.3 1.7.5 3.4 1 5 1.3.8.2 1.6.3 2.3.5.7.1 1.4.3 2.1.3 1.3.2 2.3.3 3.1.4.7.1 1.2.1 1.2.1s-.4-.1-1.1-.4c-.7-.2-1.7-.6-2.9-1.1-.6-.2-1.2-.5-1.9-.9-.7-.3-1.4-.7-2.1-1-1.4-.7-2.9-1.6-4.4-2.5-3-1.8-5.8-3.7-7.8-5.3-1-.8-1.8-1.4-2.4-1.9-.5-.5-.8-.7-.8-.7l-5.4 5.5z"/><path class="st1" d="M14.4 243.4s2.4-4.5 7.1-12.1c4.7-7.6 11.9-18.2 21.7-29.9 2.5-2.9 5.1-5.9 7.9-8.9.7-.7 1.4-1.5 2.2-2.2l1.1-1.1 1.1-1c.8-.7 1.6-1.4 2.4-2.2l1.2-1.1 1.3-1c6.7-5.5 14.6-10.4 23.1-14.8 8.5-4.4 17.8-8.3 27.4-11.7 9.6-3.4 19.7-6.2 29.9-8.5s20.6-3.9 31-5.1c10.4-1.2 20.7-2 30.7-2.4 10-.4 19.8-.3 29 .1 9.3.4 18 1 26.1 1.8 4.1.4 7.9.8 11.6 1.2 3.7.4 7.2.8 10.5 1.2 6.6.8 12.3 1.6 17.1 2.2 9.5 1.4 14.9 2.2 14.9 2.2l.1-1.2s-5.4-.9-14.9-2.4c-4.7-.7-10.5-1.6-17.1-2.5-3.3-.5-6.8-.9-10.5-1.3-3.7-.5-7.6-.9-11.7-1.3-8.1-.8-16.9-1.5-26.2-2s-19.1-.6-29.2-.3c-10.1.3-20.5 1-30.9 2.1-5.2.5-10.5 1.2-15.7 2-5.2.8-10.5 1.8-15.6 3-10.3 2.3-20.5 5.2-30.2 8.5-9.7 3.4-19.1 7.3-27.8 11.7-8.7 4.5-16.7 9.4-23.6 15.1l-1.3 1-1.2 1.1c-.8.7-1.6 1.5-2.4 2.2l-1.2 1.1-1.1 1.1c-.7.8-1.5 1.5-2.2 2.3-2.9 3-5.6 6-8.1 8.9-5 5.9-9.2 11.6-12.9 16.7-3.6 5.1-6.6 9.7-9 13.5-4.8 7.7-7.2 12.3-7.2 12.3l2.6 1.7z"/></g><g class="st0"><path class="st2" d="M345.3 147.5c-2.5-.5-5-.8-7.6-1.1-2.5-.3-5-.6-7.6-.8-2.5-.2-5.1-.4-7.6-.6-1.3-.1-2.6-.1-3.9-.1-.7 0-1.3 0-2 .1l-1.1.1c-.4.1-.9.3-1.4.4l-5 2 5.6 2c3 1.1 6 2.3 9 3.5 3 1.2 6 2.5 9 3.9s5.9 2.8 8.8 4.3c.7.4 1.4.8 2.2 1.2l2.1 1.2c.7.4 1.4.8 2.1 1.3l2.1 1.4-1.9-1.6c-.6-.5-1.3-1-2-1.5s-1.3-1-2-1.5-1.4-1-2-1.4c-2.8-1.9-5.6-3.6-8.4-5.3-2.9-1.7-5.7-3.3-8.7-4.9-2.9-1.6-5.8-3.1-8.9-4.6l.6 4c.1 0 .1-.1.3-.2l.7-.2c.5-.1 1.1-.2 1.7-.3 1.2-.2 2.4-.3 3.6-.5 2.4-.3 4.9-.4 7.4-.6l7.5-.3c2.4 0 4.9 0 7.4.1z"/><path class="st2" d="M306.5 146.7s1.2.8 2.4.4 1.8-.5 3.9-1.1c2.1-.6 4.6-1.2 7.3-1.8 2.7-.6 5.6-1.2 8.5-1.6 1.5-.2 2.9-.4 4.4-.5 1.5-.2 2.9-.2 4.3-.3 1.4-.1 2.8 0 4.1-.1 1.3 0 2.5.1 3.7.2 1.1 0 2.2.3 3.1.4.5.1.9.1 1.3.2s.8.2 1.1.3c1.3.3 2.1.5 2.1.5s-.7-.3-2-.7c-.3-.1-.7-.2-1.1-.4-.4-.1-.8-.2-1.3-.3-.9-.2-2-.5-3.1-.7-1.2-.2-2.4-.4-3.7-.5-1.3-.1-2.7-.3-4.2-.3-1.4 0-2.9-.1-4.4-.1-1.5 0-3 0-4.6.1-3.1.1-6.1.4-8.9.8-2.8.3-5.5.7-7.7 1.1-2.2.4-4.1.7-5.4 1-1.3.3-4.8 1.9-4.8 1.9l5 1.5z"/><path class="st2" d="M294.8 144.4s1.5.8 6.3-.5 11.3-3 17.8-4.5 13.2-2.7 18.2-3.2c2.5-.2 4.7-.3 6.2-.1.4 0 .7.1 1 .2.3.1.5.1.7.2.4.1.6.2.6.2l-.6-.3c-.2-.1-.4-.2-.7-.3-.3-.1-.6-.2-1-.2-1.5-.3-3.7-.5-6.3-.4-5.2.1-12 .8-18.7 1.7-6.7 1-13.4 2.1-18.4 3.1-5 .9-11.7 2.5-11.7 2.5l6.6 1.6z"/><path class="st2" d="M285.5 143.4s.9.2 5.2-2.1c5.5-1.9 12.1-4.6 19.5-6.8 1.9-.5 3.7-1.1 5.6-1.5.9-.2 1.8-.4 2.8-.6.9-.1 1.9-.2 2.8-.3 3.7-.3 7.2-.3 10.2-.2 3 .1 5.5.3 7.3.6.9.1 1.6.2 2 .3.5.1.7.2.7.2s-.2-.1-.7-.2c-.5-.1-1.2-.3-2-.5-1.8-.3-4.3-.7-7.3-1-3-.3-6.6-.5-10.4-.4-1 0-1.9.1-2.9.2s-2 .2-2.9.4c-1.9.3-3.9.8-5.8 1.2-7.7 1.8-15.3 3.8-21 5.4-5.7 1.6-12.5 4-12.5 4l9.4 1.3zm-11.9-1.1l6.2-2.2c3.1-1.1 6.8-2.4 10.6-3.9 1.9-.8 3.9-1.6 5.9-2.7 1.9-1.2 3.6-2.1 5.6-3 3.9-1.8 7.9-3.4 11.8-4.7 1.9-.6 3.8-1.2 5.6-1.7 1.8-.5 3.6-.9 5.2-1.1 1.6-.3 3.1-.4 4.5-.6.7 0 1.3 0 1.9-.1.6 0 1.1.1 1.6.1 1 0 1.8.3 2.3.4.5.1.8.2.8.2s-.3-.1-.8-.2-1.3-.4-2.3-.5c-.5-.1-1.1-.2-1.7-.2-.6 0-1.3-.1-2-.1-1.4 0-3 0-4.6.2-1.7.1-3.5.4-5.4.8-1.9.3-3.9.8-5.9 1.3-4 1-8.3 2.3-12.4 3.9-2 .8-4.2 1.7-6 2.7-1.8.8-3.8 1.5-5.7 2.1-3.9 1.2-7.6 2.2-10.8 3.1-6.4 1.7-14.2 4-14.2 4l9.8 2.2z"/><path class="st2" d="M261.8 140.4s-.5.3 0 0-.9.5 0 0c1.9-1 2.8-1.4 6.3-2.7l2.7-.9c.5-.2 1-.3 1.6-.5l.8-.2.9-.3c2.3-.8 4.5-1.8 6.8-2.8 2.3-1.1 4.5-2.2 6.8-3.5 2.3-1.2 4.6-2.6 6.8-3.8 4.4-2.4 9.3-4.3 14-5.7 2.3-.7 4.7-1.2 6.9-1.6 2.2-.4 4.4-.6 6.4-.7 1 0 2 0 2.9-.1.9 0 1.8.1 2.6.1 1.7.1 3.1.4 4.3.5 1.2.2 2.1.5 2.7.6.6.1 1 .2 1 .2s-.3-.1-1-.3l-2.7-.9c-1.2-.2-2.6-.7-4.3-.9-.8-.1-1.7-.2-2.7-.4-.9-.1-1.9-.1-3-.2-2.1-.1-4.3 0-6.6.2s-4.8.5-7.3 1c-5 1-10.2 2.5-15.1 4.6-2.5 1.1-4.8 2.2-7.1 3.2s-4.7 1.9-6.9 2.8c-2.2.8-4.5 1.6-6.5 2.1l-.7.2-.8.2c-.5.1-1.1.2-1.6.3-1.1.2-2.2.5-3.2.8-2.3.8-4 2.1-6.2 3-1.1.5-4.3 2.2-4.9 2.5-.6.3-3.3 1.9-3.3 1.9l10.4 1.3z"/><path class="st2" d="M326.9 111.1c-1.8-.4-3.7-.7-5.5-.8-1.9-.1-3.7-.2-5.5-.1-1.8 0-3.7.2-5.5.4-1.8.2-3.6.5-5.4.8-1.8.3-3.6.7-5.3 1.1-1.8.4-3.5.9-5.2 1.5-1.7.6-3.4 1.3-5 2.1-1.7.9-3 1.9-4.5 2.7-6.1 3.4-12.6 6.1-19.2 8.7l-5 1.9c-1.7.6-3.4 1.3-5.1 2.1-1.6.8-3.2 1.7-4.8 2.7-1.6 1-3 2-4.5 3.3l-2.3 2.2 3.1 1.5c7 3.4 14 7 21 10.7 7 3.6 13.9 7.4 20.8 11.2 3.5 1.9 6.9 3.9 10.3 5.8l5.1 3c1.7 1 3.4 2 5.1 3.1 1.7 1 3.4 2 5 3.1 1.7 1.1 3.4 2.1 5 3.2l4.9 3.3 4.8 3.5-4.7-3.7-4.8-3.6c-1.6-1.2-3.2-2.3-4.9-3.5-1.6-1.2-3.3-2.3-4.9-3.4-1.6-1.1-3.3-2.2-5-3.3l-5-3.2c-3.4-2.1-6.7-4.3-10.1-6.3-6.7-4.2-13.5-8.2-20.4-12.2-6.8-4-13.7-7.9-20.7-11.7l.8 3.8c1-1.1 2.4-2.2 3.8-3.1 1.4-1 2.8-1.9 4.3-2.7 1.5-.8 3-1.6 4.6-2.3l4.9-2.2c6.5-3 12.9-6.1 18.9-9.9 1.5-.9 3-2.1 4.4-2.9 1.5-.9 3-1.6 4.6-2.3 1.6-.7 3.3-1.3 5-1.8 1.7-.5 3.4-1 5.1-1.4 1.7-.4 3.5-.8 5.3-1.1 1.8-.3 3.6-.5 5.4-.7 1.8-.2 3.6-.2 5.5-.2 1.9.2 3.8.4 5.6.7z"/><path class="st2" d="M241.2 139.3c.7-.6-.8.5 0 0s1.6-1.1 2.5-1.6c1.7-1 3.4-2 5.2-2.8.9-.4 1.8-.8 2.7-1.1l.7-.2.8-.3c.5-.2 1-.3 1.5-.6l1.6-.7 1.4-.7c1-.5 1.9-1 2.8-1.5 3.6-2 7.2-4.2 10.6-6.4 3.5-2.2 6.9-4.5 10.3-6.8h-.1c5.2-2.9 10.6-5.7 16.1-8.2l4.2-1.8c.7-.3 1.4-.6 2.1-.8.7-.3 1.4-.5 2.1-.8l2.2-.7 2.2-.6c.7-.2 1.5-.3 2.3-.5.8-.1 1.5-.1 2.3-.2-.8 0-1.6 0-2.4.1-.8.1-1.6.2-2.3.3l-2.3.5-2.2.6c-.7.2-1.5.4-2.2.7-.7.2-1.5.5-2.2.7-1.5.5-2.9 1-4.3 1.5-5.7 2.1-11.3 4.5-16.9 7.1h-.1c-3.5 2.1-7.1 4.1-10.7 6-3.6 1.9-7.2 3.8-10.9 5.6-.9.4-1.8.9-2.8 1.2l-1.4.6-1.3.5c-.4.2-1 .3-1.5.5l-.7.2-.8.2c-1.1.3-2.1.6-3.1 1-2 .8-4 1.6-5.9 2.6-1 .5-1.9 1-2.8 1.5-.9.5-3.1 3.3-4 4l7.3.9z"/><path class="st2" d="M232.2 138.4s4.1-1.3 11.5-6.2c1.8-1.2 3.8-2.6 5.9-4 2.1-1.5 4.2-3 6.4-4.8 2.1-1.9 4.2-3.4 6.6-5 2.4-1.6 4.9-3 7.5-4.4 2.6-1.4 5.2-2.8 7.8-4 2.6-1.3 5.2-2.5 7.7-3.5 2.5-1.1 5.1-2 7.5-2.8 2.4-.8 4.8-1.2 7-1.7 4.4-.9 8.1-1.8 10.7-2.1 1.3-.2 2.4-.2 3.1-.1.7 0 1.1.1 1.1.1s-.4-.1-1.1-.1c-.7-.1-1.8-.1-3.1 0-2.7.2-6.4.9-10.9 1.7-2.2.4-4.7.7-7.2 1.4-2.5.6-5.1 1.5-7.7 2.5-2.6.9-5.3 2.1-8 3.2-2.7 1.2-5.4 2.4-8 3.7-2.7 1.3-5.3 2.7-7.8 4.2-2.5 1.4-5.1 3.1-7.1 4.9-2.1 1.6-4.3 3.1-6.4 4.4-2.1 1.4-4.1 2.6-6 3.7-7.5 4.5-16.2 9.1-16.2 9.1l6.7-.2zm-7 .1c2.1-1.6 5.2-3.9 8.7-6.8 1.8-1.4 3.7-3 5.7-4.8 1.9-1.8 4-3.6 6.1-5.5 4.2-3.8 8.7-7.8 13.3-11.7 2.3-1.9 4.7-3.8 7-5.6 2.4-1.8 4.7-3.4 7.2-4.8s4.9-2.6 7.3-3.7c2.4-1.1 4.7-2.1 6.8-3 4.3-1.8 7.8-3.3 10.3-4.3 2.5-1.1 3.8-1.8 3.8-1.8s-1.4.6-4 1.5-6.2 2.1-10.6 3.6c-2.2.7-4.6 1.6-7.1 2.5-2.5.9-5.1 2-7.7 3.2-2.7 1.2-5.2 2.8-7.8 4.4-2.5 1.6-5.1 3.4-7.6 5.1-5 3.5-9.8 7.2-14.3 10.8-2.2 1.8-4.4 3.4-6.4 5-2 1.5-4 3-5.9 4.2-3.7 2.6-6.9 4.6-9.1 6.1-2.2 1.4-4.3 5.1-4.3 5.1l8.6.5z"/><path class="st2" d="M214.8 138.7s-.9.8 1.1-.9c2-1.8 4.8-4.3 8.1-7.4 1.7-1.6 3.4-3.3 5.3-5.1 1.9-1.9 3.7-3.8 5.7-5.7 4.1-3.9 8.6-7.9 13.1-11.9s9.1-8 13.3-11.7c2.1-1.9 4.2-3.6 6.3-5 2.1-1.5 4.2-2.7 6.2-3.8 4-2.2 7.6-3.5 10.2-4.2 1.3-.4 2.3-.6 3.1-.7.7-.1 1.1-.2 1.1-.2s-.4.1-1.1.2c-.7.1-1.8.3-3.1.6-2.7.6-6.4 1.7-10.6 3.7-2.1 1-4.3 2.1-6.6 3.5-2.2 1.3-4.6 3-6.8 4.7-4.5 3.5-9.3 7.2-14.1 10.9-4.8 3.7-9.5 7.5-13.9 11.1-2.2 1.8-4.3 3.8-6.1 5.4-1.9 1.7-3.8 3.3-5.5 4.7-3.5 2.9-6.4 5.2-8.5 6.8-2.1 1.6-4.8 4.3-4.8 4.3l7.6.7z"/><path class="st2" d="M205.1 138.9s3.1-3.1 10.1-9.9c3.5-3.4 7.6-7.4 11.9-11.7 2.2-2.1 4.4-4.4 6.6-6.7 2.2-2.3 4.5-4.7 6.7-7.1 2.2-2.4 4.4-4.8 6.6-7.1 2.2-2.3 4.5-4.5 6.9-6.2 2.5-1.6 5.2-2.9 7.7-4.2 2.6-1.2 5-2.3 7.3-3.1 2.3-.9 4.5-1.6 6.4-2.2 2-.5 3.7-1 5.1-1.2.7-.1 1.4-.2 2-.3.6-.1 1.1-.1 1.5-.1h-1.5c-.6 0-1.2.1-2 .2-1.5.2-3.2.5-5.2 1s-4.2 1.1-6.6 1.9c-2.4.8-4.9 1.7-7.6 2.8-2.6 1.1-5.4 2.3-8.1 3.9-2.7 1.7-5.1 3.8-7.5 6-2.4 2.2-4.7 4.5-7 6.8s-4.7 4.6-7 6.8-4.6 4.3-6.9 6.3c-4.6 4.1-8.8 7.9-12.5 11.1l-14.6 13h7.7z"/><path class="st2" d="M195.7 139.5s17.7-18.9 36.2-39.2c2.3-2.5 4.6-5.1 6.8-7.6 1.1-1.2 2.2-2.6 3.2-3.9 1-1.3 2.1-2.4 3.3-3.5 2.3-2.2 4.7-4.1 7.3-5.5 2.5-1.5 5.2-2.4 7.7-3.1 5.1-1.2 9.7-1 12.8-.6 3.2.4 4.9 1 4.9 1s-1.8-.6-4.9-1.2c-1.6-.3-3.5-.5-5.7-.5s-4.7.1-7.3.7c-2.6.5-5.4 1.5-8 2.8-2.7 1.4-5.3 3.2-7.7 5.3-1.2 1.1-2.4 2.3-3.5 3.5-1.1 1.3-2.1 2.5-3.3 3.7-2.3 2.4-4.7 4.9-7.1 7.3-19.3 19.4-40 39.9-40 39.9l5.3.9z"/><path class="st2" d="M189 140s1-3.3 7.1-10.4c3.1-3.6 6.6-7.7 10.5-12.2 3.8-4.5 7.9-9.2 11.9-14.1 2-2.5 3.8-5.1 5.7-7.5 1.8-2.5 3.6-4.9 5.4-7.3 1.8-2.3 3.6-4.5 5.4-6.5 1.8-2 3.6-3.8 5.6-5 2-1.2 4-2 5.9-2.5 1.9-.5 3.6-.8 5-1 2.8-.4 4.5-.3 4.5-.3s-1.7-.2-4.5 0c-1.4.1-3.2.3-5.1.8-1.9.5-4.1 1.1-6.2 2.3-2.1 1.2-4.1 2.9-6 4.8-1.9 1.9-3.8 4-5.8 6.3-1.9 2.2-3.9 4.6-5.8 7-2 2.4-3.9 4.9-6 7.1-4.2 4.6-8.5 9.2-12.6 13.4-4.1 4.3-7.8 8.2-11.1 11.6-6.5 6.8-11.3 13.3-11.3 13.3l7.4.2z"/><path class="st2" d="M178.6 140.2s2-2.8 7.6-10.7c5.6-7.8 13.2-18.2 21.1-28.2 2-2.5 4-5 6-7.4 1-1.2 2-2.4 3-3.5s2-2.2 3.1-3.3c4.2-4.3 7.9-8.6 11.6-11.5 1.9-1.5 3.8-2.5 5.7-3.1 1.9-.7 3.6-.9 5-1.2 1.4-.2 2.6-.3 3.4-.3.8 0 1.2-.1 1.2-.1h-1.2c-.8 0-1.9 0-3.4.1s-3.2.3-5.2.9c-2 .5-4 1.5-6.1 2.9-2 1.4-4 3.1-6.1 5-2 1.9-4.2 3.8-6.4 5.9-1.1 1-2.2 2.1-3.3 3.2-1.1 1.1-2.2 2.2-3.3 3.4-2.2 2.3-4.3 4.7-6.5 7.1-8.5 9.6-16.7 19.5-22.8 27-6.1 7.5-12.2 14.9-12.2 14.9l8.8-1.1z"/><path class="st2" d="M168.9 142.3s2.5-4.5 7.2-12.4c4.7-7.8 11-18.3 17.5-28.6 1.6-2.6 3.2-5.2 4.9-7.6 1.7-2.4 3.5-4.7 5.4-6.8 1.9-2.1 3.8-4 5.9-5.5 2-1.6 4.2-2.9 6.2-3.9 4.1-2 7.9-3 10.6-3.5 2.7-.5 4.3-.6 4.3-.6s-1.6 0-4.4.3c-1.4.2-3 .5-4.9.9-1.8.5-3.9 1.1-6.1 2-2.2.9-4.4 2.1-6.6 3.6-2.2 1.5-4.4 3.3-6.4 5.3s-4 4.3-5.9 6.6c-1.9 2.4-3.6 4.9-5.4 7.4-7.1 9.9-13.9 20-19.1 27.5-5.2 7.5-10.3 15.1-10.3 15.1l7.1.2zm-9.5.3s1.3-2.7 5.3-10.9 9.4-19 15-29.7c1.4-2.7 2.8-5.3 4.3-7.9 1.4-2.6 2.9-5.1 4.4-7.5 1.5-2.3 3.1-4.6 4.6-6.6 1.5-2.1 3-4 4.6-5.6 1.5-1.6 3.1-2.9 4.7-3.8 1.5-.9 3.1-1.5 4.4-1.7.7-.2 1.3-.2 1.8-.3.5-.1 1-.1 1.4-.1h1.1s-.4 0-1.1-.1c-.4 0-.8-.1-1.4 0-.5 0-1.2 0-1.8.1-1.4.2-3 .6-4.7 1.4-1.7.8-3.4 2.1-5.1 3.6-1.7 1.5-3.4 3.3-5.1 5.3-1.7 2-3.5 4-5.2 6.3-1.8 2.3-3.4 4.7-5 7.2s-3.3 5-4.9 7.6c-6.4 10.2-12.6 20.6-17.3 28.4-4.6 7.8-8 15.1-8 15.1l8-.8z"/><path class="st2" d="M149 144.9s9.9-21.6 20.7-44.3c1.4-2.8 2.7-5.7 4-8.5 1.3-2.8 2.6-5.5 4-8 2.8-5.1 5.9-9.6 9.5-12.4 1.8-1.4 3.7-2.5 5.4-3.2 1.7-.8 3.4-1.3 4.7-1.6 2.7-.6 4.4-.6 4.4-.6s-1.7-.2-4.5.3c-2.8.4-6.8 1.5-10.8 4.2-4 2.7-7.6 7.1-10.8 12-1.6 2.5-3.2 5.1-4.7 7.8s-3.1 5.4-4.7 8.1c-12.5 21.7-26.7 48-26.7 48l9.5-1.8z"/><path class="st2" d="M139.6 146.6s9.6-22.9 20.9-48.7c.7-1.6 1.4-3.3 2.1-4.8.8-1.5 1.6-3.1 2.4-4.6 1.6-3 3.3-5.9 5-8.7 1.7-2.8 3.4-5.4 5.2-7.8 1.8-2.3 3.6-4.6 5.7-5.9 2.2-1.3 4.5-2.2 6.6-2.7 2.1-.5 4-.7 5.6-.8 1.6-.1 2.9 0 3.7 0 .9 0 1.3.1 1.3.1s-.5-.1-1.3-.2c-.9-.1-2.1-.2-3.7-.3-1.6 0-3.6 0-5.8.4-2.2.4-4.6 1.2-7 2.4-2.4 1.4-4.4 3.5-6.4 5.8s-3.9 4.9-5.8 7.5c-1.9 2.7-3.8 5.5-5.6 8.5l-2.7 4.5c-.9 1.6-1.6 3.1-2.5 4.7-12.8 24.9-28.5 53.3-28.5 53.3l10.8-2.7z"/><path class="st2" d="M130.1 149.1s2.7-3.6 7.1-13.9c4.3-10.3 10.1-24 15.8-37.9.7-1.7 1.4-3.5 2.1-5.2.7-1.8 1.2-3.5 1.9-5.2 1.3-3.3 2.8-6.6 4.5-9.5 1.7-2.9 3.6-5.6 5.7-7.9 2.1-2.3 4.4-4.1 6.8-5.3 1.2-.6 2.5-1 3.7-1.4 1.2-.4 2.4-.8 3.5-1.1 2.2-.6 4.2-1.1 5.8-1.4 3.3-.6 5.2-.7 5.2-.7s-2-.1-5.3.3c-1.7.2-3.7.5-6 1-1.1.2-2.3.5-3.6.9-1.3.3-2.6.6-3.9 1.2-2.7 1-5.3 2.8-7.7 5.1-2.4 2.2-4.5 4.9-6.5 7.8-2 2.9-3.8 6.1-5.4 9.4-.8 1.7-1.5 3.5-2.3 5.1-.8 1.7-1.6 3.3-2.4 5-6.6 13.3-13.3 26.5-18.4 36.4-5.1 9.9-10.6 20.4-10.6 20.4l10-3.1z"/><path class="st2" d="M120.7 152.8s3-5 6.4-15.8c1.7-5.4 3.7-11.7 5.9-18.4 1.1-3.4 2.2-6.8 3.3-10.4 1.1-3.5 2.2-7.2 3.4-10.6 1.2-3.4 2.7-6.9 4.3-10.1 1.5-3.3 3.2-6.5 4.8-9.5 1.7-3 3.4-5.9 5.2-8.5.9-1.3 1.9-2.5 2.8-3.5 1-1 2.2-1.8 3.3-2.5 2.4-1.4 4.7-2.4 6.8-3.3 2.1-.9 4-1.5 5.6-2 1.6-.5 2.8-.8 3.7-1.1.9-.2 1.3-.3 1.3-.3s-.5 0-1.4.2c-.9.1-2.2.4-3.8.8-1.6.4-3.6.9-5.8 1.6-2.2.7-4.7 1.6-7.3 2.8-1.3.7-2.6 1.4-3.8 2.4-1.2 1-2.2 2.2-3.3 3.4-2.1 2.5-4.1 5.2-6 8.2-1.9 2.9-3.8 6-5.6 9.3-1.8 3.2-3.6 6.5-5.2 10-1.6 3.6-2.9 7-4.3 10.4-1.4 3.4-2.8 6.8-4.1 10-2.6 6.5-5.1 12.6-7.2 17.8-4.2 10.4-7.8 20.4-7.8 20.4l8.8-1.3z"/><path class="st2" d="M112.1 155.5s3-3.8 5.5-12.5 5.9-20.2 9.3-31.7c.9-2.9 1.8-5.7 2.6-8.6.9-2.8 1.8-5.5 2.9-8 2.1-5.1 4.4-9.7 6.8-13.4 1.2-1.9 2.4-3.5 3.5-4.8.6-.7 1.2-1.3 1.7-1.9.6-.5 1.1-1 1.5-1.5 1-.8 1.8-1.4 2.4-1.8l.9-.6s-.3.2-1 .5c-.6.3-1.5.8-2.6 1.6-.5.4-1.1.8-1.7 1.3-.6.5-1.2 1.1-1.9 1.7-1.3 1.3-2.7 2.8-4 4.6-2.8 3.5-5.5 8-8.1 13-1.3 2.5-2.5 5.2-3.7 7.9-1.1 2.7-2.2 5.5-3.4 8.3-4.5 11.1-8.8 22.2-12.1 30.6-3.3 8.4-6.3 17.5-6.3 17.5l7.7-2.2z"/><path class="st2" d="M104.5 157.7s1.3-2.7 3.2-11.7c2-8.9 4.6-20.9 7.6-32.7.8-2.9 1.5-5.9 2.4-8.7.8-2.9 1.7-5.6 2.7-8.2 2.1-5.3 4-10.2 6.2-14 1.1-1.9 2.4-3.5 3.6-4.8 1.2-1.3 2.5-2.3 3.5-3 1.1-.7 2-1.3 2.6-1.6.6-.3.9-.5.9-.5s-.3.2-1 .4c-.7.3-1.6.7-2.8 1.4-1.1.7-2.5 1.5-3.9 2.7-1.4 1.2-2.8 2.7-4.2 4.6-2.7 3.7-5.1 8.5-7.7 13.5-1.3 2.6-2.5 5.3-3.5 8.1-1.1 2.8-2.1 5.6-3.2 8.5-4.1 11.5-7.8 23-10.6 31.7-2.7 8.7-5.8 18.5-5.8 18.5l10-4.2z"/><path class="st2" d="M97.7 160.9s.5-3.4 2-12.9 3.6-22.2 6-34.7c.6-3.1 1.2-6.3 1.9-9.3.4-1.5.7-3 1.1-4.4.4-1.4.9-2.9 1.4-4.3 1.9-5.6 3.8-10.7 6-14.9 1.1-2.1 2.1-3.9 3.2-5.5 1-1.6 2.1-2.8 3-3.9.9-1 1.7-1.8 2.2-2.2.6-.5.8-.7.8-.7s-.3.2-.9.7c-.6.4-1.4 1.1-2.5 2-1 .9-2.2 2.1-3.4 3.6-1.2 1.5-2.5 3.3-3.7 5.3-2.5 4-5 9-7.3 14.4-.6 1.4-1.2 2.7-1.8 4.2-.6 1.5-1.1 3-1.6 4.5-1 3-1.9 6.1-2.7 9.1-3.5 12.3-6.6 24.7-8.9 33.9-2.3 9.3-3.1 18.5-3.1 18.5l8.3-3.4z"/><path class="st2" d="M90.3 163.9s-.4-2.5.6-11.4 2.5-20.7 4.3-32.4c.5-2.9.9-5.9 1.5-8.7.3-1.4.5-2.8.8-4.2.3-1.4.6-2.8.9-4.1.3-1.3.6-2.6 1.1-3.8.4-1.2.9-2.4 1.3-3.6.9-2.3 1.8-4.5 2.6-6.6.8-2 1.6-3.9 2.4-5.4.8-1.6 1.6-2.9 2.4-3.9.7-1 1.4-1.8 1.9-2.3.5-.5.7-.8.7-.8s-.3.2-.8.7c-.5.5-1.2 1.1-2.1 2.1-.8.9-1.8 2.2-2.7 3.7-.9 1.5-1.9 3.3-2.9 5.2-1 2-2 4.1-3.2 6.3-1.1 2.2-2.3 4.8-3.1 7.4-.5 1.3-.9 2.7-1.3 4l-1.2 4.2c-.8 2.8-1.5 5.7-2.2 8.6-2.8 11.5-5.3 23.2-7 31.9-1.8 8.7-3.9 18.2-3.9 18.2l9.9-5.1z"/><path class="st2" d="M100.5 78.8s-.3.3-.8.7c-.5.5-1.2 1.2-1.9 2.3-1.6 2-3.6 5.2-5.6 9.2-1 2-2 4.2-3 6.6-.5 1.2-1 2.4-1.4 3.7-.4 1.3-.9 2.5-1.3 3.9-.8 2.8-1.6 5.6-2.3 8.5-.7 2.9-1.4 5.8-2.1 8.8-2.7 11.8-5 23.7-6.6 32.6-1.6 9-2.4 18.4-2.4 18.4l8.3-4.9s.7-2.7 1.5-11.8c.9-9.1 2.1-21.2 3.6-33.2.4-3 .8-6 1.3-8.9.5-2.9.9-5.8 1.5-8.5.2-1.4.6-2.7.9-4 .3-1.3.7-2.5 1.1-3.8.8-2.4 1.5-4.7 2.3-6.8 1.6-4.1 3.2-7.4 4.6-9.6.7-1.1 1.3-1.9 1.7-2.4.4-.5.6-.8.6-.8z"/><path class="st2" d="M73.9 174.3s1-4.8 1.2-14.5c.2-9.8.5-22.8 1-35.7.1-3.2.3-6.5.4-9.7.2-3.2.3-6.3.6-9.2.4-3 .6-6 1.1-8.6.5-2.6 1.4-4.9 2.5-7 1-2.1 2.2-3.9 3.2-5.5s2-2.9 2.8-4c1.6-2.2 2.5-3.5 2.5-3.5s-1 1.2-2.8 3.2c-.9 1-2 2.3-3.2 3.8-1.2 1.5-2.5 3.2-3.8 5.2-1.3 2-2.5 4.4-3.3 7.1-.8 2.7-1.2 5.6-1.9 8.5-.6 3.1-1 6.1-1.5 9.3l-1.2 9.6c-1.6 12.8-3 25.6-4.1 35.3-1 9.6-2 20.2-2 20.2l8.5-4.5z"/><path class="st2" d="M66.1 179.4s.8-5.4.6-14.7c-.2-9.4-.4-21.8-.3-34.3 0-3.1.1-6.2.2-9.3.1-3 .2-6 .5-8.9.5-5.7 1.3-11 2.4-15.4 1.1-4.4 2.4-7.9 3.6-10.2.6-1.2 1.1-2 1.5-2.6l.6-.9s-.2.3-.7.8c-.4.6-1 1.4-1.7 2.5-1.4 2.2-3.1 5.6-4.6 10-1.5 4.3-2.7 9.6-3.7 15.3-.5 2.8-.9 5.9-1.3 8.9-.3 3-.7 6.1-.9 9.2-1.1 12.4-1.9 24.7-2.5 34-.5 9.3-.7 20.4-.7 20.4l7-4.8z"/><path class="st2" d="M62 182.2s.5-2.5-.1-12c-.6-9.4-1.5-22-2.1-34.6-.2-3.1-.3-6.3-.4-9.3v-2.2c0-.8.1-1.5.1-2.2.1-1.5.2-2.9.3-4.4.4-5.8 1.1-11.1 1.8-15.7.3-2.3.7-4.3 1.1-6.2.4-1.8.8-3.4 1.2-4.7.4-1.3.7-2.3 1-2.9.3-.7.4-1 .4-1s-.2.3-.5 1c-.4.6-.8 1.6-1.3 2.8-.5 1.2-1.1 2.7-1.7 4.5-.6 1.8-1.2 3.8-1.8 6-1.2 4.4-2.4 9.7-3.5 15.4-.3 1.4-.5 2.9-.8 4.4-.1.7-.2 1.5-.3 2.2-.1.8-.2 1.6-.2 2.4l-.6 9.3c-.6 12.5-1.1 25-1.5 34.3-.3 9.4 1.5 19.3 1.5 19.3l7.4-6.4zm291.5-26.9s-1.6-.7-4-1.5-5.7-1.8-9-2.5c-3.3-.8-6.7-1.4-9.2-1.9-2.5-.4-15.7-3.5-15.7-3.5l.9 2.7s12.3 3.5 14.7 3.6c2.5.1 5.8.4 9.1.7 3.3.4 6.6.9 9.1 1.4 2.4.4 4.1 1 4.1 1zm-53.6-10.1l50.2 25-39.9-23.5zm-9.2-1.3s5.6 3.9 10.3 6.2c4.8 2.4 11.1 5.7 17.4 9.1 3.1 1.7 6.3 3.4 9.2 5.1 2.9 1.7 5.6 3.3 7.9 4.7 1.1.7 2.2 1.4 3.1 1.9.9.6 1.7 1.1 2.4 1.5 1.3.9 2.1 1.4 2.1 1.4s-.7-.5-2-1.5c-.6-.5-1.4-1.1-2.3-1.7-.9-.6-1.9-1.4-3-2.2-2.2-1.6-4.8-3.4-7.6-5.2-2.8-1.9-5.8-3.8-8.9-5.8-6.1-3.9-12.2-7.6-16.8-10.4-4.6-2.7-7.3-3.2-7.3-3.2l-4.5.1z"/><path class="st2" d="M279.6 143.3s15.8 6.6 26.8 12.2c5.5 2.8 11 5.8 14.9 8.2 1 .6 1.9 1.2 2.7 1.7.8.5 1.5.9 2 1.4 1.1.8 1.8 1.2 1.8 1.2s-.6-.5-1.7-1.4c-.5-.4-1.2-.9-2-1.5s-1.6-1.2-2.6-1.9c-3.8-2.7-9.1-6.1-14.4-9.3-10.7-6.5-22-11.5-22-11.5l-5.5.9zm-12.1-2.3s18.7 9.2 33.4 17.1c7.4 3.9 14.7 8 20 11.3 1.3.8 2.6 1.6 3.6 2.3 1.1.7 2 1.3 2.8 1.8 1.5 1.1 2.4 1.7 2.4 1.7s-.8-.6-2.3-1.8c-.7-.6-1.6-1.2-2.7-2-1-.8-2.2-1.6-3.5-2.5-5.2-3.5-12.4-8-19.6-12.3-14.4-8.6-26.6-15.3-26.6-15.3l-7.5-.3zm-11.5-1.1l76.7 41.5-66.9-40.6zm-22.1-1.4s26.7 14.5 48.4 27.3c5.4 3.2 10.8 6.4 15.8 9.5 2.5 1.6 4.9 3.1 7.2 4.5 2.3 1.5 4.4 2.8 6.4 4.1 2 1.3 3.8 2.5 5.3 3.6 1.6 1.1 2.9 2.1 4 2.9 1.1.8 1.9 1.6 2.5 2 .6.5.9.7.9.7l-.8-.8c-.6-.5-1.3-1.2-2.4-2.1-1.1-.9-2.4-1.9-3.9-3.1-1.5-1.1-3.3-2.4-5.2-3.9-1.9-1.4-4-2.9-6.2-4.4-2.2-1.5-4.6-3.2-7-4.8-4.9-3.3-10.2-6.8-15.4-10.3-21.1-13.8-41-24.8-41-24.8l-8.6-.4z"/><path class="st2" d="M227 138.3s25.6 13.9 46.7 26.2c10.6 6.1 21.1 12.5 28.8 17.4 2 1.2 3.7 2.4 5.3 3.4 1.6 1 2.9 1.9 4 2.7 2.2 1.5 3.5 2.4 3.5 2.4s-1.2-.9-3.4-2.5c-1.1-.8-2.4-1.8-3.9-2.9-1.5-1.1-3.2-2.4-5.1-3.7-7.5-5.3-17.7-12.2-28.1-18.8-20.6-13.5-38.8-24.6-38.8-24.6l-9 .4zm-9.5.6s7.8 3.5 15.6 7.5c3.9 2 8.4 4.3 13.2 6.9 2.4 1.3 4.9 2.6 7.4 4s5.1 2.8 7.6 4.3c2.5 1.4 5 2.9 7.5 4.4 2.5 1.5 4.8 3 7.2 4.5 2.3 1.4 4.5 3 6.6 4.4 2.1 1.4 4 2.9 5.8 4.1 1.8 1.3 3.3 2.6 4.7 3.7.7.6 1.3 1.1 2 1.6.6.5 1.1 1 1.6 1.4 1.9 1.7 3 2.7 3 2.7l-2.9-2.9-1.5-1.5c-.6-.5-1.2-1.1-1.9-1.7-1.4-1.2-2.8-2.6-4.6-3.9-1.7-1.4-3.6-2.9-5.6-4.4-2-1.5-4.1-3.2-6.4-4.7-2.3-1.6-4.6-3.2-7-4.8-2.4-1.6-4.9-3.2-7.3-4.8-2.5-1.6-5-3.1-7.4-4.7-2.5-1.5-4.9-3-7.3-4.4-4.7-2.8-9.2-5.4-13-7.5-7.7-4.3-9.3-5-9.3-5l-8 .8z"/><path class="st2" d="M208.7 139.1s8.7 4.2 16.8 8.6c8.1 4.4 18.9 10.4 29.5 16.7 2.7 1.6 5.3 3.2 7.9 4.8 2.6 1.6 5.1 3.2 7.6 4.7s4.8 3.1 7 4.6c2.2 1.5 4.3 2.9 6.2 4.3.9.7 1.9 1.3 2.7 1.9.8.6 1.6 1.3 2.4 1.8 1.5 1.2 2.8 2.1 3.8 3 2.1 1.8 3.3 2.8 3.3 2.8s-1.1-1.1-3.1-2.9c-1-1-2.2-2-3.7-3.2-.7-.6-1.5-1.3-2.3-2-.8-.7-1.7-1.4-2.6-2.1-1.8-1.5-3.8-3-6-4.6-2.1-1.6-4.4-3.3-6.8-5-2.4-1.7-4.8-3.4-7.4-5.2-2.5-1.8-5.1-3.5-7.7-5.2-10.3-6.9-20.9-13.5-28.8-18.3-7.9-4.9-9.5-5.8-9.5-5.8l-9.3 1.1z"/><path class="st2" d="M197.5 138.7s9.7 4.6 19.2 9.5c2.3 1.2 4.9 2.6 7.6 4 2.7 1.4 5.5 2.9 8.4 4.6 2.9 1.6 5.9 3.3 8.9 5 3 1.7 6.1 3.5 9.1 5.3 3.1 1.8 6.1 3.7 9 5.5 3 1.8 5.8 3.8 8.6 5.6 2.8 1.8 5.4 3.7 7.9 5.4 2.5 1.8 4.8 3.5 6.9 5.1 2.1 1.6 4 3.2 5.7 4.6 1.7 1.3 3.1 2.6 4.3 3.7 2.3 2.1 3.6 3.3 3.6 3.3s-1.3-1.2-3.5-3.4c-1.1-1.1-2.5-2.4-4.1-3.8-1.7-1.4-3.5-3.1-5.6-4.8-2.1-1.7-4.4-3.5-6.8-5.4-2.5-1.8-5-3.8-7.8-5.7-2.7-1.9-5.5-4-8.5-5.9-2.9-1.9-5.9-4-8.9-5.9-3-1.9-6-3.9-9-5.7-3-1.9-5.9-3.6-8.8-5.4-2.9-1.7-5.7-3.3-8.3-4.9-2.7-1.5-5.2-2.9-7.5-4.3-9.3-5.2-12.5-6.8-12.5-6.8l-7.9.4z"/><path class="st2" d="M189.5 139.4s10.3 4.7 19.5 9.7c4.6 2.5 10 5.4 15.6 8.7 2.8 1.6 5.7 3.4 8.7 5.2 1.5.9 2.9 1.8 4.4 2.8 1.5.9 2.9 1.9 4.4 2.9 2.9 1.9 5.7 4.1 8.5 6.1s5.7 4 8.4 5.8c5.5 3.7 10.8 6.9 15.3 9.6 9.1 5.4 15.3 8.6 15.3 8.6s-6.1-3.5-14.9-9.3c-4.4-2.9-9.5-6.3-14.8-10.2-2.7-2-5.4-4-8.1-6.1-2.7-2.1-5.5-4.4-8.3-6.5-1.4-1.1-2.9-2.1-4.3-3.1s-2.9-2-4.3-3c-2.9-2-5.7-3.8-8.5-5.6-5.6-3.6-10.9-6.8-15.4-9.5-9.1-5.4-11.6-6.7-11.6-6.7l-9.9.6z"/><path class="st2" d="M182.1 140.5s9.1 4.1 18.6 9.1c4.7 2.5 10.2 5.5 16.1 8.7 2.9 1.7 5.9 3.4 8.9 5.2 3 1.8 6.1 3.7 9 5.7 6 4 11.8 8.2 17.2 12.2 2.7 2 5.3 4 7.8 5.8 2.5 1.8 4.8 3.6 7.1 5.1 4.6 2.8 8.6 5 11.3 6.5 2.8 1.5 4.3 2.3 4.3 2.3s-1.6-.9-4.3-2.5c-2.7-1.6-6.6-3.9-11.1-6.9-2.2-1.5-4.5-3.4-6.9-5.3-2.4-1.9-5-4-7.6-6.1-5.3-4.2-11-8.7-16.9-12.9-3-2.1-5.9-4.2-8.9-6.1-3-2-5.9-3.8-8.8-5.6-5.8-3.5-11.2-6.7-15.9-9.4-9.4-5.4-12.6-7-12.6-7l-7.3 1.2z"/><path class="st2" d="M173.2 141.5s8 3.4 15.3 7.1c7.2 3.6 16.9 8.6 26.4 13.7 2.4 1.3 4.8 2.6 7.1 3.8 2.3 1.3 4.6 2.6 6.8 3.8 4.4 2.5 8.5 4.9 12 7 1.8 1 3.3 2 4.7 2.9 1.4.9 2.6 1.6 3.6 2.3 2 1.3 3.1 2 3.1 2s-1.1-.8-3-2.2c-1-.7-2.1-1.6-3.5-2.5-1.4-.9-2.9-2-4.6-3.2-3.4-2.3-7.4-4.9-11.7-7.7-2.2-1.4-4.4-2.8-6.7-4.2-2.3-1.4-4.6-2.8-6.9-4.3-9.3-5.7-18.7-11.2-25.8-15.2-7.1-4.1-9.3-5.5-9.3-5.5l-7.5 2.2z"/><path class="st2" d="M164.3 142.3s8.6 4.9 18.5 9.7c4.9 2.4 10.7 5.2 16.9 8.3 6.1 3.1 12.7 6.4 19.1 10 3.2 1.8 6.4 3.6 9.3 5.6 3 2 5.9 4.1 8.7 6.2 5.5 4.2 10.6 8.2 15.1 11.5 2.2 1.7 4.3 3.1 6.2 4.3 1.9 1.2 3.6 2.2 5.1 2.9.7.4 1.4.6 2 .8.6.2 1.1.4 1.5.4.8.1 1.3.2 1.3.2s-.4-.1-1.3-.3c-.4-.1-.9-.3-1.5-.5s-1.2-.5-1.9-.9c-1.4-.7-3.1-1.8-4.9-3.1-1.8-1.3-3.8-2.9-6-4.6-4.3-3.5-9.2-7.8-14.5-12.2-2.7-2.2-5.5-4.5-8.5-6.7s-6.1-4.2-9.3-6.2c-6.3-3.9-12.7-7.6-18.8-11-6-3.4-11.7-6.5-16.5-9.2-9.7-5.3-12.7-6.6-12.7-6.6l-7.8 1.4z"/><path class="st2" d="M157.3 143.4s7.4 4.9 15.5 8.9c8.1 4.1 18.9 9.5 29.5 15.1 2.7 1.4 5.3 2.8 7.9 4.3 1.3.7 2.5 1.5 3.8 2.2l3.6 2.4c4.7 3.2 9 6.3 12.7 9 3.7 2.7 6.8 4.9 8.9 6.5 2.2 1.6 3.4 2.4 3.4 2.4s-1.2-.9-3.3-2.6c-2.1-1.7-5-4.1-8.6-7-3.5-2.9-7.7-6.3-12.3-9.7-1.2-.9-2.3-1.7-3.5-2.6-1.2-.9-2.5-1.7-3.7-2.5-2.5-1.6-5.1-3.2-7.7-4.8-10.4-6.3-20.9-12.4-28.8-16.9-7.9-4.5-10.5-5.8-10.5-5.8l-6.9 1.1z"/><path class="st2" d="M149 144.9s7.3 4 15.6 8.2c4.2 2.1 9 4.6 14.2 7.4 2.6 1.4 5.2 2.9 7.9 4.4 2.7 1.5 5.4 3.1 8 4.8 2.6 1.6 5.3 3.4 7.8 5.1 2.5 1.7 5 3.5 7.4 5.2 4.8 3.5 9.1 6.9 12.9 9.7 1.9 1.4 3.7 2.7 5.3 3.8 1.6 1.1 3 2 4.3 2.6l1.6.8c.5.2.9.4 1.2.5.7.2 1.1.4 1.1.4s-.4-.1-1-.4c-.3-.1-.8-.3-1.2-.6-.5-.2-1-.5-1.6-.9-1.2-.7-2.6-1.6-4.1-2.8-1.5-1.1-3.2-2.5-5.1-4-3.6-3-7.8-6.6-12.5-10.4-2.3-1.9-4.7-3.8-7.2-5.7-2.5-1.9-5-3.7-7.7-5.6-2.6-1.8-5.2-3.6-7.9-5.3-2.6-1.7-5.2-3.3-7.7-4.9-5.1-3.1-9.8-5.9-13.9-8.2-8.2-4.7-10.8-6-10.8-6l-6.6 1.9z"/><path class="st2" d="M138.9 147.4s3.6 1.8 4.1 1.9c.5.1 1.3.3 2.4.6 1 .3 2.3.7 3.8 1.1 1.5.5 3.1 1 4.9 1.7.9.3 1.8.7 2.8 1.1l3 1.2c2 .8 4.2 1.9 6.4 2.9 2.2 1.1 4.5 2.2 6.7 3.4 2.3 1.2 4.6 2.4 6.9 3.7 2.3 1.3 4.6 2.6 6.8 3.9 2.2 1.4 4.4 2.6 6.5 4 2.1 1.4 4.1 2.7 6 3.9 1.9 1.3 3.6 2.5 5.3 3.6 1.6 1.1 3.1 2.2 4.4 3.1 1.3 1 2.4 1.8 3.4 2.5 1.9 1.4 2.9 2.2 2.9 2.2s-1-.9-2.8-2.4c-.9-.8-2-1.7-3.2-2.7-1.2-1.1-2.6-2.2-4.2-3.4-1.6-1.2-3.3-2.6-5-4-1.8-1.4-3.8-2.8-5.7-4.3-2-1.5-4.1-3-6.2-4.5-2.1-1.5-4.4-3-6.6-4.5-2.2-1.5-4.5-2.9-6.7-4.3s-4.5-2.6-6.6-3.9c-2.2-1.2-4.3-2.4-6.4-3.4l-3-1.5c-1-.5-1.9-.9-2.8-1.3-1.8-.9-3.5-1.6-5-2.2-1.5-.6-2.9-1.1-4-1.5 0 0 .7.2 0 0-.6-.2 0 0 0 0l-8.1 3.1z"/><path class="st2" d="M131.2 148.8s2.4 2 3 2.1c.5.1 2.3.8 3.4 1 2 .5 5 1.2 8.4 2.4 1.7.6 3.6 1.3 5.5 2.1s3.9 1.8 6 2.9c1 .6 2 1.1 3 1.8l1.5.9c.5.3 1 .7 1.5 1 2 1.4 4.1 3 6.2 4.5 8.5 5.9 17.5 11.1 24.4 14.4 1.7.8 3.3 1.6 4.8 2.1 1.4.6 2.7 1.1 3.8 1.4 1.1.3 1.9.6 2.5.7.6.1.9.2.9.2l-.9-.3c-.6-.2-1.4-.5-2.4-.9s-2.2-1-3.6-1.7-2.9-1.5-4.6-2.5c-6.6-3.9-15-9.7-22.9-16.2-2-1.6-3.8-3.3-5.8-5-.5-.4-1-.8-1.5-1.3-.5-.4-1-.8-1.6-1.2-1-.8-2.1-1.5-3.1-2.2-2.1-1.4-4.2-2.6-6.2-3.6s-4-2-5.8-2.7c-3.6-1.6-6.7-2.6-8.9-3.3-1.1-.3.6.2 0 0l-7.6 3.4zm-8.7 3.4s3 2.1 4.9 2.7c1.9.6 4.7 1.5 8 2.6s7.1 2.5 11.2 4.1c2 .8 4.1 1.7 6.2 2.6 2.1 1 4.2 2 6.2 3.1s4.1 2.4 6 3.6c2 1.3 3.9 2.5 5.7 3.8 3.7 2.5 7.2 4.9 10.4 6.6 1.6.9 3.1 1.6 4.4 2.2 1.3.6 2.5 1.1 3.5 1.4 1 .4 1.7.6 2.3.8.5.2.8.3.8.3s-.3-.1-.8-.3c-.5-.2-1.3-.5-2.2-.9-.9-.4-2.1-1-3.3-1.6-1.3-.7-2.7-1.5-4.2-2.5-3-1.9-6.3-4.5-9.8-7.3-1.8-1.4-3.6-2.8-5.5-4.2-2-1.4-3.8-2.8-5.9-4.1-2-1.3-4.2-2.5-6.2-3.7-2.1-1.1-4.2-2.2-6.2-3.2-4-2-7.9-3.7-11.2-5.1-3.3-1.4-6.1-2.5-8-3.3l-6.3 2.4z"/><path class="st2" d="M115.7 153.6s-3.4-2.7 0 0c.4.1 4.5 2.9 5.4 3.1 1.7.3 4.2.9 7.1 1.7 1.5.4 3 .9 4.7 1.5 1.7.6 3.4 1.2 5.2 2 1.8.7 3.6 1.6 5.4 2.5.9.4 1.8.9 2.7 1.5.9.5 1.8 1 2.7 1.6 3.5 2.2 6.8 4.9 10.1 7.2 3.3 2.4 6.5 4.3 9.4 5.7 2.8 1.4 5.2 2.6 6.9 3.3 1.7.7 2.7 1.2 2.7 1.2s-.9-.5-2.6-1.4c-1.6-.9-3.9-2.2-6.7-3.8-2.7-1.7-5.7-3.8-8.8-6.3-3-2.5-6.1-5.6-9.7-8.1-.9-.6-1.8-1.3-2.7-1.9-.9-.6-1.8-1.2-2.7-1.7-1.8-1.1-3.7-2.2-5.5-3.1-1.8-.9-3.6-1.8-5.3-2.5-1.7-.7-3.3-1.4-4.8-2-3-1.1-5.6-1.9-7.4-2.4 0 0 .5.1 0 0l-6.1 1.9z"/><path class="st2" d="M108.9 156.4s2.5 1.7 4 2.2c1.6.5 3.8 1.2 6.5 2.1 2.7.9 5.8 2 9.1 3.3 1.7.6 3.3 1.3 5 2.1.8.4 1.7.8 2.5 1.2.9.4 1.7.9 2.5 1.3 3.2 1.9 6.4 4.2 9.6 6.1 1.6.9 3.1 1.8 4.7 2.5 1.5.7 3 1.4 4.3 1.9 1.4.5 2.6.9 3.7 1.3 1.1.3 2.1.6 2.9.8 1.6.4 2.5.6 2.5.6s-.9-.3-2.5-.9c-.8-.3-1.7-.7-2.8-1.1-1.1-.5-2.3-1-3.6-1.6-1.3-.6-2.7-1.4-4.1-2.2-1.4-.8-2.9-1.8-4.3-2.9-2.9-2.1-5.8-4.7-9.2-7-.8-.6-1.7-1.1-2.5-1.6-.9-.5-1.7-1-2.6-1.5-1.7-1-3.4-1.8-5-2.7-3.3-1.6-6.4-3-9.1-4.2-2.7-1.2-4.9-2.1-6.5-2.7-1.6-.6 0 0 0 0l-5.1 3zm-9.4 3.4s-2.1-1.9 0 0c.1 0-.2 0 0 0 .4 0 3.5 1.9 4.3 2 1.6.2 3.9.5 6.7 1.2 2.8.7 6 1.7 9.4 3.1.9.3 1.7.7 2.6 1.1.8.3 1.7.8 2.6 1.2.9.4 1.7.9 2.6 1.3.8.5 1.7 1 2.6 1.5 3.4 2.1 6.7 4.5 10 6.5 1.7 1 3.3 1.8 4.9 2.6.8.3 1.6.7 2.4 1 .8.3 1.5.5 2.2.8 1.4.4 2.8.9 3.9 1.1 1.2.3 2.2.5 3.1.7 1.7.3 2.7.5 2.7.5s-1-.3-2.6-.7c-.8-.2-1.8-.6-3-.9-1.2-.3-2.4-.9-3.8-1.4l-2.1-.9c-.7-.4-1.5-.7-2.2-1.1-1.5-.8-3-1.8-4.6-2.9-3.1-2.1-6.1-4.8-9.5-7.2-.8-.6-1.7-1.2-2.5-1.8-.9-.6-1.8-1.2-2.6-1.7-.9-.5-1.7-1-2.6-1.5-.9-.5-1.7-.9-2.6-1.4-3.5-1.7-6.8-3.1-9.8-4.1-2.9-1-5.5-1.6-7.3-1.9-.9-.2.5.1 0 0-.3 0 .6.1 0 0-.1 0 0 0 0 0l-4.8 2.9zm-8.4 3.3s3.7 2 5 2.3c1.3.3 3.2.7 5.5 1.3 2.3.6 4.9 1.3 7.7 2.2 2.8.9 5.8 1.8 8.8 2.9 3 1.1 6 2.2 8.7 3.4 1.4.6 2.7 1.1 4 1.7 1.2.6 2.4 1.1 3.5 1.7 1.1.5 2.1 1 2.9 1.5.9.5 1.6.9 2.2 1.2 1.2.7 1.9 1.1 1.9 1.1s-.7-.5-1.8-1.3c-.6-.4-1.3-.9-2.1-1.5-.8-.5-1.8-1.2-2.8-1.8-1-.7-2.2-1.4-3.3-2.1-1.2-.7-2.5-1.5-3.8-2.2-2.7-1.5-5.5-3-8.5-4.5-2.9-1.5-5.9-2.8-8.7-4-2.8-1.2-5.4-2.3-7.7-3.2-2.3-.9-4.2-1.6-5.5-2.1-1.4-.5 0 0 0 0l-6 3.4z"/><path class="st2" d="M87.4 165.4s1.6 1.5 1.9 1.8c.3.3.7.6 1.3 1.1 1.1.9 2.6 2.1 4.6 3.5 1.9 1.4 4.2 3 6.6 4.6 1.3.8 2.5 1.6 3.8 2.4 1.3.8 2.7 1.6 4 2.3 1.4.8 2.7 1.5 4.1 2.1 1.4.7 2.7 1.3 4 1.9 1.3.6 2.6 1.1 3.8 1.6 1.2.5 2.4.9 3.5 1.3s2.1.7 2.9 1c.9.2 1.7.5 2.3.6 1.3.4 2 .6 2 .6s-.7-.3-1.9-.8c-.6-.3-1.3-.6-2.2-.9l-2.8-1.4c-1-.5-2.1-1.1-3.2-1.7-1.1-.6-2.3-1.3-3.5-2.1-1.2-.7-2.5-1.5-3.7-2.3-1.2-.8-2.5-1.7-3.7-2.6l-3.6-2.7c-1.2-.9-2.3-1.9-3.4-2.7-2.2-1.8-4.1-3.6-5.7-5.2l-3.8-3.8c-.4-.5-.8-.8-1-1.1-.2-.3-.3-.4-.3-.4l-6 2.9z"/><path class="st2" d="M81.4 169.8s.1.1.3.2c.2.2.4.4.8.7.6.5 1.5 1.2 2.6 2s2.4 1.7 3.8 2.5c1.4.9 2.9 1.7 4.5 2.4.8.4 1.6.7 2.3 1.1.8.3 1.5.6 2.3.9.7.3 1.5.5 2.1.7.7.2 1.3.4 1.9.6 1.2.4 2.2.6 2.9.7.7.2 1.1.2 1.1.2l-1-.5c-.6-.3-1.5-.8-2.6-1.5-.5-.3-1.1-.7-1.7-1.1-.6-.4-1.2-.8-1.8-1.3-.6-.5-1.2-.9-1.8-1.4-.6-.5-1.2-1-1.8-1.6-1.2-1.1-2.3-2.2-3.3-3.3-1-1.1-1.9-2.1-2.6-3-.7-.9-1.3-1.7-1.6-2.2-.2-.3-.3-.5-.4-.6-.1-.1-.1-.2-.1-.2l-5.9 4.7zm-14.7 8.9s2.4 1.4 2.6 1.5c.3.2.6.4 1 .6.9.5 2.1 1.1 3.5 1.8s3.1 1.4 5 2c1.8.6 3.8 1.3 5.8 1.7 1 .3 2 .4 2.9.6 1 .2 1.9.3 2.8.5.9.2 1.8.2 2.6.3.8.1 1.6.1 2.3.1 1.4.1 2.6 0 3.5 0 .8 0 1.3-.1 1.3-.1s-.5-.1-1.3-.3c-.8-.2-2-.5-3.4-1-.7-.2-1.4-.5-2.2-.8-.8-.3-1.6-.6-2.4-1-.8-.4-1.7-.7-2.5-1.2-.8-.4-1.7-.9-2.5-1.4-1.7-.9-3.2-2-4.7-3-1.4-1-2.7-2-3.8-2.9-1.1-.9-1.9-1.7-2.4-2.2l-.6-.6-.2-.2-7.3 5.6zm-7.8 6.2s2 .7 2.8 1.1c.7.3 1.8.8 3 1.3 2.5 1.1 5.9 2.3 9.3 3.3 1.7.5 3.4 1 5 1.3.8.2 1.6.3 2.3.5.7.1 1.4.3 2.1.3 1.3.2 2.3.3 3.1.4.7.1 1.2.1 1.2.1s-.4-.1-1.1-.4c-.7-.2-1.7-.6-2.9-1.1-.6-.2-1.2-.5-1.9-.9-.7-.3-1.4-.7-2.1-1-1.4-.7-2.9-1.6-4.4-2.5-3-1.8-5.8-3.7-7.8-5.3-1-.8-1.8-1.4-2.4-1.9-.5-.5-.8-.7-.8-.7l-5.4 5.5z"/><path class="st2" d="M18.1 241.4s2.4-4.5 7.1-12.1c4.7-7.6 11.9-18.2 21.7-29.9 2.5-2.9 5.1-5.9 7.9-8.9.7-.7 1.4-1.5 2.2-2.2l1.1-1.1 1.1-1c.8-.7 1.6-1.4 2.4-2.2l1.2-1.1 1.3-1c6.7-5.5 14.6-10.4 23.1-14.8 8.5-4.4 17.8-8.3 27.4-11.7 9.6-3.4 19.7-6.2 29.9-8.5s20.6-3.9 31-5.1c10.4-1.2 20.7-2 30.7-2.4 10-.4 19.8-.3 29 .1 9.3.4 18 1 26.1 1.8 4.1.4 7.9.8 11.6 1.2 3.7.4 7.2.8 10.5 1.2 6.6.8 12.3 1.6 17.1 2.2 9.5 1.4 14.9 2.2 14.9 2.2l.1-1.2s-5.4-.9-14.9-2.4c-4.7-.7-10.5-1.6-17.1-2.5-3.3-.5-6.8-.9-10.5-1.3-3.7-.5-7.6-.9-11.7-1.3-8.1-.8-16.9-1.5-26.2-2s-19.1-.6-29.2-.3c-10.1.3-20.5 1-30.9 2.1-5.2.5-10.5 1.2-15.7 2-5.2.8-10.5 1.8-15.6 3-10.3 2.3-20.5 5.2-30.2 8.5-9.7 3.4-19.1 7.3-27.8 11.7-8.7 4.6-16.7 9.5-23.6 15.2l-1.3 1-1.2 1.1c-.8.7-1.6 1.5-2.4 2.2L56 185l-1.1 1.1c-.7.8-1.5 1.5-2.2 2.3-2.9 3-5.6 6-8.1 8.9-5 5.9-9.2 11.6-12.9 16.7-3.6 5.1-6.6 9.7-9 13.5-4.8 7.7-7.2 12.3-7.2 12.3l2.6 1.6z"/></g></g><g class="st0"><path class="st3" d="M119 143.3c.3-1.5-3.5-14.8-7.3-22.9-3.9-8.1-8.4-23.6-3.9-23.8 4.6-.3 6.6 15.8 7.2 17.4.6 1.6 9.1 18.8 10.7 19.6 1.7.8 3-.1 8.9-5.1 5.9-4.9 8.4-4.3 5.5-8-2.9-3.7-22.6-24.3-21.2-25.4 1.5-1.1 2.7 0 9.6 6.6 6.9 6.6 14.3 19.2 15.4 19.6 1.1.4 2.3 1.7 3.9-1.8s8.5-13.5 8-15.6c-.5-2.1-18.9-12.8-21.2-13.6-2.3-.8-14.8-5.8-14-9.5.8-3.7 8.8.2 13.1 1.8 4.3 1.6 20.1 12.1 22 13.6-.2-4 1.6-18.1 2.5-19.4-1.8-.8-18.1-4.7-20-5-1.9-.3-13.4.6-12.2-2.8 1.2-3.4 9.4-2.7 10-2.8.6 0 17 5.9 19.7 6 2.7.1 4.9 1.6 4.1-2.6-.8-4.2-2-8.9-2.1-11.3-.1-2.4.3-11.4-1.5-11.1-1.8.3-4.6 2.2-7.4 3.2-2.8 1-18.4 3.6-19.1 2.4-.7-1.2 7.7-6.5 9-6.6 1.3-.2 15.8 0 15.5-2.3-.4-2.2.1-18.5-2.5-23.2-3 3.2-11.5 11.6-13.8 13.6-2.2 2-10.3 9-11.6 7.5s1.3-7.6 3.8-9c2.5-1.4 14.1-9.8 14.1-19.1-4.2-1.8-10.5-4.5-12.9-6-2.4-1.6-9.8-4.8-11.1-4.4-1.4.4-1.9.8-2.4 9.2-.4 8.4-2.7 21-6.3 19.9-3.5-1.1 6-28.2 5.2-28.7-.8-.5-5.1-1.8-6-2-1 .1-11.3-1.4-12 .3s-.4 13.8.4 19.1c.8 5.4 3 18.5-1.4 17.6-4.4-.9-4.8-13-4.8-14.9.1-1.9 5-21.1 2.8-22.3C93.5.2 79.4 3.8 77.6 4.2c-1.6.4-12.3 4.4-12.3 4.4s8.6 4 10.2 8.2c1.6 4.2 9.7 24.7 6.6 26.2-3.1 1.4-8.8-14.8-11.7-17.9-2.9-3.1-12-14.3-12-14.3s-19.6 8-18.4 16.4c4.8 3.5 18.6 9.9 20.8 11.4 2.2 1.5 10.9 9.2 10.4 11-.5 1.8-1.9 3.3-8.6-1.9-6.7-5.2-29.5-17.9-29.5-17.9S20.2 44 19.4 51.9c1.6 1.5 14.2.7 15.6 1 1.3.1 23.7 5.2 20 10.6-3 .1-17-2-35.2-9.3-.8 2.6-1.5 9.8-3.3 12.4s-4.1 7.1-2.4 9.6c1.6 2.5 17.4.3 19.3.3 1.9.1 19.1-1.8 16.7 3-2.4 4.9-37 3.2-37 3.2s-2.6 16.4 3.2 24.9c3-1.6 13.8-6 16.8-7.2 3-1.2 14-1.8 13.2 2.3-.7 4.1-3 5.5-6 6.2-3 .7-18.9 5-18.7 6.1.2 1.1 12.7 12.7 13.4 14 1.5 3 2.3 5.1 2.3 5.1s4.6 7.4 6 8.2c.5-2.4 9.9-16.1 14.3-17.7 1.3 1.7 2 2.7 2 2.7s-11.8 11.6-14.2 17c3.4 3.5 5.4 7.6 19.8 9.4.2-2.5 3.7-21.1 4.7-21.4 1-.3 2.5.8-1.9 20.8 4.2.7 22.3-.3 23.4-2.1 1.1-1.9-.7-11.9 0-16.9.6-5 2-26 6-25.3 4.1.7 3.9 6.7 4.1 10.4.3 3.7-4.1 24.8-2.8 26.5 1.3 1.7 3.6 3.5 3.6 3.5s16.4-4.4 16.7-5.9zM108.1 81c3.8 2.8 6 4.5 5.6 6.8-.4 2.4-4.4-.5-8.2-3.3-3.8-2.8-7.4-4.4-5.6-6.8.7-.9 4.3.5 8.2 3.3zm8.9-16.6c3 .5 5.3 1.9 5.1 3.1-.2 1.2-2.8 1.7-5.8 1.2s-5.3-1.9-5.1-3.1c.2-1.2 2.8-1.7 5.8-1.2zm1.7-10.6c2.7.1 4.9 1.1 4.9 2.3 0 1.2-2.3 2.2-5 2.1-2.7-.1-4.9-1.1-4.9-2.3.1-1.3 2.3-2.2 5-2.1zm-7-14.5c.8.2 1.1 1.8.6 3.6-.5 1.8-1.5 3.1-2.3 2.9-.8-.2-1.1-1.8-.6-3.6.5-1.9 1.5-3.1 2.3-2.9zm-14.2 5.8c2.5-.8 3.5 2.1 4.5 5.6s.6 6.7-.8 7.2c-1.5.4-3.5-2.1-4.5-5.6s-.6-6.7.8-7.2zM83.9 54c3-2.2 4.9.8 7.5 4.3 2.6 3.5 4.1 6.8 1.9 8.4-1.5 1.1-4.9-.8-7.5-4.3-2.6-3.5-3.5-7.3-1.9-8.4zM67.5 68.9c1.3-3.5 4.5-2 8.6-.5s7.2 3.4 6.2 6c-.7 1.8-4.5 2-8.6.5s-6.9-4.2-6.2-6zm-8 14.7c1.3-3.5 4.5-2 8.6-.5s7.5 5.5 6.6 8.1c-.7 1.8-4.9-.1-9-1.6s-6.8-4.2-6.2-6zm-2.2 19.8c-2.7.2-5-.6-5.1-1.8-.1-1.2 2-2.4 4.8-2.6 2.7-.2 5 .6 5.1 1.8 0 1.3-2.1 2.4-4.8 2.6zm45.1-32.3c.4-1.2 2.8-1.4 5.4-.6 2.6.8 4.2 2.4 4 3.6-.4 2.5-2.8 1.4-5.4.6-2.6-.8-4.4-2.4-4-3.6zM90.1 97.9c-1.5-.3-2.8-3-2.8-6.7s1.3-6.6 2.8-6.6c2.6-.1 3.2 2.9 3.2 6.6 0 3.7 1.9 7.7-3.2 6.7zm-7.2 21.3c-1.2.1-2.4-2.8-2.7-6.4-.3-3.7.4-6.6 1.6-6.8 2-.3 2.4 2.8 2.7 6.4.3 3.7-.4 6.7-1.6 6.8z"/><path class="st4" d="M120.6 142.1c.3-1.5-3.5-14.8-7.3-22.9-3.9-8.1-8.4-23.6-3.9-23.8 4.6-.3 6.6 15.8 7.2 17.4.6 1.6 9.1 18.8 10.7 19.6 1.7.8 3-.1 8.9-5.1 5.9-4.9 8.4-4.3 5.5-8-2.9-3.7-22.6-24.3-21.2-25.4 1.5-1.1 2.7 0 9.6 6.6 6.9 6.6 14.3 19.2 15.4 19.6 1.1.4 2.3 1.7 3.9-1.8s8.5-13.5 8-15.6c-.5-2.1-18.9-12.8-21.2-13.6-2.3-.8-14.8-5.8-14-9.5.8-3.7 8.8.2 13.1 1.8 4.3 1.6 20.1 12.1 22 13.6-.2-4 1.6-18.1 2.5-19.4-1.8-.8-18.1-4.7-20-5-1.9-.3-13.4.6-12.2-2.8 1.2-3.4 9.4-2.7 10-2.8.6 0 17 5.9 19.7 6 2.7.1 4.9 1.6 4.1-2.6-.8-4.2-2-8.9-2.1-11.3-.1-2.4.3-11.4-1.5-11.1-1.8.3-4.6 2.2-7.4 3.2-2.8 1-18.4 3.6-19.1 2.4-.7-1.2 7.7-6.5 9-6.6 1.3-.2 15.8 0 15.5-2.3-.4-2.2.1-18.5-2.5-23.2-3 3.2-11.5 11.6-13.8 13.6-2.2 2-10.3 9-11.6 7.5s1.3-7.6 3.8-9c2.5-1.4 14.1-9.8 14.1-19.1-4.2-1.8-10.5-4.5-12.9-6-2.4-1.6-9.8-4.8-11.1-4.4-1.4.4-1.9.8-2.4 9.2-.4 8.4-2.7 21-6.3 19.9-3.5-1.1 6-28.2 5.2-28.7-.8-.5-5.1-1.8-6-2-.9-.1-11.3-1.6-11.9.1s-.4 13.8.4 19.1c.8 5.4 3 18.5-1.4 17.6-4.4-.9-4.8-13-4.8-14.9.1-1.9 5-21.1 2.8-22.3C95.3-1 81.1 2.6 79.4 3c-1.7.4-12.5 4.4-12.5 4.4s8.6 4 10.2 8.2c1.6 4.2 9.7 24.7 6.6 26.2C80.6 43.3 74.9 27 72 23.9c-2.9-3-12-14.3-12-14.3s-19.6 8-18.4 16.4c4.8 3.5 18.6 9.9 20.8 11.4 2.2 1.5 10.9 9.2 10.4 11-.5 1.8-1.9 3.3-8.6-1.9-6.7-5.2-29.5-17.9-29.5-17.9S21.8 42.9 21 50.7c1.6 1.5 14.2.7 15.6 1 1.4.2 23.8 5.3 20.1 10.7-3 .1-17-2-35.2-9.3-.8 2.6-1.5 9.8-3.3 12.4-1.8 2.6-4.1 7.1-2.4 9.6 1.6 2.5 17.4.3 19.3.3 1.9.1 19.1-1.8 16.7 3-2.4 4.9-37 3.2-37 3.2S12.2 98 18 106.5c3-1.6 13.8-6 16.8-7.2 3-1.2 14-1.8 13.2 2.3-.7 4.1-3 5.5-6 6.2-3 .7-18.9 5-18.7 6.1.2 1.1 12.7 12.7 13.4 14 1.5 3 2.3 5.1 2.3 5.1s4.6 7.4 6 8.2c.5-2.4 9.9-16.1 14.3-17.7 1.3 1.7 2 2.7 2 2.7s-11.8 11.6-14.2 17c3.4 3.5 5.4 7.6 19.8 9.4.2-2.5 3.7-21.1 4.7-21.4 1-.3 2.5.8-1.9 20.8 4.2.7 22.3-.3 23.4-2.1 1.1-1.9-.7-11.9 0-16.9.6-5 2-26 6-25.3 4.1.7 3.9 6.7 4.1 10.4.3 3.7-4.1 24.8-2.8 26.5 1.3 1.7 3.6 3.5 3.6 3.5s16.3-4.5 16.6-6zm-10.9-62.3c3.8 2.8 6 4.5 5.6 6.8-.4 2.4-4.4-.5-8.2-3.3-3.8-2.8-7.4-4.4-5.6-6.8.7-.9 4.3.5 8.2 3.3zm8.9-16.6c3 .5 5.3 1.9 5.1 3.1-.2 1.2-2.8 1.7-5.8 1.2s-5.3-1.9-5.1-3.1c.2-1.1 2.8-1.7 5.8-1.2zm1.7-10.6c2.7.1 4.9 1.1 4.9 2.3 0 1.2-2.3 2.2-5 2.1-2.7-.1-4.9-1.1-4.9-2.3.1-1.2 2.3-2.2 5-2.1zm-7-14.5c.8.2 1.1 1.8.6 3.6-.5 1.8-1.5 3.1-2.3 2.9-.8-.2-1.1-1.8-.6-3.6.5-1.8 1.5-3.1 2.3-2.9zM99.1 44c2.5-.8 3.5 2.1 4.5 5.6s.6 6.7-.8 7.2c-1.5.4-3.5-2.1-4.5-5.6-1-3.6-.6-6.7.8-7.2zm-13.6 8.8c3-2.2 4.9.8 7.5 4.3s4.1 6.8 1.9 8.4c-1.5 1.1-4.9-.8-7.5-4.3-2.6-3.5-3.5-7.3-1.9-8.4zm-16.4 15c1.3-3.5 4.5-2 8.6-.5s7.2 3.4 6.2 6c-.7 1.8-4.5 2-8.6.5s-6.9-4.2-6.2-6zm-8 14.6c1.3-3.5 4.5-2 8.6-.5s7.5 5.5 6.6 8.1c-.7 1.8-4.9-.1-9-1.6s-6.8-4.2-6.2-6zm-2.2 19.9c-2.7.2-5-.6-5.1-1.8-.1-1.2 2-2.4 4.8-2.6 2.7-.2 5 .6 5.1 1.8 0 1.2-2.1 2.3-4.8 2.6zm45-32.3c.4-1.2 2.8-1.4 5.4-.6 2.6.8 4.2 2.4 4 3.6-.4 2.5-2.8 1.4-5.4.6-2.5-.9-4.3-2.5-4-3.6zM91.7 96.8c-1.5-.3-2.8-3-2.8-6.7s1.3-6.6 2.8-6.6c2.6-.1 3.2 2.9 3.2 6.6 0 3.6 1.9 7.7-3.2 6.7zM84.5 118c-1.2.1-2.4-2.8-2.7-6.4-.3-3.7.4-6.6 1.6-6.8 2-.3 2.4 2.8 2.7 6.4.3 3.7-.4 6.7-1.6 6.8z"/><path class="st5" d="M0 156.2s7.1-5 17.7-12.8c5.3-3.9 11.4-8.5 17.8-13.5 3.2-2.5 6.5-5.2 9.9-7.9 3.3-2.7 6.7-5.5 10-8.4 1.7-1.4 3.3-2.9 4.9-4.3 1.6-1.5 3.2-3 4.7-4.4 3.1-3 6-6 8.8-9 2.8-3 5.5-5.9 8-8.7 2.5-2.8 4.8-5.5 7-8 8.5-10 13.8-16.9 13.8-16.9s-5.1 7.1-13.4 17.3c-2.1 2.6-4.3 5.3-6.7 8.2-2.4 2.9-5 5.9-7.8 9-2.7 3.1-5.6 6.2-8.6 9.3-1.5 1.6-3.1 3.1-4.6 4.6l-4.8 4.5c-3.2 3-6.5 5.9-9.8 8.7-3.3 2.8-6.5 5.5-9.7 8.2-6.3 5.2-12.3 10-17.5 14.1C9.3 154 2.2 159.3 2.2 159.3L0 156.2z"/></g></svg>