<svg id="Layer_1" xmlns="http://www.w3.org/2000/svg" width="321.9" height="452.4" viewBox="0 0 321.9 452.4"><style>.st0{opacity:.9}.st1,.st2{opacity:.8;fill:#91a43a}.st2{fill:#197a48}.st3{fill:#99b279}.st4{opacity:.8}.st5{fill:#2f9575}.st6{fill:#85bd7e}.st7{opacity:.7}.st8{opacity:.8;fill:#172e57}.st9{fill:#57bd7f}</style><g class="st0"><path class="st1" d="M308.2 134.2c-1.8-.5-18.5 3.5-28.7 7.9s-29.5 9.2-29.6 3.5c-.1-5.6 19.8-7.4 21.9-8 2.1-.6 23.6-10.2 24.8-12.2 1.1-2 0-3.7-5.8-11.2-5.8-7.5-4.9-10.6-9.6-7.2-4.7 3.4-31.2 26.6-32.4 24.8-1.3-1.9.2-3.3 8.7-11.5s24.4-16.7 25-18c.6-1.4 2.2-2.7-2-4.8-4.2-2.2-16.2-11.2-18.8-10.7-2.6.5-16.8 22.7-17.9 25.4-1.1 2.7-8 18-12.5 16.8-4.5-1.2.6-10.8 2.9-16 2.2-5.2 16-24.1 17.9-26.4-4.9.1-22.3-2.9-23.8-4.1-1 2.2-6.7 22.1-7.2 24.4-.4 2.3 0 16.6-4.1 14.9s-2.9-11.7-2.9-12.4c0-.7 8.2-20.6 8.4-24 .2-3.4 2.2-5.9-3-5.2-5.2.8-11.1 2-14 2-3 0-14-1-13.7 1.3s2.4 5.8 3.5 9.3c1.1 3.5 3.5 22.9 2 23.7-1.5.7-7.6-9.8-7.7-11.4-.1-1.7.8-19.5-2-19.2-2.8.3-22.8-1.1-28.7 1.9 3.8 3.9 13.7 14.8 16.1 17.7 2.4 2.8 10.6 13.2 8.7 14.7-1.9 1.5-9.3-2-10.9-5.1-1.6-3.1-11.3-17.9-22.8-18.4-2.5 5.1-6.1 12.7-8.1 15.6-2 2.9-6.5 11.8-6.1 13.5.4 1.7.9 2.4 11.2 3.4 10.3 1 25.8 4.5 24.2 8.8-1.6 4.3-34.4-8.8-35.1-7.9-.6.9-2.5 6.2-2.8 7.3-.2 1.1-2.6 13.9-.5 14.7 2.1.8 17 1.3 23.6.5 6.7-.8 22.9-2.8 21.6 2.6-1.4 5.4-16.3 5.3-18.6 5.1-2.3-.2-25.7-7.3-27.4-4.6-1.7 2.6 2 20.3 2.4 22.4.5 2.2 4.8 15.6 4.8 15.6s5.4-10.3 10.7-12.1c5.2-1.8 31-10.7 32.6-6.8 1.6 3.9-18.7 10.1-22.7 13.5-3.9 3.4-18.3 14-18.3 14s8.8 24.6 19.3 23.5c4.5-5.8 13.2-22.5 15.1-25 2-2.6 11.9-12.9 14.1-12.2 2.2.7 3.9 2.6-2.8 10.6-6.8 8-23.6 35.4-23.6 35.4s16.9 16.7 26.5 18.1c2-1.8 1.6-17.5 2-19.2.3-1.7 7.8-29 14.2-24.2 0 3.7-3.3 20.8-13.3 42.9 3.2 1.1 12 2.4 15.1 4.7 3.1 2.4 8.6 5.4 11.8 3.5 3.2-1.9 1.2-21.4 1.4-23.7.2-2.3-1.3-23.7 4.6-20.4 5.9 3.2 2 45.8 2 45.8s20.1 4.1 30.9-2.7c-1.8-3.8-6.7-17.3-8-21.1-1.3-3.8-1.5-17.3 3.5-16.2 5 1.1 6.6 4 7.4 7.7.8 3.7 5.2 23.5 6.5 23.4 1.4-.2 16.3-15 17.9-15.8 3.8-1.7 6.4-2.6 6.4-2.6s9.3-5.3 10.4-7c-3-.7-19.4-13-21.1-18.5 2.2-1.5 3.4-2.3 3.4-2.3s13.6 15.1 20.3 18.4c4.5-4 9.7-6.3 12.7-23.9-3-.4-25.9-5.7-26.2-6.9-.3-1.3 1.2-3.1 25.6 3.4 1-5.1.8-27.5-1.4-29s-14.7.2-20.9-.8c-6.2-1.1-32-3.8-30.9-8.7 1.1-5 8.4-4.4 13.1-4.6 4.6-.1 30.4 6.3 32.6 4.9 2.2-1.5 4.5-4.3 4.5-4.3s-4.5-20.8-6.4-21.3zm-77.3 10.3c3.6-4.6 5.9-7.1 8.7-6.6 2.9.6-.8 5.4-4.5 9.9-3.6 4.6-5.8 8.9-8.7 6.6-1.2-.9.8-5.4 4.5-9.9zm-20.1-11.9c.8-3.7 2.6-6.4 4-6.1 1.4.3 2 3.5 1.2 7.2s-2.6 6.4-4 6.1c-1.4-.4-1.9-3.6-1.2-7.2zm-13-2.7c.2-3.4 1.6-6 3.1-5.9 1.5.1 2.5 2.9 2.3 6.3-.2 3.4-1.6 6-3.1 5.9-1.5-.1-2.5-2.9-2.3-6.3zm-18.2 7.9c.3-1 2.3-1.2 4.5-.6 2.2.7 3.7 2 3.4 3-.3 1-2.3 1.2-4.5.6-2.2-.7-3.7-2.1-3.4-3zm6.5 17.8c-.9-3.1 2.8-4.2 7.2-5.3 4.4-1.1 8.3-.4 8.8 1.4.4 1.8-2.8 4.2-7.2 5.3-4.5 1.1-8.3.4-8.8-1.4zm10.2 17.3c-2.6-3.8 1.2-6 5.7-9s8.6-4.7 10.5-1.9c1.3 2-1.2 6-5.7 9s-9.2 3.9-10.5 1.9zm17.6 21c-4.3-1.8-2.3-5.7-.2-10.7 2.1-5 4.6-8.7 7.7-7.4 2.2.9 2.3 5.7.2 10.7-2.1 5-5.6 8.3-7.7 7.4zm17.6 10.6c-4.3-1.8-2.3-5.7-.2-10.7 2.1-5 7.2-9 10.3-7.7 2.2.9-.4 6-2.4 11s-5.5 8.3-7.7 7.4zm24.4 3.8c.1 3.4-1 6.2-2.5 6.2-1.5.1-2.8-2.6-3-6-.1-3.4 1-6.2 2.5-6.2s2.8 2.6 3 6zM218.4 151c-1.4-.5-1.6-3.5-.4-6.7 1.2-3.2 3.2-5.1 4.7-4.8 3.1.6 1.6 3.5.4 6.7-1.2 3.2-3.3 5.3-4.7 4.8zm32.4 16.6c-.4 1.8-3.8 3.3-8.4 3.1-4.5-.2-8-1.9-8-3.8 0-3.2 3.7-3.8 8.3-3.6 4.5.1 9.6-2 8.1 4.3zm25.9 9.9c.1 1.5-3.6 2.8-8.1 3s-8.2-.9-8.3-2.3c-.3-2.5 3.6-2.8 8.1-3 4.5-.2 8.2.8 8.3 2.3z"/><path class="st2" d="M306.9 132.2c-1.8-.5-18.5 3.5-28.7 7.9s-29.5 9.2-29.6 3.5c-.1-5.6 19.8-7.4 21.9-8 2.1-.6 23.6-10.2 24.8-12.2 1.1-2 0-3.7-5.8-11.2-5.8-7.5-4.9-10.6-9.6-7.2-4.7 3.4-31.2 26.6-32.4 24.8-1.3-1.9.2-3.3 8.7-11.5s24.4-16.7 25-18c.6-1.4 2.2-2.7-2-4.8-4.2-2.2-16.2-11.2-18.8-10.7-2.6.5-16.8 22.7-17.9 25.4-1.1 2.7-8 18-12.5 16.8-4.5-1.2.6-10.8 2.9-16 2.2-5.2 16-24.1 17.9-26.4-4.9.1-22.3-2.9-23.8-4.1-1 2.2-6.7 22.1-7.2 24.4-.4 2.3 0 16.6-4.1 14.9s-2.9-11.7-2.9-12.4c0-.7 8.2-20.6 8.4-24 .2-3.4 2.2-5.9-3-5.2-5.2.8-11.1 2-14 2-3 0-14-1-13.7 1.3s2.4 5.8 3.5 9.3c1.1 3.5 3.5 22.9 2 23.7-1.5.7-7.6-9.8-7.7-11.4-.1-1.7.8-19.5-2-19.2s-22.8-1.1-28.7 1.9c3.8 3.9 13.7 14.8 16.1 17.7 2.4 2.8 10.6 13.2 8.7 14.7-1.9 1.5-9.3-2-10.9-5.1-1.6-3.1-11.3-17.9-22.8-18.4-2.5 5.1-6.1 12.7-8.1 15.6s-6.5 11.8-6.1 13.5c.4 1.7.9 2.4 11.2 3.4 10.3 1 25.8 4.5 24.2 8.8-1.6 4.3-34.4-8.8-35.1-7.9-.6.9-2.5 6.2-2.8 7.3-.2 1.1-2.6 13.9-.5 14.7 2.1.8 17 1.3 23.6.5 6.7-.8 22.9-2.8 21.6 2.6-1.4 5.4-16.3 5.3-18.6 5.1-2.3-.2-25.7-7.3-27.4-4.6-1.7 2.6 2 20.3 2.4 22.4.5 2.2 4.8 15.6 4.8 15.6s5.4-10.3 10.7-12.1c5.2-1.8 31-10.7 32.6-6.8 1.6 3.9-18.7 10.1-22.7 13.5-3.9 3.4-18.3 14-18.3 14s8.8 24.6 19.3 23.5c4.5-5.8 13.2-22.5 15.1-25 2-2.6 11.9-12.9 14.1-12.2 2.2.7 3.9 2.6-2.8 10.6-6.8 8-23.6 35.4-23.6 35.4s16.9 16.7 26.5 18.1c2-1.8 1.6-17.5 2-19.2.3-1.7 7.8-29 14.2-24.2 0 3.7-3.3 20.8-13.3 42.9 3.2 1.1 12 2.4 15.1 4.7 3.1 2.4 8.6 5.4 11.8 3.5 3.2-1.9 1.2-21.4 1.4-23.7.2-2.3-1.3-23.7 4.6-20.4 5.9 3.2 2 45.8 2 45.8s20.1 4.1 30.9-2.7c-1.8-3.8-6.7-17.3-8-21.1-1.3-3.8-1.5-17.3 3.5-16.2 5 1.1 6.6 4 7.4 7.7.8 3.7 5.2 23.5 6.5 23.4 1.4-.2 16.3-15 17.9-15.8 3.8-1.7 6.4-2.6 6.4-2.6s9.3-5.3 10.4-7c-3-.7-19.4-13-21.1-18.5 2.2-1.5 3.4-2.3 3.4-2.3s13.6 15.1 20.3 18.4c4.5-4 9.7-6.3 12.7-23.9-3-.4-25.9-5.7-26.2-6.9-.3-1.3 1.2-3.1 25.6 3.4 1-5.1.8-27.5-1.4-29s-14.7.2-20.9-.8c-6.2-1.1-32-3.8-30.9-8.7 1.1-5 8.4-4.4 13.1-4.6 4.6-.1 30.4 6.3 32.6 4.9 2.2-1.5 4.5-4.3 4.5-4.3s-4.6-20.8-6.4-21.3zm-77.4 10.3c3.6-4.6 5.9-7.1 8.7-6.6 2.9.6-.8 5.4-4.5 9.9-3.6 4.6-5.8 8.9-8.7 6.6-1.1-.9.9-5.4 4.5-9.9zm-20-12c.8-3.7 2.6-6.4 4-6.1 1.4.3 2 3.5 1.2 7.2s-2.6 6.4-4 6.1c-1.5-.3-2-3.5-1.2-7.2zm-13.1-2.6c.2-3.4 1.6-6 3.1-5.9 1.5.1 2.5 2.9 2.3 6.3-.2 3.4-1.6 6-3.1 5.9-1.4-.2-2.5-3-2.3-6.3zm-18.2 7.8c.3-1 2.3-1.2 4.5-.6 2.2.7 3.7 2 3.4 3-.3 1-2.3 1.2-4.5.6-2.2-.7-3.7-2-3.4-3zm6.5 17.9c-.9-3.1 2.8-4.2 7.2-5.3 4.4-1.1 8.3-.4 8.8 1.4.4 1.8-2.8 4.2-7.2 5.3-4.4 1-8.3.4-8.8-1.4zm10.2 17.3c-2.6-3.8 1.2-6 5.7-9s8.6-4.7 10.5-1.9c1.3 2-1.2 6-5.7 9s-9.2 3.8-10.5 1.9zm17.6 20.9c-4.3-1.8-2.3-5.7-.2-10.7 2.1-5 4.6-8.7 7.7-7.4 2.2.9 2.3 5.7.2 10.7-2.1 5-5.5 8.3-7.7 7.4zm17.7 10.7c-4.3-1.8-2.3-5.7-.2-10.7 2.1-5 7.2-9 10.3-7.7 2.2.9-.4 6-2.4 11-2.1 5-5.6 8.3-7.7 7.4zm24.3 3.8c.1 3.4-1 6.2-2.5 6.2-1.5.1-2.8-2.6-3-6-.1-3.4 1-6.2 2.5-6.2s2.9 2.6 3 6zM217 149c-1.4-.5-1.6-3.5-.4-6.7 1.2-3.2 3.2-5.1 4.7-4.8 3.1.6 1.6 3.5.4 6.7-1.2 3.1-3.3 5.3-4.7 4.8zm32.4 16.5c-.4 1.8-3.8 3.3-8.4 3.1-4.5-.2-8-1.9-8-3.8 0-3.2 3.7-3.8 8.3-3.6 4.5.1 9.6-1.9 8.1 4.3zm25.9 9.9c.1 1.5-3.6 2.8-8.1 3-4.5.2-8.2-.9-8.3-2.3-.3-2.5 3.6-2.8 8.1-3 4.5-.2 8.2.9 8.3 2.3z"/><path class="st3" d="M318 281.7s-5.8-9.1-14.9-22.5c-4.5-6.7-9.9-14.5-15.8-22.7-2.9-4.1-6-8.3-9.2-12.6-3.2-4.3-6.4-8.5-9.8-12.8-1.7-2.1-3.4-4.2-5.1-6.2-1.7-2-3.5-4.1-5.2-6-3.6-3.9-7.1-7.7-10.7-11.3-3.5-3.6-7-7.1-10.3-10.3-3.3-3.2-6.5-6.2-9.5-9-11.9-11-20.2-17.9-20.2-17.9s8.5 6.7 20.7 17.4c3 2.7 6.3 5.6 9.7 8.7 3.4 3.2 7 6.5 10.6 10 3.7 3.5 7.3 7.3 11 11.1 1.8 2 3.6 3.9 5.5 5.9 1.8 2 3.6 4.1 5.3 6.2 3.5 4.2 6.9 8.4 10.2 12.5 3.3 4.2 6.5 8.3 9.6 12.4 6.1 8.1 11.7 15.7 16.4 22.3 9.5 13.2 15.6 22.1 15.6 22.1l-3.9 2.7z"/></g><g class="st0"><g class="st4"><path class="st5" d="M17.4 139.5c2.4 1.3 4.8 2.7 7.1 4.1 2.3 1.4 4.7 2.9 7 4.4 2.3 1.5 4.6 3 6.8 4.6 1.1.8 2.2 1.6 3.4 2.5.6.5 1.1.9 1.7 1.5l.8.9c.3.3.6.9.9 1.3l3.1 5.2-6-1.9c-3.2-1-6.5-2-9.8-2.9-3.3-.9-6.6-1.7-9.9-2.5-3.3-.7-6.7-1.4-10.1-1.9-.8-.1-1.7-.2-2.5-.4-.8-.1-1.7-.2-2.6-.3-.9-.1-1.7-.2-2.6-.2l-2.6-.2 2.6-.1c.9-.1 1.7 0 2.6-.1h2.6c.9 0 1.7 0 2.6.1 3.5.1 6.9.4 10.3.8 3.4.4 6.9.8 10.3 1.3 3.4.5 6.8 1.1 10.3 1.7l-2.8 3.3c-.1-.1-.1-.2-.2-.4l-.5-.7c-.4-.5-.8-1-1.2-1.4-.9-1-1.8-1.9-2.8-2.8-1.9-1.9-3.9-3.7-6-5.5-2-1.8-4.1-3.6-6.2-5.3-2-1.8-4.1-3.5-6.3-5.1zM51.1 165s-1.5 0-2.3-1.2c-.8-1.2-1.2-1.7-2.7-3.6-1.5-2-3.2-4.2-5.2-6.6-2-2.4-4.1-4.9-6.4-7.2-1.1-1.2-2.3-2.4-3.4-3.5-1.1-1.2-2.4-2.2-3.5-3.2s-2.3-1.9-3.4-2.8c-1.1-.9-2.2-1.6-3.2-2.3-1-.7-2-1.2-2.9-1.7-.4-.2-.8-.5-1.2-.7-.4-.2-.8-.3-1.1-.5-1.3-.6-2.1-.9-2.1-.9s.8.3 2.2.7c.3.1.7.2 1.2.4.4.1.8.4 1.3.6.9.4 2 .8 3.1 1.5 1.1.6 2.3 1.2 3.5 2 1.2.8 2.5 1.6 3.8 2.5 1.3.9 2.6 1.9 3.9 2.9 1.3 1 2.6 2.1 3.8 3.2 2.5 2.2 5 4.5 7.2 6.7s4.2 4.4 5.9 6.2c1.7 1.9 3.1 3.4 4 4.6 1 1.1 3 5 3 5l-5.5-2.1z"/><path class="st5" d="M62.4 170.8s-1.7-.3-5.1-4.8c-3.4-4.5-7.9-10.4-12.6-16.2C40 144 35 138.4 31 134.5c-2-1.9-3.9-3.4-5.2-4.2-.3-.2-.7-.4-1-.5-.3-.1-.5-.3-.7-.3-.4-.1-.6-.2-.6-.2s.2.1.7.1c.2 0 .5.1.8.3.3.1.6.2 1 .5 1.5.7 3.4 2.1 5.6 3.9 4.4 3.6 9.8 8.8 15 14.3 5.2 5.4 10.2 11 13.9 15.3 3.7 4.2 8.6 10.2 8.6 10.2l-6.7-3.1z"/><path class="st5" d="M71 176.2s-.9-.4-3.2-5.5c-3.6-5.5-7.6-12.4-12.7-19.5-1.3-1.8-2.6-3.5-3.9-5.2-.7-.9-1.3-1.6-2-2.4l-2.2-2.2c-3-2.8-6-5.1-8.6-7.1-2.6-1.9-4.9-3.4-6.6-4.4-.8-.5-1.5-.8-2-1.1-.5-.2-.7-.3-.7-.3s.3.1.7.3c.5.2 1.2.5 2 .9 1.7.9 4.1 2.2 6.9 4 2.8 1.8 5.9 4 9.1 6.6l2.4 2.1c.8.8 1.5 1.6 2.2 2.4 1.5 1.6 2.9 3.3 4.2 5 5.5 6.8 10.8 13.9 14.8 19.1 3.9 5.3 8.4 12.1 8.4 12.1l-8.8-4.8zm10.8 7.1l-4.1-6.2c-2-3.1-4.4-6.8-6.8-10.8-1.2-2-2.4-4.1-3.5-6.5-1-2.4-1.9-4.4-3-6.6-2.3-4.3-4.8-8.5-7.3-12.3-1.3-1.9-2.6-3.7-3.8-5.4-1.3-1.7-2.5-3.2-3.8-4.6-1.2-1.4-2.4-2.5-3.5-3.6-.6-.5-1.1-.9-1.6-1.3s-1-.7-1.5-1c-.9-.6-1.7-1-2.2-1.2-.5-.2-.8-.4-.8-.4s.3.1.8.3c.5.2 1.4.5 2.3 1.1.5.3 1 .5 1.5.9s1.1.8 1.7 1.2c1.2.9 2.5 2 3.8 3.3 1.4 1.3 2.7 2.8 4.2 4.3 1.4 1.6 2.8 3.3 4.3 5.2 2.9 3.7 5.7 7.7 8.3 12 1.3 2.1 2.6 4.5 3.6 6.5 1.1 2 2.4 4 3.7 5.8 2.6 3.7 5.2 7.2 7.4 10.1 4.5 5.8 9.8 13.3 9.8 13.3l-9.5-4.1z"/><path class="st5" d="M93 189.4s.3.6 0 0c-.2-.6.6 1.1 0 0-1-2.3-1.6-3.2-3.8-6.8l-1.8-2.7c-.4-.5-.7-1-1.1-1.5l-.5-.8-.6-.9c-1.5-2.3-2.8-4.7-4.1-7.2-1.3-2.5-2.6-5.1-3.8-7.8-1.2-2.7-2.4-5.5-3.6-8.1-2.4-5.2-5.4-10.3-8.6-14.7-1.6-2.2-3.3-4.3-5-6.1-1.7-1.9-3.4-3.5-5-5-.8-.7-1.7-1.4-2.4-2-.8-.6-1.6-1.1-2.3-1.7-1.4-1.1-2.9-1.7-4-2.4-1.2-.6-2.1-1-2.7-1.3-.6-.3-1-.4-1-.4s.3.1 1 .4c.6.2 1.6.6 2.8 1 1.2.6 2.6 1.2 4.2 2.1.8.5 1.6 1 2.5 1.5.8.6 1.7 1.2 2.6 1.8 1.8 1.3 3.7 2.9 5.6 4.6 1.9 1.8 3.8 3.7 5.6 5.8 3.7 4.3 7.2 9.2 10.2 14.5 1.4 2.7 2.8 5.2 4.2 7.8 1.4 2.5 2.9 4.9 4.3 7.2s2.9 4.5 4.4 6.3l.5.7.6.7c.4.5.8.9 1.2 1.4.8 1 1.6 1.9 2.3 2.9 1.5 2.2 2.2 4.6 3.6 7 .7 1.2 2.4 5 2.7 5.6.3.7 1.7 4 1.7 4l-9.7-5.9z"/><path class="st5" d="M54.5 118.2c1.8.9 3.6 1.8 5.2 3 1.7 1.1 3.3 2.3 4.8 3.6 1.5 1.3 3 2.7 4.5 4.1 1.4 1.4 2.8 2.9 4.2 4.4 1.3 1.5 2.6 3.1 3.9 4.7 1.2 1.6 2.4 3.2 3.5 5 1.1 1.7 2.1 3.5 3 5.4.9 2 1.5 3.8 2.3 5.6 3.2 7.2 7.2 14.2 11.3 21l3.1 5.1c1.1 1.7 2.1 3.6 3.1 5.4.9 1.9 1.8 3.8 2.5 5.7.7 2 1.4 3.9 1.9 6.1l.7 3.6-3.6-.7c-8-1.6-16.1-3-24.2-4.3-8.1-1.4-16.2-2.6-24.4-3.7-4.1-.6-8.1-1.1-12.2-1.6l-6.1-.7c-2-.2-4.1-.4-6.1-.6-2-.2-4.1-.4-6.1-.5-2-.1-4.1-.3-6.2-.4l-6.2-.3H7.2l6.2-.3 6.2-.1c2.1 0 4.1.1 6.2.1 2.1 0 4.1.1 6.2.2 2.1.1 4.1.2 6.2.3l6.2.4c4.1.3 8.2.6 12.3 1 8.2.7 16.4 1.5 24.6 2.5 8.2.9 16.4 2 24.6 3.1l-2.9 2.9c-.3-1.7-.8-3.6-1.4-5.4-.6-1.8-1.3-3.6-2.1-5.4-.8-1.8-1.6-3.5-2.6-5.2l-2.9-5.3c-3.8-7.1-7.4-14.3-10.4-21.9-.7-1.9-1.3-3.9-2-5.7-.7-1.8-1.6-3.5-2.6-5.2-1-1.7-2.1-3.4-3.2-5s-2.3-3.2-3.6-4.8c-1.2-1.6-2.5-3.1-3.9-4.5-1.3-1.5-2.7-2.9-4.2-4.3s-3-2.7-4.6-3.9c-1.5-1.3-3.2-2.4-5-3.4z"/><path class="st5" d="M111.3 202.3c-.3-1 .4 1.1 0 0s-.8-2.1-1.2-3.2c-.8-2.1-1.8-4.1-2.8-6.1-.5-1-1.1-1.9-1.7-2.9l-.4-.7-.5-.8c-.3-.5-.6-.9-.9-1.5l-.9-1.7-.8-1.6-1.5-3.3c-1.9-4.3-3.7-8.7-5.3-13.1-1.7-4.4-3.3-8.8-4.8-13.3v.1c-2.8-6.2-5.8-12.4-9-18.5-.8-1.5-1.6-3-2.5-4.5-.4-.7-.9-1.5-1.3-2.2-.5-.7-.9-1.5-1.4-2.2l-1.4-2.1-1.5-2.1c-.5-.7-1.1-1.3-1.7-2-.6-.6-1.2-1.2-1.9-1.8.7.6 1.4 1.1 2 1.7.6.6 1.2 1.2 1.8 1.9l1.7 2 1.6 2.1 1.5 2.1 1.5 2.1c1 1.4 1.9 2.9 2.8 4.3 3.6 5.9 7 11.9 10.2 18v.1c1.8 4.3 3.7 8.6 5.6 12.8 1.9 4.2 3.9 8.5 6.1 12.6.6 1 1.1 2 1.6 3l.8 1.5.8 1.3c.2.4.7.9 1 1.4l.5.6.6.7c.7 1 1.4 2 2.1 3.1 1.3 2.1 2.5 4.2 3.5 6.4l1.5 3.3c.5 1.1.7 5.2 1.1 6.4l-6.8-3.9z"/><path class="st5" d="M119.6 207.6s-2.8-4-6.2-13.5c-.8-2.4-1.8-5-2.7-7.7-.9-2.8-1.8-5.7-2.6-8.8-.7-3.1-1.6-6-2.7-9.1-1.1-3.1-2.4-6.1-3.8-9.2-1.3-3.1-2.8-6.1-4.3-9-1.5-2.9-3-5.8-4.6-8.5-1.6-2.7-3.1-5.3-4.8-7.6-1.6-2.4-3.4-4.4-5-6.3-3.2-3.9-5.8-7.1-7.9-9.2-1-1-1.9-1.8-2.6-2.2-.6-.5-1-.7-1-.7s.4.2 1 .6c.7.4 1.6 1.1 2.7 2.1 2.2 2 4.9 5.2 8.3 8.9 1.7 1.9 3.6 3.8 5.3 6.2 1.8 2.3 3.5 4.8 5.2 7.5 1.7 2.7 3.3 5.5 5 8.4 1.6 2.9 3.2 5.9 4.7 8.9s3 6.1 4.2 9.1c1.3 3 2.5 6.3 3.2 9.3.9 2.9 1.9 5.8 2.9 8.4 1 2.7 2 5.2 3 7.5 3.8 9.3 8.6 19.4 8.6 19.4l-5.9-4.5z"/><path class="st5" d="M125.5 212.5c-.9-2.9-2.1-7.1-3.5-12.2-.7-2.5-1.4-5.3-2-8.3-.6-2.9-1.3-6-1.9-9.2-1.3-6.4-2.8-13.1-4.5-19.8-.8-3.3-1.8-6.7-2.7-9.9-1-3.2-2-6.4-3.3-9.3-1.3-3-2.7-5.7-4.1-8.4-1.4-2.6-2.8-5.1-4.1-7.3-2.6-4.5-4.8-8.3-6.3-10.9-1.5-2.6-2.2-4.2-2.2-4.2s.8 1.5 2.5 4.1c1.7 2.5 4.1 6.1 7 10.5 1.4 2.2 3 4.5 4.6 7.1 1.6 2.5 3.2 5.3 4.7 8.2 1.6 3 2.8 6.1 4.1 9.3 1.2 3.2 2.4 6.5 3.4 9.9 2.2 6.6 4.1 13.3 5.9 19.6.9 3.1 1.7 6.1 2.5 9 .8 2.8 1.7 5.5 2.5 7.9 1.7 4.9 3.2 8.9 4.2 11.7 1.1 2.8.7 7.7.7 7.7l-7.5-5.5z"/><path class="st5" d="M134.3 219.7s.3 1.4-.4-1.6-1.6-7.2-2.6-12.4c-.5-2.6-1-5.4-1.5-8.3-.5-3-.9-6-1.5-9.2-1.2-6.3-2.7-13.1-4.2-19.8-1.5-6.8-3.1-13.5-4.5-19.8-.7-3.2-1.5-6.1-2.4-8.9-.9-2.8-2-5.4-3.1-7.7-2.1-4.7-4.4-8.4-6.2-10.8-.9-1.2-1.6-2.1-2.2-2.7-.5-.6-.8-.9-.8-.9l.9.9c.6.6 1.4 1.5 2.3 2.6 1.9 2.3 4.5 5.9 6.9 10.5 1.2 2.3 2.4 4.9 3.6 7.7 1.1 2.8 2.2 5.8 3 9 1.8 6.2 3.7 12.9 5.7 19.5 1.9 6.7 3.8 13.3 5.4 19.7.8 3.2 1.5 6.4 2.1 9.2.6 2.9 1.3 5.6 1.9 8.1 1.3 5 2.4 9.2 3.2 12.1.8 2.9 1.6 7.2 1.6 7.2l-7.2-4.4z"/><path class="st5" d="M142.5 226.4s-.9-4.9-2.8-16c-1-5.5-2.1-12-3.3-18.9-.6-3.5-1.2-7.1-1.7-10.7l-1.5-11.1-1.5-11.1c-.6-3.6-1.2-7.2-2.3-10.4-1.2-3.2-2.7-6.2-4.2-9.1-1.5-2.8-3-5.5-4.4-7.9-1.4-2.4-2.9-4.5-4.2-6.4-1.4-1.8-2.6-3.4-3.7-4.6-.5-.6-1.1-1.1-1.5-1.6-.4-.4-.8-.8-1.2-1.1-.7-.6-1-.9-1-.9s.4.3 1.1.8c.4.3.8.6 1.2 1 .5.4 1 .9 1.6 1.5 1.2 1.1 2.5 2.7 3.9 4.4 1.4 1.8 3 3.9 4.5 6.2 1.6 2.3 3.2 4.9 4.8 7.7 1.6 2.8 3.3 5.8 4.7 9.1 1.3 3.4 2.1 7 2.8 10.6.7 3.6 1.4 7.3 2 11 .7 3.7 1.3 7.4 2 11 .7 3.6 1.4 7.1 2.2 10.6 1.5 6.9 2.9 13.3 4.2 18.7 2.4 11 4.9 21.8 4.9 21.8l-6.6-4.6z"/><path class="st5" d="M150.1 233.3s-4-29.5-8-60.7c-.5-3.9-1-7.8-1.4-11.7-.2-1.9-.4-3.9-.5-5.8-.1-1.9-.4-3.7-.7-5.5-.6-3.6-1.7-7-3-10-1.3-3.1-3-5.8-4.8-8.1-3.6-4.6-7.7-7.5-10.6-9.2-2.9-1.8-4.8-2.4-4.8-2.4s1.9.6 4.9 2.3c1.5.8 3.3 1.9 5.2 3.4 1.9 1.5 4 3.3 5.9 5.6 1.9 2.3 3.7 5 5.2 8.1 1.5 3.1 2.7 6.5 3.5 10.2.4 1.8.7 3.7.9 5.6.2 2 .4 3.8.7 5.7.6 3.8 1.2 7.7 1.8 11.6 5.1 31 10.8 64 10.8 64l-5.1-3.1z"/><path class="st5" d="M155.6 238.3s1.1-3.7 0-14.4c-.5-5.4-1.1-11.7-1.8-18.4-.6-6.7-1.3-13.9-1.9-21.1-.3-3.6-.3-7.3-.4-10.8-.1-3.5-.2-7-.4-10.4-.2-3.4-.4-6.6-.8-9.7-.4-3.1-.8-5.9-1.8-8.4s-2.3-4.6-3.6-6.3c-1.3-1.8-2.6-3.2-3.7-4.3-2.2-2.3-3.7-3.3-3.7-3.3s1.5 1 3.9 3.1c1.2 1.1 2.5 2.5 3.9 4.2 1.4 1.7 2.8 3.8 3.9 6.3s1.8 5.5 2.3 8.5c.5 3.1.9 6.3 1.2 9.7.3 3.4.6 6.9.9 10.4.3 3.5.5 7.1.9 10.6.9 7.1 1.9 14.3 2.8 20.9 1 6.7 1.9 12.9 2.7 18.3 1.6 10.7 1.8 20 1.8 20l-6.2-4.9z"/><path class="st5" d="M164.3 245.5s-.1-4-.2-15c-.2-11-.6-25.7-1.4-40.4-.2-3.7-.5-7.3-.8-10.9-.1-1.8-.3-3.6-.5-5.3-.2-1.7-.4-3.4-.7-5.2-1.1-6.8-1.7-13.3-3.2-18.5-.8-2.6-1.8-4.9-3-6.7-1.2-1.9-2.5-3.3-3.6-4.5-1.1-1.1-2-2-2.7-2.6-.6-.6-1-.9-1-.9s.4.3 1 .8c.7.5 1.6 1.3 2.9 2.4 1.2 1.1 2.6 2.5 3.9 4.3 1.4 1.8 2.6 4.1 3.5 6.8.9 2.6 1.6 5.6 2.3 8.7.6 3.1 1.3 6.4 2 9.7.4 1.7.7 3.4 1 5.2.3 1.8.6 3.6.8 5.4.5 3.6.9 7.3 1.4 10.9 1.6 14.7 2.8 29.4 3.7 40.4.8 11 1.7 22.1 1.7 22.1l-7.1-6.7z"/><path class="st5" d="M171.4 254s.5-5.9 1.1-16.3c.5-10.4 1.3-24.4 1.8-38.3.1-3.5.3-7 .2-10.3-.1-3.4-.2-6.7-.6-10-.4-3.2-1-6.3-1.8-9.1s-1.9-5.4-3-7.8c-2.3-4.6-5-8.1-7-10.4-2-2.3-3.3-3.4-3.3-3.4s1.4 1.1 3.5 3.3c1.1 1.1 2.3 2.5 3.6 4.2 1.3 1.7 2.7 3.7 4 6 1.3 2.3 2.5 4.9 3.5 7.8 1 2.9 1.8 6 2.4 9.3.6 3.3.9 6.7 1.1 10.1.2 3.5.2 7 .3 10.5.2 14 .2 27.9.2 38.4v20.9l-6-4.9zm7.9 6.7s.5-3.4 1.9-13.6 3.2-23.9 4.7-37.6c.4-3.4.7-6.8 1-10.2.3-3.4.6-6.7.6-9.9.1-3.2 0-6.3-.1-9.3-.1-2.9-.3-5.7-.6-8.2-.4-2.5-.9-4.8-1.7-6.7-.8-1.9-1.8-3.4-2.8-4.6-.5-.6-.9-1.1-1.4-1.4-.4-.4-.8-.7-1.1-1-.6-.5-1-.8-1-.8s.4.2 1 .7c.3.2.8.5 1.2.9.5.4 1 .8 1.5 1.4 1.1 1.1 2.2 2.6 3.2 4.5s1.7 4.2 2.3 6.8c.6 2.6.9 5.4 1.2 8.3.3 3 .6 6 .8 9.4.2 3.3.1 6.6.1 10.1-.1 3.4-.1 6.9-.3 10.3-.5 13.8-1.3 27.6-1.9 38-.7 10.3-2 19.4-2 19.4l-6.6-6.5z"/><path class="st5" d="M186.9 269.9s4.3-26.7 8.3-55c.5-3.5 1-7.1 1.5-10.6s1-6.9 1.3-10.2c.6-6.6.6-12.8-.8-17.9-.7-2.5-1.7-4.8-2.7-6.7-1-1.9-2.1-3.4-3.1-4.7-2-2.4-3.4-3.5-3.4-3.5s1.5 1 3.7 3.3c2.1 2.3 4.9 6 6.8 11.2 1.8 5.2 2.3 11.7 2.2 18.4-.1 3.4-.3 6.9-.5 10.4-.3 3.5-.5 7.1-.8 10.6-2 28.5-5.3 62.5-5.3 62.5l-7.2-7.8z"/><path class="st5" d="M193.9 277.8s5.2-27.6 10.7-59.2c.3-2 .8-4 1-5.9.2-2 .4-3.9.6-5.9.4-3.9.7-7.7.8-11.5.2-3.7.2-7.3.1-10.7-.1-3.4-.4-6.6-1.4-9.3-1.2-2.7-2.6-5-4-7-1.5-1.9-3-3.4-4.3-4.5-1.3-1.1-2.4-1.9-3.2-2.5-.8-.5-1.2-.8-1.2-.8s.4.3 1.2.8c.8.5 2 1.2 3.4 2.3 1.4 1.1 3.1 2.4 4.7 4.3 1.6 1.8 3.2 4.2 4.6 6.9 1.3 2.9 1.7 6.2 2 9.7.3 3.5.5 7.1.5 10.9 0 3.8 0 7.7-.2 11.6l-.3 6c-.1 2.1-.4 4-.6 6-3.7 31.8-6.9 68.5-6.9 68.5l-7.5-9.7z"/><path class="st5" d="M200.7 286.6s-.2-5.2 2.1-17.7c2.3-12.5 5.4-29.1 8.8-45.7.4-2.1.9-4.2 1.3-6.2.5-2.1 1-4.1 1.4-6.1.8-4 1.4-8 1.7-11.9.3-3.9.3-7.6-.2-11.2-.4-3.5-1.3-6.8-2.7-9.5-.7-1.4-1.6-2.6-2.3-3.8-.8-1.2-1.6-2.3-2.3-3.4-1.5-2.1-2.9-3.8-4.1-5.2-2.4-2.8-4-4.2-4-4.2s1.7 1.3 4.3 3.9c1.3 1.3 2.9 3 4.5 4.9.8 1 1.7 2.1 2.6 3.2.9 1.2 1.8 2.3 2.7 3.8 1.7 2.8 2.9 6.2 3.6 9.9.7 3.7 1 7.6 1 11.6s-.3 8.2-.9 12.4c-.3 2.1-.7 4.2-1 6.2-.3 2.1-.6 4.2-.9 6.2-2.2 16.7-4.1 33.5-5.6 46.1-1.5 12.6-2.9 26.1-2.9 26.1l-7.1-9.4z"/><path class="st5" d="M206.5 296.3s.4-6.7 3.8-19c1.7-6.1 3.7-13.3 5.8-21 1.1-3.8 2.2-7.8 3.3-11.8 1.1-4 2.3-8.2 3.3-12.1.9-4 1.7-8.2 2.3-12.3.6-4.1 1.1-8.2 1.5-12.1.4-3.9.6-7.7.5-11.3 0-1.8-.1-3.5-.4-5.2-.3-1.5-.8-3.1-1.4-4.6-1.2-2.9-2.6-5.4-3.9-7.7-1.3-2.2-2.5-4.1-3.6-5.6s-1.9-2.7-2.5-3.5c-.6-.8-1-1.2-1-1.2s.4.3 1.1 1.1c.7.7 1.6 1.8 2.8 3.3 1.2 1.5 2.5 3.3 4 5.4 1.5 2.1 3.1 4.6 4.6 7.5.7 1.5 1.4 3 1.9 4.8.4 1.7.6 3.6.8 5.4.3 3.7.4 7.6.3 11.6-.1 4-.3 8.2-.6 12.4-.3 4.2-.8 8.5-1.5 12.8-.8 4.4-1.7 8.4-2.4 12.6-.8 4.1-1.6 8.1-2.4 12.1-1.6 7.8-3 15.1-4.3 21.4-2.5 12.5-5.3 24.1-5.3 24.1l-6.7-7.1z"/><path class="st5" d="M212.3 304.6s-.3-5.5 2.7-15.3c2.9-9.7 6.9-22.7 10.7-35.6.9-3.2 1.9-6.5 2.8-9.7.9-3.2 1.6-6.3 2.3-9.4 1.2-6.2 1.9-12 2.1-17 .1-2.5 0-4.8-.2-6.9-.1-1-.2-2-.3-2.8-.2-.9-.3-1.7-.5-2.4-.4-1.4-.7-2.5-1-3.3-.3-.7-.4-1.1-.4-1.1s.2.4.5 1.1c.4.7.8 1.8 1.3 3.2.2.7.4 1.5.7 2.4.2.9.4 1.8.6 2.9.3 2.1.6 4.4.8 6.9.3 5.1.1 11.1-.7 17.5-.4 3.2-.9 6.5-1.5 9.8-.6 3.3-1.3 6.6-2 9.9-2.7 13.3-5.5 26.5-7.6 36.5-2.1 9.9-4.9 20.5-4.9 20.5l-5.4-7.2z"/><path class="st5" d="M217.5 311.8s.5-3.4 4.1-12.9c3.6-9.6 8.3-22.4 12.7-35.4 1.1-3.2 2.1-6.5 3.1-9.7 1-3.2 1.9-6.3 2.5-9.4 1.3-6.3 2.6-12.1 2.9-17.1.1-2.5 0-4.8-.3-6.9-.3-2-.8-3.8-1.3-5.2-.5-1.4-.9-2.5-1.3-3.2-.3-.7-.5-1.1-.5-1.1s.2.4.6 1.1c.4.7.9 1.8 1.6 3.1.6 1.4 1.3 3.1 1.7 5.2.5 2.1.8 4.4.9 7.1.2 5.2-.6 11.3-1.3 17.6-.4 3.2-1 6.6-1.7 9.9-.7 3.3-1.5 6.7-2.3 10-3.2 13.4-6.8 26.6-9.5 36.5-2.8 9.9-5.9 21.1-5.9 21.1l-6-10.7z"/><path class="st5" d="M221.4 319.4s1.5-3.5 5.8-13.3 9.9-22.9 15.3-36.2c1.3-3.3 2.6-6.6 3.8-9.9.6-1.6 1.2-3.3 1.7-4.8.5-1.6.9-3.3 1.4-4.9 1.7-6.4 3-12.5 3.6-17.8.3-2.6.5-5.1.5-7.2 0-2.2-.1-4-.3-5.6-.2-1.5-.4-2.8-.6-3.6-.2-.8-.3-1.3-.3-1.3s.1.4.4 1.2c.3.8.6 2 .9 3.5.3 1.5.6 3.4.7 5.6.2 2.2.2 4.7.1 7.4-.2 5.4-1 11.7-2.2 18.3-.3 1.7-.6 3.3-1 5.1-.4 1.8-.8 3.5-1.3 5.2-.9 3.4-2 6.9-3 10.3-4.3 13.7-8.8 27.3-12.3 37.5s-8.2 19.2-8.2 19.2l-5-8.7z"/><path class="st5" d="M226 327.1s1.8-2 6.2-10.9c4.3-8.9 10.1-20.8 15.4-32.9 1.3-3 2.6-6.1 3.8-9.1l1.8-4.5c.6-1.5 1.1-2.9 1.6-4.4.5-1.5 1-2.9 1.3-4.3.4-1.4.7-2.8 1-4.2.6-2.8 1.1-5.4 1.6-7.9.5-2.4.9-4.7 1.1-6.6.2-2 .3-3.7.3-5.2 0-1.4-.2-2.6-.3-3.3-.1-.8-.1-1.2-.1-1.2s.1.4.2 1.2c.2.8.4 1.9.5 3.3.2 1.4.3 3.2.2 5.3-.1 2-.3 4.3-.6 6.8s-.6 5.1-1 8c-.3 2.8-.9 5.9-1.7 8.9-.4 1.5-.8 3.1-1.3 4.6-.4 1.6-.9 3.1-1.4 4.7-1 3.1-2.1 6.3-3.1 9.4-4.4 12.6-9.1 25-12.7 34.3-3.6 9.3-7.4 19.5-7.4 19.5l-5.4-11.5z"/><path class="st5" d="M267.2 241.5s.1.4.2 1.2c.1.8.3 1.9.3 3.4.2 3 0 7.2-.6 12.3-.3 2.5-.8 5.2-1.3 8.1-.3 1.4-.6 2.9-.9 4.4-.4 1.5-.7 3-1.2 4.5-.9 3.1-1.9 6.2-3 9.4s-2.2 6.3-3.4 9.5c-4.7 12.7-9.7 25.3-13.5 34.7-3.9 9.4-8.7 18.7-8.7 18.7l-4.2-10.1s1-3 5.6-11.9c4.6-9 10.7-21 16.4-33.1 1.4-3 2.8-6.1 4.2-9.1 1.3-3 2.6-6 3.7-8.9.6-1.4 1.1-2.9 1.6-4.3s.9-2.8 1.3-4.2c.8-2.8 1.5-5.4 2-7.9 1.1-4.9 1.6-9.1 1.7-12 .1-1.5 0-2.6 0-3.4-.1-.9-.2-1.3-.2-1.3z"/><path class="st5" d="M233.9 347.9s1.9-5.1 7.5-14.2c5.5-9.2 12.9-21.4 20.1-33.7 1.8-3.1 3.6-6.2 5.3-9.2 1.7-3 3.5-6.1 4.9-9 1.4-3.1 3-5.9 4.1-8.7 1.1-2.7 1.7-5.5 2-8.1.3-2.6.4-5.1.5-7.2v-5.6c-.1-3.1-.1-4.9-.1-4.9s.2 1.8.6 4.9c.2 1.6.3 3.4.5 5.6.1 2.2.3 4.7.2 7.4-.1 2.7-.4 5.7-1.4 8.8-.9 3.1-2.3 6-3.4 9.1-1.3 3.3-2.7 6.4-4.2 9.6-1.5 3.2-3 6.4-4.5 9.7-6.2 12.9-12.5 25.8-17.2 35.4-4.8 9.6-10.2 20.1-10.2 20.1l-4.7-10z"/><path class="st5" d="M237.6 357.8s2.4-5.5 8.1-14c5.7-8.5 13.2-19.9 20.4-31.5 1.8-2.9 3.6-5.8 5.3-8.7 1.7-2.9 3.3-5.7 4.7-8.6 2.9-5.7 5.3-11.1 7-15.9 1.7-4.8 2.6-9 2.9-11.9.2-1.5.2-2.7.3-3.5v-1.2s0 .4.1 1.2c0 .8.1 2 0 3.5-.1 3-.6 7.3-2 12.3-1.3 5-3.3 10.7-5.8 16.7-1.2 3-2.6 6.1-4.1 9.1-1.5 3-3 6.1-4.6 9.2-6.3 12.2-12.9 24.2-17.8 33.2-5 9-11.4 19.3-11.4 19.3l-3.1-9.2z"/><path class="st5" d="M239.5 363.1s1.1-2.7 7.2-11 14.2-19.4 22.1-30.5c2-2.8 4-5.6 5.8-8.3.4-.7.9-1.3 1.3-2l1.2-2.1c.8-1.4 1.6-2.8 2.3-4.2 3-5.6 5.6-11 7.7-15.7 1-2.3 1.9-4.5 2.7-6.5.7-1.9 1.3-3.7 1.7-5.1.4-1.4.7-2.6.9-3.4.2-.8.2-1.2.2-1.2s0 .4-.1 1.2c-.1.8-.3 2-.5 3.5-.3 1.5-.7 3.3-1.2 5.3s-1.2 4.3-2 6.8c-1.6 4.9-3.6 10.6-6.1 16.6-.6 1.5-1.2 3-1.9 4.6-.3.8-.7 1.5-1 2.3l-1.2 2.4c-1.6 3-3.3 6-5 9-6.8 12-13.7 23.9-18.9 32.8-5.2 8.9-12.6 16.9-12.6 16.9l-2.6-11.4zM5.9 141.2s1.8.4 4.3 1.3c2.6.9 5.9 2.3 9.2 3.8 3.3 1.5 6.5 3.2 8.9 4.5 2.4 1.3 15.5 7.4 15.5 7.4l-2.4 1.9s-12.6-5.1-14.7-6.6c-2.2-1.6-5.1-3.6-8.2-5.5-3-1.9-6.2-3.7-8.6-4.9-2.3-1.3-4-1.9-4-1.9zm51.8 26.9L0 157.2l47.9 5.3zm8.6 5s-7-.2-12.5-1.2-12.8-2.2-20.2-3.3c-3.7-.5-7.4-1-10.8-1.5-3.5-.4-6.7-.8-9.5-1-1.4-.1-2.7-.2-3.8-.3-1.1-.1-2.1-.1-2.9-.2-1.6-.1-2.6-.1-2.6-.1s.9 0 2.6-.1c.8 0 1.8-.1 2.9 0h3.8c2.8 0 6.1.1 9.6.3 3.5.2 7.2.4 11 .7 7.5.5 14.9 1.2 20.5 1.8 5.6.6 8.1 2 8.1 2l3.8 2.9z"/><path class="st5" d="M76.1 180s-17.4-4.6-30.1-6.9c-6.4-1.1-12.8-2.1-17.6-2.6-1.2-.1-2.3-.2-3.3-.3-1-.1-1.8-.1-2.5-.1h-2.2s.8 0 2.2-.1c.7-.1 1.6-.1 2.6-.1h3.3c4.9.1 11.4.5 17.8 1.2 12.9 1.2 25.6 4.2 25.6 4.2l4.2 4.7zm11.7 6.1s-21.4-4.2-38.6-6.8c-8.6-1.3-17.3-2.5-23.8-3.1-1.6-.2-3.1-.3-4.4-.3-1.3-.1-2.5-.2-3.4-.2-1.9 0-3-.1-3-.1s1.1 0 3-.1H21c1.3 0 2.8 0 4.5.1 6.6.3 15.3 1 24 1.9 17.4 1.8 31.7 3.9 31.7 3.9l6.6 4.7zm10.5 6.8l-90-13.5 81.1 7.7zm19.7 13.6s-31.4-4.6-57.4-7.5c-6.5-.7-13-1.4-19.1-1.9-3.1-.3-6-.5-8.8-.7-2.8-.2-5.5-.4-7.9-.5-2.5-.1-4.7-.2-6.7-.3h-5.2c-1.4.1-2.5.1-3.3.2-.8 0-1.2.1-1.2.1s.4 0 1.2-.1c.8-.1 1.9-.2 3.3-.4 1.4-.1 3.2-.1 5.2-.2 2 0 4.3 0 6.7-.1 2.5 0 5.1.1 7.9.1 2.8.1 5.8.2 8.9.3 6.1.3 12.7.6 19.2.9 26.2 1.5 49.6 4.7 49.6 4.7l7.6 5.4z"/><path class="st5" d="M124.1 211s-30-4.4-55.4-7.3c-12.7-1.5-25.3-2.7-34.9-3.4-2.4-.2-4.6-.3-6.5-.4-1.9-.1-3.6-.2-5-.2-2.8-.1-4.4-.2-4.4-.2s1.6 0 4.4-.1h5c1.9 0 4.1 0 6.5.1 9.6.2 22.3.8 35.1 1.5 25.5 1.6 47.6 3.7 47.6 3.7l7.6 6.3z"/><path class="st5" d="M131.8 218s-8.8-2-17.8-3.7c-4.5-.8-9.7-1.7-15.3-2.6-2.8-.4-5.7-.9-8.7-1.3l-9-1.2c-3-.4-6-.7-9-1-3-.3-5.9-.5-8.8-.7-2.8-.2-5.6-.3-8.2-.4-2.6-.1-5.1 0-7.4-.1-2.3-.1-4.4.2-6.2.2-.9 0-1.8.1-2.6.1-.8.1-1.5.2-2.2.3-2.6.3-4.2.5-4.2.5s1.5-.3 4.1-.7c.7-.1 1.4-.2 2.2-.4.8-.1 1.7-.2 2.6-.3 1.9-.2 3.9-.5 6.2-.5 2.3-.1 4.8-.3 7.4-.3 2.6 0 5.4-.1 8.3 0 2.9.1 5.8.1 8.8.3 3 .1 6.1.3 9.1.5 3.1.2 6.1.4 9.1.7 3 .2 5.9.6 8.8.9 5.7.6 11 1.3 15.6 1.9 9.1 1.2 10.9 1.7 10.9 1.7l6.3 6.1z"/><path class="st5" d="M139.3 224.1s-9.9-2-19.4-3.4c-9.5-1.4-22.3-3.1-35.1-4.5-3.2-.3-6.4-.7-9.5-.9-3.2-.3-6.3-.5-9.3-.7-3-.2-5.9-.4-8.7-.5-2.8-.2-5.4-.2-7.8-.2-1.2 0-2.4-.1-3.5 0-1.1 0-2.1.1-3.1.1-2 .1-3.7.1-5.1.2-2.8.2-4.4.4-4.4.4s1.6-.2 4.4-.6c1.4-.2 3.1-.3 5.1-.5 1-.1 2-.2 3.1-.3 1.1-.1 2.3-.1 3.5-.2 2.4-.1 5-.2 7.8-.2s5.7-.1 8.7 0c3 0 6.2.1 9.3.2 3.2.1 6.4.2 9.6.4 12.9.6 25.8 1.6 35.4 2.5 9.6.9 11.5 1.1 11.5 1.1l7.5 7.1z"/><path class="st5" d="M149 231.3s-11.1-2.3-22-4.2c-2.7-.4-5.7-.9-8.8-1.4-3.1-.5-6.4-1-9.9-1.5-3.4-.5-7-1-10.6-1.4-3.6-.5-7.3-.9-10.9-1.2-3.7-.4-7.3-.7-11-1-3.6-.3-7.2-.5-10.6-.7-3.5-.2-6.8-.2-10-.3h-8.9c-2.8 0-5.3.3-7.6.4-2.3.1-4.2.3-5.8.5-3.2.4-5.1.6-5.1.6s1.8-.3 5-.8c1.6-.3 3.5-.6 5.8-.7 2.2-.2 4.8-.5 7.6-.6 2.8-.1 5.8-.3 9-.4 3.2 0 6.5-.1 10-.1 3.5.1 7.1.1 10.7.3 3.6.2 7.4.3 11 .6 3.7.2 7.4.5 11 .8 3.6.3 7.2.6 10.7 1 3.5.3 6.8.7 10 1.1 3.2.4 6.2.8 8.9 1.1 11 1.5 14.7 2.1 14.7 2.1l6.8 5.8z"/><path class="st5" d="M155.5 237.4s-11.6-2.6-22.4-4.2c-5.4-.8-11.7-1.7-18.5-2.5-3.4-.4-6.9-.8-10.5-1-1.8-.2-3.6-.3-5.4-.4l-5.4-.3c-3.6-.2-7.3-.1-10.9-.1-3.6 0-7.2-.1-10.6-.3-6.9-.3-13.3-.9-18.7-1.5-10.9-1.2-18.1-2.4-18.1-2.4s7.3.9 18.2 1.5c5.5.3 11.9.6 18.7.6 3.4 0 6.9-.1 10.5-.2 3.6-.2 7.3-.4 11-.4h5.5c1.8 0 3.7.1 5.5.1 3.6.1 7.2.3 10.6.6 6.9.5 13.3 1.1 18.8 1.6 11 1.2 13.9 1.6 13.9 1.6l7.8 7.3z"/><path class="st5" d="M161.2 243.4s-10.2-2.3-21.2-4.1c-5.5-.9-12-1.9-18.9-2.8-3.5-.4-7-.9-10.7-1.2-3.6-.4-7.4-.6-11.1-.8-7.4-.4-14.9-.4-21.9-.4-3.5 0-6.9.1-10.1.1-3.2 0-6.3.1-9.1-.1-5.6-.5-10.2-1.2-13.5-1.7-3.2-.5-5.1-.8-5.1-.8s1.9.2 5.1.6c3.2.3 7.9.9 13.5 1.1 2.8.1 5.8-.1 9-.2 3.2-.2 6.6-.3 10.1-.5 7-.3 14.5-.6 22-.5 3.8 0 7.5.2 11.2.4 3.7.2 7.3.5 10.8.8 7 .6 13.5 1.4 19.1 2.1 11.2 1.4 14.9 2 14.9 2l5.9 6z"/><path class="st5" d="M168.3 250.3s-8.9-2.2-17.2-3.8c-8.3-1.5-19.5-3.5-30.6-5.2-2.8-.4-5.6-.8-8.3-1.3-2.8-.4-5.5-.8-8.1-1.1-5.3-.7-10.2-1.3-14.4-1.7-2.1-.2-4-.4-5.8-.5-1.7-.2-3.2-.3-4.4-.3-2.5-.1-3.9-.2-3.9-.2h3.9c1.2 0 2.7 0 4.5.1 1.7.1 3.7.1 5.8.2 4.2.2 9.2.4 14.5.8 2.6.2 5.4.4 8.2.6 2.8.2 5.6.5 8.4.7 11.3 1.1 22.5 2.3 31 3.4 8.4 1 11.2 1.2 11.2 1.2l5.2 7.1z"/><path class="st5" d="M175.4 257.1s-10.2-1.2-21.5-3.5c-5.6-1.1-12.2-2.4-19.3-3.7-7.1-1.3-14.6-2.6-22.2-3.7-3.8-.5-7.5-1-11.3-1.1-3.7-.2-7.4-.2-11-.2-7.2.1-13.9.4-19.7.4-2.9 0-5.5 0-7.9-.2-2.3-.2-4.4-.4-6-.8-.8-.2-1.6-.3-2.2-.6-.6-.2-1.2-.4-1.5-.6-.8-.4-1.2-.7-1.2-.7l1.2.6c.4.2.9.3 1.6.5.6.2 1.3.4 2.2.5 1.6.3 3.7.4 6 .5 2.3 0 5-.1 7.8-.2 5.7-.3 12.4-1 19.6-1.5 3.6-.2 7.4-.4 11.2-.4 3.8 0 7.7.2 11.6.5 7.7.7 15.4 1.6 22.5 2.5 7.2.9 13.8 1.9 19.5 2.7 11.4 1.7 14.8 2.5 14.8 2.5l5.8 6.5z"/><path class="st5" d="M180.7 262.8s-9.2-.5-18.5-2.2c-9.3-1.7-21.7-4-34.2-6-3.1-.5-6.2-1-9.3-1.3-1.5-.2-3-.3-4.5-.5l-4.5-.3c-5.9-.3-11.4-.3-16.1-.3H82.2c-2.8 0-4.3-.1-4.3-.1s1.6 0 4.3-.1c2.8-.2 6.7-.4 11.4-.7 4.7-.3 10.3-.6 16.2-.7h4.5c1.5 0 3.1.1 4.7.2 3.1.2 6.3.5 9.4.8 12.6 1.2 25.2 2.7 34.6 3.8 9.4 1.2 12.3 1.7 12.3 1.7l5.4 5.7zm6.2 7.1s-8.6-1.2-18.2-3c-4.8-.9-10.4-1.8-16.5-2.7-3-.4-6.2-.9-9.3-1.2-3.2-.4-6.4-.7-9.7-1-3.2-.3-6.5-.5-9.7-.6-3.2-.1-6.4-.2-9.4-.2-6.1 0-11.8.2-16.8.3-2.5 0-4.7 0-6.7-.1s-3.7-.2-5.2-.5c-.7-.1-1.3-.2-1.9-.4-.5-.1-1-.2-1.4-.4-.7-.2-1.1-.4-1.1-.4s.4.1 1.1.3c.4.1.8.2 1.4.3.5.1 1.2.2 1.9.3 1.4.1 3.2.2 5.1.2 2 0 4.2-.1 6.7-.3 4.9-.3 10.6-.8 16.7-1.2 3.1-.2 6.3-.3 9.5-.4 3.3-.1 6.5-.1 9.8 0 3.3.1 6.6.2 9.8.4 3.2.2 6.4.4 9.5.7 6.1.5 11.9 1.2 16.8 1.8 9.8 1.2 12.8 1.8 12.8 1.8l4.8 6.3z"/><path class="st5" d="M194.1 279s-4.1-.8-4.6-1c-.5-.2-1.3-.6-2.4-1-1.1-.4-2.4-.9-3.9-1.5-1.5-.5-3.3-1.1-5.2-1.7l-3-.9-3.3-.9c-2.2-.6-4.7-1.1-7.1-1.7-2.5-.5-5.1-1-7.7-1.4-2.7-.4-5.3-.9-8.1-1.2-2.7-.3-5.4-.7-8.1-.9-2.7-.2-5.3-.5-7.9-.7-2.6-.2-5-.3-7.4-.4-2.4-.1-4.6-.1-6.6-.2-2.1-.1-3.9-.1-5.6-.1h-8.1s1.4-.1 3.8-.3c1.2-.1 2.7-.2 4.3-.3 1.7-.1 3.6-.3 5.6-.3 2.1-.1 4.3-.2 6.7-.3 2.4 0 4.9-.1 7.5-.1 2.6-.1 5.3 0 8 .1 2.7 0 5.5.2 8.3.3 2.8.1 5.5.4 8.3.6 2.7.2 5.4.6 8 .9 2.6.4 5.1.7 7.4 1.2 1.2.2 2.3.4 3.4.6 1.1.2 2.2.5 3.2.7 2.1.4 3.9.9 5.6 1.4 1.7.5 3.1.9 4.3 1.3 0 0-.7-.3 0 0l4.6 7.8z"/><path class="st5" d="M199.9 285.6s-3.3.2-3.8-.1c-.5-.3-2.5-.8-3.5-1.3-2-1-5-2.2-8.6-3.5-1.8-.6-3.8-1.2-6-1.8-2.1-.5-4.4-1-6.8-1.4-1.2-.2-2.4-.4-3.6-.4-.6 0-1.2-.1-1.9-.1h-1.9c-2.6 0-5.3 0-8-.1-10.8-.3-21.5-1.5-29.3-3.1-2-.4-3.8-.8-5.3-1.2-1.6-.4-2.9-.8-4-1.2-1.1-.4-2-.7-2.5-1-.6-.3-.9-.4-.9-.4l.9.3c.6.2 1.5.5 2.6.8 1.1.3 2.5.6 4.1.9 1.6.3 3.4.5 5.4.8 7.9.9 18.5 1.2 29.1.5 2.6-.2 5.2-.4 7.9-.6.7 0 1.4-.1 2-.1h2c1.3 0 2.7 0 4 .1 2.6.1 5.1.5 7.4.8 2.3.4 4.5.9 6.6 1.4 4 1 7.3 2.1 9.6 2.9 1.1.4-.6-.3 0 0l4.5 7.8zm5.4 9s-3.8-.1-5.8-.8c-2-.8-4.9-1.8-8.4-3s-7.6-2.5-12-3.7c-2.2-.6-4.5-1.2-6.9-1.7-2.3-.5-4.7-1-7.1-1.3-2.4-.4-4.9-.6-7.3-.7-2.4-.2-4.8-.3-7.1-.4-4.6-.2-9-.3-12.7-.9-1.9-.3-3.5-.6-5-.9-1.5-.4-2.8-.7-3.8-1-1-.3-1.8-.6-2.4-.8-.5-.2-.8-.3-.8-.3s.3.1.9.2c.6.1 1.4.4 2.4.6 1.1.3 2.3.5 3.8.7 1.5.2 3.2.4 5 .5 3.7.2 8 .1 12.7-.1 2.3-.1 4.7-.2 7.2-.2s4.9 0 7.5.2c2.5.1 5 .5 7.5.8 2.5.4 4.8.8 7.2 1.3 4.6.9 8.9 1.9 12.5 2.9 3.6.9 6.7 1.8 8.8 2.4l3.8 6.2z"/><path class="st5" d="M210.3 300.4s4.5-.2 0 0c-.4-.2-5.6-.4-6.4-.8-1.7-.8-4.1-2-7.1-3.2-1.5-.6-3.1-1.2-4.9-1.8-1.8-.6-3.6-1.2-5.6-1.7-2-.5-4-1-6.1-1.3-1-.2-2.1-.3-3.2-.5-1.1-.1-2.1-.2-3.2-.3-4.3-.4-8.7-.1-12.9-.1-4.2 0-8.1-.5-11.4-1-3.3-.6-6-1.2-7.9-1.6-1.9-.5-3-.7-3-.7s1.1.2 3 .5 4.6.7 7.9 1c3.3.3 7.1.4 11.2.1 4.1-.3 8.5-1 13.1-1 1.1 0 2.3 0 3.4.1s2.2.1 3.3.2c2.2.2 4.4.5 6.5.9 2.1.3 4.1.8 6 1.2 1.9.5 3.7 1 5.3 1.5 3.3 1 5.9 2 7.8 2.8 0 0-.5-.2 0 0l4.2 5.7z"/><path class="st5" d="M214.5 307.7s-3.1 0-4.7-.7c-1.6-.6-4-1.5-6.8-2.5s-6.1-2.1-9.7-3.2c-1.8-.5-3.6-1-5.5-1.5-.9-.2-1.9-.4-2.8-.6-1-.2-2-.3-2.9-.4-3.9-.5-8-.5-11.8-.9-1.9-.2-3.8-.4-5.5-.8-1.7-.3-3.3-.8-4.8-1.2-1.5-.4-2.8-.9-3.9-1.3-1.1-.5-2.2-.8-3-1.2-1.6-.7-2.5-1.1-2.5-1.1s1 .3 2.6.9c.8.3 1.9.6 3.1.9 1.2.3 2.5.7 4 .9 1.5.3 3.1.6 4.8.7 1.7.2 3.5.2 5.4.3 3.7 0 7.7-.4 11.9-.3 1.1 0 2.1.1 3.1.2 1.1.1 2.1.2 3.1.3 2 .3 4 .6 5.9 1 3.8.7 7.3 1.5 10.2 2.3 3 .7 5.4 1.4 7.2 1.9 1.7.5 0 0 0 0l2.6 6.3zm6.1 9.4s2.8-.3 0 0c-.1 0 .1.1 0 0-.3-.3-4.1-.6-4.8-1.1-1.5-.9-3.6-2.2-6.4-3.4-2.8-1.2-6.1-2.5-9.9-3.5-.9-.3-1.9-.5-2.8-.7-.9-.2-2-.4-3-.6-1-.2-2-.3-3-.5-1-.1-2-.3-3.1-.3-4.1-.4-8.4-.4-12.4-.8-2-.2-3.9-.6-5.7-1-.9-.2-1.8-.5-2.6-.7-.8-.3-1.6-.5-2.4-.8-1.5-.6-2.9-1.1-4-1.6-1.2-.6-2.2-1-3-1.4-1.6-.9-2.6-1.4-2.6-1.4s1 .4 2.7 1.1c.8.4 1.9.7 3.1 1.2 1.2.5 2.6.8 4.1 1.3l2.4.6c.8.1 1.7.3 2.6.5 1.8.2 3.6.4 5.6.4 3.9.1 8.1-.3 12.4-.3 1.1 0 2.2 0 3.2.1 1.1.1 2.2.1 3.2.3 1.1.1 2 .2 3.1.4 1 .2 2 .3 3 .5 4 .7 7.7 1.8 10.8 2.8 3.1 1.1 5.6 2.2 7.4 3.1.9.5-.5-.3 0 0 .3.2-.6-.4 0 0 .1.1 0 0 0 0l2.1 5.8z"/><path class="st5" d="M225.8 325.9s-4.4-.7-5.7-1.3c-1.3-.6-3.2-1.5-5.5-2.5s-5-2.1-7.9-3.2c-2.9-1.1-6.1-2.3-9.2-3.3-3.2-1-6.4-2-9.4-2.8-1.5-.4-3-.8-4.4-1.1-1.4-.3-2.7-.6-4-.8-1.2-.2-2.4-.4-3.4-.6-1-.1-1.9-.3-2.6-.4-1.5-.2-2.3-.3-2.3-.3h5c1 .1 2.2.1 3.5.2 1.3 0 2.6.2 4.1.3 1.5.1 3 .3 4.6.5 3.2.4 6.5.9 9.9 1.6 3.3.6 6.7 1.4 9.8 2.1 3.1.8 6 1.5 8.5 2.3 2.5.7 4.5 1.4 5.9 1.8 1.4.5 0 0 0 0l3.1 7.5z"/><path class="st5" d="M227.6 330.5s-2.2.3-2.6.4c-.4 0-1 .1-1.7.1-1.5.1-3.5.2-6 .2s-5.3-.1-8.4-.2c-1.5-.1-3.1-.2-4.7-.4l-4.8-.6c-1.6-.2-3.2-.5-4.8-.8-1.6-.3-3.1-.6-4.6-1-1.5-.3-2.9-.7-4.2-1.1-1.3-.4-2.6-.7-3.7-1.2-1.1-.4-2.2-.8-3.1-1.1-.9-.4-1.7-.7-2.3-1-1.3-.5-2-.8-2-.8s.8.2 2.1.5c.7.2 1.5.4 2.4.6 1 .2 2 .4 3.2.6 1.2.2 2.4.4 3.8.6 1.3.2 2.8.4 4.2.5 1.5.1 3 .3 4.5.3 1.5.1 3.1.1 4.7.1s3.1 0 4.7-.1c1.5 0 3.1-.2 4.5-.2 2.9-.2 5.6-.5 7.9-.9 2.3-.3 4.2-.7 5.5-1 .6-.1 1.1-.3 1.5-.3.3-.1.5-.1.5-.1l3.4 6.9zm2.6 8.2h-.4c-.3 0-.6.1-1 .1-.8.1-2 .1-3.4.1s-3-.1-4.7-.2c-1.7-.2-3.5-.4-5.2-.8-.9-.1-1.8-.4-2.6-.6-.9-.2-1.7-.5-2.5-.7-.8-.2-1.5-.5-2.3-.7-.7-.2-1.4-.5-2-.8-1.2-.5-2.2-.9-2.9-1.3-.7-.3-1.1-.5-1.1-.5s.4.1 1.2.2c.7.1 1.8.3 3.1.4.6.1 1.3.1 2.1.1.7 0 1.5.1 2.3 0 .8 0 1.6 0 2.4-.1.8-.1 1.6-.1 2.5-.2 1.6-.2 3.3-.4 4.8-.8 1.5-.3 2.9-.7 4-1 1.1-.3 2.1-.7 2.7-.9.3-.1.5-.2.6-.3l.2-.1 2.2 8.1zm7.2 18.1s-2.8-.3-3.1-.3c-.3 0-.7-.1-1.3-.1-1-.1-2.4-.3-4-.7-1.6-.3-3.5-.8-5.5-1.5-2-.6-4-1.4-6-2.3-1-.4-2-.9-2.9-1.4l-2.7-1.5c-.9-.5-1.7-1-2.4-1.5-.8-.5-1.5-1-2.1-1.5-1.3-.9-2.3-1.8-2.9-2.4-.7-.6-1.1-.9-1.1-.9s.5.2 1.3.6c.8.4 2 .9 3.4 1.4.7.3 1.5.5 2.3.8.8.2 1.7.5 2.6.7.9.2 1.9.5 2.8.6 1 .2 1.9.3 2.9.4 2 .3 3.9.3 5.8.4 1.8 0 3.5-.1 4.9-.2 1.4-.1 2.6-.3 3.4-.4.4-.1.7-.1.8-.2.2 0 .3-.1.3-.1l3.5 10.1zm3.2 11s-2.2-.7-3-.9c-.8-.2-2-.4-3.4-.8-2.8-.7-6.4-1.8-9.9-3.2-1.8-.7-3.5-1.4-5.1-2.2-.8-.4-1.6-.7-2.3-1.1-.7-.4-1.4-.7-2-1.1-1.2-.7-2.2-1.3-2.8-1.8-.7-.4-1.1-.7-1.1-.7s.4.1 1.2.4c.8.3 1.8.6 3.2.9.7.2 1.4.3 2.1.5.8.2 1.6.3 2.4.5 1.7.3 3.4.5 5.2.7 3.6.4 7.1.4 9.8.4 1.3 0 2.4-.1 3.2-.1.7-.1 1.1-.1 1.1-.1l1.4 8.6z"/><path class="st6" d="M242.3 447.6s.6-5.8 1-16 .5-24.9-1-42.3c-.4-4.4-.9-8.9-1.6-13.6-.2-1.2-.4-2.3-.5-3.5l-.3-1.8-.4-1.7c-.3-1.2-.5-2.4-.8-3.6l-.4-1.8-.5-1.8c-2.5-9.6-6.4-19.5-11.1-29.3-4.7-9.9-10.4-19.7-16.6-29.3-6.3-9.6-13.2-19.1-20.6-28.1-7.4-9.1-15.3-17.6-23.6-25.7-8.2-8.1-16.5-15.8-24.9-22.9-8.4-7.1-16.7-13.6-24.9-19.5s-16-11.3-23.4-16c-3.7-2.4-7.2-4.7-10.6-6.8-3.4-2.1-6.6-4.1-9.7-6-6.1-3.7-11.5-6.9-15.9-9.5-8.9-5.1-14-8-14-8l.6-1.1s5.1 2.9 14.1 7.8c4.5 2.6 9.9 5.6 16.1 9.3 3.1 1.8 6.4 3.7 9.8 5.9 3.4 2.1 7 4.3 10.7 6.7 7.5 4.7 15.4 10 23.6 15.9 8.2 5.9 16.7 12.4 25.2 19.4 8.5 7.1 16.9 14.8 25.2 22.9 4.1 4 8.3 8.2 12.3 12.5 4 4.3 7.9 8.8 11.6 13.3 7.5 9.1 14.5 18.6 20.8 28.3 6.4 9.7 12.1 19.6 16.9 29.6 4.8 10 8.7 20 11.4 29.9l.5 1.9.4 1.8c.3 1.2.5 2.4.8 3.6l.4 1.8.3 1.8.6 3.6c.7 4.7 1.2 9.3 1.6 13.7.8 8.8 1.1 16.9 1.2 24.1.1 7.2 0 13.5-.3 18.6-.4 10.3-1.1 16.2-1.1 16.2l-2.9-.3z"/></g><g class="st7"><path class="st5" d="M19.4 143.9c2.4 1.3 4.8 2.7 7.1 4.1 2.3 1.4 4.7 2.9 7 4.4 2.3 1.5 4.6 3 6.8 4.6 1.1.8 2.2 1.6 3.4 2.5.6.5 1.1.9 1.7 1.5l.8.9c.3.3.6.9.9 1.3l3.1 5.2-6-1.9c-3.2-1-6.5-2-9.8-2.9-3.3-.9-6.6-1.7-9.9-2.5-3.3-.7-6.7-1.4-10.1-1.9-.8-.1-1.7-.2-2.5-.4-.8-.1-1.7-.2-2.6-.3-.9-.1-1.7-.2-2.6-.2l-2.6-.2 2.6-.1c.9-.1 1.7 0 2.6-.1h2.6c.9 0 1.7 0 2.6.1 3.5.1 6.9.4 10.3.8 3.4.4 6.9.8 10.3 1.3 3.4.5 6.8 1.1 10.3 1.7l-2.8 3.3c-.1-.1-.1-.2-.2-.4l-.4-.7c-.4-.5-.8-1-1.2-1.4-.9-1-1.8-1.9-2.8-2.8-1.9-1.9-3.9-3.7-6-5.5-2-1.8-4.1-3.6-6.2-5.3-2.1-1.8-4.2-3.5-6.4-5.1zm33.7 25.5s-1.5 0-2.3-1.2c-.8-1.2-1.2-1.7-2.7-3.6-1.5-2-3.2-4.2-5.2-6.6-2-2.4-4.1-4.9-6.4-7.2-1.1-1.2-2.3-2.4-3.4-3.5-1.1-1.2-2.4-2.2-3.5-3.2s-2.3-1.9-3.4-2.8c-1.1-.9-2.2-1.6-3.2-2.3-1-.7-2-1.2-2.9-1.7-.4-.2-.8-.5-1.2-.7-.4-.2-.8-.3-1.1-.5-1.3-.6-2.1-.9-2.1-.9s.8.3 2.2.7c.3.1.7.2 1.2.4.4.1.8.4 1.3.6.9.4 2 .8 3.1 1.5 1.1.6 2.3 1.2 3.5 2 1.2.8 2.5 1.6 3.8 2.5 1.3.9 2.6 1.9 3.9 2.9 1.3 1 2.6 2.1 3.8 3.2 2.5 2.2 5 4.5 7.2 6.7s4.2 4.4 5.9 6.2c1.7 1.9 3.1 3.4 4 4.6 1 1.1 3 5 3 5l-5.5-2.1z"/><path class="st5" d="M64.4 175.2s-1.7-.3-5.1-4.8C56 166 51.5 160 46.7 154.3 42 148.5 37.1 142.9 33 139c-2-1.9-3.9-3.4-5.2-4.2-.3-.2-.7-.4-1-.5-.3-.1-.5-.3-.7-.3-.4-.1-.6-.2-.6-.2s.2.1.7.1c.2 0 .5.1.8.3.3.1.6.2 1 .5 1.5.7 3.4 2.1 5.6 3.9 4.4 3.6 9.8 8.8 15 14.3 5.2 5.4 10.2 11 13.9 15.3 3.7 4.2 8.6 10.2 8.6 10.2l-6.7-3.2z"/><path class="st5" d="M73 180.6s-.9-.4-3.2-5.5c-3.6-5.5-7.6-12.4-12.7-19.5-1.3-1.8-2.6-3.5-3.9-5.2-.7-.9-1.3-1.6-2-2.4l-2.2-2.2c-3-2.8-6-5.1-8.6-7.1-2.6-1.9-4.9-3.4-6.6-4.4-.8-.5-1.5-.8-2-1.1-.5-.2-.7-.3-.7-.3s.3.1.7.3c.5.2 1.2.5 2 .9 1.7.9 4.1 2.2 6.9 4 2.8 1.8 5.9 4 9.1 6.6l2.4 2.1c.8.8 1.5 1.6 2.2 2.4 1.5 1.6 2.9 3.3 4.2 5 5.5 6.8 10.8 13.9 14.8 19.1 3.9 5.3 8.4 12.1 8.4 12.1l-8.8-4.8zm10.8 7.1l-4.1-6.2c-2-3.1-4.4-6.8-6.8-10.8-1.2-2-2.4-4.1-3.5-6.5-1-2.4-1.9-4.4-3-6.6-2.3-4.3-4.8-8.5-7.3-12.3-1.3-1.9-2.6-3.7-3.8-5.4-1.3-1.7-2.5-3.2-3.8-4.6-1.2-1.4-2.4-2.5-3.5-3.6-.6-.5-1.1-.9-1.6-1.3s-1-.7-1.5-1c-.9-.6-1.7-1-2.2-1.2-.5-.2-.8-.4-.8-.4s.3.1.8.3c.5.2 1.4.5 2.3 1.1.5.3 1 .5 1.5.9s1.1.8 1.7 1.2c1.2.9 2.5 2 3.8 3.3 1.4 1.3 2.7 2.8 4.2 4.3 1.4 1.6 2.8 3.3 4.3 5.2 2.9 3.7 5.7 7.7 8.3 12 1.3 2.1 2.6 4.5 3.6 6.5 1.1 2 2.4 4 3.7 5.8 2.6 3.7 5.2 7.2 7.4 10.1 4.5 5.8 9.8 13.3 9.8 13.3l-9.5-4.1z"/><path class="st5" d="M95 193.8s.3.6 0 0c-.2-.6.5 1.1 0 0-1-2.3-1.6-3.2-3.8-6.8l-1.8-2.7c-.4-.5-.7-1-1.1-1.5l-.5-.8-.6-.9c-1.5-2.3-2.8-4.7-4.1-7.2-1.3-2.5-2.6-5.1-3.8-7.8-1.2-2.7-2.4-5.5-3.6-8.1-2.4-5.2-5.4-10.3-8.6-14.7-1.6-2.2-3.3-4.3-5-6.1-1.7-1.9-3.4-3.5-5-5-.8-.7-1.7-1.4-2.4-2-.8-.6-1.6-1.1-2.3-1.7-1.4-1.1-2.9-1.7-4-2.4-1.2-.6-2.1-1-2.7-1.3-.6-.3-1-.4-1-.4s.3.1 1 .4c.6.2 1.6.6 2.8 1 1.2.6 2.6 1.2 4.2 2.1.8.5 1.6 1 2.5 1.5.8.6 1.7 1.2 2.6 1.8 1.8 1.3 3.7 2.9 5.6 4.6 1.9 1.8 3.8 3.7 5.6 5.8 3.7 4.3 7.2 9.2 10.2 14.5 1.4 2.7 2.8 5.2 4.2 7.8 1.4 2.5 2.9 4.9 4.3 7.2s2.9 4.5 4.4 6.3l.5.7.6.7c.4.5.8.9 1.2 1.4.8 1 1.6 1.9 2.3 2.9 1.5 2.2 2.2 4.6 3.6 7 .7 1.2 2.4 5 2.7 5.6.3.7 1.7 4 1.7 4l-9.7-5.9z"/><path class="st5" d="M56.5 122.7c1.8.9 3.6 1.8 5.2 3 1.7 1.1 3.3 2.3 4.8 3.6 1.5 1.3 3 2.7 4.5 4.1 1.4 1.4 2.8 2.9 4.2 4.4 1.3 1.5 2.6 3.1 3.9 4.7 1.2 1.6 2.4 3.2 3.5 5 1.1 1.7 2.1 3.5 3 5.4.9 2 1.5 3.8 2.3 5.6 3.2 7.2 7.2 14.2 11.3 21l3.1 5.1c1.1 1.7 2.1 3.6 3.1 5.4.9 1.9 1.8 3.8 2.5 5.7.7 2 1.4 3.9 1.9 6.1l.7 3.6-3.6-.7c-8-1.6-16.1-3-24.2-4.3-8.1-1.4-16.2-2.6-24.4-3.7-4.1-.6-8.1-1.1-12.2-1.6l-6.1-.7c-2-.2-4.1-.4-6.1-.6-2-.2-4.1-.4-6.1-.5-2-.1-4.1-.3-6.2-.4l-6.2-.3H9.2l6.2-.3 6.2-.1c2.1 0 4.1.1 6.2.1 2.1 0 4.1.1 6.2.2 2.1.1 4.1.2 6.2.3l6.2.4c4.1.3 8.2.6 12.3 1 8.2.7 16.4 1.5 24.6 2.5 8.2.9 16.4 2 24.6 3.1l-2.9 2.9c-.3-1.7-.8-3.6-1.4-5.4-.6-1.8-1.3-3.6-2.1-5.4-.8-1.8-1.6-3.5-2.6-5.2l-2.9-5.3c-3.8-7.1-7.4-14.3-10.4-21.9-.7-1.9-1.3-3.9-2-5.7-.7-1.8-1.6-3.5-2.6-5.2-1-1.7-2.1-3.4-3.2-5s-2.3-3.2-3.6-4.8c-1.2-1.6-2.5-3.1-3.9-4.5-1.3-1.5-2.7-2.9-4.2-4.3s-3-2.7-4.6-3.9c-1.5-1.4-3.2-2.5-5-3.4z"/><path class="st5" d="M113.3 206.7c-.3-1 .4 1.1 0 0s-.8-2.1-1.2-3.2c-.8-2.1-1.8-4.1-2.8-6.1-.5-1-1.1-1.9-1.7-2.9l-.4-.7-.5-.8c-.3-.5-.6-.9-.9-1.5l-.9-1.7-.8-1.6-1.5-3.3c-1.9-4.3-3.7-8.7-5.3-13.1-1.7-4.4-3.3-8.8-4.8-13.3v.1c-2.8-6.2-5.8-12.4-9-18.5-.8-1.5-1.6-3-2.5-4.5-.4-.7-.9-1.5-1.3-2.2-.5-.7-.9-1.5-1.4-2.2l-1.4-2.1-1.5-2.1c-.5-.7-1.1-1.3-1.7-2-.6-.6-1.2-1.2-1.9-1.8.7.6 1.4 1.1 2 1.7.6.6 1.2 1.2 1.8 1.9l1.7 2 1.6 2.1 1.5 2.1 1.5 2.1c1 1.4 1.9 2.9 2.8 4.3 3.6 5.9 7 11.9 10.2 18v.1c1.8 4.3 3.7 8.6 5.6 12.8 1.9 4.2 3.9 8.5 6.1 12.6.6 1 1.1 2 1.6 3l.8 1.5.8 1.3c.2.4.7.9 1 1.4l.5.6.6.7c.7 1 1.4 2 2.1 3.1 1.3 2.1 2.5 4.2 3.5 6.4l1.5 3.3c.5 1.1.7 5.2 1.1 6.4l-6.8-3.9z"/><path class="st5" d="M121.6 212s-2.8-4-6.2-13.5c-.8-2.4-1.8-5-2.7-7.7-.9-2.8-1.8-5.7-2.6-8.8-.7-3.1-1.6-6-2.7-9.1-1.1-3.1-2.4-6.1-3.8-9.2-1.3-3.1-2.8-6.1-4.3-9-1.5-2.9-3-5.8-4.6-8.5-1.6-2.7-3.1-5.3-4.8-7.6-1.6-2.4-3.4-4.4-5-6.3-3.2-3.9-5.8-7.1-7.9-9.2-1-1-1.9-1.8-2.6-2.2-.6-.5-1-.7-1-.7s.4.2 1 .6c.7.4 1.6 1.1 2.7 2.1 2.2 2 4.9 5.2 8.3 8.9 1.7 1.9 3.6 3.8 5.3 6.2 1.8 2.3 3.5 4.8 5.2 7.5 1.7 2.7 3.3 5.5 5 8.4 1.6 2.9 3.2 5.9 4.7 8.9s3 6.1 4.2 9.1c1.3 3 2.5 6.3 3.2 9.3.9 2.9 1.9 5.8 2.9 8.4 1 2.7 2 5.2 3 7.5 3.8 9.3 8.6 19.4 8.6 19.4l-5.9-4.5z"/><path class="st5" d="M127.5 216.9c-.9-2.9-2.1-7.1-3.5-12.2-.7-2.5-1.4-5.3-2-8.3-.6-2.9-1.3-6-1.9-9.2-1.3-6.4-2.8-13.1-4.5-19.8-.8-3.3-1.8-6.7-2.7-9.9-1-3.2-2-6.4-3.3-9.3-1.3-3-2.7-5.7-4.1-8.4-1.4-2.6-2.8-5.1-4.1-7.3-2.6-4.5-4.8-8.3-6.3-10.9-1.5-2.6-2.2-4.2-2.2-4.2s.8 1.5 2.5 4.1c1.7 2.5 4.1 6.1 7 10.5 1.4 2.2 3 4.5 4.6 7.1 1.6 2.5 3.2 5.3 4.7 8.2 1.6 3 2.8 6.1 4.1 9.3 1.2 3.2 2.4 6.5 3.4 9.9 2.2 6.6 4.1 13.3 5.9 19.6.9 3.1 1.7 6.1 2.5 9 .8 2.8 1.7 5.5 2.5 7.9 1.7 4.9 3.2 8.9 4.2 11.7 1.1 2.8.7 7.7.7 7.7l-7.5-5.5z"/><path class="st5" d="M136.3 224.1s.3 1.4-.4-1.6-1.6-7.2-2.6-12.4c-.5-2.6-1-5.4-1.5-8.3-.5-3-.9-6-1.5-9.2-1.2-6.3-2.7-13.1-4.2-19.8-1.5-6.8-3.1-13.5-4.5-19.8-.7-3.2-1.5-6.1-2.4-8.9-.9-2.8-2-5.4-3.1-7.7-2.1-4.7-4.4-8.4-6.2-10.8-.9-1.2-1.6-2.1-2.2-2.7-.5-.6-.8-.9-.8-.9l.9.9c.6.6 1.4 1.5 2.3 2.6 1.9 2.3 4.5 5.9 6.9 10.5 1.2 2.3 2.4 4.9 3.6 7.7 1.1 2.8 2.2 5.8 3 9 1.8 6.2 3.7 12.9 5.7 19.5 1.9 6.7 3.8 13.3 5.4 19.7.8 3.2 1.5 6.4 2.1 9.2.6 2.9 1.3 5.6 1.9 8.1 1.3 5 2.4 9.2 3.2 12.1.8 2.9 1.6 7.2 1.6 7.2l-7.2-4.4z"/><path class="st5" d="M144.5 230.8s-.9-4.9-2.8-16c-1-5.5-2.1-12-3.3-18.9-.6-3.5-1.2-7.1-1.7-10.7l-1.5-11.1-1.5-11.1c-.6-3.6-1.2-7.2-2.3-10.4-1.2-3.2-2.7-6.2-4.2-9.1-1.5-2.8-3-5.5-4.4-7.9-1.4-2.4-2.9-4.5-4.2-6.4-1.4-1.8-2.6-3.4-3.7-4.6-.5-.6-1.1-1.1-1.5-1.6-.4-.4-.8-.8-1.2-1.1-.7-.6-1-.9-1-.9s.4.3 1.1.8c.4.3.8.6 1.2 1 .5.4 1 .9 1.6 1.5 1.2 1.1 2.5 2.7 3.9 4.4 1.4 1.8 3 3.9 4.5 6.2 1.6 2.3 3.2 4.9 4.8 7.7 1.6 2.8 3.3 5.8 4.7 9.1 1.3 3.4 2.1 7 2.8 10.6.7 3.6 1.4 7.3 2 11 .7 3.7 1.3 7.4 2 11 .7 3.6 1.4 7.1 2.2 10.6 1.5 6.9 2.9 13.3 4.2 18.7 2.4 11 4.9 21.8 4.9 21.8l-6.6-4.6z"/><path class="st5" d="M152.1 237.7s-4-29.5-8-60.7c-.5-3.9-1-7.8-1.4-11.7-.2-1.9-.4-3.9-.5-5.8-.1-1.9-.4-3.7-.7-5.5-.6-3.6-1.7-7-3-10-1.3-3.1-3-5.8-4.8-8.1-3.6-4.6-7.7-7.5-10.6-9.2-2.9-1.8-4.8-2.4-4.8-2.4s1.9.6 4.9 2.3c1.5.8 3.3 1.9 5.2 3.4 1.9 1.5 4 3.3 5.9 5.6 1.9 2.3 3.7 5 5.2 8.1 1.5 3.1 2.7 6.5 3.5 10.2.4 1.8.7 3.7.9 5.6.2 2 .4 3.8.7 5.7.6 3.8 1.2 7.7 1.8 11.6 5.1 31 10.8 64 10.8 64l-5.1-3.1z"/><path class="st5" d="M157.6 242.7s1.1-3.7 0-14.4c-.5-5.4-1.1-11.7-1.8-18.4-.6-6.7-1.3-13.9-1.9-21.1-.3-3.6-.3-7.3-.4-10.8-.1-3.5-.2-7-.4-10.4-.2-3.4-.4-6.6-.8-9.7-.4-3.1-.8-5.9-1.8-8.4s-2.3-4.6-3.6-6.3c-1.3-1.8-2.6-3.2-3.7-4.3-2.2-2.3-3.7-3.3-3.7-3.3s1.5 1 3.9 3.1c1.2 1.1 2.5 2.5 3.9 4.2 1.4 1.7 2.8 3.8 3.9 6.3s1.8 5.5 2.3 8.5c.5 3.1.9 6.3 1.2 9.7.3 3.4.6 6.9.9 10.4.3 3.5.5 7.1.9 10.6.9 7.1 1.9 14.3 2.8 20.9 1 6.7 1.9 12.9 2.7 18.3 1.6 10.7 1.8 20 1.8 20l-6.2-4.9z"/><path class="st5" d="M166.3 249.9s-.1-4-.2-15c-.2-11-.6-25.7-1.4-40.4-.2-3.7-.5-7.3-.8-10.9-.1-1.8-.3-3.6-.5-5.3-.2-1.7-.4-3.4-.7-5.2-1.1-6.8-1.7-13.3-3.2-18.5-.8-2.6-1.8-4.9-3-6.7-1.2-1.9-2.5-3.3-3.6-4.5-1.1-1.1-2-2-2.7-2.6-.6-.6-1-.9-1-.9s.4.3 1 .8c.7.5 1.6 1.3 2.9 2.4 1.2 1.1 2.6 2.5 3.9 4.3 1.4 1.8 2.6 4.1 3.5 6.8.9 2.6 1.6 5.6 2.3 8.7.6 3.1 1.3 6.4 2 9.7.4 1.7.7 3.4 1 5.2.3 1.8.6 3.6.8 5.4.5 3.6.9 7.3 1.4 10.9 1.6 14.7 2.8 29.4 3.7 40.4.8 11 1.7 22.1 1.7 22.1l-7.1-6.7z"/><path class="st5" d="M173.4 258.4s.5-5.9 1.1-16.3c.5-10.4 1.3-24.4 1.8-38.3.1-3.5.3-7 .2-10.3-.1-3.4-.2-6.7-.6-10-.4-3.2-1-6.3-1.8-9.1s-1.9-5.4-3-7.8c-2.3-4.6-5-8.1-7-10.4-2-2.3-3.3-3.4-3.3-3.4s1.4 1.1 3.5 3.3c1.1 1.1 2.3 2.5 3.6 4.2 1.3 1.7 2.7 3.7 4 6 1.3 2.3 2.5 4.9 3.5 7.8 1 2.9 1.8 6 2.4 9.3.6 3.3.9 6.7 1.1 10.1.2 3.5.2 7 .3 10.5.2 14 .2 27.9.2 38.4v20.9l-6-4.9zm7.9 6.7s.5-3.4 1.9-13.6 3.2-23.9 4.7-37.6c.4-3.4.7-6.8 1-10.2.3-3.4.6-6.7.6-9.9.1-3.2 0-6.3-.1-9.3-.1-2.9-.3-5.7-.6-8.2-.4-2.5-.9-4.8-1.7-6.7-.8-1.9-1.8-3.4-2.8-4.6-.5-.6-.9-1.1-1.4-1.4-.4-.4-.8-.7-1.1-1-.6-.5-1-.8-1-.8s.4.2 1 .7c.3.2.8.5 1.2.9.5.4 1 .8 1.5 1.4 1.1 1.1 2.2 2.6 3.2 4.5s1.7 4.2 2.3 6.8c.6 2.6.9 5.4 1.2 8.3.3 3 .6 6 .8 9.4.2 3.3.1 6.6.1 10.1-.1 3.4-.1 6.9-.3 10.3-.5 13.8-1.3 27.6-1.9 38-.7 10.3-2 19.4-2 19.4l-6.6-6.5z"/><path class="st5" d="M188.9 274.3s4.3-26.7 8.3-55c.5-3.5 1-7.1 1.5-10.6s1-6.9 1.3-10.2c.6-6.6.6-12.8-.8-17.9-.7-2.5-1.7-4.8-2.7-6.7-1-1.9-2.1-3.4-3.1-4.7-2-2.4-3.4-3.5-3.4-3.5s1.5 1 3.7 3.3c2.1 2.3 4.9 6 6.8 11.2 1.8 5.2 2.3 11.7 2.2 18.4-.1 3.4-.3 6.9-.5 10.4-.3 3.5-.5 7.1-.8 10.6-2 28.5-5.3 62.5-5.3 62.5l-7.2-7.8z"/><path class="st5" d="M195.9 282.2s5.2-27.6 10.7-59.2c.3-2 .8-4 1-5.9.2-2 .4-3.9.6-5.9.4-3.9.7-7.7.8-11.5.2-3.7.2-7.3.1-10.7-.1-3.4-.4-6.6-1.4-9.3-1.2-2.7-2.6-5-4-7-1.5-1.9-3-3.4-4.3-4.5-1.3-1.1-2.4-1.9-3.2-2.5-.8-.5-1.2-.8-1.2-.8s.4.3 1.2.8c.8.5 2 1.2 3.4 2.3 1.4 1.1 3.1 2.4 4.7 4.3 1.6 1.8 3.2 4.2 4.6 6.9 1.3 2.9 1.7 6.2 2 9.7.3 3.5.5 7.1.5 10.9 0 3.8 0 7.7-.2 11.6l-.3 6c-.1 2.1-.4 4-.6 6-3.7 31.8-6.9 68.5-6.9 68.5l-7.5-9.7z"/><path class="st5" d="M202.7 291s-.2-5.2 2.1-17.7c2.3-12.5 5.4-29.1 8.8-45.7.4-2.1.9-4.2 1.3-6.2.5-2.1 1-4.1 1.4-6.1.8-4 1.4-8 1.7-11.9.3-3.9.3-7.6-.2-11.2-.4-3.5-1.3-6.8-2.7-9.5-.7-1.4-1.6-2.6-2.3-3.8-.8-1.2-1.6-2.3-2.3-3.4-1.5-2.1-2.9-3.8-4.1-5.2-2.4-2.8-4-4.2-4-4.2s1.7 1.3 4.3 3.9c1.3 1.3 2.9 3 4.5 4.9.8 1 1.7 2.1 2.6 3.2.9 1.2 1.8 2.3 2.7 3.8 1.7 2.8 2.9 6.2 3.6 9.9.7 3.7 1 7.6 1 11.6s-.3 8.2-.9 12.4c-.3 2.1-.7 4.2-1 6.2-.3 2.1-.6 4.2-.9 6.2-2.2 16.7-4.1 33.5-5.6 46.1-1.5 12.6-2.9 26.1-2.9 26.1l-7.1-9.4z"/><path class="st5" d="M208.5 300.7s.4-6.7 3.8-19c1.7-6.1 3.7-13.3 5.8-21 1.1-3.8 2.2-7.8 3.3-11.8 1.1-4 2.3-8.2 3.3-12.1.9-4 1.7-8.2 2.3-12.3.6-4.1 1.1-8.2 1.5-12.1.4-3.9.6-7.7.5-11.3 0-1.8-.1-3.5-.4-5.2-.3-1.5-.8-3.1-1.4-4.6-1.2-2.9-2.6-5.4-3.9-7.7-1.3-2.2-2.5-4.1-3.6-5.6s-1.9-2.7-2.5-3.5c-.6-.8-1-1.2-1-1.2s.4.3 1.1 1.1c.7.7 1.6 1.8 2.8 3.3 1.2 1.5 2.5 3.3 4 5.4 1.5 2.1 3.1 4.6 4.6 7.5.7 1.5 1.4 3 1.9 4.8.4 1.7.6 3.6.8 5.4.3 3.7.4 7.6.3 11.6-.1 4-.3 8.2-.6 12.4-.3 4.2-.8 8.5-1.5 12.8-.8 4.4-1.7 8.4-2.4 12.6-.8 4.1-1.6 8.1-2.4 12.1-1.6 7.8-3 15.1-4.3 21.4-2.5 12.5-5.3 24.1-5.3 24.1l-6.7-7.1z"/><path class="st5" d="M214.3 309.1s-.3-5.5 2.7-15.3c2.9-9.7 6.9-22.7 10.7-35.6.9-3.2 1.9-6.5 2.8-9.7.9-3.2 1.6-6.3 2.3-9.4 1.2-6.2 1.9-12 2.1-17 .1-2.5 0-4.8-.2-6.9-.1-1-.2-2-.3-2.8-.2-.9-.3-1.7-.5-2.4-.4-1.4-.7-2.5-1-3.3-.3-.7-.4-1.1-.4-1.1s.2.4.5 1.1c.4.7.8 1.8 1.3 3.2.2.7.4 1.5.7 2.4.2.9.4 1.8.6 2.9.3 2.1.6 4.4.8 6.9.3 5.1.1 11.1-.7 17.5-.4 3.2-.9 6.5-1.5 9.8-.6 3.3-1.3 6.6-2 9.9-2.7 13.3-5.5 26.5-7.6 36.5-2.1 9.9-4.9 20.5-4.9 20.5l-5.4-7.2z"/><path class="st5" d="M219.5 316.2s.5-3.4 4.1-12.9c3.6-9.6 8.3-22.4 12.7-35.4 1.1-3.2 2.1-6.5 3.1-9.7 1-3.2 1.9-6.3 2.5-9.4 1.3-6.3 2.6-12.1 2.9-17.1.1-2.5 0-4.8-.3-6.9-.3-2-.8-3.8-1.3-5.2-.5-1.4-.9-2.5-1.3-3.2-.3-.7-.5-1.1-.5-1.1s.2.4.6 1.1c.4.7.9 1.8 1.6 3.1.6 1.4 1.3 3.1 1.7 5.2.5 2.1.8 4.4.9 7.1.2 5.2-.6 11.3-1.3 17.6-.4 3.2-1 6.6-1.7 9.9-.7 3.3-1.5 6.7-2.3 10-3.2 13.4-6.8 26.6-9.5 36.5-2.8 9.9-5.9 21.1-5.9 21.1l-6-10.7z"/><path class="st5" d="M223.4 323.9s1.5-3.5 5.8-13.3 9.9-22.9 15.3-36.2c1.3-3.3 2.6-6.6 3.8-9.9.6-1.6 1.2-3.3 1.7-4.8.5-1.6.9-3.3 1.4-4.9 1.7-6.4 3-12.5 3.6-17.8.3-2.6.5-5.1.5-7.2 0-2.2-.1-4-.3-5.6-.2-1.5-.4-2.8-.6-3.6-.2-.8-.3-1.3-.3-1.3s.1.4.4 1.2c.3.8.6 2 .9 3.5.3 1.5.6 3.4.7 5.6.2 2.2.2 4.7.1 7.4-.2 5.4-1 11.7-2.2 18.3-.3 1.7-.6 3.3-1 5.1-.4 1.8-.8 3.5-1.3 5.2-.9 3.4-2 6.9-3 10.3-4.3 13.7-8.8 27.3-12.3 37.5s-8.2 19.2-8.2 19.2l-5-8.7z"/><path class="st5" d="M228 331.5s1.8-2 6.2-10.9c4.3-8.9 10.1-20.8 15.4-32.9 1.3-3 2.6-6.1 3.8-9.1l1.8-4.5c.6-1.5 1.1-2.9 1.6-4.4.5-1.5 1-2.9 1.3-4.3.4-1.4.7-2.8 1-4.2.6-2.8 1.1-5.4 1.6-7.9.5-2.4.9-4.7 1.1-6.6.2-2 .3-3.7.3-5.2 0-1.4-.2-2.6-.3-3.3-.1-.8-.1-1.2-.1-1.2s.1.4.2 1.2c.2.8.4 1.9.5 3.3.2 1.4.3 3.2.2 5.3-.1 2-.3 4.3-.6 6.8s-.6 5.1-1 8c-.3 2.8-.9 5.9-1.7 8.9-.4 1.5-.8 3.1-1.3 4.6-.4 1.6-.9 3.1-1.4 4.7-1 3.1-2.1 6.3-3.1 9.4-4.4 12.6-9.1 25-12.7 34.3-3.6 9.3-7.4 19.5-7.4 19.5l-5.4-11.5z"/><path class="st5" d="M269.2 245.9s.1.4.2 1.2c.1.8.3 1.9.3 3.4.2 3 0 7.2-.6 12.3-.3 2.5-.8 5.2-1.3 8.1-.3 1.4-.6 2.9-.9 4.4-.4 1.5-.7 3-1.2 4.5-.9 3.1-1.9 6.2-3 9.4s-2.2 6.3-3.4 9.5c-4.7 12.7-9.7 25.3-13.5 34.7-3.9 9.4-8.7 18.7-8.7 18.7L233 342s1-3 5.6-11.9c4.6-9 10.7-21 16.4-33.1 1.4-3 2.8-6.1 4.2-9.1 1.3-3 2.6-6 3.7-8.9.6-1.4 1.1-2.9 1.6-4.3s.9-2.8 1.3-4.2c.8-2.8 1.5-5.4 2-7.9 1.1-4.9 1.6-9.1 1.7-12 .1-1.5 0-2.6 0-3.4-.2-.8-.3-1.3-.3-1.3z"/><path class="st5" d="M235.9 352.3s1.9-5.1 7.5-14.2c5.5-9.2 12.9-21.4 20.1-33.7 1.8-3.1 3.6-6.2 5.3-9.2 1.7-3 3.5-6.1 4.9-9 1.4-3.1 3-5.9 4.1-8.7 1.1-2.7 1.7-5.5 2-8.1.3-2.6.4-5.1.5-7.2v-5.6c-.1-3.1-.1-4.9-.1-4.9s.2 1.8.6 4.9c.2 1.6.3 3.4.5 5.6.1 2.2.3 4.7.2 7.4-.1 2.7-.4 5.7-1.4 8.8-.9 3.1-2.3 6-3.4 9.1-1.3 3.3-2.7 6.4-4.2 9.6-1.5 3.2-3 6.4-4.5 9.7-6.2 12.9-12.5 25.8-17.2 35.4-4.8 9.6-10.2 20.1-10.2 20.1l-4.7-10z"/><path class="st5" d="M239.6 362.2s2.4-5.5 8.1-14c5.7-8.5 13.2-19.9 20.4-31.5 1.8-2.9 3.6-5.8 5.3-8.7 1.7-2.9 3.3-5.7 4.7-8.6 2.9-5.7 5.3-11.1 7-15.9 1.7-4.8 2.6-9 2.9-11.9.2-1.5.2-2.7.3-3.5v-1.2s0 .4.1 1.2c0 .8.1 2 0 3.5-.1 3-.6 7.3-2 12.3-1.3 5-3.3 10.7-5.8 16.7-1.2 3-2.6 6.1-4.1 9.1-1.5 3-3 6.1-4.6 9.2-6.3 12.2-12.9 24.2-17.8 33.2-5 9-11.4 19.3-11.4 19.3l-3.1-9.2z"/><path class="st5" d="M241.4 367.6s1.1-2.7 7.2-11 14.2-19.4 22.1-30.5c2-2.8 4-5.6 5.8-8.3.4-.7.9-1.3 1.3-2l1.2-2.1c.8-1.4 1.6-2.8 2.3-4.2 3-5.6 5.6-11 7.7-15.7 1-2.3 1.9-4.5 2.7-6.5.7-1.9 1.3-3.7 1.7-5.1.4-1.4.7-2.6.9-3.4.2-.8.2-1.2.2-1.2s0 .4-.1 1.2c-.1.8-.3 2-.5 3.5-.3 1.5-.7 3.3-1.2 5.3s-1.2 4.3-2 6.8c-1.6 4.9-3.6 10.6-6.1 16.6-.6 1.5-1.2 3-1.9 4.6-.3.8-.7 1.5-1 2.3l-1.2 2.4c-1.6 3-3.3 6-5 9-6.8 12-13.7 23.9-18.9 32.8C251.4 371 244 379 244 379l-2.6-11.4zM7.9 145.6s1.8.4 4.3 1.3c2.6.9 5.9 2.3 9.2 3.8 3.3 1.5 6.5 3.2 8.9 4.5 2.4 1.3 15.5 7.4 15.5 7.4l-2.4 1.9s-12.6-5.1-14.7-6.6c-2.2-1.6-5.1-3.6-8.2-5.5-3-1.9-6.2-3.7-8.6-4.9-2.3-1.3-4-1.9-4-1.9zm51.8 26.9L2 161.6l47.9 5.4zm8.6 5s-7-.2-12.5-1.2-12.8-2.2-20.2-3.3c-3.7-.5-7.4-1-10.8-1.5-3.5-.4-6.7-.8-9.5-1-1.4-.1-2.7-.2-3.8-.3-1.1-.1-2.1-.1-2.9-.2-1.6-.1-2.6-.1-2.6-.1s.9 0 2.6-.1c.8 0 1.8-.1 2.9 0h3.8c2.8 0 6.1.1 9.6.3 3.5.2 7.2.4 11 .7 7.5.5 14.9 1.2 20.5 1.8 5.6.6 8.1 2 8.1 2l3.8 2.9z"/><path class="st5" d="M78.1 184.5s-17.4-4.6-30.1-6.9c-6.4-1.1-12.8-2.1-17.6-2.6-1.2-.1-2.3-.2-3.3-.3-1-.1-1.8-.1-2.5-.1h-2.2s.8 0 2.2-.1c.7-.1 1.6-.1 2.6-.1h3.3c4.9.1 11.4.5 17.8 1.2 12.9 1.2 25.6 4.2 25.6 4.2l4.2 4.7zm11.7 6s-21.4-4.2-38.6-6.8c-8.6-1.3-17.3-2.5-23.8-3.1-1.6-.2-3.1-.3-4.4-.3-1.3-.1-2.5-.2-3.4-.2-1.9 0-3-.1-3-.1s1.1 0 3-.1H23c1.3 0 2.8 0 4.5.1 6.6.3 15.3 1 24 1.9 17.4 1.8 31.7 3.9 31.7 3.9l6.6 4.7zm10.5 6.8l-90-13.4 81.1 7.7zm19.7 13.6s-31.4-4.6-57.4-7.5c-6.5-.7-13-1.4-19.1-1.9-3.1-.3-6-.5-8.8-.7-2.8-.2-5.5-.4-7.9-.5-2.5-.1-4.7-.2-6.7-.3h-5.2c-1.4.1-2.5.1-3.3.2-.8 0-1.2.1-1.2.1s.4 0 1.2-.1c.8-.1 1.9-.2 3.3-.4 1.4-.1 3.2-.1 5.2-.2 2 0 4.3 0 6.7-.1 2.5 0 5.1.1 7.9.1 2.8.1 5.8.2 8.9.3 6.1.3 12.7.6 19.2.9 26.2 1.5 49.6 4.7 49.6 4.7l7.6 5.4z"/><path class="st5" d="M126.1 215.4s-30-4.4-55.4-7.3c-12.7-1.5-25.3-2.7-34.9-3.4-2.4-.2-4.6-.3-6.5-.4-1.9-.1-3.6-.2-5-.2-2.8-.1-4.4-.2-4.4-.2s1.6 0 4.4-.1h5c1.9 0 4.1 0 6.5.1 9.6.2 22.3.8 35.1 1.5 25.5 1.6 47.6 3.7 47.6 3.7l7.6 6.3zm7.7 7.1s-8.8-2-17.8-3.7c-4.5-.8-9.7-1.7-15.3-2.6-2.8-.4-5.7-.9-8.7-1.3l-9-1.2c-3-.4-6-.7-9-1-3-.3-5.9-.5-8.8-.7-2.8-.2-5.6-.3-8.2-.4-2.6-.1-5.1 0-7.4-.1-2.3-.1-4.4.2-6.2.2-.9 0-1.8.1-2.6.1-.8.1-1.5.2-2.2.3-2.6.3-4.2.5-4.2.5s1.5-.3 4.1-.7c.7-.1 1.4-.2 2.2-.4.8-.1 1.7-.2 2.6-.3 1.9-.2 3.9-.5 6.2-.5 2.3-.1 4.8-.3 7.4-.3 2.6 0 5.4-.1 8.3 0 2.9.1 5.8.1 8.8.3 3 .1 6.1.3 9.1.5 3.1.2 6.1.4 9.1.7 3 .2 5.9.6 8.8.9 5.7.6 11 1.3 15.6 1.9 9.1 1.2 10.9 1.7 10.9 1.7l6.3 6.1z"/><path class="st5" d="M141.3 228.5s-9.9-2-19.4-3.4c-9.5-1.4-22.3-3.1-35.1-4.5-3.2-.3-6.4-.7-9.5-.9-3.2-.3-6.3-.5-9.3-.7-3-.2-5.9-.4-8.7-.5-2.8-.2-5.4-.2-7.8-.2-1.2 0-2.4-.1-3.5 0-1.1 0-2.1.1-3.1.1-2 .1-3.7.1-5.1.2-2.8.2-4.4.4-4.4.4s1.6-.2 4.4-.6c1.4-.2 3.1-.3 5.1-.5 1-.1 2-.2 3.1-.3 1.1-.1 2.3-.1 3.5-.2 2.4-.1 5-.2 7.8-.2s5.7-.1 8.7 0c3 0 6.2.1 9.3.2 3.2.1 6.4.2 9.6.4 12.9.6 25.8 1.6 35.4 2.5 9.6.9 11.5 1.1 11.5 1.1l7.5 7.1z"/><path class="st5" d="M151 235.7s-11.1-2.3-22-4.2c-2.7-.4-5.7-.9-8.8-1.4-3.1-.5-6.4-1-9.9-1.5-3.4-.5-7-1-10.6-1.4-3.6-.5-7.3-.9-10.9-1.2-3.7-.4-7.3-.7-11-1-3.6-.3-7.2-.5-10.6-.7-3.5-.2-6.8-.2-10-.3h-8.9c-2.8 0-5.3.3-7.6.4-2.3.1-4.2.3-5.8.5-3.2.4-5.1.6-5.1.6s1.8-.3 5-.8c1.6-.3 3.5-.6 5.8-.7 2.2-.2 4.8-.5 7.6-.6 2.8-.1 5.8-.3 9-.4 3.2 0 6.5-.1 10-.1 3.5.1 7.1.1 10.7.3 3.6.2 7.4.3 11 .6 3.7.2 7.4.5 11 .8 3.6.3 7.2.6 10.7 1 3.5.3 6.8.7 10 1.1 3.2.4 6.2.8 8.9 1.1 11 1.5 14.7 2.1 14.7 2.1l6.8 5.8z"/><path class="st5" d="M157.5 241.8s-11.6-2.6-22.4-4.2c-5.4-.8-11.7-1.7-18.5-2.5-3.4-.4-6.9-.8-10.5-1-1.8-.2-3.6-.3-5.4-.4l-5.4-.3c-3.6-.2-7.3-.1-10.9-.1-3.6 0-7.2-.1-10.6-.3-6.9-.3-13.3-.9-18.7-1.5-10.9-1.2-18.1-2.4-18.1-2.4s7.3.9 18.2 1.5c5.5.3 11.9.6 18.7.6 3.4 0 6.9-.1 10.5-.2 3.6-.2 7.3-.4 11-.4h5.5c1.8 0 3.7.1 5.5.1 3.6.1 7.2.3 10.6.6 6.9.5 13.3 1.1 18.8 1.6 11 1.2 13.9 1.6 13.9 1.6l7.8 7.3z"/><path class="st5" d="M163.2 247.8s-10.2-2.3-21.2-4.1c-5.5-.9-12-1.9-18.9-2.8-3.5-.4-7-.9-10.7-1.2-3.6-.4-7.4-.6-11.1-.8-7.4-.4-14.9-.4-21.9-.4-3.5 0-6.9.1-10.1.1-3.2 0-6.3.1-9.1-.1-5.6-.5-10.2-1.2-13.5-1.7-3.2-.5-5.1-.8-5.1-.8s1.9.2 5.1.6c3.2.3 7.9.9 13.5 1.1 2.8.1 5.8-.1 9-.2 3.2-.2 6.6-.3 10.1-.5 7-.3 14.5-.6 22-.5 3.8 0 7.5.2 11.2.4 3.7.2 7.3.5 10.8.8 7 .6 13.5 1.4 19.1 2.1 11.2 1.4 14.9 2 14.9 2l5.9 6z"/><path class="st5" d="M170.3 254.8s-8.9-2.2-17.2-3.8c-8.3-1.5-19.5-3.5-30.6-5.2-2.8-.4-5.6-.8-8.3-1.3-2.8-.4-5.5-.8-8.1-1.1-5.3-.7-10.2-1.3-14.4-1.7-2.1-.2-4-.4-5.8-.5-1.7-.2-3.2-.3-4.4-.3-2.5-.1-3.9-.2-3.9-.2h3.9c1.2 0 2.7 0 4.5.1 1.7.1 3.7.1 5.8.2 4.2.2 9.2.4 14.5.8 2.6.2 5.4.4 8.2.6 2.8.2 5.6.5 8.4.7 11.3 1.1 22.5 2.3 31 3.4 8.4 1 11.2 1.2 11.2 1.2l5.2 7.1z"/><path class="st5" d="M177.4 261.5s-10.2-1.2-21.5-3.5c-5.6-1.1-12.2-2.4-19.3-3.7-7.1-1.3-14.6-2.6-22.2-3.7-3.8-.5-7.5-1-11.3-1.1-3.7-.2-7.4-.2-11-.2-7.2.1-13.9.4-19.7.4-2.9 0-5.5 0-7.9-.2-2.3-.2-4.4-.4-6-.8-.8-.2-1.6-.3-2.2-.6-.6-.2-1.2-.4-1.5-.6-.8-.4-1.2-.7-1.2-.7l1.2.6c.4.2.9.3 1.6.5.6.2 1.3.4 2.2.5 1.6.3 3.7.4 6 .5 2.3 0 5-.1 7.8-.2 5.7-.3 12.4-1 19.6-1.5 3.6-.2 7.4-.4 11.2-.4 3.8 0 7.7.2 11.6.5 7.7.7 15.4 1.6 22.5 2.5 7.2.9 13.8 1.9 19.5 2.7 11.4 1.7 14.8 2.5 14.8 2.5l5.8 6.5z"/><path class="st5" d="M182.7 267.2s-9.2-.5-18.5-2.2c-9.3-1.7-21.7-4-34.2-6-3.1-.5-6.2-1-9.3-1.3-1.5-.2-3-.3-4.5-.5l-4.5-.3c-5.9-.3-11.4-.3-16.1-.3H84.2c-2.8 0-4.3-.1-4.3-.1s1.6 0 4.3-.1c2.8-.2 6.7-.4 11.4-.7 4.7-.3 10.3-.6 16.2-.7h4.5c1.5 0 3.1.1 4.7.2 3.1.2 6.3.5 9.4.8 12.6 1.2 25.2 2.7 34.6 3.8 9.4 1.2 12.3 1.7 12.3 1.7l5.4 5.7z"/><path class="st5" d="M188.9 274.3s-8.6-1.2-18.2-3c-4.8-.9-10.4-1.8-16.5-2.7-3-.4-6.2-.9-9.3-1.2-3.2-.4-6.4-.7-9.7-1-3.2-.3-6.5-.5-9.7-.6-3.2-.1-6.4-.2-9.4-.2-6.1 0-11.8.2-16.8.3-2.5 0-4.7 0-6.7-.1s-3.7-.2-5.2-.5c-.7-.1-1.3-.2-1.9-.4-.5-.1-1-.2-1.4-.4-.7-.2-1.1-.4-1.1-.4s.4.1 1.1.3c.4.1.8.2 1.4.3.5.1 1.2.2 1.9.3 1.4.1 3.2.2 5.1.2 2 0 4.2-.1 6.7-.3 4.9-.3 10.6-.8 16.7-1.2 3.1-.2 6.3-.3 9.5-.4 3.3-.1 6.5-.1 9.8 0 3.3.1 6.6.2 9.8.4 3.2.2 6.4.4 9.5.7 6.1.5 11.9 1.2 16.8 1.8 9.8 1.2 12.8 1.8 12.8 1.8l4.8 6.3z"/><path class="st5" d="M196.1 283.4s-4.1-.8-4.6-1c-.5-.2-1.3-.6-2.4-1-1.1-.4-2.4-.9-3.9-1.5-1.5-.5-3.3-1.1-5.2-1.7l-3-.9-3.3-.9c-2.2-.6-4.7-1.1-7.1-1.7-2.5-.5-5.1-1-7.7-1.4-2.7-.4-5.3-.9-8.1-1.2-2.7-.3-5.4-.7-8.1-.9-2.7-.2-5.3-.5-7.9-.7-2.6-.2-5-.3-7.4-.4-2.4-.1-4.6-.1-6.6-.2-2.1-.1-3.9-.1-5.6-.1h-8.1s1.4-.1 3.8-.3c1.2-.1 2.7-.2 4.3-.3 1.7-.1 3.6-.3 5.6-.3 2.1-.1 4.3-.2 6.7-.3 2.4 0 4.9-.1 7.5-.1 2.6-.1 5.3 0 8 .1 2.7 0 5.5.2 8.3.3 2.8.1 5.5.4 8.3.6 2.7.2 5.4.6 8 .9 2.6.4 5.1.7 7.4 1.2 1.2.2 2.3.4 3.4.6 1.1.2 2.2.5 3.2.7 2.1.4 3.9.9 5.6 1.4 1.7.5 3.1.9 4.3 1.3 0 0-.7-.3 0 0l4.6 7.8z"/><path class="st5" d="M201.9 290s-3.3.2-3.8-.1c-.5-.3-2.5-.8-3.5-1.3-2-1-5-2.2-8.6-3.5-1.8-.6-3.8-1.2-6-1.8-2.1-.5-4.4-1-6.8-1.4-1.2-.2-2.4-.4-3.6-.4-.6 0-1.2-.1-1.9-.1h-1.9c-2.6 0-5.3 0-8-.1-10.8-.3-21.5-1.5-29.3-3.1-2-.4-3.8-.8-5.3-1.2-1.6-.4-2.9-.8-4-1.2-1.1-.4-2-.7-2.5-1-.6-.3-.9-.4-.9-.4l.9.3c.6.2 1.5.5 2.6.8 1.1.3 2.5.6 4.1.9 1.6.3 3.4.5 5.4.8 7.9.9 18.5 1.2 29.1.5 2.6-.2 5.2-.4 7.9-.6.7 0 1.4-.1 2-.1h2c1.3 0 2.7 0 4 .1 2.6.1 5.1.5 7.4.8 2.3.4 4.5.9 6.6 1.4 4 1 7.3 2.1 9.6 2.9 1.1.4-.6-.3 0 0l4.5 7.8zm5.4 9s-3.8-.1-5.8-.8c-2-.8-4.9-1.8-8.4-3s-7.6-2.5-12-3.7c-2.2-.6-4.5-1.2-6.9-1.7-2.3-.5-4.7-1-7.1-1.3-2.4-.4-4.9-.6-7.3-.7-2.4-.2-4.8-.3-7.1-.4-4.6-.2-9-.3-12.7-.9-1.9-.3-3.5-.6-5-.9-1.5-.4-2.8-.7-3.8-1-1-.3-1.8-.6-2.4-.8-.5-.2-.8-.3-.8-.3s.3.1.9.2c.6.1 1.4.4 2.4.6 1.1.3 2.3.5 3.8.7 1.5.2 3.2.4 5 .5 3.7.2 8 .1 12.7-.1 2.3-.1 4.7-.2 7.2-.2s4.9 0 7.5.2c2.5.1 5 .5 7.5.8 2.5.4 4.8.8 7.2 1.3 4.6.9 8.9 1.9 12.5 2.9 3.6.9 6.7 1.8 8.8 2.4l3.8 6.2z"/><path class="st5" d="M212.3 304.8s4.5-.2 0 0c-.4-.2-5.6-.4-6.4-.8-1.7-.8-4.1-2-7.1-3.2-1.5-.6-3.1-1.2-4.9-1.8-1.8-.6-3.6-1.2-5.6-1.7-2-.5-4-1-6.1-1.3-1-.2-2.1-.3-3.2-.5-1.1-.1-2.1-.2-3.2-.3-4.3-.4-8.7-.1-12.9-.1-4.2 0-8.1-.5-11.4-1-3.3-.6-6-1.2-7.9-1.6-1.9-.5-3-.7-3-.7s1.1.2 3 .5 4.6.7 7.9 1c3.3.3 7.1.4 11.2.1 4.1-.3 8.5-1 13.1-1 1.1 0 2.3 0 3.4.1s2.2.1 3.3.2c2.2.2 4.4.5 6.5.9 2.1.3 4.1.8 6 1.2 1.9.5 3.7 1 5.3 1.5 3.3 1 5.9 2 7.8 2.8 0 0-.5-.2 0 0l4.2 5.7z"/><path class="st5" d="M216.5 312.1s-3.1 0-4.7-.7c-1.6-.6-4-1.5-6.8-2.5s-6.1-2.1-9.7-3.2c-1.8-.5-3.6-1-5.5-1.5-.9-.2-1.9-.4-2.8-.6-1-.2-2-.3-2.9-.4-3.9-.5-8-.5-11.8-.9-1.9-.2-3.8-.4-5.5-.8-1.7-.3-3.3-.8-4.8-1.2-1.5-.4-2.8-.9-3.9-1.3-1.1-.5-2.2-.8-3-1.2-1.6-.7-2.5-1.1-2.5-1.1s1 .3 2.6.9c.8.3 1.9.6 3.1.9 1.2.3 2.5.7 4 .9 1.5.3 3.1.6 4.8.7 1.7.2 3.5.2 5.4.3 3.7 0 7.7-.4 11.9-.3 1.1 0 2.1.1 3.1.2 1.1.1 2.1.2 3.1.3 2 .3 4 .6 5.9 1 3.8.7 7.3 1.5 10.2 2.3 3 .7 5.4 1.4 7.2 1.9 1.7.5 0 0 0 0l2.6 6.3zm6 9.4s2.9-.3 0 0c0 0 .2.2 0 0-.3-.3-4.1-.6-4.8-1.1-1.5-.9-3.6-2.2-6.4-3.4-2.8-1.2-6.1-2.5-9.9-3.5-.9-.3-1.9-.5-2.8-.7-.9-.2-2-.4-3-.6-1-.2-2-.3-3-.5-1-.1-2-.3-3.1-.3-4.1-.4-8.4-.4-12.4-.8-2-.2-3.9-.6-5.7-1-.9-.2-1.8-.5-2.6-.7-.8-.3-1.6-.5-2.4-.8-1.5-.6-2.9-1.1-4-1.6-1.2-.6-2.2-1-3-1.4-1.6-.9-2.6-1.4-2.6-1.4s1 .4 2.7 1.1c.8.4 1.9.7 3.1 1.2 1.2.5 2.6.8 4.1 1.3l2.4.6c.8.1 1.7.3 2.6.5 1.8.2 3.6.4 5.6.4 3.9.1 8.1-.3 12.4-.3 1.1 0 2.2 0 3.2.1 1.1.1 2.2.1 3.2.3 1.1.1 2 .2 3.1.4 1 .2 2 .3 3 .5 4 .7 7.7 1.8 10.8 2.8 3.1 1.1 5.6 2.2 7.4 3.1.9.5-.5-.3 0 0 .3.2-.6-.4 0 0 .1.1 0 0 0 0l2.1 5.8z"/><path class="st5" d="M227.8 330.3s-4.4-.7-5.7-1.3c-1.3-.6-3.2-1.5-5.5-2.5s-5-2.1-7.9-3.2c-2.9-1.1-6.1-2.3-9.2-3.3-3.2-1-6.4-2-9.4-2.8-1.5-.4-3-.8-4.4-1.1-1.4-.3-2.7-.6-4-.8-1.2-.2-2.4-.4-3.4-.6-1-.1-1.9-.3-2.6-.4-1.5-.2-2.3-.3-2.3-.3h5c1 .1 2.2.1 3.5.2 1.3 0 2.6.2 4.1.3 1.5.1 3 .3 4.6.5 3.2.4 6.5.9 9.9 1.6 3.3.6 6.7 1.4 9.8 2.1 3.1.8 6 1.5 8.5 2.3 2.5.7 4.5 1.4 5.9 1.8 1.4.5 0 0 0 0l3.1 7.5z"/><path class="st5" d="M229.6 334.9s-2.2.3-2.6.4c-.4 0-1 .1-1.7.1-1.5.1-3.5.2-6 .2s-5.3-.1-8.4-.2c-1.5-.1-3.1-.2-4.7-.4l-4.8-.6c-1.6-.2-3.2-.5-4.8-.8-1.6-.3-3.1-.6-4.6-1-1.5-.3-2.9-.7-4.2-1.1-1.3-.4-2.6-.7-3.7-1.2-1.1-.4-2.2-.8-3.1-1.1-.9-.4-1.7-.7-2.3-1-1.3-.5-2-.8-2-.8s.8.2 2.1.5c.7.2 1.5.4 2.4.6 1 .2 2 .4 3.2.6 1.2.2 2.4.4 3.8.6 1.3.2 2.8.4 4.2.5 1.5.1 3 .3 4.5.3 1.5.1 3.1.1 4.7.1s3.1 0 4.7-.1c1.5 0 3.1-.2 4.5-.2 2.9-.2 5.6-.5 7.9-.9 2.3-.3 4.2-.7 5.5-1 .6-.1 1.1-.3 1.5-.3.3-.1.5-.1.5-.1l3.4 6.9zm2.6 8.2h-.4c-.3 0-.6.1-1 .1-.8.1-2 .1-3.4.1s-3-.1-4.7-.2c-1.7-.2-3.5-.4-5.2-.8-.9-.1-1.8-.4-2.6-.6-.9-.2-1.7-.5-2.5-.7-.8-.2-1.5-.5-2.3-.7-.7-.2-1.4-.5-2-.8-1.2-.5-2.2-.9-2.9-1.3-.7-.3-1.1-.5-1.1-.5s.4.1 1.2.2c.7.1 1.8.3 3.1.4.6.1 1.3.1 2.1.1.7 0 1.5.1 2.3 0 .8 0 1.6 0 2.4-.1.8-.1 1.6-.1 2.5-.2 1.6-.2 3.3-.4 4.8-.8 1.5-.3 2.9-.7 4-1 1.1-.3 2.1-.7 2.7-.9.3-.1.5-.2.6-.3l.2-.1 2.2 8.1zm7.2 18.1s-2.8-.3-3.1-.3c-.3 0-.7-.1-1.3-.1-1-.1-2.4-.3-4-.7-1.6-.3-3.5-.8-5.5-1.5-2-.6-4-1.4-6-2.3-1-.4-2-.9-2.9-1.4l-2.7-1.5c-.9-.5-1.7-1-2.4-1.5-.8-.5-1.5-1-2.1-1.5-1.3-.9-2.3-1.8-2.9-2.4-.7-.6-1.1-.9-1.1-.9s.5.2 1.3.6c.8.4 2 .9 3.4 1.4.7.3 1.5.5 2.3.8.8.2 1.7.5 2.6.7.9.2 1.9.5 2.8.6 1 .2 1.9.3 2.9.4 2 .3 3.9.3 5.8.4 1.8 0 3.5-.1 4.9-.2 1.4-.1 2.6-.3 3.4-.4.4-.1.7-.1.8-.2.2 0 .3-.1.3-.1l3.5 10.1zm3.1 11s-2.2-.7-3-.9c-.8-.2-2-.4-3.4-.8-2.8-.7-6.4-1.8-9.9-3.2-1.8-.7-3.5-1.4-5.1-2.2-.8-.4-1.6-.7-2.3-1.1-.7-.4-1.4-.7-2-1.1-1.2-.7-2.2-1.3-2.8-1.8-.7-.4-1.1-.7-1.1-.7s.4.1 1.2.4c.8.3 1.8.6 3.2.9.7.2 1.4.3 2.1.5.8.2 1.6.3 2.4.5 1.7.3 3.4.5 5.2.7 3.6.4 7.1.4 9.8.4 1.3 0 2.4-.1 3.2-.1.7-.1 1.1-.1 1.1-.1l1.4 8.6z"/><path class="st5" d="M244.3 452.1s.6-5.8 1-16 .5-24.9-1-42.3c-.4-4.4-.9-8.9-1.6-13.6-.2-1.2-.4-2.3-.5-3.5l-.3-1.8-.4-1.7c-.3-1.2-.5-2.4-.8-3.6l-.4-1.8-.5-1.8c-2.5-9.6-6.4-19.5-11.1-29.3-4.7-9.9-10.4-19.7-16.6-29.3-6.3-9.6-13.2-19.1-20.6-28.1-7.4-9.1-15.3-17.6-23.6-25.7-8.2-8.1-16.5-15.8-24.9-22.9-8.4-7.1-16.7-13.6-24.9-19.5s-16-11.3-23.4-16c-3.7-2.4-7.2-4.7-10.6-6.8-3.4-2.1-6.6-4.1-9.7-6-6.1-3.7-11.5-6.9-15.9-9.5-8.9-5.1-14-8-14-8l.6-1.1s5.1 2.9 14.1 7.8c4.5 2.6 9.9 5.6 16.1 9.3 3.1 1.8 6.4 3.7 9.8 5.9 3.4 2.1 7 4.3 10.7 6.7 7.5 4.7 15.4 10 23.6 15.9 8.2 5.9 16.7 12.4 25.2 19.4 8.5 7.1 16.9 14.8 25.2 22.9 4.1 4 8.3 8.2 12.3 12.5 4 4.3 7.9 8.8 11.6 13.3 7.5 9.1 14.5 18.6 20.8 28.3 6.4 9.7 12.1 19.6 16.9 29.6 4.8 10 8.7 20 11.4 29.9l.5 1.9.4 1.8c.3 1.2.5 2.4.8 3.6l.4 1.8.3 1.8.6 3.6c.7 4.7 1.2 9.3 1.6 13.7.8 8.8 1.1 16.9 1.2 24.1.1 7.2 0 13.5-.3 18.6-.4 10.3-1.1 16.2-1.1 16.2l-2.9-.3z"/></g></g><g class="st0"><path class="st8" d="M316.8 58c-1.2-.6-13.7-.3-21.7 1.3s-22.5 2.1-21.7-2c.8-4 15.3-2.3 16.9-2.4 1.6-.1 18.4-3.7 19.6-4.9 1.1-1.3.6-2.7-2.4-8.9s-1.9-8.3-5.7-6.6c-3.8 1.7-26.3 14.3-26.9 12.8-.6-1.5.6-2.4 8-6.9 7.3-4.6 20-8.2 20.6-9.1.6-.9 2-1.6-.7-3.8-2.7-2.2-9.9-10.5-11.8-10.5-2 0-15.4 13.6-16.6 15.4-1.2 1.8-8.4 11.7-11.5 10.1-3-1.5 2.1-7.7 4.5-11 2.4-3.4 15.1-14.8 16.8-16.2-3.5-.7-15.5-5.5-16.4-6.5-1.1 1.4-8.2 14.8-8.8 16.3-.7 1.6-2.5 11.9-5.2 10s-.3-8.8-.2-9.3c.1-.5 9-13.5 9.7-15.9.7-2.4 2.5-3.9-1.3-4.2-3.8-.2-8.2-.3-10.3-.7-2.1-.4-9.9-2.8-10-1.2-.1 1.7.9 4.5 1.1 7.2.2 2.7-1 16.9-2.2 17.2-1.2.3-3.9-8.1-3.8-9.3.2-1.2 3.5-13.8 1.5-14s-16.1-4.2-20.8-3c2.2 3.3 7.5 12.7 8.8 15.1 1.3 2.4 5.6 11 4 11.9s-6.3-2.8-7-5.3c-.7-2.5-5.3-14.5-13.5-16.6-2.6 3.3-6.3 8.2-8.2 9.9-1.9 1.7-6.4 7.4-6.4 8.7 0 1.3.3 1.8 7.5 4.1s17.8 7.1 16 9.9c-1.8 2.8-23.3-11.6-23.9-11-.6.6-2.8 4-3.1 4.8-.3.8-4 9.5-2.6 10.4 1.3.9 11.9 3.5 16.8 3.9 4.9.5 16.8 1.5 15 5.1-1.8 3.6-12.4 1.3-14.1.8-1.6-.5-17.3-9.1-18.9-7.5-1.6 1.6-1.7 14.8-1.7 16.4 0 1.6 1 11.9 1 11.9s5.5-6.6 9.5-7c4-.5 23.8-2.9 24.3.1.6 3-14.9 4.4-18.2 6.2-3.3 1.8-15.2 7.2-15.2 7.2s2.6 18.9 10.2 19.7c4.1-3.4 12.8-14.1 14.6-15.6 1.8-1.5 10.5-7.4 11.9-6.6s2.4 2.4-3.6 7.1c-6.1 4.7-22.2 21.7-22.2 21.7s9.5 14.5 16.2 17c1.7-1 3.8-12.2 4.3-13.4.5-1.2 10-19.6 13.9-15.1-.6 2.7-5.6 14.4-16 28.6 2.1 1.3 8.2 3.5 10.1 5.7 1.8 2.2 5.3 5.2 7.9 4.3 2.6-.9 4.1-15.1 4.6-16.8.5-1.6 2.7-17.1 6.4-13.9 3.7 3.2-5.5 33-5.5 33s13.7 6 22.5 2.8c-.7-3-2.1-13.4-2.5-16.3-.4-2.9 1.6-12.6 5-11.1 3.4 1.6 4.1 3.8 4.1 6.6s.1 17.6 1.1 17.7c1 .1 13.9-8.3 15.2-8.5 2.9-.6 5-.9 5-.9s7.5-2.4 8.5-3.4c-2-1-11.9-12.2-12.3-16.5 1.8-.7 2.8-1.1 2.8-1.1s7.4 12.9 11.7 16.2c3.8-2.2 7.9-3 12.7-15.2-2.1-.8-17.6-8-17.7-8.9s1.3-2 17.8 6.3c1.5-3.5 4.8-19.6 3.4-21-1.4-1.4-10.6-2.1-14.8-3.8-4.2-1.7-22.3-7.6-20.8-10.9 1.6-3.4 6.7-1.9 10-1.3 3.3.6 20.8 9.2 22.6 8.4 1.8-.7 3.9-2.4 3.9-2.4s-.6-14.7-1.8-15.3zm-56.9-4.5c3.3-2.7 5.3-4.2 7.2-3.4 2 .8-1.4 3.7-4.7 6.4-3.3 2.7-5.5 5.5-7.2 3.4-.7-.8 1.4-3.7 4.7-6.4zm-12.5-11.6c1.1-2.5 2.8-4.2 3.8-3.7 1 .4.9 2.8-.3 5.3-1.1 2.5-2.8 4.2-3.8 3.7-.9-.4-.8-2.8.3-5.3zm-8.9-3.8c.7-2.4 2.1-4.1 3.1-3.8 1.1.3 1.4 2.5.7 4.8-.7 2.4-2.1 4.1-3.1 3.8-1-.3-1.4-2.5-.7-4.8zm-14.2 2.8c.4-.7 1.8-.5 3.3.3 1.5.8 2.3 2 2 2.6-.4.7-1.8.5-3.3-.3-1.5-.8-2.4-1.9-2-2.6zm1.9 13.7c-.2-2.4 2.6-2.6 5.9-2.7 3.3-.1 6 1 6.1 2.3 0 1.4-2.6 2.6-5.9 2.7-3.3.2-6-.9-6.1-2.3zm4.7 14c-1.3-3.1 1.8-4.1 5.5-5.6s6.9-2.1 7.8.2c.6 1.6-1.8 4.1-5.5 5.6s-7.2 1.4-7.8-.2zm9.3 17.6c-2.8-1.9-.8-4.4 1.5-7.7 2.2-3.2 4.6-5.5 6.6-4.1 1.4 1 .8 4.4-1.5 7.7-2.2 3.3-5.1 5.1-6.6 4.1zm11.1 10.3c-2.8-1.9-.8-4.4 1.5-7.7 2.2-3.2 6.5-5.3 8.6-3.9 1.4 1-1.2 4.2-3.4 7.5-2.4 3.2-5.3 5.1-6.7 4.1zm16.8 6.4c-.4 2.4-1.6 4.2-2.7 4.1-1.1-.2-1.6-2.3-1.2-4.7.4-2.4 1.6-4.2 2.7-4.1 1 .2 1.6 2.3 1.2 4.7zM250 56.3c-.9-.6-.6-2.7.7-4.8 1.3-2.1 3-3.1 4.1-2.7 2.1.9.6 2.7-.7 4.8-1.4 2-3.2 3.3-4.1 2.7zM270.6 73c-.6 1.3-3.2 1.7-6.4.9-3.2-.8-5.4-2.6-5.2-3.9.5-2.3 3.3-2.2 6.5-1.3 3.2.8 7.2.1 5.1 4.3zm17 11c-.2 1-3 1.4-6.2.9-3.3-.6-5.7-1.9-5.6-2.9.2-1.8 3-1.4 6.2-.9 3.3.6 5.8 1.9 5.6 2.9z"/><path class="st2" d="M316.1 56.3c-1.2-.6-13.7-.3-21.7 1.3s-22.5 2.1-21.7-2c.8-4 15.3-2.3 16.9-2.4 1.6-.1 18.4-3.7 19.6-4.9 1.1-1.3.6-2.7-2.4-8.9s-1.9-8.3-5.7-6.6c-3.8 1.7-26.3 14.3-26.9 12.8-.6-1.5.6-2.4 8-6.9s20-8.2 20.6-9.1c.6-.9 2-1.6-.7-3.8-2.7-2.2-9.9-10.5-11.8-10.5-2 0-15.4 13.6-16.6 15.4-1.2 1.8-8.4 11.7-11.5 10.1-3-1.5 2.1-7.7 4.5-11 2.4-3.4 15.1-14.8 16.8-16.2-3.5-.7-15.5-5.5-16.4-6.5-1.1 1.4-8.2 14.8-8.8 16.3-.7 1.6-2.5 11.9-5.2 10-2.7-1.8-.3-8.8-.2-9.3.1-.5 9-13.5 9.7-15.9.7-2.4 2.5-3.9-1.3-4.2-3.8-.2-8.2-.3-10.3-.7-2.1-.4-9.9-2.8-10-1.2-.1 1.7.9 4.5 1.1 7.2.2 2.7-1 16.9-2.2 17.2-1.2.3-3.9-8.1-3.8-9.3.2-1.2 3.5-13.8 1.5-14-2-.2-16.1-4.2-20.8-3 2.2 3.3 7.5 12.7 8.8 15.1 1.3 2.4 5.6 11 4 11.9-1.6.8-6.3-2.8-7-5.3-.7-2.5-5.3-14.5-13.5-16.6-2.6 3.3-6.3 8.2-8.2 9.9s-6.4 7.4-6.4 8.7c0 1.3.3 1.8 7.5 4.1s17.8 7.1 16 9.9c-1.8 2.8-23.3-11.6-23.9-11-.6.6-2.8 4-3.1 4.8-.3.8-4 9.5-2.6 10.4 1.3.9 11.9 3.5 16.8 3.9 4.9.5 16.8 1.5 15 5.1-1.8 3.6-12.4 1.3-14.1.8-1.6-.5-17.3-9.1-18.9-7.5-1.6 1.6-1.7 14.8-1.7 16.4 0 1.6 1 11.9 1 11.9s5.5-6.6 9.5-7c4-.5 23.8-2.9 24.3.1.6 3-14.9 4.4-18.2 6.2-3.3 1.8-15.2 7.2-15.2 7.2s2.6 18.9 10.2 19.7c4.1-3.4 12.8-14.1 14.6-15.6 1.8-1.5 10.5-7.4 11.9-6.6 1.5.9 2.4 2.4-3.6 7.1-6.1 4.7-22.2 21.7-22.2 21.7s9.5 14.5 16.2 17c1.7-1 3.8-12.2 4.3-13.4.5-1.2 10-19.6 13.9-15.1-.6 2.7-5.6 14.4-16 28.6 2.1 1.3 8.2 3.5 10.1 5.7 1.8 2.2 5.3 5.2 7.9 4.3 2.6-.9 4.1-15.1 4.6-16.8.5-1.6 2.7-17.1 6.4-13.9 3.7 3.2-5.5 33-5.5 33s13.7 6 22.5 2.8c-.7-3-2.1-13.4-2.5-16.3-.4-2.9 1.6-12.6 5-11.1 3.4 1.6 4.1 3.8 4.1 6.6s.1 17.6 1.1 17.7c1 .1 13.9-8.3 15.2-8.5 2.9-.6 5-.9 5-.9s7.5-2.4 8.5-3.4c-2-1-11.9-12.2-12.3-16.5 1.8-.7 2.8-1.1 2.8-1.1s7.4 12.9 11.7 16.2c3.8-2.2 7.9-3 12.7-15.2-2.1-.8-17.6-8-17.7-8.9-.1-.9 1.3-2 17.8 6.3 1.5-3.5 4.8-19.6 3.4-21-1.4-1.4-10.6-2.1-14.8-3.8-4.2-1.7-22.3-7.6-20.8-10.9 1.6-3.4 6.7-1.9 10-1.3 3.3.6 20.8 9.2 22.6 8.4 1.8-.7 3.9-2.4 3.9-2.4s-.6-14.7-1.8-15.3zm-56.9-4.4c3.3-2.7 5.3-4.2 7.2-3.4 2 .8-1.4 3.7-4.7 6.4-3.3 2.7-5.5 5.5-7.2 3.4-.7-.9 1.4-3.7 4.7-6.4zm-12.4-11.6c1.1-2.5 2.8-4.2 3.8-3.7 1 .4.9 2.8-.3 5.3-1.1 2.5-2.8 4.2-3.8 3.7-1-.4-.9-2.8.3-5.3zm-9-3.9c.7-2.4 2.1-4.1 3.1-3.8 1.1.3 1.4 2.5.7 4.8-.7 2.4-2.1 4.1-3.1 3.8-1-.3-1.3-2.4-.7-4.8zm-14.2 2.8c.4-.7 1.8-.5 3.3.3 1.5.8 2.3 2 2 2.6-.4.7-1.8.5-3.3-.3-1.5-.7-2.3-1.9-2-2.6zm1.9 13.8c-.2-2.4 2.6-2.6 5.9-2.7s6 1 6.1 2.3c0 1.4-2.6 2.6-5.9 2.7s-5.9-.9-6.1-2.3zm4.7 13.9c-1.3-3.1 1.8-4.1 5.5-5.6s6.9-2.1 7.8.2c.6 1.6-1.8 4.1-5.5 5.6s-7.2 1.4-7.8-.2zm9.4 17.7c-2.8-1.9-.8-4.4 1.5-7.7 2.2-3.2 4.6-5.5 6.6-4.1 1.4 1 .8 4.4-1.5 7.7-2.2 3.2-5.2 5-6.6 4.1zm11 10.2c-2.8-1.9-.8-4.4 1.5-7.7 2.2-3.2 6.5-5.3 8.6-3.9 1.4 1-1.2 4.2-3.4 7.5-2.3 3.3-5.3 5.1-6.7 4.1zm16.8 6.5c-.4 2.4-1.6 4.2-2.7 4.1-1.1-.2-1.6-2.3-1.2-4.7.4-2.4 1.6-4.2 2.7-4.1 1.1.1 1.6 2.2 1.2 4.7zm-18.1-46.7c-.9-.6-.6-2.7.7-4.8 1.3-2.1 3-3.1 4.1-2.7 2.1.9.6 2.7-.7 4.8-1.3 2.1-3.1 3.3-4.1 2.7zM270 71.4c-.6 1.3-3.2 1.7-6.4.9-3.2-.8-5.4-2.6-5.2-3.9.5-2.3 3.3-2.2 6.5-1.3 3.1.7 7.1 0 5.1 4.3zm17 11c-.2 1-3 1.4-6.2.9-3.3-.6-5.7-1.9-5.6-2.9.2-1.8 3-1.4 6.2-.9 3.2.5 5.7 1.8 5.6 2.9z"/><path class="st9" d="M301.3 164.8s-2.8-7.4-7.2-18.3c-2.2-5.5-4.9-11.8-7.8-18.6-1.5-3.4-3-6.9-4.6-10.4-1.6-3.5-3.3-7.1-5.1-10.6-.9-1.8-1.8-3.5-2.7-5.2-.9-1.7-1.9-3.4-2.8-5.1-2-3.4-3.9-6.6-5.9-9.7-2-3.1-3.9-6.1-5.8-8.9-1.9-2.8-3.7-5.5-5.4-7.9-6.8-9.7-11.7-15.9-11.7-15.9s5 6.1 12.1 15.6c1.8 2.4 3.7 5 5.6 7.7 2 2.8 4 5.7 6.1 8.8 2.1 3.1 4.1 6.3 6.2 9.6l3 5.1c.9 1.7 1.9 3.5 2.9 5.2 1.9 3.5 3.6 7 5.4 10.5 1.7 3.5 3.4 7 4.9 10.3 3.1 6.7 6 13 8.3 18.5 4.8 10.9 7.8 18.2 7.8 18.2l-3.3 1.1z"/></g></svg>