<svg id="Layer_1" xmlns="http://www.w3.org/2000/svg" width="34.7" height="35.3" viewBox="0 0 34.7 35.3"><style>.st0{fill:#85bd7e}.st1{fill:#363d42}</style><path class="st0" d="M4.8 24.7h1.8c.3 0 .7-.2.8-.5.2-.3.2-.6 0-.9L6.6 21v-.1c-.2-.3-.5-.5-.8-.5-.4 0-.7.2-.8.5l-1 2.4c-.2.3-.1.6 0 .9.2.3.5.5.8.5zm10.1-3c0 1.7 1.2 3 2.8 3s2.8-1.4 2.8-3-1.2-3-2.8-3-2.8 1.3-2.8 3zm16.7-3.4h-4.2c-.6 0-1 .5-1 1V24c0 .6.5 1 1 1h4.2c.6 0 1-.5 1-1v-4.7c.1-.5-.4-1-1-1z"/><path class="st1" d="M7.6 18.1c-.4-.7-1.1-1.1-1.9-1.1-.8 0-1.5.4-1.9 1.1l-3.5 6c-.4.7-.4 1.5 0 2.2.4.7 1.1 1.1 1.9 1.1h7c.8 0 1.5-.4 1.9-1.1.4-.7.4-1.5 0-2.2l-3.5-6zm2.8 7.7c-.2.4-.7.7-1.2.7h-7c-.5 0-.9-.3-1.2-.7-.2-.4-.2-.9 0-1.3l3.5-6c.2-.4.7-.7 1.2-.7s.9.2 1.2.7l3.5 6c.2.4.2.9 0 1.3zm24.3 2.5H.6v3.9h2.5v3.1h3.3v-3.1h22.5v3.1h3.3v-3.1h2.5v-3.9zM5.5 34.5H3.9v-2.2h1.6v2.2zm25.9 0h-1.6v-2.2h1.6v2.2zm2.5-3.1H1.5v-2.2h32.4v2.2zM23 21.4c0-3-2.4-5.4-5.4-5.4s-5.4 2.4-5.4 5.4v.6c0 3 2.4 5.4 5.4 5.4S23 24.9 23 22v-.6zm-.8.6c0 2.5-2 4.5-4.5 4.5s-4.5-2-4.5-4.5v-.6c0-2.5 2-4.5 4.5-4.5s4.5 2 4.5 4.5v.6zm10.9-6h-7.4c-.9 0-1.7.7-1.7 1.7v8c0 .9.7 1.7 1.7 1.7h7.4c.9 0 1.7-.7 1.7-1.7v-8c-.1-.9-.8-1.7-1.7-1.7zm.8 9.7c0 .4-.4.8-.8.8h-7.4c-.4 0-.8-.4-.8-.8v-8c0-.4.4-.8.8-.8h7.4c.4 0 .8.4.8.8v8z"/><path class="st1" d="M5.7 20.3c-.3 0-.7.2-.8.5l-1.1 2.7c-.2.3-.2.6 0 .9.2.3.5.5.8.5h2.1c.3 0 .7-.2.8-.5.2-.3.2-.6 0-.9l-1.1-2.8c0-.3-.3-.4-.7-.4zM4.5 24l1.2-3 1.2 3H4.5zm10.3-2.3c0 1.8 1.3 3.2 2.9 3.2s2.9-1.4 2.9-3.2c0-1.8-1.3-3.2-2.9-3.2s-2.9 1.4-2.9 3.2zm4.9 0c0 1.3-.9 2.3-2 2.3s-2-1-2-2.3c0-1.3.9-2.3 2-2.3 1.1-.1 2 1 2 2.3z"/><ellipse class="st1" cx="17.7" cy="21.7" rx="1" ry=".7"/><path class="st1" d="M31.8 17.9h-4.9c-.6 0-1 .5-1 1v5.5c0 .6.5 1 1 1h4.9c.6 0 1-.5 1-1v-5.5c.1-.6-.4-1-1-1zm.2 6.7h-5.3v-5.9H32v5.9z"/><path class="st1" d="M29.1 20.4c.1-.1.1-.2.1-.3s0-.2-.1-.3c-.1-.1-.2-.1-.3-.1-.1 0-.2 0-.3.1l-.6.6c-.1.1-.1.2-.1.3s0 .2.1.3c.2.2.4.2.6 0l.6-.6zm.1 2.8c0-.1 0-.2-.1-.3l-.6-.6c-.1-.1-.2-.1-.3-.1-.1 0-.2 0-.3.1-.1.1-.1.2-.1.3s0 .2.1.3l.6.6c.2.2.4.2.6 0 0-.1.1-.2.1-.3zm1.7-2.1c-.1-.1-.2-.1-.3-.1-.1 0-.2 0-.3.1l-.6.6c-.1.1-.1.2-.1.3 0 .1 0 .2.1.3.2.2.4.2.6 0l.6-.6c.1-.1.1-.2.1-.3s0-.3-.1-.3zM33.8 6c.2-.1.4-.3.3-.5 0-.1-.1-.2-.2-.3s-.2-.1-.3 0l-16 4.9L31.5.8c.2-.1.3-.4.1-.6-.1-.1-.2-.2-.3-.2-.1 0-.2 0-.3.1L14.7 10.9l-6.6 2c-.1 0-.2.1-.3.2-.1.1-.1.2 0 .3.1.2.3.4.5.3l3.9-1.2-3.4 2.3c-.2.1-.3.4-.1.6.1.2.4.2.6.1l5.8-3.9L33.8 6z"/></svg>