<?xml version="1.0" encoding="utf-8"?>
<!-- Generator: Adobe Illustrator 19.2.1, SVG Export Plug-In . SVG Version: 6.00 Build 0)  -->
<svg version="1.1" id="Layer_1" xmlns="http://www.w3.org/2000/svg" xmlns:xlink="http://www.w3.org/1999/xlink" x="0px" y="0px"
	 width="24.8px" height="35.3px" viewBox="0 0 24.8 35.3" style="enable-background:new 0 0 24.8 35.3;" xml:space="preserve">
<style type="text/css">
	.st0{fill:none;}
	.st1{fill:#363D42;}
	.st2{fill:#85BD7E;}
</style>
<g>
	<path class="st0" d="M20.3,25.8c0.6,0,1.2-0.5,1.2-1.2v-1.1c0-0.6-0.5-1.2-1.2-1.2s-1.2,0.5-1.2,1.2v1.1
		C19.2,25.3,19.7,25.8,20.3,25.8z"/>
	<path class="st0" d="M18.1,26.9v-2.3v-1.1v-6.2c0-0.3-0.3-0.6-0.6-0.6H1.7c-0.3,0-0.6,0.3-0.6,0.6v9.6c0,1.6,0.6,3.2,1.7,4.4h13.6
		C17.5,30.1,18.1,28.5,18.1,26.9z"/>
	<path class="st0" d="M20.3,20.1c-0.4,0-0.8,0.1-1.2,0.2v1.3c0.3-0.2,0.7-0.3,1.2-0.3c1.2,0,2.2,1,2.2,2.2v1.1c0,1.2-1,2.2-2.2,2.2
		c-0.4,0-0.8-0.1-1.2-0.3v0.4c0,0.3,0,0.6-0.1,0.9c0.4,0.2,0.8,0.2,1.2,0.2c1.9,0,3.4-1.5,3.4-3.4v-1.1
		C23.8,21.6,22.2,20.1,20.3,20.1z"/>
	<path class="st1" d="M9.7,10.5C9.1,11,8.4,11.7,8.4,13c0,0.3,0.2,0.5,0.5,0.5c0.3,0,0.5-0.2,0.5-0.5c0-0.8,0.4-1.2,1-1.7
		c0.6-0.5,1.3-1.2,1.3-2.5c0-1.3-0.7-1.9-1.3-2.5c-0.5-0.5-1-0.9-1-1.7s0.4-1.2,1-1.7c0.6-0.5,1.3-1.2,1.3-2.5
		c0-0.3-0.2-0.5-0.5-0.5c-0.3,0-0.5,0.2-0.5,0.5c0,0.8-0.4,1.2-1,1.7C9.1,2.7,8.4,3.4,8.4,4.7s0.7,1.9,1.3,2.5c0.5,0.5,1,0.9,1,1.7
		C10.7,9.6,10.3,10,9.7,10.5z"/>
	<path class="st1" d="M13.1,10.5c-0.6,0.5-1.3,1.2-1.3,2.5c0,0.3,0.2,0.5,0.5,0.5c0.3,0,0.5-0.2,0.5-0.5c0-0.8,0.4-1.2,1-1.7
		c0.6-0.5,1.3-1.2,1.3-2.5c0-1.3-0.7-1.9-1.3-2.5c-0.5-0.5-1-0.9-1-1.7c0-0.3-0.2-0.5-0.5-0.5c-0.3,0-0.5,0.2-0.5,0.5
		c0,1.3,0.7,1.9,1.3,2.5c0.5,0.5,1,0.9,1,1.7C14.1,9.6,13.7,10,13.1,10.5z"/>
	<path class="st1" d="M6.3,10.5C5.8,11,5,11.7,5,13c0,0.3,0.2,0.5,0.5,0.5c0.3,0,0.5-0.2,0.5-0.5c0-0.8,0.4-1.2,1-1.7
		c0.6-0.5,1.3-1.2,1.3-2.5c0-1.3-0.7-1.9-1.3-2.5c-0.5-0.5-1-0.9-1-1.7c0-0.3-0.2-0.5-0.5-0.5C5.3,4.2,5,4.4,5,4.7
		C5,6,5.8,6.6,6.3,7.1c0.5,0.5,1,0.9,1,1.7C7.3,9.6,6.9,10,6.3,10.5z"/>
	<path class="st2" d="M3.9,33.7c0,0.3,0.3,0.6,0.6,0.6h10.2c0.3,0,0.6-0.3,0.6-0.6v-0.6H3.9V33.7z"/>
	<path class="st1" d="M20.3,19c-0.4,0-0.8,0.1-1.2,0.2v-1.9c0-0.9-0.7-1.7-1.7-1.7H1.7c-0.9,0-1.7,0.7-1.7,1.7v9.6
		c0,1.6,0.5,3.1,1.4,4.4c0.4,0.6,0.9,1.1,1.4,1.5v0.9c0,0.9,0.7,1.7,1.7,1.7h10.2c0.9,0,1.7-0.7,1.7-1.7v-0.9c0.5-0.4,1-0.9,1.4-1.5
		c0.5-0.7,0.9-1.5,1.2-2.4c0.5,0.2,0.9,0.2,1.4,0.2c2.5,0,4.5-2,4.5-4.5v-1.1C24.8,21,22.8,19,20.3,19z M15.3,33.7
		c0,0.3-0.3,0.6-0.6,0.6H4.5c-0.3,0-0.6-0.3-0.6-0.6v-0.6h11.4V33.7z M18.1,23.5v1.1v2.3c0,1.6-0.6,3.2-1.7,4.4
		c-0.2,0.3-0.5,0.5-0.8,0.7H3.5c-0.3-0.2-0.5-0.5-0.8-0.7c-1.1-1.2-1.7-2.8-1.7-4.4v-9.6c0-0.3,0.3-0.6,0.6-0.6h15.8
		c0.3,0,0.6,0.3,0.6,0.6V23.5z M19.2,23.5c0-0.6,0.5-1.2,1.2-1.2s1.2,0.5,1.2,1.2v1.1c0,0.6-0.5,1.2-1.2,1.2s-1.2-0.5-1.2-1.2V23.5z
		 M23.8,24.6c0,1.9-1.5,3.4-3.4,3.4c-0.4,0-0.8-0.1-1.2-0.2c0-0.3,0.1-0.6,0.1-0.9v-0.4c0.3,0.2,0.7,0.3,1.2,0.3
		c1.2,0,2.2-1,2.2-2.2v-1.1c0-1.2-1-2.2-2.2-2.2c-0.4,0-0.8,0.1-1.2,0.3v-1.3c0.4-0.1,0.8-0.2,1.2-0.2c1.9,0,3.4,1.5,3.4,3.4V24.6z"
		/>
</g>
</svg>
