<?xml version="1.0" encoding="utf-8"?>
<!-- Generator: Adobe Illustrator 19.2.1, SVG Export Plug-In . SVG Version: 6.00 Build 0)  -->
<svg version="1.1" id="Layer_1" xmlns="http://www.w3.org/2000/svg" xmlns:xlink="http://www.w3.org/1999/xlink" x="0px" y="0px"
	 width="35.7px" height="34.8px" viewBox="0 0 35.7 34.8" style="enable-background:new 0 0 35.7 34.8;" xml:space="preserve">
<style type="text/css">
	.st0{fill:#363D42;}
	.st1{fill:none;}
	.st2{fill:#85BD7E;}
</style>
<path class="st0" d="M20.6,19.7c-0.5-0.2-1.1-1-1.2-1.3c0,0,0,0,0-0.1c0,0-0.1-0.1-0.2-0.1c0,0,0,0,0,0c0-0.1-0.1-0.1-0.2-0.1
	c0,0,0,0,0,0c0,0,0,0-0.1,0c0,0,0,0,0,0c0,0,0,0,0,0h0c-0.1,0-0.1,0-0.2,0.1c0,0,0,0,0,0c0,0,0,0-0.1,0c0,0-0.1,0.1-0.1,0.2
	c0,0,0,0,0,0c0,0,0,0,0,0c-0.1,0-0.1,0.1-0.1,0.2c0,0,0,0.1,0,0.1v5.6c-0.5-0.2-1.1-0.2-1.6-0.1c-0.5,0.2-1,0.5-1.3,1
	c-0.3,0.5-0.4,1-0.2,1.5c0.2,0.7,1,1.2,1.9,1.2c0.3,0,0.5,0,0.8-0.1c0.5-0.2,1-0.5,1.3-0.9c0.2-0.3,0.3-0.7,0.3-1v-5.7
	c0.2,0.2,0.5,0.4,0.7,0.5c0.5,0.2,0.6,0.5,0.5,1.1l0,0.1c0,0.1,0.1,0.3,0.1,0.4c0.1,0.1,0.2,0.2,0.4,0.2c0.3,0,0.5-0.2,0.5-0.6
	C21.7,21.4,21.7,20.3,20.6,19.7z M18.2,26.3L18.2,26.3c-0.2,0.2-0.4,0.4-0.7,0.5c-0.6,0.2-1.2,0-1.3-0.4c-0.1-0.2,0-0.4,0.1-0.6
	c0.2-0.2,0.4-0.4,0.7-0.5c0.1,0,0.3-0.1,0.4-0.1c0.4,0,0.8,0.2,0.9,0.5C18.4,25.9,18.3,26.2,18.2,26.3z"/>
<path class="st1" d="M32.7,21L32.7,21L32.7,21c-0.4-0.5-0.8-0.8-1.3-1.1v5.1C32,23.7,32.5,22.4,32.7,21z"/>
<path class="st1" d="M31.4,13.9v4.5c0.5,0.2,0.9,0.5,1.3,0.8l0.2,0.1l0-0.2c0-0.2,0-0.5,0-0.7c0-3.1-0.9-6-2.7-8.6l-0.1-0.1l-0.1,0
	c-1.1,0.5-2.3,0.2-3.1-0.5c-2.4-2.4-5.7-3.8-9.1-3.8c-3.4,0-6.7,1.3-9.1,3.8c-0.8,0.8-2,1.1-3.1,0.5l-0.1,0L5.5,9.9
	c-1.8,2.5-2.7,5.5-2.7,8.5c0,0.2,0,0.5,0,0.7l0,0.2L3,19.3c0.4-0.3,0.8-0.6,1.3-0.8v-4.5H31.4z"/>
<path class="st1" d="M34.4,26.5c0.2-1.3,0-2.7-0.6-3.9l-0.1-0.3l-0.1,0.3c-0.3,1.3-0.8,2.5-1.4,3.6c-0.1,0.3-0.5,0.4-0.8,0.3v4.5
	C33,29.9,34.1,28.3,34.4,26.5z"/>
<path class="st1" d="M17.9,1.2c-4.6,0-8.9,1.8-12.2,5c-0.6,0.6-0.6,1.6,0,2.2C6,8.7,6.3,8.9,6.8,8.9c0.4,0,0.8-0.2,1.1-0.4
	c2.7-2.7,6.2-4.1,10-4.1c3.8,0,7.3,1.5,10,4.1c0.3,0.3,0.7,0.4,1.1,0.4c0,0,0,0,0,0c0.4,0,0.8-0.2,1.1-0.4c0.3-0.3,0.5-0.7,0.5-1.1
	c0-0.4-0.2-0.8-0.5-1.1C26.8,3,22.4,1.2,17.9,1.2z"/>
<path class="st2" d="M29.3,18.8c0-0.1,0-0.2,0-0.3l0-0.1c-0.1-1-0.9-1.8-1.9-1.9c-0.1,0-0.3,0-0.4,0c-1.1,0-2,0.8-2.2,1.9L22.7,31
	c-0.2,1.2,0.6,2.4,1.9,2.6c0.1,0,0.3,0,0.4,0c0.8,0,1.6-0.5,2-1.2l0-0.1c0-0.1,0.1-0.2,0.1-0.3c0-0.1,0.1-0.2,0.1-0.3l2.1-12.6
	C29.3,19,29.3,18.9,29.3,18.8z"/>
<path class="st2" d="M8.6,32L8.6,32c0,0.1,0.1,0.2,0.1,0.3l0,0.1c0.4,0.8,1.2,1.2,2,1.2c0.1,0,0.3,0,0.4,0c0.6-0.1,1.1-0.4,1.5-0.9
	c0.4-0.5,0.5-1.1,0.4-1.7l-2.1-12.6c-0.2-1.1-1.1-1.9-2.2-1.9c-0.1,0-0.3,0-0.4,0c-1,0.2-1.7,0.9-1.9,1.9l0,0.1c0,0.1,0,0.2,0,0.3
	l0,0c0,0.1,0,0.2,0,0.3l2.1,12.6C8.5,31.8,8.5,31.9,8.6,32z"/>
<path class="st0" d="M34,20.6L34,20.6L34,20.6c0.1-0.8,0.1-1.5,0.1-2.1c0-3.4-1-6.6-3-9.4l0-0.1l0-0.1c0.4-0.5,0.5-1,0.5-1.6
	c0-0.7-0.3-1.4-0.8-2C27.4,1.9,22.8,0,17.9,0C12.9,0,8.3,1.9,4.8,5.4c-1,1-1.1,2.5-0.3,3.6l0,0.1l0,0.1c-1.9,2.8-3,6-3,9.3
	c0,0.7,0,1.4,0.1,2l0,0l0,0c-1.3,1.7-1.9,3.9-1.6,6.1c0.4,2.5,2,4.5,4.1,5.6c1,0.5,2.2,0.9,3.4,0.9l0.1,0l0,0c0.6,1,1.7,1.6,2.9,1.6
	c0.2,0,0.4,0,0.6,0c1.9-0.3,3.2-2.1,2.9-4L12,18.2c-0.3-1.7-1.7-2.9-3.4-2.9c-0.2,0-0.4,0-0.6,0c-0.9,0.2-1.7,0.7-2.3,1.4
	c-0.3,0.4-0.5,0.8-0.6,1.2l0,0.1l-0.1,0c-0.3,0.1-0.6,0.3-0.9,0.4c-0.5,0.2-0.9,0.5-1.3,0.8l-0.2,0.1l0-0.2c0-0.2,0-0.5,0-0.7
	c0-3,0.9-6,2.7-8.5l0.1-0.1l0.1,0c1.1,0.5,2.3,0.3,3.1-0.5c2.4-2.4,5.7-3.8,9.1-3.8c3.4,0,6.7,1.3,9.1,3.8c0.8,0.8,2,1,3.1,0.5
	l0.1,0l0.1,0.1c1.8,2.5,2.7,5.5,2.7,8.6c0,0.2,0,0.5,0,0.7l0,0.2l-0.2-0.1c-0.4-0.3-0.8-0.6-1.3-0.8c-0.3-0.1-0.6-0.3-0.9-0.4
	l-0.1,0l0-0.1c-0.1-0.4-0.3-0.9-0.6-1.2c-0.5-0.8-1.3-1.3-2.3-1.4c-0.2,0-0.4,0-0.6,0c-1.7,0-3.2,1.2-3.4,2.9l-2.1,12.6
	c-0.3,1.9,1,3.7,2.9,4c0.2,0,0.4,0,0.6,0c1.2,0,2.3-0.6,2.9-1.6l0,0l0.1,0c1.2,0,2.4-0.3,3.4-0.9c2.1-1.1,3.7-3.1,4.1-5.6
	C35.9,24.5,35.4,22.3,34,20.6z M6.4,18.5L6.4,18.5c0.1-1.1,0.9-1.8,1.9-2c0.1,0,0.3,0,0.4,0c1.1,0,2,0.8,2.2,1.9L13,31
	c0.1,0.6,0,1.2-0.4,1.7c-0.4,0.5-0.9,0.8-1.5,0.9c-0.1,0-0.3,0-0.4,0c-0.8,0-1.6-0.5-2-1.2l0-0.1c0-0.1-0.1-0.2-0.1-0.3l0,0
	c0-0.1-0.1-0.2-0.1-0.3L6.4,19.1c0-0.1,0-0.2,0-0.3l0,0C6.4,18.7,6.4,18.6,6.4,18.5z M3.5,26.1c0.2,0.3,0.5,0.4,0.8,0.3c0,0,0,0,0,0
	c0.3-0.2,0.4-0.5,0.3-0.8c-0.1-0.2-0.2-0.4-0.3-0.6c-0.6-1.2-1-2.6-1.3-4l0-0.1l0,0c0.4-0.4,0.8-0.7,1.2-1c0.3-0.2,0.5-0.3,0.8-0.5
	l0.1-0.1l0,0.1l2.1,12.4l-0.1,0c-1.1-0.1-2-0.5-2.9-1c-1.5-1-2.6-2.6-2.9-4.4c-0.2-1.3,0-2.7,0.6-3.9L2,22.3l0.1,0.3
	C2.4,23.8,2.9,25,3.5,26.1z M30,8.4c-0.3,0.3-0.7,0.4-1.1,0.4c0,0,0,0,0,0c-0.4,0-0.8-0.2-1.1-0.4c-2.7-2.7-6.2-4.1-10-4.1
	c-3.8,0-7.3,1.5-10,4.1C7.6,8.7,7.2,8.9,6.8,8.9C6.3,8.9,6,8.7,5.7,8.5c-0.6-0.6-0.6-1.6,0-2.2c3.3-3.3,7.6-5,12.2-5
	c4.6,0,8.9,1.8,12.2,5c0.3,0.3,0.5,0.7,0.5,1.1C30.5,7.8,30.3,8.1,30,8.4z M27.2,31.7c0,0.1,0,0.2-0.1,0.3c0,0.1-0.1,0.2-0.1,0.3
	l0,0.1c-0.4,0.8-1.2,1.2-2,1.2c-0.1,0-0.2,0-0.4,0c-1.2-0.2-2.1-1.4-1.9-2.6l2.1-12.6c0.2-1.1,1.1-1.9,2.2-1.9c0.1,0,0.3,0,0.4,0
	c1,0.2,1.7,0.9,1.9,1.9l0,0.1c0,0.1,0,0.2,0,0.3c0,0.1,0,0.2,0,0.3L27.2,31.7z M34.4,26.5c-0.3,1.9-1.4,3.5-2.9,4.4
	c-0.9,0.5-1.8,0.9-2.9,1l-0.1,0l2.1-12.6l0.1,0.1c0.3,0.1,0.5,0.3,0.8,0.5c0.4,0.3,0.9,0.6,1.2,1l0,0l0,0.1c-0.2,1.4-0.7,2.7-1.3,4
	c-0.1,0.2-0.2,0.4-0.3,0.6c-0.1,0.1-0.1,0.3,0,0.5c0,0.2,0.2,0.3,0.3,0.4c0,0,0,0,0.1,0c0.3,0.1,0.6,0,0.8-0.3
	c0.6-1.1,1.1-2.3,1.4-3.6l0.1-0.3l0.1,0.3C34.4,23.8,34.6,25.1,34.4,26.5z"/>
</svg>
