<?xml version="1.0" encoding="utf-8"?>
<!-- Generator: Adobe Illustrator 19.2.1, SVG Export Plug-In . SVG Version: 6.00 Build 0)  -->
<svg version="1.1" id="Layer_1" xmlns="http://www.w3.org/2000/svg" xmlns:xlink="http://www.w3.org/1999/xlink" x="0px" y="0px"
	 width="321.9px" height="452.4px" viewBox="0 0 321.9 452.4" style="enable-background:new 0 0 321.9 452.4;" xml:space="preserve"
	>
<metadata><?xpacket begin="﻿" id="W5M0MpCehiHzreSzNTczkc9d"?>
<x:xmpmeta xmlns:x="adobe:ns:meta/" x:xmptk="Adobe XMP Core 5.6-c111 79.158366, 2015/09/25-01:12:00        ">
   <rdf:RDF xmlns:rdf="http://www.w3.org/1999/02/22-rdf-syntax-ns#">
      <rdf:Description rdf:about=""/>
   </rdf:RDF>
</x:xmpmeta>
                                                                                                    
                                                                                                    
                                                                                                    
                                                                                                    
                                                                                                    
                                                                                                    
                                                                                                    
                                                                                                    
                                                                                                    
                                                                                                    
                                                                                                    
                                                                                                    
                                                                                                    
                                                                                                    
                                                                                                    
                                                                                                    
                                                                                                    
                                                                                                    
                                                                                                    
                                                                                                    
                           
<?xpacket end="w"?></metadata>
<style type="text/css">
	.st0{opacity:0.9;}
	.st1{opacity:0.8;fill:#91A43A;}
	.st2{opacity:0.8;fill:#197A48;}
	.st3{fill:#99B279;}
	.st4{opacity:0.8;}
	.st5{fill:#2F9575;}
	.st6{fill:#85BD7E;}
	.st7{opacity:0.7;}
	.st8{opacity:0.8;fill:#172E57;}
	.st9{fill:#57BD7F;}
</style>
<g class="st0">
	<path class="st1" d="M308.2,134.2c-1.8-0.5-18.5,3.5-28.7,7.9c-10.2,4.4-29.5,9.2-29.6,3.5c-0.1-5.6,19.8-7.4,21.9-8
		c2.1-0.6,23.6-10.2,24.8-12.2c1.1-2,0-3.7-5.8-11.2c-5.8-7.5-4.9-10.6-9.6-7.2c-4.7,3.4-31.2,26.6-32.4,24.8
		c-1.3-1.9,0.2-3.3,8.7-11.5c8.5-8.2,24.4-16.7,25-18c0.6-1.4,2.2-2.7-2-4.8c-4.2-2.2-16.2-11.2-18.8-10.7
		c-2.6,0.5-16.8,22.7-17.9,25.4c-1.1,2.7-8,18-12.5,16.8c-4.5-1.2,0.6-10.8,2.9-16c2.2-5.2,16-24.1,17.9-26.4
		c-4.9,0.1-22.3-2.9-23.8-4.1c-1,2.2-6.7,22.1-7.2,24.4c-0.4,2.3,0,16.6-4.1,14.9s-2.9-11.7-2.9-12.4c0-0.7,8.2-20.6,8.4-24
		c0.2-3.4,2.2-5.9-3-5.2c-5.2,0.8-11.1,2-14,2c-3,0-14-1-13.7,1.3s2.4,5.8,3.5,9.3c1.1,3.5,3.5,22.9,2,23.7
		c-1.5,0.7-7.6-9.8-7.7-11.4c-0.1-1.7,0.8-19.5-2-19.2c-2.8,0.3-22.8-1.1-28.7,1.9c3.8,3.9,13.7,14.8,16.1,17.7
		c2.4,2.8,10.6,13.2,8.7,14.7c-1.9,1.5-9.3-2-10.9-5.1c-1.6-3.1-11.3-17.9-22.8-18.4c-2.5,5.1-6.1,12.7-8.1,15.6
		c-2,2.9-6.5,11.8-6.1,13.5c0.4,1.7,0.9,2.4,11.2,3.4c10.3,1,25.8,4.5,24.2,8.8c-1.6,4.3-34.4-8.8-35.1-7.9
		c-0.6,0.9-2.5,6.2-2.8,7.3c-0.2,1.1-2.6,13.9-0.5,14.7c2.1,0.8,17,1.3,23.6,0.5c6.7-0.8,22.9-2.8,21.6,2.6
		c-1.4,5.4-16.3,5.3-18.6,5.1c-2.3-0.2-25.7-7.3-27.4-4.6c-1.7,2.6,2,20.3,2.4,22.4c0.5,2.2,4.8,15.6,4.8,15.6s5.4-10.3,10.7-12.1
		c5.2-1.8,31-10.7,32.6-6.8c1.6,3.9-18.7,10.1-22.7,13.5c-3.9,3.4-18.3,14-18.3,14s8.8,24.6,19.3,23.5c4.5-5.8,13.2-22.5,15.1-25
		c2-2.6,11.9-12.9,14.1-12.2c2.2,0.7,3.9,2.6-2.8,10.6c-6.8,8-23.6,35.4-23.6,35.4s16.9,16.7,26.5,18.1c2-1.8,1.6-17.5,2-19.2
		c0.3-1.7,7.8-29,14.2-24.2c0,3.7-3.3,20.8-13.3,42.9c3.2,1.1,12,2.4,15.1,4.7c3.1,2.4,8.6,5.4,11.8,3.5c3.2-1.9,1.2-21.4,1.4-23.7
		c0.2-2.3-1.3-23.7,4.6-20.4c5.9,3.2,2,45.8,2,45.8s20.1,4.1,30.9-2.7c-1.8-3.8-6.7-17.3-8-21.1c-1.3-3.8-1.5-17.3,3.5-16.2
		c5,1.1,6.6,4,7.4,7.7c0.8,3.7,5.2,23.5,6.5,23.4c1.4-0.2,16.3-15,17.9-15.8c3.8-1.7,6.4-2.6,6.4-2.6s9.3-5.3,10.4-7
		c-3-0.7-19.4-13-21.1-18.5c2.2-1.5,3.4-2.3,3.4-2.3s13.6,15.1,20.3,18.4c4.5-4,9.7-6.3,12.7-23.9c-3-0.4-25.9-5.7-26.2-6.9
		c-0.3-1.3,1.2-3.1,25.6,3.4c1-5.1,0.8-27.5-1.4-29c-2.2-1.5-14.7,0.2-20.9-0.8c-6.2-1.1-32-3.8-30.9-8.7c1.1-5,8.4-4.4,13.1-4.6
		c4.6-0.1,30.4,6.3,32.6,4.9c2.2-1.5,4.5-4.3,4.5-4.3S310.1,134.7,308.2,134.2z M230.9,144.5c3.6-4.6,5.9-7.1,8.7-6.6
		c2.9,0.6-0.8,5.4-4.5,9.9c-3.6,4.6-5.8,8.9-8.7,6.6C225.2,153.5,227.2,149,230.9,144.5z M210.8,132.6c0.8-3.7,2.6-6.4,4-6.1
		c1.4,0.3,2,3.5,1.2,7.2c-0.8,3.7-2.6,6.4-4,6.1C210.6,139.4,210.1,136.2,210.8,132.6z M197.8,129.9c0.2-3.4,1.6-6,3.1-5.9
		c1.5,0.1,2.5,2.9,2.3,6.3c-0.2,3.4-1.6,6-3.1,5.9C198.6,136.1,197.6,133.3,197.8,129.9z M179.6,137.8c0.3-1,2.3-1.2,4.5-0.6
		c2.2,0.7,3.7,2,3.4,3c-0.3,1-2.3,1.2-4.5,0.6C180.8,140.1,179.3,138.7,179.6,137.8z M186.1,155.6c-0.9-3.1,2.8-4.2,7.2-5.3
		c4.4-1.1,8.3-0.4,8.8,1.4c0.4,1.8-2.8,4.2-7.2,5.3C190.4,158.1,186.6,157.4,186.1,155.6z M196.3,172.9c-2.6-3.8,1.2-6,5.7-9
		c4.5-3,8.6-4.7,10.5-1.9c1.3,2-1.2,6-5.7,9S197.6,174.9,196.3,172.9z M213.9,193.9c-4.3-1.8-2.3-5.7-0.2-10.7
		c2.1-5,4.6-8.7,7.7-7.4c2.2,0.9,2.3,5.7,0.2,10.7C219.5,191.5,216,194.8,213.9,193.9z M231.5,204.5c-4.3-1.8-2.3-5.7-0.2-10.7
		c2.1-5,7.2-9,10.3-7.7c2.2,0.9-0.4,6-2.4,11C237.2,202.1,233.7,205.4,231.5,204.5z M255.9,208.3c0.1,3.4-1,6.2-2.5,6.2
		c-1.5,0.1-2.8-2.6-3-6c-0.1-3.4,1-6.2,2.5-6.2S255.7,204.9,255.9,208.3z M218.4,151c-1.4-0.5-1.6-3.5-0.4-6.7
		c1.2-3.2,3.2-5.1,4.7-4.8c3.1,0.6,1.6,3.5,0.4,6.7C221.9,149.4,219.8,151.5,218.4,151z M250.8,167.6c-0.4,1.8-3.8,3.3-8.4,3.1
		c-4.5-0.2-8-1.9-8-3.8c0-3.2,3.7-3.8,8.3-3.6C247.2,163.4,252.3,161.3,250.8,167.6z M276.7,177.5c0.1,1.5-3.6,2.8-8.1,3
		s-8.2-0.9-8.3-2.3c-0.3-2.5,3.6-2.8,8.1-3C272.9,175,276.6,176,276.7,177.5z"/>
	<path class="st2" d="M306.9,132.2c-1.8-0.5-18.5,3.5-28.7,7.9c-10.2,4.4-29.5,9.2-29.6,3.5c-0.1-5.6,19.8-7.4,21.9-8
		c2.1-0.6,23.6-10.2,24.8-12.2c1.1-2,0-3.7-5.8-11.2c-5.8-7.5-4.9-10.6-9.6-7.2c-4.7,3.4-31.2,26.6-32.4,24.8
		c-1.3-1.9,0.2-3.3,8.7-11.5c8.5-8.2,24.4-16.7,25-18c0.6-1.4,2.2-2.7-2-4.8c-4.2-2.2-16.2-11.2-18.8-10.7
		c-2.6,0.5-16.8,22.7-17.9,25.4c-1.1,2.7-8,18-12.5,16.8c-4.5-1.2,0.6-10.8,2.9-16c2.2-5.2,16-24.1,17.9-26.4
		c-4.9,0.1-22.3-2.9-23.8-4.1c-1,2.2-6.7,22.1-7.2,24.4c-0.4,2.3,0,16.6-4.1,14.9s-2.9-11.7-2.9-12.4c0-0.7,8.2-20.6,8.4-24
		c0.2-3.4,2.2-5.9-3-5.2c-5.2,0.8-11.1,2-14,2c-3,0-14-1-13.7,1.3s2.4,5.8,3.5,9.3c1.1,3.5,3.5,22.9,2,23.7
		c-1.5,0.7-7.6-9.8-7.7-11.4c-0.1-1.7,0.8-19.5-2-19.2s-22.8-1.1-28.7,1.9c3.8,3.9,13.7,14.8,16.1,17.7c2.4,2.8,10.6,13.2,8.7,14.7
		c-1.9,1.5-9.3-2-10.9-5.1c-1.6-3.1-11.3-17.9-22.8-18.4c-2.5,5.1-6.1,12.7-8.1,15.6s-6.5,11.8-6.1,13.5c0.4,1.7,0.9,2.4,11.2,3.4
		c10.3,1,25.8,4.5,24.2,8.8c-1.6,4.3-34.4-8.8-35.1-7.9c-0.6,0.9-2.5,6.2-2.8,7.3c-0.2,1.1-2.6,13.9-0.5,14.7
		c2.1,0.8,17,1.3,23.6,0.5c6.7-0.8,22.9-2.8,21.6,2.6c-1.4,5.4-16.3,5.3-18.6,5.1c-2.3-0.2-25.7-7.3-27.4-4.6
		c-1.7,2.6,2,20.3,2.4,22.4c0.5,2.2,4.8,15.6,4.8,15.6s5.4-10.3,10.7-12.1c5.2-1.8,31-10.7,32.6-6.8c1.6,3.9-18.7,10.1-22.7,13.5
		c-3.9,3.4-18.3,14-18.3,14s8.8,24.6,19.3,23.5c4.5-5.8,13.2-22.5,15.1-25c2-2.6,11.9-12.9,14.1-12.2c2.2,0.7,3.9,2.6-2.8,10.6
		c-6.8,8-23.6,35.4-23.6,35.4s16.9,16.7,26.5,18.1c2-1.8,1.6-17.5,2-19.2c0.3-1.7,7.8-29,14.2-24.2c0,3.7-3.3,20.8-13.3,42.9
		c3.2,1.1,12,2.4,15.1,4.7c3.1,2.4,8.6,5.4,11.8,3.5c3.2-1.9,1.2-21.4,1.4-23.7c0.2-2.3-1.3-23.7,4.6-20.4c5.9,3.2,2,45.8,2,45.8
		s20.1,4.1,30.9-2.7c-1.8-3.8-6.7-17.3-8-21.1c-1.3-3.8-1.5-17.3,3.5-16.2c5,1.1,6.6,4,7.4,7.7c0.8,3.7,5.2,23.5,6.5,23.4
		c1.4-0.2,16.3-15,17.9-15.8c3.8-1.7,6.4-2.6,6.4-2.6s9.3-5.3,10.4-7c-3-0.7-19.4-13-21.1-18.5c2.2-1.5,3.4-2.3,3.4-2.3
		s13.6,15.1,20.3,18.4c4.5-4,9.7-6.3,12.7-23.9c-3-0.4-25.9-5.7-26.2-6.9c-0.3-1.3,1.2-3.1,25.6,3.4c1-5.1,0.8-27.5-1.4-29
		c-2.2-1.5-14.7,0.2-20.9-0.8c-6.2-1.1-32-3.8-30.9-8.7c1.1-5,8.4-4.4,13.1-4.6c4.6-0.1,30.4,6.3,32.6,4.9c2.2-1.5,4.5-4.3,4.5-4.3
		S308.7,132.7,306.9,132.2z M229.5,142.5c3.6-4.6,5.9-7.1,8.7-6.6c2.9,0.6-0.8,5.4-4.5,9.9c-3.6,4.6-5.8,8.9-8.7,6.6
		C223.9,151.5,225.9,147,229.5,142.5z M209.5,130.5c0.8-3.7,2.6-6.4,4-6.1c1.4,0.3,2,3.5,1.2,7.2c-0.8,3.7-2.6,6.4-4,6.1
		C209.2,137.4,208.7,134.2,209.5,130.5z M196.4,127.9c0.2-3.4,1.6-6,3.1-5.9c1.5,0.1,2.5,2.9,2.3,6.3c-0.2,3.4-1.6,6-3.1,5.9
		C197.3,134,196.2,131.2,196.4,127.9z M178.2,135.7c0.3-1,2.3-1.2,4.5-0.6c2.2,0.7,3.7,2,3.4,3c-0.3,1-2.3,1.2-4.5,0.6
		C179.4,138,177.9,136.7,178.2,135.7z M184.7,153.6c-0.9-3.1,2.8-4.2,7.2-5.3c4.4-1.1,8.3-0.4,8.8,1.4c0.4,1.8-2.8,4.2-7.2,5.3
		C189.1,156,185.2,155.4,184.7,153.6z M194.9,170.9c-2.6-3.8,1.2-6,5.7-9s8.6-4.7,10.5-1.9c1.3,2-1.2,6-5.7,9
		C200.9,172,196.2,172.8,194.9,170.9z M212.5,191.8c-4.3-1.8-2.3-5.7-0.2-10.7c2.1-5,4.6-8.7,7.7-7.4c2.2,0.9,2.3,5.7,0.2,10.7
		C218.1,189.4,214.7,192.7,212.5,191.8z M230.2,202.5c-4.3-1.8-2.3-5.7-0.2-10.7c2.1-5,7.2-9,10.3-7.7c2.2,0.9-0.4,6-2.4,11
		C235.8,200.1,232.3,203.4,230.2,202.5z M254.5,206.3c0.1,3.4-1,6.2-2.5,6.2c-1.5,0.1-2.8-2.6-3-6c-0.1-3.4,1-6.2,2.5-6.2
		S254.4,202.9,254.5,206.3z M217,149c-1.4-0.5-1.6-3.5-0.4-6.7c1.2-3.2,3.2-5.1,4.7-4.8c3.1,0.6,1.6,3.5,0.4,6.7
		C220.5,147.3,218.4,149.5,217,149z M249.4,165.5c-0.4,1.8-3.8,3.3-8.4,3.1c-4.5-0.2-8-1.9-8-3.8c0-3.2,3.7-3.8,8.3-3.6
		C245.8,161.3,250.9,159.3,249.4,165.5z M275.3,175.4c0.1,1.5-3.6,2.8-8.1,3c-4.5,0.2-8.2-0.9-8.3-2.3c-0.3-2.5,3.6-2.8,8.1-3
		C271.5,172.9,275.2,174,275.3,175.4z"/>
	<path class="st3" d="M318,281.7c0,0-5.8-9.1-14.9-22.5c-4.5-6.7-9.9-14.5-15.8-22.7c-2.9-4.1-6-8.3-9.2-12.6
		c-3.2-4.3-6.4-8.5-9.8-12.8c-1.7-2.1-3.4-4.2-5.1-6.2c-1.7-2-3.5-4.1-5.2-6c-3.6-3.9-7.1-7.7-10.7-11.3c-3.5-3.6-7-7.1-10.3-10.3
		c-3.3-3.2-6.5-6.2-9.5-9c-11.9-11-20.2-17.9-20.2-17.9s8.5,6.7,20.7,17.4c3,2.7,6.3,5.6,9.7,8.7c3.4,3.2,7,6.5,10.6,10
		c3.7,3.5,7.3,7.3,11,11.1c1.8,2,3.6,3.9,5.5,5.9c1.8,2,3.6,4.1,5.3,6.2c3.5,4.2,6.9,8.4,10.2,12.5c3.3,4.2,6.5,8.3,9.6,12.4
		c6.1,8.1,11.7,15.7,16.4,22.3c9.5,13.2,15.6,22.1,15.6,22.1L318,281.7z"/>
</g>
<g class="st0">
	<g class="st4">
		<g>
			<path class="st5" d="M17.4,139.5c2.4,1.3,4.8,2.7,7.1,4.1c2.3,1.4,4.7,2.9,7,4.4c2.3,1.5,4.6,3,6.8,4.6c1.1,0.8,2.2,1.6,3.4,2.5
				c0.6,0.5,1.1,0.9,1.7,1.5l0.8,0.9c0.3,0.3,0.6,0.9,0.9,1.3l0,0l3.1,5.2l-6-1.9c-3.2-1-6.5-2-9.8-2.9c-3.3-0.9-6.6-1.7-9.9-2.5
				c-3.3-0.7-6.7-1.4-10.1-1.9c-0.8-0.1-1.7-0.2-2.5-0.4c-0.8-0.1-1.7-0.2-2.6-0.3c-0.9-0.1-1.7-0.2-2.6-0.2l-2.6-0.2l2.6-0.1
				c0.9-0.1,1.7,0,2.6-0.1c0.9,0,1.7,0,2.6,0c0.9,0,1.7,0,2.6,0.1c3.5,0.1,6.9,0.4,10.3,0.8c3.4,0.4,6.9,0.8,10.3,1.3
				c3.4,0.5,6.8,1.1,10.3,1.7l-2.8,3.3l0,0c-0.1-0.1-0.1-0.2-0.2-0.4l-0.5-0.7c-0.4-0.5-0.8-1-1.2-1.4c-0.9-1-1.8-1.9-2.8-2.8
				c-1.9-1.9-3.9-3.7-6-5.5c-2-1.8-4.1-3.6-6.2-5.3C21.7,142.8,19.6,141.1,17.4,139.5z"/>
			<path class="st5" d="M51.1,165c0,0-1.5,0-2.3-1.2c-0.8-1.2-1.2-1.7-2.7-3.6c-1.5-2-3.2-4.2-5.2-6.6c-2-2.4-4.1-4.9-6.4-7.2
				c-1.1-1.2-2.3-2.4-3.4-3.5c-1.1-1.2-2.4-2.2-3.5-3.2c-1.1-1-2.3-1.9-3.4-2.8c-1.1-0.9-2.2-1.6-3.2-2.3c-1-0.7-2-1.2-2.9-1.7
				c-0.4-0.2-0.8-0.5-1.2-0.7c-0.4-0.2-0.8-0.3-1.1-0.5c-1.3-0.6-2.1-0.9-2.1-0.9s0.8,0.3,2.2,0.7c0.3,0.1,0.7,0.2,1.2,0.4
				c0.4,0.1,0.8,0.4,1.3,0.6c0.9,0.4,2,0.8,3.1,1.5c1.1,0.6,2.3,1.2,3.5,2c1.2,0.8,2.5,1.6,3.8,2.5c1.3,0.9,2.6,1.9,3.9,2.9
				c1.3,1,2.6,2.1,3.8,3.2c2.5,2.2,5,4.5,7.2,6.7c2.2,2.2,4.2,4.4,5.9,6.2c1.7,1.9,3.1,3.4,4,4.6c1,1.1,3,5,3,5L51.1,165z"/>
			<path class="st5" d="M62.4,170.8c0,0-1.7-0.3-5.1-4.8c-3.4-4.5-7.9-10.4-12.6-16.2c-4.7-5.8-9.7-11.4-13.7-15.3
				c-2-1.9-3.9-3.4-5.2-4.2c-0.3-0.2-0.7-0.4-1-0.5c-0.3-0.1-0.5-0.3-0.7-0.3c-0.4-0.1-0.6-0.2-0.6-0.2s0.2,0.1,0.7,0.1
				c0.2,0,0.5,0.1,0.8,0.3c0.3,0.1,0.6,0.2,1,0.5c1.5,0.7,3.4,2.1,5.6,3.9c4.4,3.6,9.8,8.8,15,14.3c5.2,5.4,10.2,11,13.9,15.3
				c3.7,4.2,8.6,10.2,8.6,10.2L62.4,170.8z"/>
			<path class="st5" d="M71,176.2c0,0-0.9-0.4-3.2-5.5c-3.6-5.5-7.6-12.4-12.7-19.5c-1.3-1.8-2.6-3.5-3.9-5.2
				c-0.7-0.9-1.3-1.6-2-2.4c-0.7-0.7-1.5-1.5-2.2-2.2c-3-2.8-6-5.1-8.6-7.1c-2.6-1.9-4.9-3.4-6.6-4.4c-0.8-0.5-1.5-0.8-2-1.1
				c-0.5-0.2-0.7-0.3-0.7-0.3s0.3,0.1,0.7,0.3c0.5,0.2,1.2,0.5,2,0.9c1.7,0.9,4.1,2.2,6.9,4c2.8,1.8,5.9,4,9.1,6.6
				c0.8,0.7,1.6,1.4,2.4,2.1c0.8,0.8,1.5,1.6,2.2,2.4c1.5,1.6,2.9,3.3,4.2,5c5.5,6.8,10.8,13.9,14.8,19.1c3.9,5.3,8.4,12.1,8.4,12.1
				L71,176.2z"/>
			<path class="st5" d="M81.8,183.3c0,0,0,0-4.1-6.2c-2-3.1-4.4-6.8-6.8-10.8c-1.2-2-2.4-4.1-3.5-6.5c-1-2.4-1.9-4.4-3-6.6
				c-2.3-4.3-4.8-8.5-7.3-12.3c-1.3-1.9-2.6-3.7-3.8-5.4c-1.3-1.7-2.5-3.2-3.8-4.6c-1.2-1.4-2.4-2.5-3.5-3.6
				c-0.6-0.5-1.1-0.9-1.6-1.3c-0.5-0.4-1-0.7-1.5-1c-0.9-0.6-1.7-1-2.2-1.2c-0.5-0.2-0.8-0.4-0.8-0.4s0.3,0.1,0.8,0.3
				c0.5,0.2,1.4,0.5,2.3,1.1c0.5,0.3,1,0.5,1.5,0.9c0.5,0.4,1.1,0.8,1.7,1.2c1.2,0.9,2.5,2,3.8,3.3c1.4,1.3,2.7,2.8,4.2,4.3
				c1.4,1.6,2.8,3.3,4.3,5.2c2.9,3.7,5.7,7.7,8.3,12c1.3,2.1,2.6,4.5,3.6,6.5c1.1,2,2.4,4,3.7,5.8c2.6,3.7,5.2,7.2,7.4,10.1
				c4.5,5.8,9.8,13.3,9.8,13.3L81.8,183.3z"/>
			<path class="st5" d="M93,189.4C93,189.4,93.3,190,93,189.4C92.8,188.8,93.6,190.5,93,189.4c-1-2.3-1.6-3.2-3.8-6.8
				c-0.6-0.9-1.2-1.8-1.8-2.7c-0.4-0.5-0.7-1-1.1-1.5l-0.5-0.8l-0.6-0.9c-1.5-2.3-2.8-4.7-4.1-7.2c-1.3-2.5-2.6-5.1-3.8-7.8
				c-1.2-2.7-2.4-5.5-3.6-8.1c-2.4-5.2-5.4-10.3-8.6-14.7c-1.6-2.2-3.3-4.3-5-6.1c-1.7-1.9-3.4-3.5-5-5c-0.8-0.7-1.7-1.4-2.4-2
				c-0.8-0.6-1.6-1.1-2.3-1.7c-1.4-1.1-2.9-1.7-4-2.4c-1.2-0.6-2.1-1-2.7-1.3c-0.6-0.3-1-0.4-1-0.4s0.3,0.1,1,0.4
				c0.6,0.2,1.6,0.6,2.8,1c1.2,0.6,2.6,1.2,4.2,2.1c0.8,0.5,1.6,1,2.5,1.5c0.8,0.6,1.7,1.2,2.6,1.8c1.8,1.3,3.7,2.9,5.6,4.6
				c1.9,1.8,3.8,3.7,5.6,5.8c3.7,4.3,7.2,9.2,10.2,14.5c1.4,2.7,2.8,5.2,4.2,7.8c1.4,2.5,2.9,4.9,4.3,7.2c1.4,2.3,2.9,4.5,4.4,6.3
				l0.5,0.7l0.6,0.7c0.4,0.5,0.8,0.9,1.2,1.4c0.8,1,1.6,1.9,2.3,2.9c1.5,2.2,2.2,4.6,3.6,7c0.7,1.2,2.4,5,2.7,5.6
				c0.3,0.7,1.7,4,1.7,4L93,189.4z"/>
			<path class="st5" d="M54.5,118.2c1.8,0.9,3.6,1.8,5.2,3c1.7,1.1,3.3,2.3,4.8,3.6c1.5,1.3,3,2.7,4.5,4.1c1.4,1.4,2.8,2.9,4.2,4.4
				c1.3,1.5,2.6,3.1,3.9,4.7c1.2,1.6,2.4,3.2,3.5,5c1.1,1.7,2.1,3.5,3,5.4c0.9,2,1.5,3.8,2.3,5.6c3.2,7.2,7.2,14.2,11.3,21l3.1,5.1
				c1.1,1.7,2.1,3.6,3.1,5.4c0.9,1.9,1.8,3.8,2.5,5.7c0.7,2,1.4,3.9,1.9,6.1l0,0l0.7,3.6l-3.6-0.7c-8-1.6-16.1-3-24.2-4.3
				c-8.1-1.4-16.2-2.6-24.4-3.7c-4.1-0.6-8.1-1.1-12.2-1.6l-6.1-0.7c-2-0.2-4.1-0.4-6.1-0.6c-2-0.2-4.1-0.4-6.1-0.5
				c-2-0.1-4.1-0.3-6.2-0.4l-6.2-0.3l-6.2,0l6.2-0.3l6.2-0.1c2.1,0,4.1,0.1,6.2,0.1c2.1,0,4.1,0.1,6.2,0.2c2.1,0.1,4.1,0.2,6.2,0.3
				l6.2,0.4c4.1,0.3,8.2,0.6,12.3,1c8.2,0.7,16.4,1.5,24.6,2.5c8.2,0.9,16.4,2,24.6,3.1l-2.9,2.9l0,0c-0.3-1.7-0.8-3.6-1.4-5.4
				c-0.6-1.8-1.3-3.6-2.1-5.4c-0.8-1.8-1.6-3.5-2.6-5.2l-2.9-5.3c-3.8-7.1-7.4-14.3-10.4-21.9c-0.7-1.9-1.3-3.9-2-5.7
				c-0.7-1.8-1.6-3.5-2.6-5.2c-1-1.7-2.1-3.4-3.2-5c-1.1-1.6-2.3-3.2-3.6-4.8c-1.2-1.6-2.5-3.1-3.9-4.5c-1.3-1.5-2.7-2.9-4.2-4.3
				c-1.5-1.4-3-2.7-4.6-3.9C58,120.3,56.3,119.2,54.5,118.2z"/>
			<path class="st5" d="M111.3,202.3C111,201.3,111.7,203.4,111.3,202.3c-0.4-1.1-0.8-2.1-1.2-3.2c-0.8-2.1-1.8-4.1-2.8-6.1
				c-0.5-1-1.1-1.9-1.7-2.9l-0.4-0.7l-0.5-0.8c-0.3-0.5-0.6-0.9-0.9-1.5l-0.9-1.7l-0.8-1.6c-0.5-1.1-1-2.2-1.5-3.3
				c-1.9-4.3-3.7-8.7-5.3-13.1c-1.7-4.4-3.3-8.8-4.8-13.3l0,0.1c-2.8-6.2-5.8-12.4-9-18.5c-0.8-1.5-1.6-3-2.5-4.5
				c-0.4-0.7-0.9-1.5-1.3-2.2c-0.5-0.7-0.9-1.5-1.4-2.2l-1.4-2.1l-1.5-2.1c-0.5-0.7-1.1-1.3-1.7-2c-0.6-0.6-1.2-1.2-1.9-1.8
				c0.7,0.6,1.4,1.1,2,1.7c0.6,0.6,1.2,1.2,1.8,1.9l1.7,2l1.6,2.1c0.5,0.7,1,1.4,1.5,2.1c0.5,0.7,1,1.4,1.5,2.1
				c1,1.4,1.9,2.9,2.8,4.3c3.6,5.9,7,11.9,10.2,18l0,0l0,0.1c1.8,4.3,3.7,8.6,5.6,12.8c1.9,4.2,3.9,8.5,6.1,12.6c0.6,1,1.1,2,1.6,3
				l0.8,1.5l0.8,1.3c0.2,0.4,0.7,0.9,1,1.4l0.5,0.6l0.6,0.7c0.7,1,1.4,2,2.1,3.1c1.3,2.1,2.5,4.2,3.5,6.4c0.5,1.1,1,2.2,1.5,3.3
				c0.5,1.1,0.7,5.2,1.1,6.4L111.3,202.3z"/>
			<path class="st5" d="M119.6,207.6c0,0-2.8-4-6.2-13.5c-0.8-2.4-1.8-5-2.7-7.7c-0.9-2.8-1.8-5.7-2.6-8.8c-0.7-3.1-1.6-6-2.7-9.1
				c-1.1-3.1-2.4-6.1-3.8-9.2c-1.3-3.1-2.8-6.1-4.3-9c-1.5-2.9-3-5.8-4.6-8.5c-1.6-2.7-3.1-5.3-4.8-7.6c-1.6-2.4-3.4-4.4-5-6.3
				c-3.2-3.9-5.8-7.1-7.9-9.2c-1-1-1.9-1.8-2.6-2.2c-0.6-0.5-1-0.7-1-0.7s0.4,0.2,1,0.6c0.7,0.4,1.6,1.1,2.7,2.1
				c2.2,2,4.9,5.2,8.3,8.9c1.7,1.9,3.6,3.8,5.3,6.2c1.8,2.3,3.5,4.8,5.2,7.5c1.7,2.7,3.3,5.5,5,8.4c1.6,2.9,3.2,5.9,4.7,8.9
				c1.5,3,3,6.1,4.2,9.1c1.3,3,2.5,6.3,3.2,9.3c0.9,2.9,1.9,5.8,2.9,8.4c1,2.7,2,5.2,3,7.5c3.8,9.3,8.6,19.4,8.6,19.4L119.6,207.6z"
				/>
			<path class="st5" d="M125.5,212.5L125.5,212.5c-0.9-2.9-2.1-7.1-3.5-12.2c-0.7-2.5-1.4-5.3-2-8.3c-0.6-2.9-1.3-6-1.9-9.2
				c-1.3-6.4-2.8-13.1-4.5-19.8c-0.8-3.3-1.8-6.7-2.7-9.9c-1-3.2-2-6.4-3.3-9.3c-1.3-3-2.7-5.7-4.1-8.4c-1.4-2.6-2.8-5.1-4.1-7.3
				c-2.6-4.5-4.8-8.3-6.3-10.9c-1.5-2.6-2.2-4.2-2.2-4.2s0.8,1.5,2.5,4.1c1.7,2.5,4.1,6.1,7,10.5c1.4,2.2,3,4.5,4.6,7.1
				c1.6,2.5,3.2,5.3,4.7,8.2c1.6,3,2.8,6.1,4.1,9.3c1.2,3.2,2.4,6.5,3.4,9.9c2.2,6.6,4.1,13.3,5.9,19.6c0.9,3.1,1.7,6.1,2.5,9
				c0.8,2.8,1.7,5.5,2.5,7.9c1.7,4.9,3.2,8.9,4.2,11.7c1.1,2.8,0.7,7.7,0.7,7.7L125.5,212.5z"/>
			<path class="st5" d="M134.3,219.7c0,0,0.3,1.4-0.4-1.6c-0.7-3-1.6-7.2-2.6-12.4c-0.5-2.6-1-5.4-1.5-8.3c-0.5-3-0.9-6-1.5-9.2
				c-1.2-6.3-2.7-13.1-4.2-19.8c-1.5-6.8-3.1-13.5-4.5-19.8c-0.7-3.2-1.5-6.1-2.4-8.9c-0.9-2.8-2-5.4-3.1-7.7
				c-2.1-4.7-4.4-8.4-6.2-10.8c-0.9-1.2-1.6-2.1-2.2-2.7c-0.5-0.6-0.8-0.9-0.8-0.9s0.3,0.3,0.9,0.9c0.6,0.6,1.4,1.5,2.3,2.6
				c1.9,2.3,4.5,5.9,6.9,10.5c1.2,2.3,2.4,4.9,3.6,7.7c1.1,2.8,2.2,5.8,3,9c1.8,6.2,3.7,12.9,5.7,19.5c1.9,6.7,3.8,13.3,5.4,19.7
				c0.8,3.2,1.5,6.4,2.1,9.2c0.6,2.9,1.3,5.6,1.9,8.1c1.3,5,2.4,9.2,3.2,12.1c0.8,2.9,1.6,7.2,1.6,7.2L134.3,219.7z"/>
			<path class="st5" d="M142.5,226.4c0,0-0.9-4.9-2.8-16c-1-5.5-2.1-12-3.3-18.9c-0.6-3.5-1.2-7.1-1.7-10.7c-0.5-3.7-1-7.4-1.5-11.1
				c-0.5-3.7-1-7.4-1.5-11.1c-0.6-3.6-1.2-7.2-2.3-10.4c-1.2-3.2-2.7-6.2-4.2-9.1c-1.5-2.8-3-5.5-4.4-7.9c-1.4-2.4-2.9-4.5-4.2-6.4
				c-1.4-1.8-2.6-3.4-3.7-4.6c-0.5-0.6-1.1-1.1-1.5-1.6c-0.4-0.4-0.8-0.8-1.2-1.1c-0.7-0.6-1-0.9-1-0.9s0.4,0.3,1.1,0.8
				c0.4,0.3,0.8,0.6,1.2,1c0.5,0.4,1,0.9,1.6,1.5c1.2,1.1,2.5,2.7,3.9,4.4c1.4,1.8,3,3.9,4.5,6.2c1.6,2.3,3.2,4.9,4.8,7.7
				c1.6,2.8,3.3,5.8,4.7,9.1c1.3,3.4,2.1,7,2.8,10.6c0.7,3.6,1.4,7.3,2,11c0.7,3.7,1.3,7.4,2,11c0.7,3.6,1.4,7.1,2.2,10.6
				c1.5,6.9,2.9,13.3,4.2,18.7c2.4,11,4.9,21.8,4.9,21.8L142.5,226.4z"/>
			<path class="st5" d="M150.1,233.3c0,0-4-29.5-8-60.7c-0.5-3.9-1-7.8-1.4-11.7c-0.2-1.9-0.4-3.9-0.5-5.8c-0.1-1.9-0.4-3.7-0.7-5.5
				c-0.6-3.6-1.7-7-3-10c-1.3-3.1-3-5.8-4.8-8.1c-3.6-4.6-7.7-7.5-10.6-9.2c-2.9-1.8-4.8-2.4-4.8-2.4s1.9,0.6,4.9,2.3
				c1.5,0.8,3.3,1.9,5.2,3.4c1.9,1.5,4,3.3,5.9,5.6c1.9,2.3,3.7,5,5.2,8.1c1.5,3.1,2.7,6.5,3.5,10.2c0.4,1.8,0.7,3.7,0.9,5.6
				c0.2,2,0.4,3.8,0.7,5.7c0.6,3.8,1.2,7.7,1.8,11.6c5.1,31,10.8,64,10.8,64L150.1,233.3z"/>
			<path class="st5" d="M155.6,238.3c0,0,1.1-3.7,0-14.4c-0.5-5.4-1.1-11.7-1.8-18.4c-0.6-6.7-1.3-13.9-1.9-21.1
				c-0.3-3.6-0.3-7.3-0.4-10.8c-0.1-3.5-0.2-7-0.4-10.4c-0.2-3.4-0.4-6.6-0.8-9.7c-0.4-3.1-0.8-5.9-1.8-8.4c-1-2.5-2.3-4.6-3.6-6.3
				c-1.3-1.8-2.6-3.2-3.7-4.3c-2.2-2.3-3.7-3.3-3.7-3.3s1.5,1,3.9,3.1c1.2,1.1,2.5,2.5,3.9,4.2c1.4,1.7,2.8,3.8,3.9,6.3
				c1.1,2.5,1.8,5.5,2.3,8.5c0.5,3.1,0.9,6.3,1.2,9.7c0.3,3.4,0.6,6.9,0.9,10.4c0.3,3.5,0.5,7.1,0.9,10.6c0.9,7.1,1.9,14.3,2.8,20.9
				c1,6.7,1.9,12.9,2.7,18.3c1.6,10.7,1.8,20,1.8,20L155.6,238.3z"/>
			<path class="st5" d="M164.3,245.5c0,0-0.1-4-0.2-15c-0.2-11-0.6-25.7-1.4-40.4c-0.2-3.7-0.5-7.3-0.8-10.9
				c-0.1-1.8-0.3-3.6-0.5-5.3c-0.2-1.7-0.4-3.4-0.7-5.2c-1.1-6.8-1.7-13.3-3.2-18.5c-0.8-2.6-1.8-4.9-3-6.7
				c-1.2-1.9-2.5-3.3-3.6-4.5c-1.1-1.1-2-2-2.7-2.6c-0.6-0.6-1-0.9-1-0.9s0.4,0.3,1,0.8c0.7,0.5,1.6,1.3,2.9,2.4
				c1.2,1.1,2.6,2.5,3.9,4.3c1.4,1.8,2.6,4.1,3.5,6.8c0.9,2.6,1.6,5.6,2.3,8.7c0.6,3.1,1.3,6.4,2,9.7c0.4,1.7,0.7,3.4,1,5.2
				c0.3,1.8,0.6,3.6,0.8,5.4c0.5,3.6,0.9,7.3,1.4,10.9c1.6,14.7,2.8,29.4,3.7,40.4c0.8,11,1.7,22.1,1.7,22.1L164.3,245.5z"/>
			<path class="st5" d="M171.4,254c0,0,0.5-5.9,1.1-16.3c0.5-10.4,1.3-24.4,1.8-38.3c0.1-3.5,0.3-7,0.2-10.3
				c-0.1-3.4-0.2-6.7-0.6-10c-0.4-3.2-1-6.3-1.8-9.1c-0.8-2.8-1.9-5.4-3-7.8c-2.3-4.6-5-8.1-7-10.4c-2-2.3-3.3-3.4-3.3-3.4
				s1.4,1.1,3.5,3.3c1.1,1.1,2.3,2.5,3.6,4.2c1.3,1.7,2.7,3.7,4,6c1.3,2.3,2.5,4.9,3.5,7.8c1,2.9,1.8,6,2.4,9.3
				c0.6,3.3,0.9,6.7,1.1,10.1c0.2,3.5,0.2,7,0.3,10.5c0.2,14,0.2,27.9,0.2,38.4c0,10.5,0,20.9,0,20.9L171.4,254z"/>
			<path class="st5" d="M179.3,260.7c0,0,0.5-3.4,1.9-13.6c1.4-10.2,3.2-23.9,4.7-37.6c0.4-3.4,0.7-6.8,1-10.2
				c0.3-3.4,0.6-6.7,0.6-9.9c0.1-3.2,0-6.3-0.1-9.3c-0.1-2.9-0.3-5.7-0.6-8.2c-0.4-2.5-0.9-4.8-1.7-6.7c-0.8-1.9-1.8-3.4-2.8-4.6
				c-0.5-0.6-0.9-1.1-1.4-1.4c-0.4-0.4-0.8-0.7-1.1-1c-0.6-0.5-1-0.8-1-0.8s0.4,0.2,1,0.7c0.3,0.2,0.8,0.5,1.2,0.9
				c0.5,0.4,1,0.8,1.5,1.4c1.1,1.1,2.2,2.6,3.2,4.5c1,1.9,1.7,4.2,2.3,6.8c0.6,2.6,0.9,5.4,1.2,8.3c0.3,3,0.6,6,0.8,9.4
				c0.2,3.3,0.1,6.6,0.1,10.1c-0.1,3.4-0.1,6.9-0.3,10.3c-0.5,13.8-1.3,27.6-1.9,38c-0.7,10.3-2,19.4-2,19.4L179.3,260.7z"/>
			<path class="st5" d="M186.9,269.9c0,0,4.3-26.7,8.3-55c0.5-3.5,1-7.1,1.5-10.6c0.5-3.5,1-6.9,1.3-10.2c0.6-6.6,0.6-12.8-0.8-17.9
				c-0.7-2.5-1.7-4.8-2.7-6.7c-1-1.9-2.1-3.4-3.1-4.7c-2-2.4-3.4-3.5-3.4-3.5s1.5,1,3.7,3.3c2.1,2.3,4.9,6,6.8,11.2
				c1.8,5.2,2.3,11.7,2.2,18.4c-0.1,3.4-0.3,6.9-0.5,10.4c-0.3,3.5-0.5,7.1-0.8,10.6c-2,28.5-5.3,62.5-5.3,62.5L186.9,269.9z"/>
			<path class="st5" d="M193.9,277.8c0,0,5.2-27.6,10.7-59.2c0.3-2,0.8-4,1-5.9c0.2-2,0.4-3.9,0.6-5.9c0.4-3.9,0.7-7.7,0.8-11.5
				c0.2-3.7,0.2-7.3,0.1-10.7c-0.1-3.4-0.4-6.6-1.4-9.3c-1.2-2.7-2.6-5-4-7c-1.5-1.9-3-3.4-4.3-4.5c-1.3-1.1-2.4-1.9-3.2-2.5
				c-0.8-0.5-1.2-0.8-1.2-0.8s0.4,0.3,1.2,0.8c0.8,0.5,2,1.2,3.4,2.3c1.4,1.1,3.1,2.4,4.7,4.3c1.6,1.8,3.2,4.2,4.6,6.9
				c1.3,2.9,1.7,6.2,2,9.7c0.3,3.5,0.5,7.1,0.5,10.9c0,3.8,0,7.7-0.2,11.6c-0.1,2-0.2,4-0.3,6c-0.1,2.1-0.4,4-0.6,6
				c-3.7,31.8-6.9,68.5-6.9,68.5L193.9,277.8z"/>
			<path class="st5" d="M200.7,286.6c0,0-0.2-5.2,2.1-17.7c2.3-12.5,5.4-29.1,8.8-45.7c0.4-2.1,0.9-4.2,1.3-6.2
				c0.5-2.1,1-4.1,1.4-6.1c0.8-4,1.4-8,1.7-11.9c0.3-3.9,0.3-7.6-0.2-11.2c-0.4-3.5-1.3-6.8-2.7-9.5c-0.7-1.4-1.6-2.6-2.3-3.8
				c-0.8-1.2-1.6-2.3-2.3-3.4c-1.5-2.1-2.9-3.8-4.1-5.2c-2.4-2.8-4-4.2-4-4.2s1.7,1.3,4.3,3.9c1.3,1.3,2.9,3,4.5,4.9
				c0.8,1,1.7,2.1,2.6,3.2c0.9,1.2,1.8,2.3,2.7,3.8c1.7,2.8,2.9,6.2,3.6,9.9c0.7,3.7,1,7.6,1,11.6c0,4-0.3,8.2-0.9,12.4
				c-0.3,2.1-0.7,4.2-1,6.2c-0.3,2.1-0.6,4.2-0.9,6.2c-2.2,16.7-4.1,33.5-5.6,46.1c-1.5,12.6-2.9,26.1-2.9,26.1L200.7,286.6z"/>
			<path class="st5" d="M206.5,296.3c0,0,0.4-6.7,3.8-19c1.7-6.1,3.7-13.3,5.8-21c1.1-3.8,2.2-7.8,3.3-11.8c1.1-4,2.3-8.2,3.3-12.1
				c0.9-4,1.7-8.2,2.3-12.3c0.6-4.1,1.1-8.2,1.5-12.1c0.4-3.9,0.6-7.7,0.5-11.3c0-1.8-0.1-3.5-0.4-5.2c-0.3-1.5-0.8-3.1-1.4-4.6
				c-1.2-2.9-2.6-5.4-3.9-7.7c-1.3-2.2-2.5-4.1-3.6-5.6c-1.1-1.5-1.9-2.7-2.5-3.5c-0.6-0.8-1-1.2-1-1.2s0.4,0.3,1.1,1.1
				c0.7,0.7,1.6,1.8,2.8,3.3c1.2,1.5,2.5,3.3,4,5.4c1.5,2.1,3.1,4.6,4.6,7.5c0.7,1.5,1.4,3,1.9,4.8c0.4,1.7,0.6,3.6,0.8,5.4
				c0.3,3.7,0.4,7.6,0.3,11.6c-0.1,4-0.3,8.2-0.6,12.4c-0.3,4.2-0.8,8.5-1.5,12.8c-0.8,4.4-1.7,8.4-2.4,12.6
				c-0.8,4.1-1.6,8.1-2.4,12.1c-1.6,7.8-3,15.1-4.3,21.4c-2.5,12.5-5.3,24.1-5.3,24.1L206.5,296.3z"/>
			<path class="st5" d="M212.3,304.6c0,0-0.3-5.5,2.7-15.3c2.9-9.7,6.9-22.7,10.7-35.6c0.9-3.2,1.9-6.5,2.8-9.7
				c0.9-3.2,1.6-6.3,2.3-9.4c1.2-6.2,1.9-12,2.1-17c0.1-2.5,0-4.8-0.2-6.9c-0.1-1-0.2-2-0.3-2.8c-0.2-0.9-0.3-1.7-0.5-2.4
				c-0.4-1.4-0.7-2.5-1-3.3c-0.3-0.7-0.4-1.1-0.4-1.1s0.2,0.4,0.5,1.1c0.4,0.7,0.8,1.8,1.3,3.2c0.2,0.7,0.4,1.5,0.7,2.4
				c0.2,0.9,0.4,1.8,0.6,2.9c0.3,2.1,0.6,4.4,0.8,6.9c0.3,5.1,0.1,11.1-0.7,17.5c-0.4,3.2-0.9,6.5-1.5,9.8c-0.6,3.3-1.3,6.6-2,9.9
				c-2.7,13.3-5.5,26.5-7.6,36.5c-2.1,9.9-4.9,20.5-4.9,20.5L212.3,304.6z"/>
			<path class="st5" d="M217.5,311.8c0,0,0.5-3.4,4.1-12.9c3.6-9.6,8.3-22.4,12.7-35.4c1.1-3.2,2.1-6.5,3.1-9.7
				c1-3.2,1.9-6.3,2.5-9.4c1.3-6.3,2.6-12.1,2.9-17.1c0.1-2.5,0-4.8-0.3-6.9c-0.3-2-0.8-3.8-1.3-5.2c-0.5-1.4-0.9-2.5-1.3-3.2
				c-0.3-0.7-0.5-1.1-0.5-1.1s0.2,0.4,0.6,1.1c0.4,0.7,0.9,1.8,1.6,3.1c0.6,1.4,1.3,3.1,1.7,5.2c0.5,2.1,0.8,4.4,0.9,7.1
				c0.2,5.2-0.6,11.3-1.3,17.6c-0.4,3.2-1,6.6-1.7,9.9c-0.7,3.3-1.5,6.7-2.3,10c-3.2,13.4-6.8,26.6-9.5,36.5
				c-2.8,9.9-5.9,21.1-5.9,21.1L217.5,311.8z"/>
			<path class="st5" d="M221.4,319.4c0,0,1.5-3.5,5.8-13.3c4.3-9.8,9.9-22.9,15.3-36.2c1.3-3.3,2.6-6.6,3.8-9.9
				c0.6-1.6,1.2-3.3,1.7-4.8c0.5-1.6,0.9-3.3,1.4-4.9c1.7-6.4,3-12.5,3.6-17.8c0.3-2.6,0.5-5.1,0.5-7.2c0-2.2-0.1-4-0.3-5.6
				c-0.2-1.5-0.4-2.8-0.6-3.6c-0.2-0.8-0.3-1.3-0.3-1.3s0.1,0.4,0.4,1.2c0.3,0.8,0.6,2,0.9,3.5c0.3,1.5,0.6,3.4,0.7,5.6
				c0.2,2.2,0.2,4.7,0.1,7.4c-0.2,5.4-1,11.7-2.2,18.3c-0.3,1.7-0.6,3.3-1,5.1c-0.4,1.8-0.8,3.5-1.3,5.2c-0.9,3.4-2,6.9-3,10.3
				c-4.3,13.7-8.8,27.3-12.3,37.5c-3.5,10.2-8.2,19.2-8.2,19.2L221.4,319.4z"/>
			<path class="st5" d="M226,327.1c0,0,1.8-2,6.2-10.9c4.3-8.9,10.1-20.8,15.4-32.9c1.3-3,2.6-6.1,3.8-9.1c0.6-1.5,1.2-3,1.8-4.5
				c0.6-1.5,1.1-2.9,1.6-4.4c0.5-1.5,1-2.9,1.3-4.3c0.4-1.4,0.7-2.8,1-4.2c0.6-2.8,1.1-5.4,1.6-7.9c0.5-2.4,0.9-4.7,1.1-6.6
				c0.2-2,0.3-3.7,0.3-5.2c0-1.4-0.2-2.6-0.3-3.3c-0.1-0.8-0.1-1.2-0.1-1.2s0.1,0.4,0.2,1.2c0.2,0.8,0.4,1.9,0.5,3.3
				c0.2,1.4,0.3,3.2,0.2,5.3c-0.1,2-0.3,4.3-0.6,6.8c-0.3,2.5-0.6,5.1-1,8c-0.3,2.8-0.9,5.9-1.7,8.9c-0.4,1.5-0.8,3.1-1.3,4.6
				c-0.4,1.6-0.9,3.1-1.4,4.7c-1,3.1-2.1,6.3-3.1,9.4c-4.4,12.6-9.1,25-12.7,34.3c-3.6,9.3-7.4,19.5-7.4,19.5L226,327.1z"/>
			<path class="st5" d="M267.2,241.5c0,0,0.1,0.4,0.2,1.2c0.1,0.8,0.3,1.9,0.3,3.4c0.2,3,0,7.2-0.6,12.3c-0.3,2.5-0.8,5.2-1.3,8.1
				c-0.3,1.4-0.6,2.9-0.9,4.4c-0.4,1.5-0.7,3-1.2,4.5c-0.9,3.1-1.9,6.2-3,9.4c-1.1,3.2-2.2,6.3-3.4,9.5
				c-4.7,12.7-9.7,25.3-13.5,34.7c-3.9,9.4-8.7,18.7-8.7,18.7l-4.2-10.1c0,0,1-3,5.6-11.9c4.6-9,10.7-21,16.4-33.1
				c1.4-3,2.8-6.1,4.2-9.1c1.3-3,2.6-6,3.7-8.9c0.6-1.4,1.1-2.9,1.6-4.3c0.5-1.4,0.9-2.8,1.3-4.2c0.8-2.8,1.5-5.4,2-7.9
				c1.1-4.9,1.6-9.1,1.7-12c0.1-1.5,0-2.6,0-3.4C267.3,241.9,267.2,241.5,267.2,241.5z"/>
			<path class="st5" d="M233.9,347.9c0,0,1.9-5.1,7.5-14.2c5.5-9.2,12.9-21.4,20.1-33.7c1.8-3.1,3.6-6.2,5.3-9.2
				c1.7-3,3.5-6.1,4.9-9c1.4-3.1,3-5.9,4.1-8.7c1.1-2.7,1.7-5.5,2-8.1c0.3-2.6,0.4-5.1,0.5-7.2c0-2.2,0-4.1,0-5.6
				c-0.1-3.1-0.1-4.9-0.1-4.9s0.2,1.8,0.6,4.9c0.2,1.6,0.3,3.4,0.5,5.6c0.1,2.2,0.3,4.7,0.2,7.4c-0.1,2.7-0.4,5.7-1.4,8.8
				c-0.9,3.1-2.3,6-3.4,9.1c-1.3,3.3-2.7,6.4-4.2,9.6c-1.5,3.2-3,6.4-4.5,9.7c-6.2,12.9-12.5,25.8-17.2,35.4
				c-4.8,9.6-10.2,20.1-10.2,20.1L233.9,347.9z"/>
			<path class="st5" d="M237.6,357.8c0,0,2.4-5.5,8.1-14c5.7-8.5,13.2-19.9,20.4-31.5c1.8-2.9,3.6-5.8,5.3-8.7
				c1.7-2.9,3.3-5.7,4.7-8.6c2.9-5.7,5.3-11.1,7-15.9c1.7-4.8,2.6-9,2.9-11.9c0.2-1.5,0.2-2.7,0.3-3.5c0-0.8,0-1.2,0-1.2
				s0,0.4,0.1,1.2c0,0.8,0.1,2,0,3.5c-0.1,3-0.6,7.3-2,12.3c-1.3,5-3.3,10.7-5.8,16.7c-1.2,3-2.6,6.1-4.1,9.1c-1.5,3-3,6.1-4.6,9.2
				c-6.3,12.2-12.9,24.2-17.8,33.2c-5,9-11.4,19.3-11.4,19.3L237.6,357.8z"/>
			<path class="st5" d="M239.5,363.1c0,0,1.1-2.7,7.2-11c6.1-8.3,14.2-19.4,22.1-30.5c2-2.8,4-5.6,5.8-8.3c0.4-0.7,0.9-1.3,1.3-2
				c0.4-0.7,0.8-1.4,1.2-2.1c0.8-1.4,1.6-2.8,2.3-4.2c3-5.6,5.6-11,7.7-15.7c1-2.3,1.9-4.5,2.7-6.5c0.7-1.9,1.3-3.7,1.7-5.1
				c0.4-1.4,0.7-2.6,0.9-3.4c0.2-0.8,0.2-1.2,0.2-1.2s0,0.4-0.1,1.2c-0.1,0.8-0.3,2-0.5,3.5c-0.3,1.5-0.7,3.3-1.2,5.3
				c-0.5,2-1.2,4.3-2,6.8c-1.6,4.9-3.6,10.6-6.1,16.6c-0.6,1.5-1.2,3-1.9,4.6c-0.3,0.8-0.7,1.5-1,2.3c-0.4,0.8-0.8,1.6-1.2,2.4
				c-1.6,3-3.3,6-5,9c-6.8,12-13.7,23.9-18.9,32.8c-5.2,8.9-12.6,16.9-12.6,16.9L239.5,363.1z"/>
			<path class="st5" d="M5.9,141.2c0,0,1.8,0.4,4.3,1.3c2.6,0.9,5.9,2.3,9.2,3.8c3.3,1.5,6.5,3.2,8.9,4.5c2.4,1.3,15.5,7.4,15.5,7.4
				l-2.4,1.9c0,0-12.6-5.1-14.7-6.6c-2.2-1.6-5.1-3.6-8.2-5.5c-3-1.9-6.2-3.7-8.6-4.9C7.6,141.8,5.9,141.2,5.9,141.2z"/>
			<polygon class="st5" points="57.7,168.1 0,157.2 47.9,162.5 			"/>
			<path class="st5" d="M66.3,173.1c0,0-7-0.2-12.5-1.2c-5.5-1-12.8-2.2-20.2-3.3c-3.7-0.5-7.4-1-10.8-1.5c-3.5-0.4-6.7-0.8-9.5-1
				c-1.4-0.1-2.7-0.2-3.8-0.3c-1.1-0.1-2.1-0.1-2.9-0.2c-1.6-0.1-2.6-0.1-2.6-0.1s0.9,0,2.6-0.1c0.8,0,1.8-0.1,2.9,0
				c1.1,0,2.4,0,3.8,0c2.8,0,6.1,0.1,9.6,0.3c3.5,0.2,7.2,0.4,11,0.7c7.5,0.5,14.9,1.2,20.5,1.8c5.6,0.6,8.1,2,8.1,2L66.3,173.1z"/>
			<path class="st5" d="M76.1,180c0,0-17.4-4.6-30.1-6.9c-6.4-1.1-12.8-2.1-17.6-2.6c-1.2-0.1-2.3-0.2-3.3-0.3
				c-1-0.1-1.8-0.1-2.5-0.1c-1.4,0-2.2,0-2.2,0s0.8,0,2.2-0.1c0.7-0.1,1.6-0.1,2.6-0.1c1,0,2.1,0,3.3,0c4.9,0.1,11.4,0.5,17.8,1.2
				c12.9,1.2,25.6,4.2,25.6,4.2L76.1,180z"/>
			<path class="st5" d="M87.8,186.1c0,0-21.4-4.2-38.6-6.8c-8.6-1.3-17.3-2.5-23.8-3.1c-1.6-0.2-3.1-0.3-4.4-0.3
				c-1.3-0.1-2.5-0.2-3.4-0.2c-1.9,0-3-0.1-3-0.1s1.1,0,3-0.1c1,0,2.1,0,3.4,0c1.3,0,2.8,0,4.5,0.1c6.6,0.3,15.3,1,24,1.9
				c17.4,1.8,31.7,3.9,31.7,3.9L87.8,186.1z"/>
			<polygon class="st5" points="98.3,192.9 8.3,179.4 89.4,187.1 			"/>
			<path class="st5" d="M118,206.5c0,0-31.4-4.6-57.4-7.5c-6.5-0.7-13-1.4-19.1-1.9c-3.1-0.3-6-0.5-8.8-0.7
				c-2.8-0.2-5.5-0.4-7.9-0.5c-2.5-0.1-4.7-0.2-6.7-0.3c-2,0-3.7,0-5.2,0c-1.4,0.1-2.5,0.1-3.3,0.2c-0.8,0-1.2,0.1-1.2,0.1
				s0.4,0,1.2-0.1c0.8-0.1,1.9-0.2,3.3-0.4c1.4-0.1,3.2-0.1,5.2-0.2c2,0,4.3,0,6.7-0.1c2.5,0,5.1,0.1,7.9,0.1
				c2.8,0.1,5.8,0.2,8.9,0.3c6.1,0.3,12.7,0.6,19.2,0.9c26.2,1.5,49.6,4.7,49.6,4.7L118,206.5z"/>
			<path class="st5" d="M124.1,211c0,0-30-4.4-55.4-7.3c-12.7-1.5-25.3-2.7-34.9-3.4c-2.4-0.2-4.6-0.3-6.5-0.4
				c-1.9-0.1-3.6-0.2-5-0.2c-2.8-0.1-4.4-0.2-4.4-0.2s1.6,0,4.4-0.1c1.4,0,3.1,0,5,0c1.9,0,4.1,0,6.5,0.1c9.6,0.2,22.3,0.8,35.1,1.5
				c25.5,1.6,47.6,3.7,47.6,3.7L124.1,211z"/>
			<path class="st5" d="M131.8,218c0,0-8.8-2-17.8-3.7c-4.5-0.8-9.7-1.7-15.3-2.6c-2.8-0.4-5.7-0.9-8.7-1.3c-3-0.4-6-0.8-9-1.2
				c-3-0.4-6-0.7-9-1c-3-0.3-5.9-0.5-8.8-0.7c-2.8-0.2-5.6-0.3-8.2-0.4c-2.6-0.1-5.1,0-7.4-0.1c-2.3-0.1-4.4,0.2-6.2,0.2
				c-0.9,0-1.8,0.1-2.6,0.1c-0.8,0.1-1.5,0.2-2.2,0.3c-2.6,0.3-4.2,0.5-4.2,0.5s1.5-0.3,4.1-0.7c0.7-0.1,1.4-0.2,2.2-0.4
				c0.8-0.1,1.7-0.2,2.6-0.3c1.9-0.2,3.9-0.5,6.2-0.5c2.3-0.1,4.8-0.3,7.4-0.3c2.6,0,5.4-0.1,8.3,0c2.9,0.1,5.8,0.1,8.8,0.3
				c3,0.1,6.1,0.3,9.1,0.5c3.1,0.2,6.1,0.4,9.1,0.7c3,0.2,5.9,0.6,8.8,0.9c5.7,0.6,11,1.3,15.6,1.9c9.1,1.2,10.9,1.7,10.9,1.7
				L131.8,218z"/>
			<path class="st5" d="M139.3,224.1c0,0-9.9-2-19.4-3.4c-9.5-1.4-22.3-3.1-35.1-4.5c-3.2-0.3-6.4-0.7-9.5-0.9
				c-3.2-0.3-6.3-0.5-9.3-0.7c-3-0.2-5.9-0.4-8.7-0.5c-2.8-0.2-5.4-0.2-7.8-0.2c-1.2,0-2.4-0.1-3.5,0c-1.1,0-2.1,0.1-3.1,0.1
				c-2,0.1-3.7,0.1-5.1,0.2c-2.8,0.2-4.4,0.4-4.4,0.4s1.6-0.2,4.4-0.6c1.4-0.2,3.1-0.3,5.1-0.5c1-0.1,2-0.2,3.1-0.3
				c1.1-0.1,2.3-0.1,3.5-0.2c2.4-0.1,5-0.2,7.8-0.2c2.8,0,5.7-0.1,8.7,0c3,0,6.2,0.1,9.3,0.2c3.2,0.1,6.4,0.2,9.6,0.4
				c12.9,0.6,25.8,1.6,35.4,2.5c9.6,0.9,11.5,1.1,11.5,1.1L139.3,224.1z"/>
			<path class="st5" d="M149,231.3c0,0-11.1-2.3-22-4.2c-2.7-0.4-5.7-0.9-8.8-1.4c-3.1-0.5-6.4-1-9.9-1.5c-3.4-0.5-7-1-10.6-1.4
				c-3.6-0.5-7.3-0.9-10.9-1.2c-3.7-0.4-7.3-0.7-11-1c-3.6-0.3-7.2-0.5-10.6-0.7c-3.5-0.2-6.8-0.2-10-0.3c-3.2,0-6.2,0-8.9,0
				c-2.8,0-5.3,0.3-7.6,0.4c-2.3,0.1-4.2,0.3-5.8,0.5c-3.2,0.4-5.1,0.6-5.1,0.6s1.8-0.3,5-0.8c1.6-0.3,3.5-0.6,5.8-0.7
				c2.2-0.2,4.8-0.5,7.6-0.6c2.8-0.1,5.8-0.3,9-0.4c3.2,0,6.5-0.1,10-0.1c3.5,0.1,7.1,0.1,10.7,0.3c3.6,0.2,7.4,0.3,11,0.6
				c3.7,0.2,7.4,0.5,11,0.8c3.6,0.3,7.2,0.6,10.7,1c3.5,0.3,6.8,0.7,10,1.1c3.2,0.4,6.2,0.8,8.9,1.1c11,1.5,14.7,2.1,14.7,2.1
				L149,231.3z"/>
			<path class="st5" d="M155.5,237.4c0,0-11.6-2.6-22.4-4.2c-5.4-0.8-11.7-1.7-18.5-2.5c-3.4-0.4-6.9-0.8-10.5-1
				c-1.8-0.2-3.6-0.3-5.4-0.4c-1.8-0.1-3.6-0.2-5.4-0.3c-3.6-0.2-7.3-0.1-10.9-0.1c-3.6,0-7.2-0.1-10.6-0.3
				c-6.9-0.3-13.3-0.9-18.7-1.5c-10.9-1.2-18.1-2.4-18.1-2.4s7.3,0.9,18.2,1.5c5.5,0.3,11.9,0.6,18.7,0.6c3.4,0,6.9-0.1,10.5-0.2
				c3.6-0.2,7.3-0.4,11-0.4c1.8,0,3.7,0,5.5,0c1.8,0,3.7,0.1,5.5,0.1c3.6,0.1,7.2,0.3,10.6,0.6c6.9,0.5,13.3,1.1,18.8,1.6
				c11,1.2,13.9,1.6,13.9,1.6L155.5,237.4z"/>
			<path class="st5" d="M161.2,243.4c0,0-10.2-2.3-21.2-4.1c-5.5-0.9-12-1.9-18.9-2.8c-3.5-0.4-7-0.9-10.7-1.2
				c-3.6-0.4-7.4-0.6-11.1-0.8c-7.4-0.4-14.9-0.4-21.9-0.4c-3.5,0-6.9,0.1-10.1,0.1c-3.2,0-6.3,0.1-9.1-0.1
				c-5.6-0.5-10.2-1.2-13.5-1.7c-3.2-0.5-5.1-0.8-5.1-0.8s1.9,0.2,5.1,0.6c3.2,0.3,7.9,0.9,13.5,1.1c2.8,0.1,5.8-0.1,9-0.2
				c3.2-0.2,6.6-0.3,10.1-0.5c7-0.3,14.5-0.6,22-0.5c3.8,0,7.5,0.2,11.2,0.4c3.7,0.2,7.3,0.5,10.8,0.8c7,0.6,13.5,1.4,19.1,2.1
				c11.2,1.4,14.9,2,14.9,2L161.2,243.4z"/>
			<path class="st5" d="M168.3,250.3c0,0-8.9-2.2-17.2-3.8c-8.3-1.5-19.5-3.5-30.6-5.2c-2.8-0.4-5.6-0.8-8.3-1.3
				c-2.8-0.4-5.5-0.8-8.1-1.1c-5.3-0.7-10.2-1.3-14.4-1.7c-2.1-0.2-4-0.4-5.8-0.5c-1.7-0.2-3.2-0.3-4.4-0.3
				c-2.5-0.1-3.9-0.2-3.9-0.2s1.4,0,3.9,0c1.2,0,2.7,0,4.5,0.1c1.7,0.1,3.7,0.1,5.8,0.2c4.2,0.2,9.2,0.4,14.5,0.8
				c2.6,0.2,5.4,0.4,8.2,0.6c2.8,0.2,5.6,0.5,8.4,0.7c11.3,1.1,22.5,2.3,31,3.4c8.4,1,11.2,1.2,11.2,1.2L168.3,250.3z"/>
			<path class="st5" d="M175.4,257.1c0,0-10.2-1.2-21.5-3.5c-5.6-1.1-12.2-2.4-19.3-3.7c-7.1-1.3-14.6-2.6-22.2-3.7
				c-3.8-0.5-7.5-1-11.3-1.1c-3.7-0.2-7.4-0.2-11-0.2c-7.2,0.1-13.9,0.4-19.7,0.4c-2.9,0-5.5,0-7.9-0.2c-2.3-0.2-4.4-0.4-6-0.8
				c-0.8-0.2-1.6-0.3-2.2-0.6c-0.6-0.2-1.2-0.4-1.5-0.6c-0.8-0.4-1.2-0.7-1.2-0.7s0.4,0.2,1.2,0.6c0.4,0.2,0.9,0.3,1.6,0.5
				c0.6,0.2,1.3,0.4,2.2,0.5c1.6,0.3,3.7,0.4,6,0.5c2.3,0,5-0.1,7.8-0.2c5.7-0.3,12.4-1,19.6-1.5c3.6-0.2,7.4-0.4,11.2-0.4
				c3.8,0,7.7,0.2,11.6,0.5c7.7,0.7,15.4,1.6,22.5,2.5c7.2,0.9,13.8,1.9,19.5,2.7c11.4,1.7,14.8,2.5,14.8,2.5L175.4,257.1z"/>
			<path class="st5" d="M180.7,262.8c0,0-9.2-0.5-18.5-2.2c-9.3-1.7-21.7-4-34.2-6c-3.1-0.5-6.2-1-9.3-1.3c-1.5-0.2-3-0.3-4.5-0.5
				c-1.5-0.1-3-0.2-4.5-0.3c-5.9-0.3-11.4-0.3-16.1-0.3c-4.7,0-8.7,0-11.4,0c-2.8,0-4.3-0.1-4.3-0.1s1.6,0,4.3-0.1
				c2.8-0.2,6.7-0.4,11.4-0.7c4.7-0.3,10.3-0.6,16.2-0.7c1.5,0,3,0,4.5,0c1.5,0,3.1,0.1,4.7,0.2c3.1,0.2,6.3,0.5,9.4,0.8
				c12.6,1.2,25.2,2.7,34.6,3.8c9.4,1.2,12.3,1.7,12.3,1.7L180.7,262.8z"/>
			<path class="st5" d="M186.9,269.9c0,0-8.6-1.2-18.2-3c-4.8-0.9-10.4-1.8-16.5-2.7c-3-0.4-6.2-0.9-9.3-1.2c-3.2-0.4-6.4-0.7-9.7-1
				c-3.2-0.3-6.5-0.5-9.7-0.6c-3.2-0.1-6.4-0.2-9.4-0.2c-6.1,0-11.8,0.2-16.8,0.3c-2.5,0-4.7,0-6.7-0.1c-2-0.1-3.7-0.2-5.2-0.5
				c-0.7-0.1-1.3-0.2-1.9-0.4c-0.5-0.1-1-0.2-1.4-0.4c-0.7-0.2-1.1-0.4-1.1-0.4s0.4,0.1,1.1,0.3c0.4,0.1,0.8,0.2,1.4,0.3
				c0.5,0.1,1.2,0.2,1.9,0.3c1.4,0.1,3.2,0.2,5.1,0.2c2,0,4.2-0.1,6.7-0.3c4.9-0.3,10.6-0.8,16.7-1.2c3.1-0.2,6.3-0.3,9.5-0.4
				c3.3-0.1,6.5-0.1,9.8,0c3.3,0.1,6.6,0.2,9.8,0.4c3.2,0.2,6.4,0.4,9.5,0.7c6.1,0.5,11.9,1.2,16.8,1.8c9.8,1.2,12.8,1.8,12.8,1.8
				L186.9,269.9z"/>
			<path class="st5" d="M194.1,279c0,0-4.1-0.8-4.6-1c-0.5-0.2-1.3-0.6-2.4-1c-1.1-0.4-2.4-0.9-3.9-1.5c-1.5-0.5-3.3-1.1-5.2-1.7
				c-1-0.3-2-0.6-3-0.9c-1.1-0.3-2.2-0.6-3.3-0.9c-2.2-0.6-4.7-1.1-7.1-1.7c-2.5-0.5-5.1-1-7.7-1.4c-2.7-0.4-5.3-0.9-8.1-1.2
				c-2.7-0.3-5.4-0.7-8.1-0.9c-2.7-0.2-5.3-0.5-7.9-0.7c-2.6-0.2-5-0.3-7.4-0.4c-2.4-0.1-4.6-0.1-6.6-0.2c-2.1-0.1-3.9-0.1-5.6-0.1
				c-1.7,0-3.1,0-4.3,0c-2.4,0-3.8,0-3.8,0s1.4-0.1,3.8-0.3c1.2-0.1,2.7-0.2,4.3-0.3c1.7-0.1,3.6-0.3,5.6-0.3
				c2.1-0.1,4.3-0.2,6.7-0.3c2.4,0,4.9-0.1,7.5-0.1c2.6-0.1,5.3,0,8,0.1c2.7,0,5.5,0.2,8.3,0.3c2.8,0.1,5.5,0.4,8.3,0.6
				c2.7,0.2,5.4,0.6,8,0.9c2.6,0.4,5.1,0.7,7.4,1.2c1.2,0.2,2.3,0.4,3.4,0.6c1.1,0.2,2.2,0.5,3.2,0.7c2.1,0.4,3.9,0.9,5.6,1.4
				c1.7,0.5,3.1,0.9,4.3,1.3c0,0-0.7-0.3,0,0c0.7,0.3,0,0,0,0L194.1,279z"/>
			<path class="st5" d="M199.9,285.6c0,0-3.3,0.2-3.8-0.1c-0.5-0.3-2.5-0.8-3.5-1.3c-2-1-5-2.2-8.6-3.5c-1.8-0.6-3.8-1.2-6-1.8
				c-2.1-0.5-4.4-1-6.8-1.4c-1.2-0.2-2.4-0.4-3.6-0.4c-0.6,0-1.2-0.1-1.9-0.1c-0.6,0-1.2,0-1.9,0c-2.6,0-5.3,0-8-0.1
				c-10.8-0.3-21.5-1.5-29.3-3.1c-2-0.4-3.8-0.8-5.3-1.2c-1.6-0.4-2.9-0.8-4-1.2c-1.1-0.4-2-0.7-2.5-1c-0.6-0.3-0.9-0.4-0.9-0.4
				s0.3,0.1,0.9,0.3c0.6,0.2,1.5,0.5,2.6,0.8c1.1,0.3,2.5,0.6,4.1,0.9c1.6,0.3,3.4,0.5,5.4,0.8c7.9,0.9,18.5,1.2,29.1,0.5
				c2.6-0.2,5.2-0.4,7.9-0.6c0.7,0,1.4-0.1,2-0.1c0.7,0,1.4,0,2,0c1.3,0,2.7,0,4,0.1c2.6,0.1,5.1,0.5,7.4,0.8
				c2.3,0.4,4.5,0.9,6.6,1.4c4,1,7.3,2.1,9.6,2.9c1.1,0.4-0.6-0.3,0,0c0.6,0.3,0,0,0,0L199.9,285.6z"/>
			<path class="st5" d="M205.3,294.6c0,0-3.8-0.1-5.8-0.8c-2-0.8-4.9-1.8-8.4-3c-3.5-1.2-7.6-2.5-12-3.7c-2.2-0.6-4.5-1.2-6.9-1.7
				c-2.3-0.5-4.7-1-7.1-1.3c-2.4-0.4-4.9-0.6-7.3-0.7c-2.4-0.2-4.8-0.3-7.1-0.4c-4.6-0.2-9-0.3-12.7-0.9c-1.9-0.3-3.5-0.6-5-0.9
				c-1.5-0.4-2.8-0.7-3.8-1c-1-0.3-1.8-0.6-2.4-0.8c-0.5-0.2-0.8-0.3-0.8-0.3s0.3,0.1,0.9,0.2c0.6,0.1,1.4,0.4,2.4,0.6
				c1.1,0.3,2.3,0.5,3.8,0.7c1.5,0.2,3.2,0.4,5,0.5c3.7,0.2,8,0.1,12.7-0.1c2.3-0.1,4.7-0.2,7.2-0.2c2.5,0,4.9,0,7.5,0.2
				c2.5,0.1,5,0.5,7.5,0.8c2.5,0.4,4.8,0.8,7.2,1.3c4.6,0.9,8.9,1.9,12.5,2.9c3.6,0.9,6.7,1.8,8.8,2.4l0,0L205.3,294.6z"/>
			<path class="st5" d="M210.3,300.4C210.3,300.4,214.8,300.2,210.3,300.4c-0.4-0.2-5.6-0.4-6.4-0.8c-1.7-0.8-4.1-2-7.1-3.2
				c-1.5-0.6-3.1-1.2-4.9-1.8c-1.8-0.6-3.6-1.2-5.6-1.7c-2-0.5-4-1-6.1-1.3c-1-0.2-2.1-0.3-3.2-0.5c-1.1-0.1-2.1-0.2-3.2-0.3
				c-4.3-0.4-8.7-0.1-12.9-0.1c-4.2,0-8.1-0.5-11.4-1c-3.3-0.6-6-1.2-7.9-1.6c-1.9-0.5-3-0.7-3-0.7s1.1,0.2,3,0.5
				c1.9,0.3,4.6,0.7,7.9,1c3.3,0.3,7.1,0.4,11.2,0.1c4.1-0.3,8.5-1,13.1-1c1.1,0,2.3,0,3.4,0.1c1.1,0.1,2.2,0.1,3.3,0.2
				c2.2,0.2,4.4,0.5,6.5,0.9c2.1,0.3,4.1,0.8,6,1.2c1.9,0.5,3.7,1,5.3,1.5c3.3,1,5.9,2,7.8,2.8c0,0-0.5-0.2,0,0c0.5,0.2,0,0,0,0
				L210.3,300.4z"/>
			<path class="st5" d="M214.5,307.7c0,0-3.1,0-4.7-0.7c-1.6-0.6-4-1.5-6.8-2.5c-2.8-1-6.1-2.1-9.7-3.2c-1.8-0.5-3.6-1-5.5-1.5
				c-0.9-0.2-1.9-0.4-2.8-0.6c-1-0.2-2-0.3-2.9-0.4c-3.9-0.5-8-0.5-11.8-0.9c-1.9-0.2-3.8-0.4-5.5-0.8c-1.7-0.3-3.3-0.8-4.8-1.2
				c-1.5-0.4-2.8-0.9-3.9-1.3c-1.1-0.5-2.2-0.8-3-1.2c-1.6-0.7-2.5-1.1-2.5-1.1s1,0.3,2.6,0.9c0.8,0.3,1.9,0.6,3.1,0.9
				c1.2,0.3,2.5,0.7,4,0.9c1.5,0.3,3.1,0.6,4.8,0.7c1.7,0.2,3.5,0.2,5.4,0.3c3.7,0,7.7-0.4,11.9-0.3c1.1,0,2.1,0.1,3.1,0.2
				c1.1,0.1,2.1,0.2,3.1,0.3c2,0.3,4,0.6,5.9,1c3.8,0.7,7.3,1.5,10.2,2.3c3,0.7,5.4,1.4,7.2,1.9c1.7,0.5,0,0,0,0L214.5,307.7z"/>
			<path class="st5" d="M220.6,317.1C220.6,317.1,223.4,316.8,220.6,317.1C220.5,317.1,220.7,317.2,220.6,317.1
				c-0.3-0.3-4.1-0.6-4.8-1.1c-1.5-0.9-3.6-2.2-6.4-3.4c-2.8-1.2-6.1-2.5-9.9-3.5c-0.9-0.3-1.9-0.5-2.8-0.7c-0.9-0.2-2-0.4-3-0.6
				c-1-0.2-2-0.3-3-0.5c-1-0.1-2-0.3-3.1-0.3c-4.1-0.4-8.4-0.4-12.4-0.8c-2-0.2-3.9-0.6-5.7-1c-0.9-0.2-1.8-0.5-2.6-0.7
				c-0.8-0.3-1.6-0.5-2.4-0.8c-1.5-0.6-2.9-1.1-4-1.6c-1.2-0.6-2.2-1-3-1.4c-1.6-0.9-2.6-1.4-2.6-1.4s1,0.4,2.7,1.1
				c0.8,0.4,1.9,0.7,3.1,1.2c1.2,0.5,2.6,0.8,4.1,1.3c0.8,0.2,1.6,0.4,2.4,0.6c0.8,0.1,1.7,0.3,2.6,0.5c1.8,0.2,3.6,0.4,5.6,0.4
				c3.9,0.1,8.1-0.3,12.4-0.3c1.1,0,2.2,0,3.2,0.1c1.1,0.1,2.2,0.1,3.2,0.3c1.1,0.1,2,0.2,3.1,0.4c1,0.2,2,0.3,3,0.5
				c4,0.7,7.7,1.8,10.8,2.8c3.1,1.1,5.6,2.2,7.4,3.1c0.9,0.5-0.5-0.3,0,0c0.3,0.2-0.6-0.4,0,0c0.1,0.1,0,0,0,0L220.6,317.1z"/>
			<path class="st5" d="M225.8,325.9c0,0-4.4-0.7-5.7-1.3c-1.3-0.6-3.2-1.5-5.5-2.5c-2.3-1-5-2.1-7.9-3.2c-2.9-1.1-6.1-2.3-9.2-3.3
				c-3.2-1-6.4-2-9.4-2.8c-1.5-0.4-3-0.8-4.4-1.1c-1.4-0.3-2.7-0.6-4-0.8c-1.2-0.2-2.4-0.4-3.4-0.6c-1-0.1-1.9-0.3-2.6-0.4
				c-1.5-0.2-2.3-0.3-2.3-0.3s0.8,0,2.3,0c0.7,0,1.6,0,2.7,0c1,0.1,2.2,0.1,3.5,0.2c1.3,0,2.6,0.2,4.1,0.3c1.5,0.1,3,0.3,4.6,0.5
				c3.2,0.4,6.5,0.9,9.9,1.6c3.3,0.6,6.7,1.4,9.8,2.1c3.1,0.8,6,1.5,8.5,2.3c2.5,0.7,4.5,1.4,5.9,1.8c1.4,0.5,0,0,0,0L225.8,325.9z"
				/>
			<path class="st5" d="M227.6,330.5c0,0-2.2,0.3-2.6,0.4c-0.4,0-1,0.1-1.7,0.1c-1.5,0.1-3.5,0.2-6,0.2c-2.5,0-5.3-0.1-8.4-0.2
				c-1.5-0.1-3.1-0.2-4.7-0.4c-1.6-0.2-3.2-0.4-4.8-0.6c-1.6-0.2-3.2-0.5-4.8-0.8c-1.6-0.3-3.1-0.6-4.6-1c-1.5-0.3-2.9-0.7-4.2-1.1
				c-1.3-0.4-2.6-0.7-3.7-1.2c-1.1-0.4-2.2-0.8-3.1-1.1c-0.9-0.4-1.7-0.7-2.3-1c-1.3-0.5-2-0.8-2-0.8s0.8,0.2,2.1,0.5
				c0.7,0.2,1.5,0.4,2.4,0.6c1,0.2,2,0.4,3.2,0.6c1.2,0.2,2.4,0.4,3.8,0.6c1.3,0.2,2.8,0.4,4.2,0.5c1.5,0.1,3,0.3,4.5,0.3
				c1.5,0.1,3.1,0.1,4.7,0.1c1.6,0,3.1,0,4.7-0.1c1.5,0,3.1-0.2,4.5-0.2c2.9-0.2,5.6-0.5,7.9-0.9c2.3-0.3,4.2-0.7,5.5-1
				c0.6-0.1,1.1-0.3,1.5-0.3c0.3-0.1,0.5-0.1,0.5-0.1L227.6,330.5z"/>
			<path class="st5" d="M230.2,338.7c0,0-0.1,0-0.4,0c-0.3,0-0.6,0.1-1,0.1c-0.8,0.1-2,0.1-3.4,0.1c-1.4,0-3-0.1-4.7-0.2
				c-1.7-0.2-3.5-0.4-5.2-0.8c-0.9-0.1-1.8-0.4-2.6-0.6c-0.9-0.2-1.7-0.5-2.5-0.7c-0.8-0.2-1.5-0.5-2.3-0.7c-0.7-0.2-1.4-0.5-2-0.8
				c-1.2-0.5-2.2-0.9-2.9-1.3c-0.7-0.3-1.1-0.5-1.1-0.5s0.4,0.1,1.2,0.2c0.7,0.1,1.8,0.3,3.1,0.4c0.6,0.1,1.3,0.1,2.1,0.1
				c0.7,0,1.5,0.1,2.3,0c0.8,0,1.6,0,2.4-0.1c0.8-0.1,1.6-0.1,2.5-0.2c1.6-0.2,3.3-0.4,4.8-0.8c1.5-0.3,2.9-0.7,4-1
				c1.1-0.3,2.1-0.7,2.7-0.9c0.3-0.1,0.5-0.2,0.6-0.3c0.2-0.1,0.2-0.1,0.2-0.1L230.2,338.7z"/>
			<path class="st5" d="M237.4,356.8c0,0-2.8-0.3-3.1-0.3c-0.3,0-0.7-0.1-1.3-0.1c-1-0.1-2.4-0.3-4-0.7c-1.6-0.3-3.5-0.8-5.5-1.5
				c-2-0.6-4-1.4-6-2.3c-1-0.4-2-0.9-2.9-1.4c-0.9-0.5-1.8-1-2.7-1.5c-0.9-0.5-1.7-1-2.4-1.5c-0.8-0.5-1.5-1-2.1-1.5
				c-1.3-0.9-2.3-1.8-2.9-2.4c-0.7-0.6-1.1-0.9-1.1-0.9s0.5,0.2,1.3,0.6c0.8,0.4,2,0.9,3.4,1.4c0.7,0.3,1.5,0.5,2.3,0.8
				c0.8,0.2,1.7,0.5,2.6,0.7c0.9,0.2,1.9,0.5,2.8,0.6c1,0.2,1.9,0.3,2.9,0.4c2,0.3,3.9,0.3,5.8,0.4c1.8,0,3.5-0.1,4.9-0.2
				c1.4-0.1,2.6-0.3,3.4-0.4c0.4-0.1,0.7-0.1,0.8-0.2c0.2,0,0.3-0.1,0.3-0.1L237.4,356.8z"/>
			<path class="st5" d="M240.6,367.8c0,0-2.2-0.7-3-0.9c-0.8-0.2-2-0.4-3.4-0.8c-2.8-0.7-6.4-1.8-9.9-3.2c-1.8-0.7-3.5-1.4-5.1-2.2
				c-0.8-0.4-1.6-0.7-2.3-1.1c-0.7-0.4-1.4-0.7-2-1.1c-1.2-0.7-2.2-1.3-2.8-1.8c-0.7-0.4-1.1-0.7-1.1-0.7s0.4,0.1,1.2,0.4
				c0.8,0.3,1.8,0.6,3.2,0.9c0.7,0.2,1.4,0.3,2.1,0.5c0.8,0.2,1.6,0.3,2.4,0.5c1.7,0.3,3.4,0.5,5.2,0.7c3.6,0.4,7.1,0.4,9.8,0.4
				c1.3,0,2.4-0.1,3.2-0.1c0.7-0.1,1.1-0.1,1.1-0.1L240.6,367.8z"/>
			<g>
				<path class="st6" d="M242.3,447.6c0,0,0.6-5.8,1-16c0.4-10.2,0.5-24.9-1-42.3c-0.4-4.4-0.9-8.9-1.6-13.6
					c-0.2-1.2-0.4-2.3-0.5-3.5l-0.3-1.8l-0.4-1.7c-0.3-1.2-0.5-2.4-0.8-3.6l-0.4-1.8l-0.5-1.8c-2.5-9.6-6.4-19.5-11.1-29.3
					c-4.7-9.9-10.4-19.7-16.6-29.3c-6.3-9.6-13.2-19.1-20.6-28.1c-7.4-9.1-15.3-17.6-23.6-25.7c-8.2-8.1-16.5-15.8-24.9-22.9
					c-8.4-7.1-16.7-13.6-24.9-19.5c-8.2-5.9-16-11.3-23.4-16c-3.7-2.4-7.2-4.7-10.6-6.8c-3.4-2.1-6.6-4.1-9.7-6
					c-6.1-3.7-11.5-6.9-15.9-9.5c-8.9-5.1-14-8-14-8l0.6-1.1c0,0,5.1,2.9,14.1,7.8c4.5,2.6,9.9,5.6,16.1,9.3
					c3.1,1.8,6.4,3.7,9.8,5.9c3.4,2.1,7,4.3,10.7,6.7c7.5,4.7,15.4,10,23.6,15.9c8.2,5.9,16.7,12.4,25.2,19.4
					c8.5,7.1,16.9,14.8,25.2,22.9c4.1,4,8.3,8.2,12.3,12.5c4,4.3,7.9,8.8,11.6,13.3c7.5,9.1,14.5,18.6,20.8,28.3
					c6.4,9.7,12.1,19.6,16.9,29.6c4.8,10,8.7,20,11.4,29.9l0.5,1.9l0.4,1.8c0.3,1.2,0.5,2.4,0.8,3.6l0.4,1.8l0.3,1.8
					c0.2,1.2,0.4,2.4,0.6,3.6c0.7,4.7,1.2,9.3,1.6,13.7c0.8,8.8,1.1,16.9,1.2,24.1c0.1,7.2,0,13.5-0.3,18.6
					c-0.4,10.3-1.1,16.2-1.1,16.2L242.3,447.6z"/>
			</g>
		</g>
	</g>
	<g class="st7">
		<g>
			<path class="st5" d="M19.4,143.9c2.4,1.3,4.8,2.7,7.1,4.1c2.3,1.4,4.7,2.9,7,4.4c2.3,1.5,4.6,3,6.8,4.6c1.1,0.8,2.2,1.6,3.4,2.5
				c0.6,0.5,1.1,0.9,1.7,1.5l0.8,0.9c0.3,0.3,0.6,0.9,0.9,1.3l0,0l3.1,5.2l-6-1.9c-3.2-1-6.5-2-9.8-2.9c-3.3-0.9-6.6-1.7-9.9-2.5
				c-3.3-0.7-6.7-1.4-10.1-1.9c-0.8-0.1-1.7-0.2-2.5-0.4c-0.8-0.1-1.7-0.2-2.6-0.3c-0.9-0.1-1.7-0.2-2.6-0.2l-2.6-0.2l2.6-0.1
				c0.9-0.1,1.7,0,2.6-0.1c0.9,0,1.7,0,2.6,0c0.9,0,1.7,0,2.6,0.1c3.5,0.1,6.9,0.4,10.3,0.8c3.4,0.4,6.9,0.8,10.3,1.3
				c3.4,0.5,6.8,1.1,10.3,1.7l-2.8,3.3l0,0c-0.1-0.1-0.1-0.2-0.2-0.4L42,164c-0.4-0.5-0.8-1-1.2-1.4c-0.9-1-1.8-1.9-2.8-2.8
				c-1.9-1.9-3.9-3.7-6-5.5c-2-1.8-4.1-3.6-6.2-5.3C23.7,147.2,21.6,145.5,19.4,143.9z"/>
			<path class="st5" d="M53.1,169.4c0,0-1.5,0-2.3-1.2c-0.8-1.2-1.2-1.7-2.7-3.6c-1.5-2-3.2-4.2-5.2-6.6c-2-2.4-4.1-4.9-6.4-7.2
				c-1.1-1.2-2.3-2.4-3.4-3.5c-1.1-1.2-2.4-2.2-3.5-3.2c-1.1-1-2.3-1.9-3.4-2.8c-1.1-0.9-2.2-1.6-3.2-2.3c-1-0.7-2-1.2-2.9-1.7
				c-0.4-0.2-0.8-0.5-1.2-0.7c-0.4-0.2-0.8-0.3-1.1-0.5c-1.3-0.6-2.1-0.9-2.1-0.9s0.8,0.3,2.2,0.7c0.3,0.1,0.7,0.2,1.2,0.4
				c0.4,0.1,0.8,0.4,1.3,0.6c0.9,0.4,2,0.8,3.1,1.5c1.1,0.6,2.3,1.2,3.5,2c1.2,0.8,2.5,1.6,3.8,2.5c1.3,0.9,2.6,1.9,3.9,2.9
				c1.3,1,2.6,2.1,3.8,3.2c2.5,2.2,5,4.5,7.2,6.7c2.2,2.2,4.2,4.4,5.9,6.2c1.7,1.9,3.1,3.4,4,4.6c1,1.1,3,5,3,5L53.1,169.4z"/>
			<path class="st5" d="M64.4,175.2c0,0-1.7-0.3-5.1-4.8C56,166,51.5,160,46.7,154.3C42,148.5,37.1,142.9,33,139
				c-2-1.9-3.9-3.4-5.2-4.2c-0.3-0.2-0.7-0.4-1-0.5c-0.3-0.1-0.5-0.3-0.7-0.3c-0.4-0.1-0.6-0.2-0.6-0.2s0.2,0.1,0.7,0.1
				c0.2,0,0.5,0.1,0.8,0.3c0.3,0.1,0.6,0.2,1,0.5c1.5,0.7,3.4,2.1,5.6,3.9c4.4,3.6,9.8,8.8,15,14.3c5.2,5.4,10.2,11,13.9,15.3
				c3.7,4.2,8.6,10.2,8.6,10.2L64.4,175.2z"/>
			<path class="st5" d="M73,180.6c0,0-0.9-0.4-3.2-5.5c-3.6-5.5-7.6-12.4-12.7-19.5c-1.3-1.8-2.6-3.5-3.9-5.2
				c-0.7-0.9-1.3-1.6-2-2.4c-0.7-0.7-1.5-1.5-2.2-2.2c-3-2.8-6-5.1-8.6-7.1c-2.6-1.9-4.9-3.4-6.6-4.4c-0.8-0.5-1.5-0.8-2-1.1
				c-0.5-0.2-0.7-0.3-0.7-0.3s0.3,0.1,0.7,0.3c0.5,0.2,1.2,0.5,2,0.9c1.7,0.9,4.1,2.2,6.9,4c2.8,1.8,5.9,4,9.1,6.6
				c0.8,0.7,1.6,1.4,2.4,2.1c0.8,0.8,1.5,1.6,2.2,2.4c1.5,1.6,2.9,3.3,4.2,5c5.5,6.8,10.8,13.9,14.8,19.1c3.9,5.3,8.4,12.1,8.4,12.1
				L73,180.6z"/>
			<path class="st5" d="M83.8,187.7c0,0,0,0-4.1-6.2c-2-3.1-4.4-6.8-6.8-10.8c-1.2-2-2.4-4.1-3.5-6.5c-1-2.4-1.9-4.4-3-6.6
				c-2.3-4.3-4.8-8.5-7.3-12.3c-1.3-1.9-2.6-3.7-3.8-5.4c-1.3-1.7-2.5-3.2-3.8-4.6c-1.2-1.4-2.4-2.5-3.5-3.6
				c-0.6-0.5-1.1-0.9-1.6-1.3c-0.5-0.4-1-0.7-1.5-1c-0.9-0.6-1.7-1-2.2-1.2c-0.5-0.2-0.8-0.4-0.8-0.4s0.3,0.1,0.8,0.3
				c0.5,0.2,1.4,0.5,2.3,1.1c0.5,0.3,1,0.5,1.5,0.9c0.5,0.4,1.1,0.8,1.7,1.2c1.2,0.9,2.5,2,3.8,3.3c1.4,1.3,2.7,2.8,4.2,4.3
				c1.4,1.6,2.8,3.3,4.3,5.2c2.9,3.7,5.7,7.7,8.3,12c1.3,2.1,2.6,4.5,3.6,6.5c1.1,2,2.4,4,3.7,5.8c2.6,3.7,5.2,7.2,7.4,10.1
				c4.5,5.8,9.8,13.3,9.8,13.3L83.8,187.7z"/>
			<path class="st5" d="M95,193.8C95,193.8,95.3,194.4,95,193.8C94.8,193.2,95.5,194.9,95,193.8c-1-2.3-1.6-3.2-3.8-6.8
				c-0.6-0.9-1.2-1.8-1.8-2.7c-0.4-0.5-0.7-1-1.1-1.5l-0.5-0.8l-0.6-0.9c-1.5-2.3-2.8-4.7-4.1-7.2c-1.3-2.5-2.6-5.1-3.8-7.8
				c-1.2-2.7-2.4-5.5-3.6-8.1c-2.4-5.2-5.4-10.3-8.6-14.7c-1.6-2.2-3.3-4.3-5-6.1c-1.7-1.9-3.4-3.5-5-5c-0.8-0.7-1.7-1.4-2.4-2
				c-0.8-0.6-1.6-1.1-2.3-1.7c-1.4-1.1-2.9-1.7-4-2.4c-1.2-0.6-2.1-1-2.7-1.3c-0.6-0.3-1-0.4-1-0.4s0.3,0.1,1,0.4
				c0.6,0.2,1.6,0.6,2.8,1c1.2,0.6,2.6,1.2,4.2,2.1c0.8,0.5,1.6,1,2.5,1.5c0.8,0.6,1.7,1.2,2.6,1.8c1.8,1.3,3.7,2.9,5.6,4.6
				c1.9,1.8,3.8,3.7,5.6,5.8c3.7,4.3,7.2,9.2,10.2,14.5c1.4,2.7,2.8,5.2,4.2,7.8c1.4,2.5,2.9,4.9,4.3,7.2c1.4,2.3,2.9,4.5,4.4,6.3
				l0.5,0.7l0.6,0.7c0.4,0.5,0.8,0.9,1.2,1.4c0.8,1,1.6,1.9,2.3,2.9c1.5,2.2,2.2,4.6,3.6,7c0.7,1.2,2.4,5,2.7,5.6
				c0.3,0.7,1.7,4,1.7,4L95,193.8z"/>
			<path class="st5" d="M56.5,122.7c1.8,0.9,3.6,1.8,5.2,3c1.7,1.1,3.3,2.3,4.8,3.6c1.5,1.3,3,2.7,4.5,4.1c1.4,1.4,2.8,2.9,4.2,4.4
				c1.3,1.5,2.6,3.1,3.9,4.7c1.2,1.6,2.4,3.2,3.5,5c1.1,1.7,2.1,3.5,3,5.4c0.9,2,1.5,3.8,2.3,5.6c3.2,7.2,7.2,14.2,11.3,21l3.1,5.1
				c1.1,1.7,2.1,3.6,3.1,5.4c0.9,1.9,1.8,3.8,2.5,5.7c0.7,2,1.4,3.9,1.9,6.1l0,0l0.7,3.6l-3.6-0.7c-8-1.6-16.1-3-24.2-4.3
				c-8.1-1.4-16.2-2.6-24.4-3.7c-4.1-0.6-8.1-1.1-12.2-1.6l-6.1-0.7c-2-0.2-4.1-0.4-6.1-0.6c-2-0.2-4.1-0.4-6.1-0.5
				c-2-0.1-4.1-0.3-6.2-0.4l-6.2-0.3l-6.2,0l6.2-0.3l6.2-0.1c2.1,0,4.1,0.1,6.2,0.1c2.1,0,4.1,0.1,6.2,0.2c2.1,0.1,4.1,0.2,6.2,0.3
				l6.2,0.4c4.1,0.3,8.2,0.6,12.3,1c8.2,0.7,16.4,1.5,24.6,2.5c8.2,0.9,16.4,2,24.6,3.1l-2.9,2.9l0,0c-0.3-1.7-0.8-3.6-1.4-5.4
				c-0.6-1.8-1.3-3.6-2.1-5.4c-0.8-1.8-1.6-3.5-2.6-5.2l-2.9-5.3c-3.8-7.1-7.4-14.3-10.4-21.9c-0.7-1.9-1.3-3.9-2-5.7
				c-0.7-1.8-1.6-3.5-2.6-5.2c-1-1.7-2.1-3.4-3.2-5c-1.1-1.6-2.3-3.2-3.6-4.8c-1.2-1.6-2.5-3.1-3.9-4.5c-1.3-1.5-2.7-2.9-4.2-4.3
				c-1.5-1.4-3-2.7-4.6-3.9C60,124.7,58.3,123.6,56.5,122.7z"/>
			<path class="st5" d="M113.3,206.7C113,205.7,113.7,207.8,113.3,206.7c-0.4-1.1-0.8-2.1-1.2-3.2c-0.8-2.1-1.8-4.1-2.8-6.1
				c-0.5-1-1.1-1.9-1.7-2.9l-0.4-0.7l-0.5-0.8c-0.3-0.5-0.6-0.9-0.9-1.5l-0.9-1.7l-0.8-1.6c-0.5-1.1-1-2.2-1.5-3.3
				c-1.9-4.3-3.7-8.7-5.3-13.1c-1.7-4.4-3.3-8.8-4.8-13.3l0,0.1c-2.8-6.2-5.8-12.4-9-18.5c-0.8-1.5-1.6-3-2.5-4.5
				c-0.4-0.7-0.9-1.5-1.3-2.2c-0.5-0.7-0.9-1.5-1.4-2.2l-1.4-2.1l-1.5-2.1c-0.5-0.7-1.1-1.3-1.7-2c-0.6-0.6-1.2-1.2-1.9-1.8
				c0.7,0.6,1.4,1.1,2,1.7c0.6,0.6,1.2,1.2,1.8,1.9l1.7,2l1.6,2.1c0.5,0.7,1,1.4,1.5,2.1c0.5,0.7,1,1.4,1.5,2.1
				c1,1.4,1.9,2.9,2.8,4.3c3.6,5.9,7,11.9,10.2,18l0,0l0,0.1c1.8,4.3,3.7,8.6,5.6,12.8c1.9,4.2,3.9,8.5,6.1,12.6c0.6,1,1.1,2,1.6,3
				l0.8,1.5l0.8,1.3c0.2,0.4,0.7,0.9,1,1.4l0.5,0.6l0.6,0.7c0.7,1,1.4,2,2.1,3.1c1.3,2.1,2.5,4.2,3.5,6.4c0.5,1.1,1,2.2,1.5,3.3
				c0.5,1.1,0.7,5.2,1.1,6.4L113.3,206.7z"/>
			<path class="st5" d="M121.6,212c0,0-2.8-4-6.2-13.5c-0.8-2.4-1.8-5-2.7-7.7c-0.9-2.8-1.8-5.7-2.6-8.8c-0.7-3.1-1.6-6-2.7-9.1
				c-1.1-3.1-2.4-6.1-3.8-9.2c-1.3-3.1-2.8-6.1-4.3-9c-1.5-2.9-3-5.8-4.6-8.5c-1.6-2.7-3.1-5.3-4.8-7.6c-1.6-2.4-3.4-4.4-5-6.3
				c-3.2-3.9-5.8-7.1-7.9-9.2c-1-1-1.9-1.8-2.6-2.2c-0.6-0.5-1-0.7-1-0.7s0.4,0.2,1,0.6c0.7,0.4,1.6,1.1,2.7,2.1
				c2.2,2,4.9,5.2,8.3,8.9c1.7,1.9,3.6,3.8,5.3,6.2c1.8,2.3,3.5,4.8,5.2,7.5c1.7,2.7,3.3,5.5,5,8.4c1.6,2.9,3.2,5.9,4.7,8.9
				c1.5,3,3,6.1,4.2,9.1c1.3,3,2.5,6.3,3.2,9.3c0.9,2.9,1.9,5.8,2.9,8.4c1,2.7,2,5.2,3,7.5c3.8,9.3,8.6,19.4,8.6,19.4L121.6,212z"/>
			<path class="st5" d="M127.5,216.9L127.5,216.9c-0.9-2.9-2.1-7.1-3.5-12.2c-0.7-2.5-1.4-5.3-2-8.3c-0.6-2.9-1.3-6-1.9-9.2
				c-1.3-6.4-2.8-13.1-4.5-19.8c-0.8-3.3-1.8-6.7-2.7-9.9c-1-3.2-2-6.4-3.3-9.3c-1.3-3-2.7-5.7-4.1-8.4c-1.4-2.6-2.8-5.1-4.1-7.3
				c-2.6-4.5-4.8-8.3-6.3-10.9c-1.5-2.6-2.2-4.2-2.2-4.2s0.8,1.5,2.5,4.1c1.7,2.5,4.1,6.1,7,10.5c1.4,2.2,3,4.5,4.6,7.1
				c1.6,2.5,3.2,5.3,4.7,8.2c1.6,3,2.8,6.1,4.1,9.3c1.2,3.2,2.4,6.5,3.4,9.9c2.2,6.6,4.1,13.3,5.9,19.6c0.9,3.1,1.7,6.1,2.5,9
				c0.8,2.8,1.7,5.5,2.5,7.9c1.7,4.9,3.2,8.9,4.2,11.7c1.1,2.8,0.7,7.7,0.7,7.7L127.5,216.9z"/>
			<path class="st5" d="M136.3,224.1c0,0,0.3,1.4-0.4-1.6c-0.7-3-1.6-7.2-2.6-12.4c-0.5-2.6-1-5.4-1.5-8.3c-0.5-3-0.9-6-1.5-9.2
				c-1.2-6.3-2.7-13.1-4.2-19.8c-1.5-6.8-3.1-13.5-4.5-19.8c-0.7-3.2-1.5-6.1-2.4-8.9c-0.9-2.8-2-5.4-3.1-7.7
				c-2.1-4.7-4.4-8.4-6.2-10.8c-0.9-1.2-1.6-2.1-2.2-2.7c-0.5-0.6-0.8-0.9-0.8-0.9s0.3,0.3,0.9,0.9c0.6,0.6,1.4,1.5,2.3,2.6
				c1.9,2.3,4.5,5.9,6.9,10.5c1.2,2.3,2.4,4.9,3.6,7.7c1.1,2.8,2.2,5.8,3,9c1.8,6.2,3.7,12.9,5.7,19.5c1.9,6.7,3.8,13.3,5.4,19.7
				c0.8,3.2,1.5,6.4,2.1,9.2c0.6,2.9,1.3,5.6,1.9,8.1c1.3,5,2.4,9.2,3.2,12.1c0.8,2.9,1.6,7.2,1.6,7.2L136.3,224.1z"/>
			<path class="st5" d="M144.5,230.8c0,0-0.9-4.9-2.8-16c-1-5.5-2.1-12-3.3-18.9c-0.6-3.5-1.2-7.1-1.7-10.7c-0.5-3.7-1-7.4-1.5-11.1
				c-0.5-3.7-1-7.4-1.5-11.1c-0.6-3.6-1.2-7.2-2.3-10.4c-1.2-3.2-2.7-6.2-4.2-9.1c-1.5-2.8-3-5.5-4.4-7.9c-1.4-2.4-2.9-4.5-4.2-6.4
				c-1.4-1.8-2.6-3.4-3.7-4.6c-0.5-0.6-1.1-1.1-1.5-1.6c-0.4-0.4-0.8-0.8-1.2-1.1c-0.7-0.6-1-0.9-1-0.9s0.4,0.3,1.1,0.8
				c0.4,0.3,0.8,0.6,1.2,1c0.5,0.4,1,0.9,1.6,1.5c1.2,1.1,2.5,2.7,3.9,4.4c1.4,1.8,3,3.9,4.5,6.2c1.6,2.3,3.2,4.9,4.8,7.7
				c1.6,2.8,3.3,5.8,4.7,9.1c1.3,3.4,2.1,7,2.8,10.6c0.7,3.6,1.4,7.3,2,11c0.7,3.7,1.3,7.4,2,11c0.7,3.6,1.4,7.1,2.2,10.6
				c1.5,6.9,2.9,13.3,4.2,18.7c2.4,11,4.9,21.8,4.9,21.8L144.5,230.8z"/>
			<path class="st5" d="M152.1,237.7c0,0-4-29.5-8-60.7c-0.5-3.9-1-7.8-1.4-11.7c-0.2-1.9-0.4-3.9-0.5-5.8c-0.1-1.9-0.4-3.7-0.7-5.5
				c-0.6-3.6-1.7-7-3-10c-1.3-3.1-3-5.8-4.8-8.1c-3.6-4.6-7.7-7.5-10.6-9.2c-2.9-1.8-4.8-2.4-4.8-2.4s1.9,0.6,4.9,2.3
				c1.5,0.8,3.3,1.9,5.2,3.4c1.9,1.5,4,3.3,5.9,5.6c1.9,2.3,3.7,5,5.2,8.1c1.5,3.1,2.7,6.5,3.5,10.2c0.4,1.8,0.7,3.7,0.9,5.6
				c0.2,2,0.4,3.8,0.7,5.7c0.6,3.8,1.2,7.7,1.8,11.6c5.1,31,10.8,64,10.8,64L152.1,237.7z"/>
			<path class="st5" d="M157.6,242.7c0,0,1.1-3.7,0-14.4c-0.5-5.4-1.1-11.7-1.8-18.4c-0.6-6.7-1.3-13.9-1.9-21.1
				c-0.3-3.6-0.3-7.3-0.4-10.8c-0.1-3.5-0.2-7-0.4-10.4c-0.2-3.4-0.4-6.6-0.8-9.7c-0.4-3.1-0.8-5.9-1.8-8.4c-1-2.5-2.3-4.6-3.6-6.3
				c-1.3-1.8-2.6-3.2-3.7-4.3c-2.2-2.3-3.7-3.3-3.7-3.3s1.5,1,3.9,3.1c1.2,1.1,2.5,2.5,3.9,4.2c1.4,1.7,2.8,3.8,3.9,6.3
				c1.1,2.5,1.8,5.5,2.3,8.5c0.5,3.1,0.9,6.3,1.2,9.7c0.3,3.4,0.6,6.9,0.9,10.4c0.3,3.5,0.5,7.1,0.9,10.6c0.9,7.1,1.9,14.3,2.8,20.9
				c1,6.7,1.9,12.9,2.7,18.3c1.6,10.7,1.8,20,1.8,20L157.6,242.7z"/>
			<path class="st5" d="M166.3,249.9c0,0-0.1-4-0.2-15c-0.2-11-0.6-25.7-1.4-40.4c-0.2-3.7-0.5-7.3-0.8-10.9
				c-0.1-1.8-0.3-3.6-0.5-5.3c-0.2-1.7-0.4-3.4-0.7-5.2c-1.1-6.8-1.7-13.3-3.2-18.5c-0.8-2.6-1.8-4.9-3-6.7
				c-1.2-1.9-2.5-3.3-3.6-4.5c-1.1-1.1-2-2-2.7-2.6c-0.6-0.6-1-0.9-1-0.9s0.4,0.3,1,0.8c0.7,0.5,1.6,1.3,2.9,2.4
				c1.2,1.1,2.6,2.5,3.9,4.3c1.4,1.8,2.6,4.1,3.5,6.8c0.9,2.6,1.6,5.6,2.3,8.7c0.6,3.1,1.3,6.4,2,9.7c0.4,1.7,0.7,3.4,1,5.2
				c0.3,1.8,0.6,3.6,0.8,5.4c0.5,3.6,0.9,7.3,1.4,10.9c1.6,14.7,2.8,29.4,3.7,40.4c0.8,11,1.7,22.1,1.7,22.1L166.3,249.9z"/>
			<path class="st5" d="M173.4,258.4c0,0,0.5-5.9,1.1-16.3c0.5-10.4,1.3-24.4,1.8-38.3c0.1-3.5,0.3-7,0.2-10.3
				c-0.1-3.4-0.2-6.7-0.6-10c-0.4-3.2-1-6.3-1.8-9.1c-0.8-2.8-1.9-5.4-3-7.8c-2.3-4.6-5-8.1-7-10.4c-2-2.3-3.3-3.4-3.3-3.4
				s1.4,1.1,3.5,3.3c1.1,1.1,2.3,2.5,3.6,4.2c1.3,1.7,2.7,3.7,4,6c1.3,2.3,2.5,4.9,3.5,7.8c1,2.9,1.8,6,2.4,9.3
				c0.6,3.3,0.9,6.7,1.1,10.1c0.2,3.5,0.2,7,0.3,10.5c0.2,14,0.2,27.9,0.2,38.4c0,10.5,0,20.9,0,20.9L173.4,258.4z"/>
			<path class="st5" d="M181.3,265.1c0,0,0.5-3.4,1.9-13.6c1.4-10.2,3.2-23.9,4.7-37.6c0.4-3.4,0.7-6.8,1-10.2
				c0.3-3.4,0.6-6.7,0.6-9.9c0.1-3.2,0-6.3-0.1-9.3c-0.1-2.9-0.3-5.7-0.6-8.2c-0.4-2.5-0.9-4.8-1.7-6.7c-0.8-1.9-1.8-3.4-2.8-4.6
				c-0.5-0.6-0.9-1.1-1.4-1.4c-0.4-0.4-0.8-0.7-1.1-1c-0.6-0.5-1-0.8-1-0.8s0.4,0.2,1,0.7c0.3,0.2,0.8,0.5,1.2,0.9
				c0.5,0.4,1,0.8,1.5,1.4c1.1,1.1,2.2,2.6,3.2,4.5c1,1.9,1.7,4.2,2.3,6.8c0.6,2.6,0.9,5.4,1.2,8.3c0.3,3,0.6,6,0.8,9.4
				c0.2,3.3,0.1,6.6,0.1,10.1c-0.1,3.4-0.1,6.9-0.3,10.3c-0.5,13.8-1.3,27.6-1.9,38c-0.7,10.3-2,19.4-2,19.4L181.3,265.1z"/>
			<path class="st5" d="M188.9,274.3c0,0,4.3-26.7,8.3-55c0.5-3.5,1-7.1,1.5-10.6c0.5-3.5,1-6.9,1.3-10.2c0.6-6.6,0.6-12.8-0.8-17.9
				c-0.7-2.5-1.7-4.8-2.7-6.7c-1-1.9-2.1-3.4-3.1-4.7c-2-2.4-3.4-3.5-3.4-3.5s1.5,1,3.7,3.3c2.1,2.3,4.9,6,6.8,11.2
				c1.8,5.2,2.3,11.7,2.2,18.4c-0.1,3.4-0.3,6.9-0.5,10.4c-0.3,3.5-0.5,7.1-0.8,10.6c-2,28.5-5.3,62.5-5.3,62.5L188.9,274.3z"/>
			<path class="st5" d="M195.9,282.2c0,0,5.2-27.6,10.7-59.2c0.3-2,0.8-4,1-5.9c0.2-2,0.4-3.9,0.6-5.9c0.4-3.9,0.7-7.7,0.8-11.5
				c0.2-3.7,0.2-7.3,0.1-10.7c-0.1-3.4-0.4-6.6-1.4-9.3c-1.2-2.7-2.6-5-4-7c-1.5-1.9-3-3.4-4.3-4.5c-1.3-1.1-2.4-1.9-3.2-2.5
				c-0.8-0.5-1.2-0.8-1.2-0.8s0.4,0.3,1.2,0.8c0.8,0.5,2,1.2,3.4,2.3c1.4,1.1,3.1,2.4,4.7,4.3c1.6,1.8,3.2,4.2,4.6,6.9
				c1.3,2.9,1.7,6.2,2,9.7c0.3,3.5,0.5,7.1,0.5,10.9c0,3.8,0,7.7-0.2,11.6c-0.1,2-0.2,4-0.3,6c-0.1,2.1-0.4,4-0.6,6
				c-3.7,31.8-6.9,68.5-6.9,68.5L195.9,282.2z"/>
			<path class="st5" d="M202.7,291c0,0-0.2-5.2,2.1-17.7c2.3-12.5,5.4-29.1,8.8-45.7c0.4-2.1,0.9-4.2,1.3-6.2c0.5-2.1,1-4.1,1.4-6.1
				c0.8-4,1.4-8,1.7-11.9c0.3-3.9,0.3-7.6-0.2-11.2c-0.4-3.5-1.3-6.8-2.7-9.5c-0.7-1.4-1.6-2.6-2.3-3.8c-0.8-1.2-1.6-2.3-2.3-3.4
				c-1.5-2.1-2.9-3.8-4.1-5.2c-2.4-2.8-4-4.2-4-4.2s1.7,1.3,4.3,3.9c1.3,1.3,2.9,3,4.5,4.9c0.8,1,1.7,2.1,2.6,3.2
				c0.9,1.2,1.8,2.3,2.7,3.8c1.7,2.8,2.9,6.2,3.6,9.9c0.7,3.7,1,7.6,1,11.6c0,4-0.3,8.2-0.9,12.4c-0.3,2.1-0.7,4.2-1,6.2
				c-0.3,2.1-0.6,4.2-0.9,6.2c-2.2,16.7-4.1,33.5-5.6,46.1c-1.5,12.6-2.9,26.1-2.9,26.1L202.7,291z"/>
			<path class="st5" d="M208.5,300.7c0,0,0.4-6.7,3.8-19c1.7-6.1,3.7-13.3,5.8-21c1.1-3.8,2.2-7.8,3.3-11.8c1.1-4,2.3-8.2,3.3-12.1
				c0.9-4,1.7-8.2,2.3-12.3c0.6-4.1,1.1-8.2,1.5-12.1c0.4-3.9,0.6-7.7,0.5-11.3c0-1.8-0.1-3.5-0.4-5.2c-0.3-1.5-0.8-3.1-1.4-4.6
				c-1.2-2.9-2.6-5.4-3.9-7.7c-1.3-2.2-2.5-4.1-3.6-5.6c-1.1-1.5-1.9-2.7-2.5-3.5c-0.6-0.8-1-1.2-1-1.2s0.4,0.3,1.1,1.1
				c0.7,0.7,1.6,1.8,2.8,3.3c1.2,1.5,2.5,3.3,4,5.4c1.5,2.1,3.1,4.6,4.6,7.5c0.7,1.5,1.4,3,1.9,4.8c0.4,1.7,0.6,3.6,0.8,5.4
				c0.3,3.7,0.4,7.6,0.3,11.6c-0.1,4-0.3,8.2-0.6,12.4c-0.3,4.2-0.8,8.5-1.5,12.8c-0.8,4.4-1.7,8.4-2.4,12.6
				c-0.8,4.1-1.6,8.1-2.4,12.1c-1.6,7.8-3,15.1-4.3,21.4c-2.5,12.5-5.3,24.1-5.3,24.1L208.5,300.7z"/>
			<path class="st5" d="M214.3,309.1c0,0-0.3-5.5,2.7-15.3c2.9-9.7,6.9-22.7,10.7-35.6c0.9-3.2,1.9-6.5,2.8-9.7
				c0.9-3.2,1.6-6.3,2.3-9.4c1.2-6.2,1.9-12,2.1-17c0.1-2.5,0-4.8-0.2-6.9c-0.1-1-0.2-2-0.3-2.8c-0.2-0.9-0.3-1.7-0.5-2.4
				c-0.4-1.4-0.7-2.5-1-3.3c-0.3-0.7-0.4-1.1-0.4-1.1s0.2,0.4,0.5,1.1c0.4,0.7,0.8,1.8,1.3,3.2c0.2,0.7,0.4,1.5,0.7,2.4
				c0.2,0.9,0.4,1.8,0.6,2.9c0.3,2.1,0.6,4.4,0.8,6.9c0.3,5.1,0.1,11.1-0.7,17.5c-0.4,3.2-0.9,6.5-1.5,9.8c-0.6,3.3-1.3,6.6-2,9.9
				c-2.7,13.3-5.5,26.5-7.6,36.5c-2.1,9.9-4.9,20.5-4.9,20.5L214.3,309.1z"/>
			<path class="st5" d="M219.5,316.2c0,0,0.5-3.4,4.1-12.9c3.6-9.6,8.3-22.4,12.7-35.4c1.1-3.2,2.1-6.5,3.1-9.7
				c1-3.2,1.9-6.3,2.5-9.4c1.3-6.3,2.6-12.1,2.9-17.1c0.1-2.5,0-4.8-0.3-6.9c-0.3-2-0.8-3.8-1.3-5.2c-0.5-1.4-0.9-2.5-1.3-3.2
				c-0.3-0.7-0.5-1.1-0.5-1.1s0.2,0.4,0.6,1.1c0.4,0.7,0.9,1.8,1.6,3.1c0.6,1.4,1.3,3.1,1.7,5.2c0.5,2.1,0.8,4.4,0.9,7.1
				c0.2,5.2-0.6,11.3-1.3,17.6c-0.4,3.2-1,6.6-1.7,9.9c-0.7,3.3-1.5,6.7-2.3,10c-3.2,13.4-6.8,26.6-9.5,36.5
				c-2.8,9.9-5.9,21.1-5.9,21.1L219.5,316.2z"/>
			<path class="st5" d="M223.4,323.9c0,0,1.5-3.5,5.8-13.3c4.3-9.8,9.9-22.9,15.3-36.2c1.3-3.3,2.6-6.6,3.8-9.9
				c0.6-1.6,1.2-3.3,1.7-4.8c0.5-1.6,0.9-3.3,1.4-4.9c1.7-6.4,3-12.5,3.6-17.8c0.3-2.6,0.5-5.1,0.5-7.2c0-2.2-0.1-4-0.3-5.6
				c-0.2-1.5-0.4-2.8-0.6-3.6c-0.2-0.8-0.3-1.3-0.3-1.3s0.1,0.4,0.4,1.2c0.3,0.8,0.6,2,0.9,3.5c0.3,1.5,0.6,3.4,0.7,5.6
				c0.2,2.2,0.2,4.7,0.1,7.4c-0.2,5.4-1,11.7-2.2,18.3c-0.3,1.7-0.6,3.3-1,5.1c-0.4,1.8-0.8,3.5-1.3,5.2c-0.9,3.4-2,6.9-3,10.3
				c-4.3,13.7-8.8,27.3-12.3,37.5c-3.5,10.2-8.2,19.2-8.2,19.2L223.4,323.9z"/>
			<path class="st5" d="M228,331.5c0,0,1.8-2,6.2-10.9c4.3-8.9,10.1-20.8,15.4-32.9c1.3-3,2.6-6.1,3.8-9.1c0.6-1.5,1.2-3,1.8-4.5
				c0.6-1.5,1.1-2.9,1.6-4.4c0.5-1.5,1-2.9,1.3-4.3c0.4-1.4,0.7-2.8,1-4.2c0.6-2.8,1.1-5.4,1.6-7.9c0.5-2.4,0.9-4.7,1.1-6.6
				c0.2-2,0.3-3.7,0.3-5.2c0-1.4-0.2-2.6-0.3-3.3c-0.1-0.8-0.1-1.2-0.1-1.2s0.1,0.4,0.2,1.2c0.2,0.8,0.4,1.9,0.5,3.3
				c0.2,1.4,0.3,3.2,0.2,5.3c-0.1,2-0.3,4.3-0.6,6.8c-0.3,2.5-0.6,5.1-1,8c-0.3,2.8-0.9,5.9-1.7,8.9c-0.4,1.5-0.8,3.1-1.3,4.6
				c-0.4,1.6-0.9,3.1-1.4,4.7c-1,3.1-2.1,6.3-3.1,9.4c-4.4,12.6-9.1,25-12.7,34.3c-3.6,9.3-7.4,19.5-7.4,19.5L228,331.5z"/>
			<path class="st5" d="M269.2,245.9c0,0,0.1,0.4,0.2,1.2c0.1,0.8,0.3,1.9,0.3,3.4c0.2,3,0,7.2-0.6,12.3c-0.3,2.5-0.8,5.2-1.3,8.1
				c-0.3,1.4-0.6,2.9-0.9,4.4c-0.4,1.5-0.7,3-1.2,4.5c-0.9,3.1-1.9,6.2-3,9.4c-1.1,3.2-2.2,6.3-3.4,9.5
				c-4.7,12.7-9.7,25.3-13.5,34.7c-3.9,9.4-8.7,18.7-8.7,18.7L233,342c0,0,1-3,5.6-11.9c4.6-9,10.7-21,16.4-33.1
				c1.4-3,2.8-6.1,4.2-9.1c1.3-3,2.6-6,3.7-8.9c0.6-1.4,1.1-2.9,1.6-4.3c0.5-1.4,0.9-2.8,1.3-4.2c0.8-2.8,1.5-5.4,2-7.9
				c1.1-4.9,1.6-9.1,1.7-12c0.1-1.5,0-2.6,0-3.4C269.3,246.4,269.2,245.9,269.2,245.9z"/>
			<path class="st5" d="M235.9,352.3c0,0,1.9-5.1,7.5-14.2c5.5-9.2,12.9-21.4,20.1-33.7c1.8-3.1,3.6-6.2,5.3-9.2
				c1.7-3,3.5-6.1,4.9-9c1.4-3.1,3-5.9,4.1-8.7c1.1-2.7,1.7-5.5,2-8.1c0.3-2.6,0.4-5.1,0.5-7.2c0-2.2,0-4.1,0-5.6
				c-0.1-3.1-0.1-4.9-0.1-4.9s0.2,1.8,0.6,4.9c0.2,1.6,0.3,3.4,0.5,5.6c0.1,2.2,0.3,4.7,0.2,7.4c-0.1,2.7-0.4,5.7-1.4,8.8
				c-0.9,3.1-2.3,6-3.4,9.1c-1.3,3.3-2.7,6.4-4.2,9.6c-1.5,3.2-3,6.4-4.5,9.7c-6.2,12.9-12.5,25.8-17.2,35.4
				c-4.8,9.6-10.2,20.1-10.2,20.1L235.9,352.3z"/>
			<path class="st5" d="M239.6,362.2c0,0,2.4-5.5,8.1-14c5.7-8.5,13.2-19.9,20.4-31.5c1.8-2.9,3.6-5.8,5.3-8.7
				c1.7-2.9,3.3-5.7,4.7-8.6c2.9-5.7,5.3-11.1,7-15.9c1.7-4.8,2.6-9,2.9-11.9c0.2-1.5,0.2-2.7,0.3-3.5c0-0.8,0-1.2,0-1.2
				s0,0.4,0.1,1.2c0,0.8,0.1,2,0,3.5c-0.1,3-0.6,7.3-2,12.3c-1.3,5-3.3,10.7-5.8,16.7c-1.2,3-2.6,6.1-4.1,9.1c-1.5,3-3,6.1-4.6,9.2
				c-6.3,12.2-12.9,24.2-17.8,33.2c-5,9-11.4,19.3-11.4,19.3L239.6,362.2z"/>
			<path class="st5" d="M241.4,367.6c0,0,1.1-2.7,7.2-11c6.1-8.3,14.2-19.4,22.1-30.5c2-2.8,4-5.6,5.8-8.3c0.4-0.7,0.9-1.3,1.3-2
				c0.4-0.7,0.8-1.4,1.2-2.1c0.8-1.4,1.6-2.8,2.3-4.2c3-5.6,5.6-11,7.7-15.7c1-2.3,1.9-4.5,2.7-6.5c0.7-1.9,1.3-3.7,1.7-5.1
				c0.4-1.4,0.7-2.6,0.9-3.4c0.2-0.8,0.2-1.2,0.2-1.2s0,0.4-0.1,1.2c-0.1,0.8-0.3,2-0.5,3.5c-0.3,1.5-0.7,3.3-1.2,5.3
				c-0.5,2-1.2,4.3-2,6.8c-1.6,4.9-3.6,10.6-6.1,16.6c-0.6,1.5-1.2,3-1.9,4.6c-0.3,0.8-0.7,1.5-1,2.3c-0.4,0.8-0.8,1.6-1.2,2.4
				c-1.6,3-3.3,6-5,9c-6.8,12-13.7,23.9-18.9,32.8c-5.2,8.9-12.6,16.9-12.6,16.9L241.4,367.6z"/>
			<path class="st5" d="M7.9,145.6c0,0,1.8,0.4,4.3,1.3c2.6,0.9,5.9,2.3,9.2,3.8c3.3,1.5,6.5,3.2,8.9,4.5c2.4,1.3,15.5,7.4,15.5,7.4
				l-2.4,1.9c0,0-12.6-5.1-14.7-6.6c-2.2-1.6-5.1-3.6-8.2-5.5c-3-1.9-6.2-3.7-8.6-4.9C9.6,146.2,7.9,145.6,7.9,145.6z"/>
			<polygon class="st5" points="59.7,172.5 2,161.6 49.9,167 			"/>
			<path class="st5" d="M68.3,177.5c0,0-7-0.2-12.5-1.2c-5.5-1-12.8-2.2-20.2-3.3c-3.7-0.5-7.4-1-10.8-1.5c-3.5-0.4-6.7-0.8-9.5-1
				c-1.4-0.1-2.7-0.2-3.8-0.3c-1.1-0.1-2.1-0.1-2.9-0.2c-1.6-0.1-2.6-0.1-2.6-0.1s0.9,0,2.6-0.1c0.8,0,1.8-0.1,2.9,0
				c1.1,0,2.4,0,3.8,0c2.8,0,6.1,0.1,9.6,0.3c3.5,0.2,7.2,0.4,11,0.7c7.5,0.5,14.9,1.2,20.5,1.8c5.6,0.6,8.1,2,8.1,2L68.3,177.5z"/>
			<path class="st5" d="M78.1,184.5c0,0-17.4-4.6-30.1-6.9c-6.4-1.1-12.8-2.1-17.6-2.6c-1.2-0.1-2.3-0.2-3.3-0.3
				c-1-0.1-1.8-0.1-2.5-0.1c-1.4,0-2.2,0-2.2,0s0.8,0,2.2-0.1c0.7-0.1,1.6-0.1,2.6-0.1c1,0,2.1,0,3.3,0c4.9,0.1,11.4,0.5,17.8,1.2
				c12.9,1.2,25.6,4.2,25.6,4.2L78.1,184.5z"/>
			<path class="st5" d="M89.8,190.5c0,0-21.4-4.2-38.6-6.8c-8.6-1.3-17.3-2.5-23.8-3.1c-1.6-0.2-3.1-0.3-4.4-0.3
				c-1.3-0.1-2.5-0.2-3.4-0.2c-1.9,0-3-0.1-3-0.1s1.1,0,3-0.1c1,0,2.1,0,3.4,0c1.3,0,2.8,0,4.5,0.1c6.6,0.3,15.3,1,24,1.9
				c17.4,1.8,31.7,3.9,31.7,3.9L89.8,190.5z"/>
			<polygon class="st5" points="100.3,197.3 10.3,183.9 91.4,191.6 			"/>
			<path class="st5" d="M120,210.9c0,0-31.4-4.6-57.4-7.5c-6.5-0.7-13-1.4-19.1-1.9c-3.1-0.3-6-0.5-8.8-0.7
				c-2.8-0.2-5.5-0.4-7.9-0.5c-2.5-0.1-4.7-0.2-6.7-0.3c-2,0-3.7,0-5.2,0c-1.4,0.1-2.5,0.1-3.3,0.2c-0.8,0-1.2,0.1-1.2,0.1
				s0.4,0,1.2-0.1c0.8-0.1,1.9-0.2,3.3-0.4c1.4-0.1,3.2-0.1,5.2-0.2c2,0,4.3,0,6.7-0.1c2.5,0,5.1,0.1,7.9,0.1
				c2.8,0.1,5.8,0.2,8.9,0.3c6.1,0.3,12.7,0.6,19.2,0.9c26.2,1.5,49.6,4.7,49.6,4.7L120,210.9z"/>
			<path class="st5" d="M126.1,215.4c0,0-30-4.4-55.4-7.3c-12.7-1.5-25.3-2.7-34.9-3.4c-2.4-0.2-4.6-0.3-6.5-0.4
				c-1.9-0.1-3.6-0.2-5-0.2c-2.8-0.1-4.4-0.2-4.4-0.2s1.6,0,4.4-0.1c1.4,0,3.1,0,5,0c1.9,0,4.1,0,6.5,0.1c9.6,0.2,22.3,0.8,35.1,1.5
				c25.5,1.6,47.6,3.7,47.6,3.7L126.1,215.4z"/>
			<path class="st5" d="M133.8,222.5c0,0-8.8-2-17.8-3.7c-4.5-0.8-9.7-1.7-15.3-2.6c-2.8-0.4-5.7-0.9-8.7-1.3c-3-0.4-6-0.8-9-1.2
				c-3-0.4-6-0.7-9-1c-3-0.3-5.9-0.5-8.8-0.7c-2.8-0.2-5.6-0.3-8.2-0.4c-2.6-0.1-5.1,0-7.4-0.1c-2.3-0.1-4.4,0.2-6.2,0.2
				c-0.9,0-1.8,0.1-2.6,0.1c-0.8,0.1-1.5,0.2-2.2,0.3c-2.6,0.3-4.2,0.5-4.2,0.5s1.5-0.3,4.1-0.7c0.7-0.1,1.4-0.2,2.2-0.4
				c0.8-0.1,1.7-0.2,2.6-0.3c1.9-0.2,3.9-0.5,6.2-0.5c2.3-0.1,4.8-0.3,7.4-0.3c2.6,0,5.4-0.1,8.3,0c2.9,0.1,5.8,0.1,8.8,0.3
				c3,0.1,6.1,0.3,9.1,0.5c3.1,0.2,6.1,0.4,9.1,0.7c3,0.2,5.9,0.6,8.8,0.9c5.7,0.6,11,1.3,15.6,1.9c9.1,1.2,10.9,1.7,10.9,1.7
				L133.8,222.5z"/>
			<path class="st5" d="M141.3,228.5c0,0-9.9-2-19.4-3.4c-9.5-1.4-22.3-3.1-35.1-4.5c-3.2-0.3-6.4-0.7-9.5-0.9
				c-3.2-0.3-6.3-0.5-9.3-0.7c-3-0.2-5.9-0.4-8.7-0.5c-2.8-0.2-5.4-0.2-7.8-0.2c-1.2,0-2.4-0.1-3.5,0c-1.1,0-2.1,0.1-3.1,0.1
				c-2,0.1-3.7,0.1-5.1,0.2c-2.8,0.2-4.4,0.4-4.4,0.4s1.6-0.2,4.4-0.6c1.4-0.2,3.1-0.3,5.1-0.5c1-0.1,2-0.2,3.1-0.3
				c1.1-0.1,2.3-0.1,3.5-0.2c2.4-0.1,5-0.2,7.8-0.2c2.8,0,5.7-0.1,8.7,0c3,0,6.2,0.1,9.3,0.2c3.2,0.1,6.4,0.2,9.6,0.4
				c12.9,0.6,25.8,1.6,35.4,2.5c9.6,0.9,11.5,1.1,11.5,1.1L141.3,228.5z"/>
			<path class="st5" d="M151,235.7c0,0-11.1-2.3-22-4.2c-2.7-0.4-5.7-0.9-8.8-1.4c-3.1-0.5-6.4-1-9.9-1.5c-3.4-0.5-7-1-10.6-1.4
				c-3.6-0.5-7.3-0.9-10.9-1.2c-3.7-0.4-7.3-0.7-11-1c-3.6-0.3-7.2-0.5-10.6-0.7c-3.5-0.2-6.8-0.2-10-0.3c-3.2,0-6.2,0-8.9,0
				c-2.8,0-5.3,0.3-7.6,0.4c-2.3,0.1-4.2,0.3-5.8,0.5c-3.2,0.4-5.1,0.6-5.1,0.6s1.8-0.3,5-0.8c1.6-0.3,3.5-0.6,5.8-0.7
				c2.2-0.2,4.8-0.5,7.6-0.6c2.8-0.1,5.8-0.3,9-0.4c3.2,0,6.5-0.1,10-0.1c3.5,0.1,7.1,0.1,10.7,0.3c3.6,0.2,7.4,0.3,11,0.6
				c3.7,0.2,7.4,0.5,11,0.8c3.6,0.3,7.2,0.6,10.7,1c3.5,0.3,6.8,0.7,10,1.1c3.2,0.4,6.2,0.8,8.9,1.1c11,1.5,14.7,2.1,14.7,2.1
				L151,235.7z"/>
			<path class="st5" d="M157.5,241.8c0,0-11.6-2.6-22.4-4.2c-5.4-0.8-11.7-1.7-18.5-2.5c-3.4-0.4-6.9-0.8-10.5-1
				c-1.8-0.2-3.6-0.3-5.4-0.4c-1.8-0.1-3.6-0.2-5.4-0.3c-3.6-0.2-7.3-0.1-10.9-0.1c-3.6,0-7.2-0.1-10.6-0.3
				c-6.9-0.3-13.3-0.9-18.7-1.5c-10.9-1.2-18.1-2.4-18.1-2.4s7.3,0.9,18.2,1.5c5.5,0.3,11.9,0.6,18.7,0.6c3.4,0,6.9-0.1,10.5-0.2
				c3.6-0.2,7.3-0.4,11-0.4c1.8,0,3.7,0,5.5,0c1.8,0,3.7,0.1,5.5,0.1c3.6,0.1,7.2,0.3,10.6,0.6c6.9,0.5,13.3,1.1,18.8,1.6
				c11,1.2,13.9,1.6,13.9,1.6L157.5,241.8z"/>
			<path class="st5" d="M163.2,247.8c0,0-10.2-2.3-21.2-4.1c-5.5-0.9-12-1.9-18.9-2.8c-3.5-0.4-7-0.9-10.7-1.2
				c-3.6-0.4-7.4-0.6-11.1-0.8c-7.4-0.4-14.9-0.4-21.9-0.4c-3.5,0-6.9,0.1-10.1,0.1c-3.2,0-6.3,0.1-9.1-0.1
				c-5.6-0.5-10.2-1.2-13.5-1.7c-3.2-0.5-5.1-0.8-5.1-0.8s1.9,0.2,5.1,0.6c3.2,0.3,7.9,0.9,13.5,1.1c2.8,0.1,5.8-0.1,9-0.2
				c3.2-0.2,6.6-0.3,10.1-0.5c7-0.3,14.5-0.6,22-0.5c3.8,0,7.5,0.2,11.2,0.4c3.7,0.2,7.3,0.5,10.8,0.8c7,0.6,13.5,1.4,19.1,2.1
				c11.2,1.4,14.9,2,14.9,2L163.2,247.8z"/>
			<path class="st5" d="M170.3,254.8c0,0-8.9-2.2-17.2-3.8c-8.3-1.5-19.5-3.5-30.6-5.2c-2.8-0.4-5.6-0.8-8.3-1.3
				c-2.8-0.4-5.5-0.8-8.1-1.1c-5.3-0.7-10.2-1.3-14.4-1.7c-2.1-0.2-4-0.4-5.8-0.5c-1.7-0.2-3.2-0.3-4.4-0.3
				c-2.5-0.1-3.9-0.2-3.9-0.2s1.4,0,3.9,0c1.2,0,2.7,0,4.5,0.1c1.7,0.1,3.7,0.1,5.8,0.2c4.2,0.2,9.2,0.4,14.5,0.8
				c2.6,0.2,5.4,0.4,8.2,0.6c2.8,0.2,5.6,0.5,8.4,0.7c11.3,1.1,22.5,2.3,31,3.4c8.4,1,11.2,1.2,11.2,1.2L170.3,254.8z"/>
			<path class="st5" d="M177.4,261.5c0,0-10.2-1.2-21.5-3.5c-5.6-1.1-12.2-2.4-19.3-3.7c-7.1-1.3-14.6-2.6-22.2-3.7
				c-3.8-0.5-7.5-1-11.3-1.1c-3.7-0.2-7.4-0.2-11-0.2c-7.2,0.1-13.9,0.4-19.7,0.4c-2.9,0-5.5,0-7.9-0.2c-2.3-0.2-4.4-0.4-6-0.8
				c-0.8-0.2-1.6-0.3-2.2-0.6c-0.6-0.2-1.2-0.4-1.5-0.6c-0.8-0.4-1.2-0.7-1.2-0.7s0.4,0.2,1.2,0.6c0.4,0.2,0.9,0.3,1.6,0.5
				c0.6,0.2,1.3,0.4,2.2,0.5c1.6,0.3,3.7,0.4,6,0.5c2.3,0,5-0.1,7.8-0.2c5.7-0.3,12.4-1,19.6-1.5c3.6-0.2,7.4-0.4,11.2-0.4
				c3.8,0,7.7,0.2,11.6,0.5c7.7,0.7,15.4,1.6,22.5,2.5c7.2,0.9,13.8,1.9,19.5,2.7c11.4,1.7,14.8,2.5,14.8,2.5L177.4,261.5z"/>
			<path class="st5" d="M182.7,267.2c0,0-9.2-0.5-18.5-2.2c-9.3-1.7-21.7-4-34.2-6c-3.1-0.5-6.2-1-9.3-1.3c-1.5-0.2-3-0.3-4.5-0.5
				c-1.5-0.1-3-0.2-4.5-0.3c-5.9-0.3-11.4-0.3-16.1-0.3c-4.7,0-8.7,0-11.4,0c-2.8,0-4.3-0.1-4.3-0.1s1.6,0,4.3-0.1
				c2.8-0.2,6.7-0.4,11.4-0.7c4.7-0.3,10.3-0.6,16.2-0.7c1.5,0,3,0,4.5,0c1.5,0,3.1,0.1,4.7,0.2c3.1,0.2,6.3,0.5,9.4,0.8
				c12.6,1.2,25.2,2.7,34.6,3.8c9.4,1.2,12.3,1.7,12.3,1.7L182.7,267.2z"/>
			<path class="st5" d="M188.9,274.3c0,0-8.6-1.2-18.2-3c-4.8-0.9-10.4-1.8-16.5-2.7c-3-0.4-6.2-0.9-9.3-1.2c-3.2-0.4-6.4-0.7-9.7-1
				c-3.2-0.3-6.5-0.5-9.7-0.6c-3.2-0.1-6.4-0.2-9.4-0.2c-6.1,0-11.8,0.2-16.8,0.3c-2.5,0-4.7,0-6.7-0.1c-2-0.1-3.7-0.2-5.2-0.5
				c-0.7-0.1-1.3-0.2-1.9-0.4c-0.5-0.1-1-0.2-1.4-0.4c-0.7-0.2-1.1-0.4-1.1-0.4s0.4,0.1,1.1,0.3c0.4,0.1,0.8,0.2,1.4,0.3
				c0.5,0.1,1.2,0.2,1.9,0.3c1.4,0.1,3.2,0.2,5.1,0.2c2,0,4.2-0.1,6.7-0.3c4.9-0.3,10.6-0.8,16.7-1.2c3.1-0.2,6.3-0.3,9.5-0.4
				c3.3-0.1,6.5-0.1,9.8,0c3.3,0.1,6.6,0.2,9.8,0.4c3.2,0.2,6.4,0.4,9.5,0.7c6.1,0.5,11.9,1.2,16.8,1.8c9.8,1.2,12.8,1.8,12.8,1.8
				L188.9,274.3z"/>
			<path class="st5" d="M196.1,283.4c0,0-4.1-0.8-4.6-1c-0.5-0.2-1.3-0.6-2.4-1c-1.1-0.4-2.4-0.9-3.9-1.5c-1.5-0.5-3.3-1.1-5.2-1.7
				c-1-0.3-2-0.6-3-0.9c-1.1-0.3-2.2-0.6-3.3-0.9c-2.2-0.6-4.7-1.1-7.1-1.7c-2.5-0.5-5.1-1-7.7-1.4c-2.7-0.4-5.3-0.9-8.1-1.2
				c-2.7-0.3-5.4-0.7-8.1-0.9c-2.7-0.2-5.3-0.5-7.9-0.7c-2.6-0.2-5-0.3-7.4-0.4c-2.4-0.1-4.6-0.1-6.6-0.2c-2.1-0.1-3.9-0.1-5.6-0.1
				c-1.7,0-3.1,0-4.3,0c-2.4,0-3.8,0-3.8,0s1.4-0.1,3.8-0.3c1.2-0.1,2.7-0.2,4.3-0.3c1.7-0.1,3.6-0.3,5.6-0.3
				c2.1-0.1,4.3-0.2,6.7-0.3c2.4,0,4.9-0.1,7.5-0.1c2.6-0.1,5.3,0,8,0.1c2.7,0,5.5,0.2,8.3,0.3c2.8,0.1,5.5,0.4,8.3,0.6
				c2.7,0.2,5.4,0.6,8,0.9c2.6,0.4,5.1,0.7,7.4,1.2c1.2,0.2,2.3,0.4,3.4,0.6c1.1,0.2,2.2,0.5,3.2,0.7c2.1,0.4,3.9,0.9,5.6,1.4
				c1.7,0.5,3.1,0.9,4.3,1.3c0,0-0.7-0.3,0,0c0.7,0.3,0,0,0,0L196.1,283.4z"/>
			<path class="st5" d="M201.9,290c0,0-3.3,0.2-3.8-0.1c-0.5-0.3-2.5-0.8-3.5-1.3c-2-1-5-2.2-8.6-3.5c-1.8-0.6-3.8-1.2-6-1.8
				c-2.1-0.5-4.4-1-6.8-1.4c-1.2-0.2-2.4-0.4-3.6-0.4c-0.6,0-1.2-0.1-1.9-0.1c-0.6,0-1.2,0-1.9,0c-2.6,0-5.3,0-8-0.1
				c-10.8-0.3-21.5-1.5-29.3-3.1c-2-0.4-3.8-0.8-5.3-1.2c-1.6-0.4-2.9-0.8-4-1.2c-1.1-0.4-2-0.7-2.5-1c-0.6-0.3-0.9-0.4-0.9-0.4
				s0.3,0.1,0.9,0.3c0.6,0.2,1.5,0.5,2.6,0.8c1.1,0.3,2.5,0.6,4.1,0.9c1.6,0.3,3.4,0.5,5.4,0.8c7.9,0.9,18.5,1.2,29.1,0.5
				c2.6-0.2,5.2-0.4,7.9-0.6c0.7,0,1.4-0.1,2-0.1c0.7,0,1.4,0,2,0c1.3,0,2.7,0,4,0.1c2.6,0.1,5.1,0.5,7.4,0.8
				c2.3,0.4,4.5,0.9,6.6,1.4c4,1,7.3,2.1,9.6,2.9c1.1,0.4-0.6-0.3,0,0c0.6,0.3,0,0,0,0L201.9,290z"/>
			<path class="st5" d="M207.3,299c0,0-3.8-0.1-5.8-0.8c-2-0.8-4.9-1.8-8.4-3c-3.5-1.2-7.6-2.5-12-3.7c-2.2-0.6-4.5-1.2-6.9-1.7
				c-2.3-0.5-4.7-1-7.1-1.3c-2.4-0.4-4.9-0.6-7.3-0.7c-2.4-0.2-4.8-0.3-7.1-0.4c-4.6-0.2-9-0.3-12.7-0.9c-1.9-0.3-3.5-0.6-5-0.9
				c-1.5-0.4-2.8-0.7-3.8-1c-1-0.3-1.8-0.6-2.4-0.8c-0.5-0.2-0.8-0.3-0.8-0.3s0.3,0.1,0.9,0.2c0.6,0.1,1.4,0.4,2.4,0.6
				c1.1,0.3,2.3,0.5,3.8,0.7c1.5,0.2,3.2,0.4,5,0.5c3.7,0.2,8,0.1,12.7-0.1c2.3-0.1,4.7-0.2,7.2-0.2c2.5,0,4.9,0,7.5,0.2
				c2.5,0.1,5,0.5,7.5,0.8c2.5,0.4,4.8,0.8,7.2,1.3c4.6,0.9,8.9,1.9,12.5,2.9c3.6,0.9,6.7,1.8,8.8,2.4l0,0L207.3,299z"/>
			<path class="st5" d="M212.3,304.8C212.3,304.8,216.8,304.6,212.3,304.8c-0.4-0.2-5.6-0.4-6.4-0.8c-1.7-0.8-4.1-2-7.1-3.2
				c-1.5-0.6-3.1-1.2-4.9-1.8c-1.8-0.6-3.6-1.2-5.6-1.7c-2-0.5-4-1-6.1-1.3c-1-0.2-2.1-0.3-3.2-0.5c-1.1-0.1-2.1-0.2-3.2-0.3
				c-4.3-0.4-8.7-0.1-12.9-0.1c-4.2,0-8.1-0.5-11.4-1c-3.3-0.6-6-1.2-7.9-1.6c-1.9-0.5-3-0.7-3-0.7s1.1,0.2,3,0.5
				c1.9,0.3,4.6,0.7,7.9,1c3.3,0.3,7.1,0.4,11.2,0.1c4.1-0.3,8.5-1,13.1-1c1.1,0,2.3,0,3.4,0.1c1.1,0.1,2.2,0.1,3.3,0.2
				c2.2,0.2,4.4,0.5,6.5,0.9c2.1,0.3,4.1,0.8,6,1.2c1.9,0.5,3.7,1,5.3,1.5c3.3,1,5.9,2,7.8,2.8c0,0-0.5-0.2,0,0c0.5,0.2,0,0,0,0
				L212.3,304.8z"/>
			<path class="st5" d="M216.5,312.1c0,0-3.1,0-4.7-0.7c-1.6-0.6-4-1.5-6.8-2.5c-2.8-1-6.1-2.1-9.7-3.2c-1.8-0.5-3.6-1-5.5-1.5
				c-0.9-0.2-1.9-0.4-2.8-0.6c-1-0.2-2-0.3-2.9-0.4c-3.9-0.5-8-0.5-11.8-0.9c-1.9-0.2-3.8-0.4-5.5-0.8c-1.7-0.3-3.3-0.8-4.8-1.2
				c-1.5-0.4-2.8-0.9-3.9-1.3c-1.1-0.5-2.2-0.8-3-1.2c-1.6-0.7-2.5-1.1-2.5-1.1s1,0.3,2.6,0.9c0.8,0.3,1.9,0.6,3.1,0.9
				c1.2,0.3,2.5,0.7,4,0.9c1.5,0.3,3.1,0.6,4.8,0.7c1.7,0.2,3.5,0.2,5.4,0.3c3.7,0,7.7-0.4,11.9-0.3c1.1,0,2.1,0.1,3.1,0.2
				c1.1,0.1,2.1,0.2,3.1,0.3c2,0.3,4,0.6,5.9,1c3.8,0.7,7.3,1.5,10.2,2.3c3,0.7,5.4,1.4,7.2,1.9c1.7,0.5,0,0,0,0L216.5,312.1z"/>
			<path class="st5" d="M222.5,321.5C222.5,321.5,225.4,321.2,222.5,321.5C222.5,321.5,222.7,321.7,222.5,321.5
				c-0.3-0.3-4.1-0.6-4.8-1.1c-1.5-0.9-3.6-2.2-6.4-3.4c-2.8-1.2-6.1-2.5-9.9-3.5c-0.9-0.3-1.9-0.5-2.8-0.7c-0.9-0.2-2-0.4-3-0.6
				c-1-0.2-2-0.3-3-0.5c-1-0.1-2-0.3-3.1-0.3c-4.1-0.4-8.4-0.4-12.4-0.8c-2-0.2-3.9-0.6-5.7-1c-0.9-0.2-1.8-0.5-2.6-0.7
				c-0.8-0.3-1.6-0.5-2.4-0.8c-1.5-0.6-2.9-1.1-4-1.6c-1.2-0.6-2.2-1-3-1.4c-1.6-0.9-2.6-1.4-2.6-1.4s1,0.4,2.7,1.1
				c0.8,0.4,1.9,0.7,3.1,1.2c1.2,0.5,2.6,0.8,4.1,1.3c0.8,0.2,1.6,0.4,2.4,0.6c0.8,0.1,1.7,0.3,2.6,0.5c1.8,0.2,3.6,0.4,5.6,0.4
				c3.9,0.1,8.1-0.3,12.4-0.3c1.1,0,2.2,0,3.2,0.1c1.1,0.1,2.2,0.1,3.2,0.3c1.1,0.1,2,0.2,3.1,0.4c1,0.2,2,0.3,3,0.5
				c4,0.7,7.7,1.8,10.8,2.8c3.1,1.1,5.6,2.2,7.4,3.1c0.9,0.5-0.5-0.3,0,0c0.3,0.2-0.6-0.4,0,0c0.1,0.1,0,0,0,0L222.5,321.5z"/>
			<path class="st5" d="M227.8,330.3c0,0-4.4-0.7-5.7-1.3c-1.3-0.6-3.2-1.5-5.5-2.5c-2.3-1-5-2.1-7.9-3.2c-2.9-1.1-6.1-2.3-9.2-3.3
				c-3.2-1-6.4-2-9.4-2.8c-1.5-0.4-3-0.8-4.4-1.1c-1.4-0.3-2.7-0.6-4-0.8c-1.2-0.2-2.4-0.4-3.4-0.6c-1-0.1-1.9-0.3-2.6-0.4
				c-1.5-0.2-2.3-0.3-2.3-0.3s0.8,0,2.3,0c0.7,0,1.6,0,2.7,0c1,0.1,2.2,0.1,3.5,0.2c1.3,0,2.6,0.2,4.1,0.3c1.5,0.1,3,0.3,4.6,0.5
				c3.2,0.4,6.5,0.9,9.9,1.6c3.3,0.6,6.7,1.4,9.8,2.1c3.1,0.8,6,1.5,8.5,2.3c2.5,0.7,4.5,1.4,5.9,1.8c1.4,0.5,0,0,0,0L227.8,330.3z"
				/>
			<path class="st5" d="M229.6,334.9c0,0-2.2,0.3-2.6,0.4c-0.4,0-1,0.1-1.7,0.1c-1.5,0.1-3.5,0.2-6,0.2c-2.5,0-5.3-0.1-8.4-0.2
				c-1.5-0.1-3.1-0.2-4.7-0.4c-1.6-0.2-3.2-0.4-4.8-0.6c-1.6-0.2-3.2-0.5-4.8-0.8c-1.6-0.3-3.1-0.6-4.6-1c-1.5-0.3-2.9-0.7-4.2-1.1
				c-1.3-0.4-2.6-0.7-3.7-1.2c-1.1-0.4-2.2-0.8-3.1-1.1c-0.9-0.4-1.7-0.7-2.3-1c-1.3-0.5-2-0.8-2-0.8s0.8,0.2,2.1,0.5
				c0.7,0.2,1.5,0.4,2.4,0.6c1,0.2,2,0.4,3.2,0.6c1.2,0.2,2.4,0.4,3.8,0.6c1.3,0.2,2.8,0.4,4.2,0.5c1.5,0.1,3,0.3,4.5,0.3
				c1.5,0.1,3.1,0.1,4.7,0.1c1.6,0,3.1,0,4.7-0.1c1.5,0,3.1-0.2,4.5-0.2c2.9-0.2,5.6-0.5,7.9-0.9c2.3-0.3,4.2-0.7,5.5-1
				c0.6-0.1,1.1-0.3,1.5-0.3c0.3-0.1,0.5-0.1,0.5-0.1L229.6,334.9z"/>
			<path class="st5" d="M232.2,343.1c0,0-0.1,0-0.4,0c-0.3,0-0.6,0.1-1,0.1c-0.8,0.1-2,0.1-3.4,0.1c-1.4,0-3-0.1-4.7-0.2
				c-1.7-0.2-3.5-0.4-5.2-0.8c-0.9-0.1-1.8-0.4-2.6-0.6c-0.9-0.2-1.7-0.5-2.5-0.7c-0.8-0.2-1.5-0.5-2.3-0.7c-0.7-0.2-1.4-0.5-2-0.8
				c-1.2-0.5-2.2-0.9-2.9-1.3c-0.7-0.3-1.1-0.5-1.1-0.5s0.4,0.1,1.2,0.2c0.7,0.1,1.8,0.3,3.1,0.4c0.6,0.1,1.3,0.1,2.1,0.1
				c0.7,0,1.5,0.1,2.3,0c0.8,0,1.6,0,2.4-0.1c0.8-0.1,1.6-0.1,2.5-0.2c1.6-0.2,3.3-0.4,4.8-0.8c1.5-0.3,2.9-0.7,4-1
				c1.1-0.3,2.1-0.7,2.7-0.9c0.3-0.1,0.5-0.2,0.6-0.3c0.2-0.1,0.2-0.1,0.2-0.1L232.2,343.1z"/>
			<path class="st5" d="M239.4,361.2c0,0-2.8-0.3-3.1-0.3c-0.3,0-0.7-0.1-1.3-0.1c-1-0.1-2.4-0.3-4-0.7c-1.6-0.3-3.5-0.8-5.5-1.5
				c-2-0.6-4-1.4-6-2.3c-1-0.4-2-0.9-2.9-1.4c-0.9-0.5-1.8-1-2.7-1.5c-0.9-0.5-1.7-1-2.4-1.5c-0.8-0.5-1.5-1-2.1-1.5
				c-1.3-0.9-2.3-1.8-2.9-2.4c-0.7-0.6-1.1-0.9-1.1-0.9s0.5,0.2,1.3,0.6c0.8,0.4,2,0.9,3.4,1.4c0.7,0.3,1.5,0.5,2.3,0.8
				c0.8,0.2,1.7,0.5,2.6,0.7c0.9,0.2,1.9,0.5,2.8,0.6c1,0.2,1.9,0.3,2.9,0.4c2,0.3,3.9,0.3,5.8,0.4c1.8,0,3.5-0.1,4.9-0.2
				c1.4-0.1,2.6-0.3,3.4-0.4c0.4-0.1,0.7-0.1,0.8-0.2c0.2,0,0.3-0.1,0.3-0.1L239.4,361.2z"/>
			<path class="st5" d="M242.5,372.2c0,0-2.2-0.7-3-0.9c-0.8-0.2-2-0.4-3.4-0.8c-2.8-0.7-6.4-1.8-9.9-3.2c-1.8-0.7-3.5-1.4-5.1-2.2
				c-0.8-0.4-1.6-0.7-2.3-1.1c-0.7-0.4-1.4-0.7-2-1.1c-1.2-0.7-2.2-1.3-2.8-1.8c-0.7-0.4-1.1-0.7-1.1-0.7s0.4,0.1,1.2,0.4
				c0.8,0.3,1.8,0.6,3.2,0.9c0.7,0.2,1.4,0.3,2.1,0.5c0.8,0.2,1.6,0.3,2.4,0.5c1.7,0.3,3.4,0.5,5.2,0.7c3.6,0.4,7.1,0.4,9.8,0.4
				c1.3,0,2.4-0.1,3.2-0.1c0.7-0.1,1.1-0.1,1.1-0.1L242.5,372.2z"/>
			<g>
				<path class="st5" d="M244.3,452.1c0,0,0.6-5.8,1-16c0.4-10.2,0.5-24.9-1-42.3c-0.4-4.4-0.9-8.9-1.6-13.6
					c-0.2-1.2-0.4-2.3-0.5-3.5l-0.3-1.8l-0.4-1.7c-0.3-1.2-0.5-2.4-0.8-3.6l-0.4-1.8l-0.5-1.8c-2.5-9.6-6.4-19.5-11.1-29.3
					c-4.7-9.9-10.4-19.7-16.6-29.3c-6.3-9.6-13.2-19.1-20.6-28.1c-7.4-9.1-15.3-17.6-23.6-25.7c-8.2-8.1-16.5-15.8-24.9-22.9
					c-8.4-7.1-16.7-13.6-24.9-19.5c-8.2-5.9-16-11.3-23.4-16c-3.7-2.4-7.2-4.7-10.6-6.8c-3.4-2.1-6.6-4.1-9.7-6
					c-6.1-3.7-11.5-6.9-15.9-9.5c-8.9-5.1-14-8-14-8l0.6-1.1c0,0,5.1,2.9,14.1,7.8c4.5,2.6,9.9,5.6,16.1,9.3
					c3.1,1.8,6.4,3.7,9.8,5.9c3.4,2.1,7,4.3,10.7,6.7c7.5,4.7,15.4,10,23.6,15.9c8.2,5.9,16.7,12.4,25.2,19.4
					c8.5,7.1,16.9,14.8,25.2,22.9c4.1,4,8.3,8.2,12.3,12.5c4,4.3,7.9,8.8,11.6,13.3c7.5,9.1,14.5,18.6,20.8,28.3
					c6.4,9.7,12.1,19.6,16.9,29.6c4.8,10,8.7,20,11.4,29.9l0.5,1.9l0.4,1.8c0.3,1.2,0.5,2.4,0.8,3.6l0.4,1.8l0.3,1.8
					c0.2,1.2,0.4,2.4,0.6,3.6c0.7,4.7,1.2,9.3,1.6,13.7c0.8,8.8,1.1,16.9,1.2,24.1c0.1,7.2,0,13.5-0.3,18.6
					c-0.4,10.3-1.1,16.2-1.1,16.2L244.3,452.1z"/>
			</g>
		</g>
	</g>
</g>
<g class="st0">
	<path class="st8" d="M316.8,58c-1.2-0.6-13.7-0.3-21.7,1.3c-8,1.6-22.5,2.1-21.7-2c0.8-4,15.3-2.3,16.9-2.4
		c1.6-0.1,18.4-3.7,19.6-4.9c1.1-1.3,0.6-2.7-2.4-8.9s-1.9-8.3-5.7-6.6c-3.8,1.7-26.3,14.3-26.9,12.8c-0.6-1.5,0.6-2.4,8-6.9
		c7.3-4.6,20-8.2,20.6-9.1c0.6-0.9,2-1.6-0.7-3.8c-2.7-2.2-9.9-10.5-11.8-10.5c-2,0-15.4,13.6-16.6,15.4
		c-1.2,1.8-8.4,11.7-11.5,10.1c-3-1.5,2.1-7.7,4.5-11c2.4-3.4,15.1-14.8,16.8-16.2c-3.5-0.7-15.5-5.5-16.4-6.5
		c-1.1,1.4-8.2,14.8-8.8,16.3c-0.7,1.6-2.5,11.9-5.2,10s-0.3-8.8-0.2-9.3c0.1-0.5,9-13.5,9.7-15.9c0.7-2.4,2.5-3.9-1.3-4.2
		c-3.8-0.2-8.2-0.3-10.3-0.7c-2.1-0.4-9.9-2.8-10-1.2c-0.1,1.7,0.9,4.5,1.1,7.2c0.2,2.7-1,16.9-2.2,17.2c-1.2,0.3-3.9-8.1-3.8-9.3
		c0.2-1.2,3.5-13.8,1.5-14s-16.1-4.2-20.8-3c2.2,3.3,7.5,12.7,8.8,15.1c1.3,2.4,5.6,11,4,11.9s-6.3-2.8-7-5.3
		c-0.7-2.5-5.3-14.5-13.5-16.6c-2.6,3.3-6.3,8.2-8.2,9.9c-1.9,1.7-6.4,7.4-6.4,8.7c0,1.3,0.3,1.8,7.5,4.1s17.8,7.1,16,9.9
		c-1.8,2.8-23.3-11.6-23.9-11c-0.6,0.6-2.8,4-3.1,4.8c-0.3,0.8-4,9.5-2.6,10.4c1.3,0.9,11.9,3.5,16.8,3.9c4.9,0.5,16.8,1.5,15,5.1
		c-1.8,3.6-12.4,1.3-14.1,0.8c-1.6-0.5-17.3-9.1-18.9-7.5c-1.6,1.6-1.7,14.8-1.7,16.4c0,1.6,1,11.9,1,11.9s5.5-6.6,9.5-7
		c4-0.5,23.8-2.9,24.3,0.1c0.6,3-14.9,4.4-18.2,6.2c-3.3,1.8-15.2,7.2-15.2,7.2s2.6,18.9,10.2,19.7c4.1-3.4,12.8-14.1,14.6-15.6
		c1.8-1.5,10.5-7.4,11.9-6.6s2.4,2.4-3.6,7.1c-6.1,4.7-22.2,21.7-22.2,21.7s9.5,14.5,16.2,17c1.7-1,3.8-12.2,4.3-13.4
		c0.5-1.2,10-19.6,13.9-15.1c-0.6,2.7-5.6,14.4-16,28.6c2.1,1.3,8.2,3.5,10.1,5.7c1.8,2.2,5.3,5.2,7.9,4.3
		c2.6-0.9,4.1-15.1,4.6-16.8c0.5-1.6,2.7-17.1,6.4-13.9c3.7,3.2-5.5,33-5.5,33s13.7,6,22.5,2.8c-0.7-3-2.1-13.4-2.5-16.3
		c-0.4-2.9,1.6-12.6,5-11.1c3.4,1.6,4.1,3.8,4.1,6.6c0,2.8,0.1,17.6,1.1,17.7c1,0.1,13.9-8.3,15.2-8.5c2.9-0.6,5-0.9,5-0.9
		s7.5-2.4,8.5-3.4c-2-1-11.9-12.2-12.3-16.5c1.8-0.7,2.8-1.1,2.8-1.1s7.4,12.9,11.7,16.2c3.8-2.2,7.9-3,12.7-15.2
		c-2.1-0.8-17.6-8-17.7-8.9s1.3-2,17.8,6.3c1.5-3.5,4.8-19.6,3.4-21c-1.4-1.4-10.6-2.1-14.8-3.8c-4.2-1.7-22.3-7.6-20.8-10.9
		c1.6-3.4,6.7-1.9,10-1.3c3.3,0.6,20.8,9.2,22.6,8.4c1.8-0.7,3.9-2.4,3.9-2.4S318,58.6,316.8,58z M259.9,53.5
		c3.3-2.7,5.3-4.2,7.2-3.4c2,0.8-1.4,3.7-4.7,6.4c-3.3,2.7-5.5,5.5-7.2,3.4C254.5,59.1,256.6,56.2,259.9,53.5z M247.4,41.9
		c1.1-2.5,2.8-4.2,3.8-3.7c1,0.4,0.9,2.8-0.3,5.3c-1.1,2.5-2.8,4.2-3.8,3.7C246.2,46.8,246.3,44.4,247.4,41.9z M238.5,38.1
		c0.7-2.4,2.1-4.1,3.1-3.8c1.1,0.3,1.4,2.5,0.7,4.8c-0.7,2.4-2.1,4.1-3.1,3.8C238.2,42.6,237.8,40.4,238.5,38.1z M224.3,40.9
		c0.4-0.7,1.8-0.5,3.3,0.3c1.5,0.8,2.3,2,2,2.6c-0.4,0.7-1.8,0.5-3.3-0.3C224.8,42.7,223.9,41.6,224.3,40.9z M226.2,54.6
		c-0.2-2.4,2.6-2.6,5.9-2.7c3.3-0.1,6,1,6.1,2.3c0,1.4-2.6,2.6-5.9,2.7C229,57.1,226.3,56,226.2,54.6z M230.9,68.6
		c-1.3-3.1,1.8-4.1,5.5-5.6c3.7-1.5,6.9-2.1,7.8,0.2c0.6,1.6-1.8,4.1-5.5,5.6S231.5,70.2,230.9,68.6z M240.2,86.2
		c-2.8-1.9-0.8-4.4,1.5-7.7c2.2-3.2,4.6-5.5,6.6-4.1c1.4,1,0.8,4.4-1.5,7.7C244.6,85.4,241.7,87.2,240.2,86.2z M251.3,96.5
		c-2.8-1.9-0.8-4.4,1.5-7.7c2.2-3.2,6.5-5.3,8.6-3.9c1.4,1-1.2,4.2-3.4,7.5C255.6,95.6,252.7,97.5,251.3,96.5z M268.1,102.9
		c-0.4,2.4-1.6,4.2-2.7,4.1c-1.1-0.2-1.6-2.3-1.2-4.7c0.4-2.4,1.6-4.2,2.7-4.1C267.9,98.4,268.5,100.5,268.1,102.9z M250,56.3
		c-0.9-0.6-0.6-2.7,0.7-4.8c1.3-2.1,3-3.1,4.1-2.7c2.1,0.9,0.6,2.7-0.7,4.8C252.7,55.6,250.9,56.9,250,56.3z M270.6,73
		c-0.6,1.3-3.2,1.7-6.4,0.9c-3.2-0.8-5.4-2.6-5.2-3.9c0.5-2.3,3.3-2.2,6.5-1.3C268.7,69.5,272.7,68.8,270.6,73z M287.6,84
		c-0.2,1-3,1.4-6.2,0.9c-3.3-0.6-5.7-1.9-5.6-2.9c0.2-1.8,3-1.4,6.2-0.9C285.3,81.7,287.8,83,287.6,84z"/>
	<path class="st2" d="M316.1,56.3c-1.2-0.6-13.7-0.3-21.7,1.3c-8,1.6-22.5,2.1-21.7-2c0.8-4,15.3-2.3,16.9-2.4
		c1.6-0.1,18.4-3.7,19.6-4.9c1.1-1.3,0.6-2.7-2.4-8.9s-1.9-8.3-5.7-6.6c-3.8,1.7-26.3,14.3-26.9,12.8c-0.6-1.5,0.6-2.4,8-6.9
		s20-8.2,20.6-9.1c0.6-0.9,2-1.6-0.7-3.8c-2.7-2.2-9.9-10.5-11.8-10.5c-2,0-15.4,13.6-16.6,15.4c-1.2,1.8-8.4,11.7-11.5,10.1
		c-3-1.5,2.1-7.7,4.5-11c2.4-3.4,15.1-14.8,16.8-16.2c-3.5-0.7-15.5-5.5-16.4-6.5c-1.1,1.4-8.2,14.8-8.8,16.3
		c-0.7,1.6-2.5,11.9-5.2,10c-2.7-1.8-0.3-8.8-0.2-9.3c0.1-0.5,9-13.5,9.7-15.9c0.7-2.4,2.5-3.9-1.3-4.2c-3.8-0.2-8.2-0.3-10.3-0.7
		c-2.1-0.4-9.9-2.8-10-1.2c-0.1,1.7,0.9,4.5,1.1,7.2c0.2,2.7-1,16.9-2.2,17.2c-1.2,0.3-3.9-8.1-3.8-9.3c0.2-1.2,3.5-13.8,1.5-14
		c-2-0.2-16.1-4.2-20.8-3c2.2,3.3,7.5,12.7,8.8,15.1c1.3,2.4,5.6,11,4,11.9c-1.6,0.8-6.3-2.8-7-5.3c-0.7-2.5-5.3-14.5-13.5-16.6
		c-2.6,3.3-6.3,8.2-8.2,9.9s-6.4,7.4-6.4,8.7c0,1.3,0.3,1.8,7.5,4.1c7.2,2.3,17.8,7.1,16,9.9c-1.8,2.8-23.3-11.6-23.9-11
		c-0.6,0.6-2.8,4-3.1,4.8c-0.3,0.8-4,9.5-2.6,10.4c1.3,0.9,11.9,3.5,16.8,3.9c4.9,0.5,16.8,1.5,15,5.1c-1.8,3.6-12.4,1.3-14.1,0.8
		c-1.6-0.5-17.3-9.1-18.9-7.5c-1.6,1.6-1.7,14.8-1.7,16.4c0,1.6,1,11.9,1,11.9s5.5-6.6,9.5-7c4-0.5,23.8-2.9,24.3,0.1
		c0.6,3-14.9,4.4-18.2,6.2c-3.3,1.8-15.2,7.2-15.2,7.2s2.6,18.9,10.2,19.7c4.1-3.4,12.8-14.1,14.6-15.6c1.8-1.5,10.5-7.4,11.9-6.6
		c1.5,0.9,2.4,2.4-3.6,7.1c-6.1,4.7-22.2,21.7-22.2,21.7s9.5,14.5,16.2,17c1.7-1,3.8-12.2,4.3-13.4c0.5-1.2,10-19.6,13.9-15.1
		c-0.6,2.7-5.6,14.4-16,28.6c2.1,1.3,8.2,3.5,10.1,5.7c1.8,2.2,5.3,5.2,7.9,4.3c2.6-0.9,4.1-15.1,4.6-16.8
		c0.5-1.6,2.7-17.1,6.4-13.9c3.7,3.2-5.5,33-5.5,33s13.7,6,22.5,2.8c-0.7-3-2.1-13.4-2.5-16.3c-0.4-2.9,1.6-12.6,5-11.1
		c3.4,1.6,4.1,3.8,4.1,6.6c0,2.8,0.1,17.6,1.1,17.7c1,0.1,13.9-8.3,15.2-8.5c2.9-0.6,5-0.9,5-0.9s7.5-2.4,8.5-3.4
		c-2-1-11.9-12.2-12.3-16.5c1.8-0.7,2.8-1.1,2.8-1.1s7.4,12.9,11.7,16.2c3.8-2.2,7.9-3,12.7-15.2c-2.1-0.8-17.6-8-17.7-8.9
		c-0.1-0.9,1.3-2,17.8,6.3c1.5-3.5,4.8-19.6,3.4-21c-1.4-1.4-10.6-2.1-14.8-3.8c-4.2-1.7-22.3-7.6-20.8-10.9c1.6-3.4,6.7-1.9,10-1.3
		c3.3,0.6,20.8,9.2,22.6,8.4c1.8-0.7,3.9-2.4,3.9-2.4S317.3,56.9,316.1,56.3z M259.2,51.9c3.3-2.7,5.3-4.2,7.2-3.4
		c2,0.8-1.4,3.7-4.7,6.4c-3.3,2.7-5.5,5.5-7.2,3.4C253.8,57.4,255.9,54.6,259.2,51.9z M246.8,40.3c1.1-2.5,2.8-4.2,3.8-3.7
		c1,0.4,0.9,2.8-0.3,5.3c-1.1,2.5-2.8,4.2-3.8,3.7C245.5,45.2,245.6,42.8,246.8,40.3z M237.8,36.4c0.7-2.4,2.1-4.1,3.1-3.8
		c1.1,0.3,1.4,2.5,0.7,4.8c-0.7,2.4-2.1,4.1-3.1,3.8C237.5,40.9,237.2,38.8,237.8,36.4z M223.6,39.2c0.4-0.7,1.8-0.5,3.3,0.3
		c1.5,0.8,2.3,2,2,2.6c-0.4,0.7-1.8,0.5-3.3-0.3C224.1,41.1,223.3,39.9,223.6,39.2z M225.5,53c-0.2-2.4,2.6-2.6,5.9-2.7s6,1,6.1,2.3
		c0,1.4-2.6,2.6-5.9,2.7S225.7,54.4,225.5,53z M230.2,66.9c-1.3-3.1,1.8-4.1,5.5-5.6s6.9-2.1,7.8,0.2c0.6,1.6-1.8,4.1-5.5,5.6
		S230.8,68.5,230.2,66.9z M239.6,84.6c-2.8-1.9-0.8-4.4,1.5-7.7c2.2-3.2,4.6-5.5,6.6-4.1c1.4,1,0.8,4.4-1.5,7.7
		C244,83.7,241,85.5,239.6,84.6z M250.6,94.8c-2.8-1.9-0.8-4.4,1.5-7.7c2.2-3.2,6.5-5.3,8.6-3.9c1.4,1-1.2,4.2-3.4,7.5
		C255,94,252,95.8,250.6,94.8z M267.4,101.3c-0.4,2.4-1.6,4.2-2.7,4.1c-1.1-0.2-1.6-2.3-1.2-4.7c0.4-2.4,1.6-4.2,2.7-4.1
		C267.3,96.7,267.8,98.8,267.4,101.3z M249.3,54.6c-0.9-0.6-0.6-2.7,0.7-4.8c1.3-2.1,3-3.1,4.1-2.7c2.1,0.9,0.6,2.7-0.7,4.8
		C252.1,54,250.3,55.2,249.3,54.6z M270,71.4c-0.6,1.3-3.2,1.7-6.4,0.9c-3.2-0.8-5.4-2.6-5.2-3.9c0.5-2.3,3.3-2.2,6.5-1.3
		C268,67.8,272,67.1,270,71.4z M287,82.4c-0.2,1-3,1.4-6.2,0.9c-3.3-0.6-5.7-1.9-5.6-2.9c0.2-1.8,3-1.4,6.2-0.9
		C284.6,80,287.1,81.3,287,82.4z"/>
	<path class="st9" d="M301.3,164.8c0,0-2.8-7.4-7.2-18.3c-2.2-5.5-4.9-11.8-7.8-18.6c-1.5-3.4-3-6.9-4.6-10.4
		c-1.6-3.5-3.3-7.1-5.1-10.6c-0.9-1.8-1.8-3.5-2.7-5.2c-0.9-1.7-1.9-3.4-2.8-5.1c-2-3.4-3.9-6.6-5.9-9.7c-2-3.1-3.9-6.1-5.8-8.9
		c-1.9-2.8-3.7-5.5-5.4-7.9c-6.8-9.7-11.7-15.9-11.7-15.9s5,6.1,12.1,15.6c1.8,2.4,3.7,5,5.6,7.7c2,2.8,4,5.7,6.1,8.8
		c2.1,3.1,4.1,6.3,6.2,9.6c1,1.7,2,3.4,3,5.1c0.9,1.7,1.9,3.5,2.9,5.2c1.9,3.5,3.6,7,5.4,10.5c1.7,3.5,3.4,7,4.9,10.3
		c3.1,6.7,6,13,8.3,18.5c4.8,10.9,7.8,18.2,7.8,18.2L301.3,164.8z"/>
</g>
</svg>
