<?xml version="1.0" encoding="utf-8"?>
<!-- Generator: Adobe Illustrator 19.2.1, SVG Export Plug-In . SVG Version: 6.00 Build 0)  -->
<svg version="1.1" id="Layer_1" xmlns="http://www.w3.org/2000/svg" xmlns:xlink="http://www.w3.org/1999/xlink" x="0px" y="0px"
	 width="353.5px" height="243.4px" viewBox="0 0 353.5 243.4" style="enable-background:new 0 0 353.5 243.4;" xml:space="preserve"
	>
<style type="text/css">
	.st0{opacity:0.9;}
	.st1{fill:#84A668;}
	.st2{fill:#2E8F58;}
	.st3{opacity:0.8;fill:#172E57;}
	.st4{opacity:0.8;fill:#197A48;}
	.st5{fill:#57BD7F;}
</style>
<g class="st0">
	<g class="st0">
		<g>
			<path class="st1" d="M341.6,149.5c-2.5-0.5-5-0.8-7.6-1.1c-2.5-0.3-5-0.6-7.6-0.8c-2.5-0.2-5.1-0.4-7.6-0.6
				c-1.3-0.1-2.6-0.1-3.9-0.1c-0.7,0-1.3,0-2,0.1l-1.1,0.1c-0.4,0.1-0.9,0.3-1.4,0.4l0,0l-5,2l5.6,2c3,1.1,6,2.3,9,3.5
				c3,1.2,6,2.5,9,3.9c3,1.4,5.9,2.8,8.8,4.3c0.7,0.4,1.4,0.8,2.2,1.2c0.7,0.4,1.4,0.8,2.1,1.2c0.7,0.4,1.4,0.8,2.1,1.3l2.1,1.4
				l-1.9-1.6c-0.6-0.5-1.3-1-2-1.5c-0.7-0.5-1.3-1-2-1.5c-0.7-0.5-1.4-1-2-1.4c-2.8-1.9-5.6-3.6-8.4-5.3c-2.9-1.7-5.7-3.3-8.7-4.9
				c-2.9-1.6-5.8-3.1-8.9-4.6l0.6,4l0,0c0.1,0,0.1-0.1,0.3-0.2l0.7-0.2c0.5-0.1,1.1-0.2,1.7-0.3c1.2-0.2,2.4-0.3,3.6-0.5
				c2.4-0.3,4.9-0.4,7.4-0.6c2.5-0.1,5-0.2,7.5-0.3C336.6,149.5,339.1,149.4,341.6,149.5z"/>
			<path class="st1" d="M302.7,148.7c0,0,1.2,0.8,2.4,0.4c1.2-0.4,1.8-0.5,3.9-1.1c2.1-0.6,4.6-1.2,7.3-1.8c2.7-0.6,5.6-1.2,8.5-1.6
				c1.5-0.2,2.9-0.4,4.4-0.5c1.5-0.2,2.9-0.2,4.3-0.3c1.4-0.1,2.8,0,4.1-0.1c1.3,0,2.5,0.1,3.7,0.2c1.1,0,2.2,0.3,3.1,0.4
				c0.5,0.1,0.9,0.1,1.3,0.2c0.4,0.1,0.8,0.2,1.1,0.3c1.3,0.3,2.1,0.5,2.1,0.5s-0.7-0.3-2-0.7c-0.3-0.1-0.7-0.2-1.1-0.4
				c-0.4-0.1-0.8-0.2-1.3-0.3c-0.9-0.2-2-0.5-3.1-0.7c-1.2-0.2-2.4-0.4-3.7-0.5c-1.3-0.1-2.7-0.3-4.2-0.3c-1.4,0-2.9-0.1-4.4-0.1
				c-1.5,0-3,0-4.6,0.1c-3.1,0.1-6.1,0.4-8.9,0.8c-2.8,0.3-5.5,0.7-7.7,1.1c-2.2,0.4-4.1,0.7-5.4,1c-1.3,0.3-4.8,1.9-4.8,1.9
				L302.7,148.7z"/>
			<path class="st1" d="M291.1,146.5c0,0,1.5,0.8,6.3-0.5c4.8-1.3,11.3-3,17.8-4.5c6.5-1.5,13.2-2.7,18.2-3.2
				c2.5-0.2,4.7-0.3,6.2-0.1c0.4,0,0.7,0.1,1,0.2c0.3,0.1,0.5,0.1,0.7,0.2c0.4,0.1,0.6,0.2,0.6,0.2s-0.2-0.1-0.6-0.3
				c-0.2-0.1-0.4-0.2-0.7-0.3c-0.3-0.1-0.6-0.2-1-0.2c-1.5-0.3-3.7-0.5-6.3-0.4c-5.2,0.1-12,0.8-18.7,1.7c-6.7,1-13.4,2.1-18.4,3.1
				c-5,0.9-11.7,2.5-11.7,2.5L291.1,146.5z"/>
			<path class="st1" d="M281.8,145.5c0,0,0.9,0.2,5.2-2.1c5.5-1.9,12.1-4.6,19.5-6.8c1.9-0.5,3.7-1.1,5.6-1.5
				c0.9-0.2,1.8-0.4,2.8-0.6c0.9-0.1,1.9-0.2,2.8-0.3c3.7-0.3,7.2-0.3,10.2-0.2c3,0.1,5.5,0.3,7.3,0.6c0.9,0.1,1.6,0.2,2,0.3
				c0.5,0.1,0.7,0.2,0.7,0.2s-0.2-0.1-0.7-0.2c-0.5-0.1-1.2-0.3-2-0.5c-1.8-0.3-4.3-0.7-7.3-1c-3-0.3-6.6-0.5-10.4-0.4
				c-1,0-1.9,0.1-2.9,0.2c-1,0.1-2,0.2-2.9,0.4c-1.9,0.3-3.9,0.8-5.8,1.2c-7.7,1.8-15.3,3.8-21,5.4c-5.7,1.6-12.5,4-12.5,4
				L281.8,145.5z"/>
			<path class="st1" d="M269.8,144.4c0,0,0,0,6.2-2.2c3.1-1.1,6.8-2.4,10.6-3.9c1.9-0.8,3.9-1.6,5.9-2.7c1.9-1.2,3.6-2.1,5.6-3
				c3.9-1.8,7.9-3.4,11.8-4.7c1.9-0.6,3.8-1.2,5.6-1.7c1.8-0.5,3.6-0.9,5.2-1.1c1.6-0.3,3.1-0.4,4.5-0.6c0.7,0,1.3,0,1.9-0.1
				c0.6,0,1.1,0.1,1.6,0.1c1,0,1.8,0.3,2.3,0.4c0.5,0.1,0.8,0.2,0.8,0.2s-0.3-0.1-0.8-0.2c-0.5-0.1-1.3-0.4-2.3-0.5
				c-0.5-0.1-1.1-0.2-1.7-0.2c-0.6,0-1.3-0.1-2-0.1c-1.4,0-3,0-4.6,0.2c-1.7,0.1-3.5,0.4-5.4,0.8c-1.9,0.3-3.9,0.8-5.9,1.3
				c-4,1-8.3,2.3-12.4,3.9c-2,0.8-4.2,1.7-6,2.7c-1.8,0.8-3.8,1.5-5.7,2.1c-3.9,1.2-7.6,2.2-10.8,3.1c-6.4,1.7-14.2,4-14.2,4
				L269.8,144.4z"/>
			<path class="st1" d="M258.1,142.4C258.1,142.4,257.6,142.7,258.1,142.4C258.6,142.1,257.1,142.9,258.1,142.4
				c1.9-1,2.8-1.4,6.3-2.7c0.9-0.3,1.8-0.6,2.7-0.9c0.5-0.2,1-0.3,1.6-0.5l0.8-0.2l0.9-0.3c2.3-0.8,4.5-1.8,6.8-2.8
				c2.3-1.1,4.5-2.2,6.8-3.5c2.3-1.2,4.6-2.6,6.8-3.8c4.4-2.4,9.3-4.3,14-5.7c2.3-0.7,4.7-1.2,6.9-1.6c2.2-0.4,4.4-0.6,6.4-0.7
				c1,0,2,0,2.9-0.1c0.9,0,1.8,0.1,2.6,0.1c1.7,0.1,3.1,0.4,4.3,0.5c1.2,0.2,2.1,0.5,2.7,0.6c0.6,0.1,1,0.2,1,0.2s-0.3-0.1-1-0.3
				c-0.6-0.2-1.5-0.5-2.7-0.9c-1.2-0.2-2.6-0.7-4.3-0.9c-0.8-0.1-1.7-0.2-2.7-0.4c-0.9-0.1-1.9-0.1-3-0.2c-2.1-0.1-4.3,0-6.6,0.2
				c-2.3,0.2-4.8,0.5-7.3,1c-5,1-10.2,2.5-15.1,4.6c-2.5,1.1-4.8,2.2-7.1,3.2c-2.3,1-4.7,1.9-6.9,2.8c-2.2,0.8-4.5,1.6-6.5,2.1
				l-0.7,0.2l-0.8,0.2c-0.5,0.1-1.1,0.2-1.6,0.3c-1.1,0.2-2.2,0.5-3.2,0.8c-2.3,0.8-4,2.1-6.2,3c-1.1,0.5-4.3,2.2-4.9,2.5
				c-0.6,0.3-3.3,1.9-3.3,1.9L258.1,142.4z"/>
			<path class="st1" d="M323.2,113.1c-1.8-0.4-3.7-0.7-5.5-0.8c-1.9-0.1-3.7-0.2-5.5-0.1c-1.8,0-3.7,0.2-5.5,0.4
				c-1.8,0.2-3.6,0.5-5.4,0.8c-1.8,0.3-3.6,0.7-5.3,1.1c-1.8,0.4-3.5,0.9-5.2,1.5c-1.7,0.6-3.4,1.3-5,2.1c-1.7,0.9-3,1.9-4.5,2.7
				c-6.1,3.4-12.6,6.1-19.2,8.7l-5,1.9c-1.7,0.6-3.4,1.3-5.1,2.1c-1.6,0.8-3.2,1.7-4.8,2.7c-1.6,1-3,2-4.5,3.3l0,0l-2.3,2.2l3.1,1.5
				c7,3.4,14,7,21,10.7c7,3.6,13.9,7.4,20.8,11.2c3.5,1.9,6.9,3.9,10.3,5.8l5.1,3c1.7,1,3.4,2,5.1,3.1c1.7,1,3.4,2,5,3.1
				c1.7,1.1,3.4,2.1,5,3.2l4.9,3.3l4.8,3.5l-4.7-3.7l-4.8-3.6c-1.6-1.2-3.2-2.3-4.9-3.5c-1.6-1.2-3.3-2.3-4.9-3.4
				c-1.6-1.1-3.3-2.2-5-3.3l-5-3.2c-3.4-2.1-6.7-4.3-10.1-6.3c-6.7-4.2-13.5-8.2-20.4-12.2c-6.8-4-13.7-7.9-20.7-11.7l0.8,3.8l0,0
				c1-1.1,2.4-2.2,3.8-3.1c1.4-1,2.8-1.9,4.3-2.7c1.5-0.8,3-1.6,4.6-2.3l4.9-2.2c6.5-3,12.9-6.1,18.9-9.9c1.5-0.9,3-2.1,4.4-2.9
				c1.5-0.9,3-1.6,4.6-2.3c1.6-0.7,3.3-1.3,5-1.8c1.7-0.5,3.4-1,5.1-1.4c1.7-0.4,3.5-0.8,5.3-1.1c1.8-0.3,3.6-0.5,5.4-0.7
				c1.8-0.2,3.6-0.2,5.5-0.2C319.5,112.6,321.3,112.8,323.2,113.1z"/>
			<path class="st1" d="M237.5,141.3C238.2,140.8,236.7,141.9,237.5,141.3c0.8-0.5,1.6-1.1,2.5-1.6c1.7-1,3.4-2,5.2-2.8
				c0.9-0.4,1.8-0.8,2.7-1.1l0.7-0.2l0.8-0.3c0.5-0.2,1-0.3,1.5-0.6l1.6-0.7l1.4-0.7c1-0.5,1.9-1,2.8-1.5c3.6-2,7.2-4.2,10.6-6.4
				c3.5-2.2,6.9-4.5,10.3-6.8l-0.1,0c5.2-2.9,10.6-5.7,16.1-8.2c1.4-0.6,2.8-1.2,4.2-1.8c0.7-0.3,1.4-0.6,2.1-0.8
				c0.7-0.3,1.4-0.5,2.1-0.8l2.2-0.7l2.2-0.6c0.7-0.2,1.5-0.3,2.3-0.5c0.8-0.1,1.5-0.1,2.3-0.2c-0.8,0-1.6,0-2.4,0.1
				c-0.8,0.1-1.6,0.2-2.3,0.3l-2.3,0.5l-2.2,0.6c-0.7,0.2-1.5,0.4-2.2,0.7c-0.7,0.2-1.5,0.5-2.2,0.7c-1.5,0.5-2.9,1-4.3,1.5
				c-5.7,2.1-11.3,4.5-16.9,7.1l0,0l-0.1,0c-3.5,2.1-7.1,4.1-10.7,6c-3.6,1.9-7.2,3.8-10.9,5.6c-0.9,0.4-1.8,0.9-2.8,1.2l-1.4,0.6
				l-1.3,0.5c-0.4,0.2-1,0.3-1.5,0.5l-0.7,0.2l-0.8,0.2c-1.1,0.3-2.1,0.6-3.1,1c-2,0.8-4,1.6-5.9,2.6c-1,0.5-1.9,1-2.8,1.5
				c-0.9,0.5-3.1,3.3-4,4L237.5,141.3z"/>
			<path class="st1" d="M228.4,140.4c0,0,4.1-1.3,11.5-6.2c1.8-1.2,3.8-2.6,5.9-4c2.1-1.5,4.2-3,6.4-4.8c2.1-1.9,4.2-3.4,6.6-5
				c2.4-1.6,4.9-3,7.5-4.4c2.6-1.4,5.2-2.8,7.8-4c2.6-1.3,5.2-2.5,7.7-3.5c2.5-1.1,5.1-2,7.5-2.8c2.4-0.8,4.8-1.2,7-1.7
				c4.4-0.9,8.1-1.8,10.7-2.1c1.3-0.2,2.4-0.2,3.1-0.1c0.7,0,1.1,0.1,1.1,0.1s-0.4-0.1-1.1-0.1c-0.7-0.1-1.8-0.1-3.1,0
				c-2.7,0.2-6.4,0.9-10.9,1.7c-2.2,0.4-4.7,0.7-7.2,1.4c-2.5,0.6-5.1,1.5-7.7,2.5c-2.6,0.9-5.3,2.1-8,3.2c-2.7,1.2-5.4,2.4-8,3.7
				c-2.7,1.3-5.3,2.7-7.8,4.2c-2.5,1.4-5.1,3.1-7.1,4.9c-2.1,1.6-4.3,3.1-6.4,4.4c-2.1,1.4-4.1,2.6-6,3.7
				c-7.5,4.5-16.2,9.1-16.2,9.1L228.4,140.4z"/>
			<path class="st1" d="M221.4,140.6L221.4,140.6c2.1-1.6,5.2-3.9,8.7-6.8c1.8-1.4,3.7-3,5.7-4.8c1.9-1.8,4-3.6,6.1-5.5
				c4.2-3.8,8.7-7.8,13.3-11.7c2.3-1.9,4.7-3.8,7-5.6c2.4-1.8,4.7-3.4,7.2-4.8c2.5-1.4,4.9-2.6,7.3-3.7c2.4-1.1,4.7-2.1,6.8-3
				c4.3-1.8,7.8-3.3,10.3-4.3c2.5-1.1,3.8-1.8,3.8-1.8s-1.4,0.6-4,1.5c-2.6,0.9-6.2,2.1-10.6,3.6c-2.2,0.7-4.6,1.6-7.1,2.5
				c-2.5,0.9-5.1,2-7.7,3.2c-2.7,1.2-5.2,2.8-7.8,4.4c-2.5,1.6-5.1,3.4-7.6,5.1c-5,3.5-9.8,7.2-14.3,10.8c-2.2,1.8-4.4,3.4-6.4,5
				c-2,1.5-4,3-5.9,4.2c-3.7,2.6-6.9,4.6-9.1,6.1c-2.2,1.4-4.3,5.1-4.3,5.1L221.4,140.6z"/>
			<path class="st1" d="M211,140.8c0,0-0.9,0.8,1.1-0.9c2-1.8,4.8-4.3,8.1-7.4c1.7-1.6,3.4-3.3,5.3-5.1c1.9-1.9,3.7-3.8,5.7-5.7
				c4.1-3.9,8.6-7.9,13.1-11.9c4.5-4,9.1-8,13.3-11.7c2.1-1.9,4.2-3.6,6.3-5c2.1-1.5,4.2-2.7,6.2-3.8c4-2.2,7.6-3.5,10.2-4.2
				c1.3-0.4,2.3-0.6,3.1-0.7c0.7-0.1,1.1-0.2,1.1-0.2s-0.4,0.1-1.1,0.2c-0.7,0.1-1.8,0.3-3.1,0.6c-2.7,0.6-6.4,1.7-10.6,3.7
				c-2.1,1-4.3,2.1-6.6,3.5c-2.2,1.3-4.6,3-6.8,4.7c-4.5,3.5-9.3,7.2-14.1,10.9c-4.8,3.7-9.5,7.5-13.9,11.1
				c-2.2,1.8-4.3,3.8-6.1,5.4c-1.9,1.7-3.8,3.3-5.5,4.7c-3.5,2.9-6.4,5.2-8.5,6.8c-2.1,1.6-4.8,4.3-4.8,4.3L211,140.8z"/>
			<path class="st1" d="M201.3,140.9c0,0,3.1-3.1,10.1-9.9c3.5-3.4,7.6-7.4,11.9-11.7c2.2-2.1,4.4-4.4,6.6-6.7
				c2.2-2.3,4.5-4.7,6.7-7.1c2.2-2.4,4.4-4.8,6.6-7.1c2.2-2.3,4.5-4.5,6.9-6.2c2.5-1.6,5.2-2.9,7.7-4.2c2.6-1.2,5-2.3,7.3-3.1
				c2.3-0.9,4.5-1.6,6.4-2.2c2-0.5,3.7-1,5.1-1.2c0.7-0.1,1.4-0.2,2-0.3c0.6-0.1,1.1-0.1,1.5-0.1c0.8,0,1.2,0,1.2,0s-0.4,0-1.2,0
				c-0.4,0-0.9,0-1.5,0c-0.6,0-1.2,0.1-2,0.2c-1.5,0.2-3.2,0.5-5.2,1c-2,0.5-4.2,1.1-6.6,1.9c-2.4,0.8-4.9,1.7-7.6,2.8
				c-2.6,1.1-5.4,2.3-8.1,3.9c-2.7,1.7-5.1,3.8-7.5,6c-2.4,2.2-4.7,4.5-7,6.8c-2.3,2.3-4.7,4.6-7,6.8c-2.3,2.2-4.6,4.3-6.9,6.3
				c-4.6,4.1-8.8,7.9-12.5,11.1c-7.3,6.5-14.6,13-14.6,13L201.3,140.9z"/>
			<path class="st1" d="M192,141.5c0,0,17.7-18.9,36.2-39.2c2.3-2.5,4.6-5.1,6.8-7.6c1.1-1.2,2.2-2.6,3.2-3.9c1-1.3,2.1-2.4,3.3-3.5
				c2.3-2.2,4.7-4.1,7.3-5.5c2.5-1.5,5.2-2.4,7.7-3.1c5.1-1.2,9.7-1,12.8-0.6c3.2,0.4,4.9,1,4.9,1s-1.8-0.6-4.9-1.2
				c-1.6-0.3-3.5-0.5-5.7-0.5c-2.2,0-4.7,0.1-7.3,0.7c-2.6,0.5-5.4,1.5-8,2.8c-2.7,1.4-5.3,3.2-7.7,5.3c-1.2,1.1-2.4,2.3-3.5,3.5
				c-1.1,1.3-2.1,2.5-3.3,3.7c-2.3,2.4-4.7,4.9-7.1,7.3c-19.3,19.4-40,39.9-40,39.9L192,141.5z"/>
			<path class="st1" d="M185.2,142.1c0,0,1-3.3,7.1-10.4c3.1-3.6,6.6-7.7,10.5-12.2c3.8-4.5,7.9-9.2,11.9-14.1
				c2-2.5,3.8-5.1,5.7-7.5c1.8-2.5,3.6-4.9,5.4-7.3c1.8-2.3,3.6-4.5,5.4-6.5c1.8-2,3.6-3.8,5.6-5c2-1.2,4-2,5.9-2.5
				c1.9-0.5,3.6-0.8,5-1c2.8-0.4,4.5-0.3,4.5-0.3s-1.7-0.2-4.5,0c-1.4,0.1-3.2,0.3-5.1,0.8c-1.9,0.5-4.1,1.1-6.2,2.3
				c-2.1,1.2-4.1,2.9-6,4.8c-1.9,1.9-3.8,4-5.8,6.3c-1.9,2.2-3.9,4.6-5.8,7c-2,2.4-3.9,4.9-6,7.1c-4.2,4.6-8.5,9.2-12.6,13.4
				c-4.1,4.3-7.8,8.2-11.1,11.6c-6.5,6.8-11.3,13.3-11.3,13.3L185.2,142.1z"/>
			<path class="st1" d="M174.9,142.3c0,0,2-2.8,7.6-10.7c5.6-7.8,13.2-18.2,21.1-28.2c2-2.5,4-5,6-7.4c1-1.2,2-2.4,3-3.5
				c1-1.1,2-2.2,3.1-3.3c4.2-4.3,7.9-8.6,11.6-11.5c1.9-1.5,3.8-2.5,5.7-3.1c1.9-0.7,3.6-0.9,5-1.2c1.4-0.2,2.6-0.3,3.4-0.3
				c0.8,0,1.2-0.1,1.2-0.1s-0.4,0-1.2,0c-0.8,0-1.9,0-3.4,0.1c-1.5,0.1-3.2,0.3-5.2,0.9c-2,0.5-4,1.5-6.1,2.9c-2,1.4-4,3.1-6.1,5
				c-2,1.9-4.2,3.8-6.4,5.9c-1.1,1-2.2,2.1-3.3,3.2c-1.1,1.1-2.2,2.2-3.3,3.4c-2.2,2.3-4.3,4.7-6.5,7.1c-8.5,9.6-16.7,19.5-22.8,27
				c-6.1,7.5-12.2,14.9-12.2,14.9L174.9,142.3z"/>
			<path class="st1" d="M165.2,144.3c0,0,2.5-4.5,7.2-12.4c4.7-7.8,11-18.3,17.5-28.6c1.6-2.6,3.2-5.2,4.9-7.6
				c1.7-2.4,3.5-4.7,5.4-6.8c1.9-2.1,3.8-4,5.9-5.5c2-1.6,4.2-2.9,6.2-3.9c4.1-2,7.9-3,10.6-3.5c2.7-0.5,4.3-0.6,4.3-0.6
				s-1.6,0-4.4,0.3c-1.4,0.2-3,0.5-4.9,0.9c-1.8,0.5-3.9,1.1-6.1,2c-2.2,0.9-4.4,2.1-6.6,3.6c-2.2,1.5-4.4,3.3-6.4,5.3
				c-2,2-4,4.3-5.9,6.6c-1.9,2.4-3.6,4.9-5.4,7.4c-7.1,9.9-13.9,20-19.1,27.5c-5.2,7.5-10.3,15.1-10.3,15.1L165.2,144.3z"/>
			<path class="st1" d="M155.7,144.7c0,0,1.3-2.7,5.3-10.9c4-8.2,9.4-19,15-29.7c1.4-2.7,2.8-5.3,4.3-7.9c1.4-2.6,2.9-5.1,4.4-7.5
				c1.5-2.3,3.1-4.6,4.6-6.6c1.5-2.1,3-4,4.6-5.6c1.5-1.6,3.1-2.9,4.7-3.8c1.5-0.9,3.1-1.5,4.4-1.7c0.7-0.2,1.3-0.2,1.8-0.3
				c0.5-0.1,1-0.1,1.4-0.1c0.7,0,1.1,0,1.1,0s-0.4,0-1.1-0.1c-0.4,0-0.8-0.1-1.4,0c-0.5,0-1.2,0-1.8,0.1c-1.4,0.2-3,0.6-4.7,1.4
				c-1.7,0.8-3.4,2.1-5.1,3.6c-1.7,1.5-3.4,3.3-5.1,5.3c-1.7,2-3.5,4-5.2,6.3c-1.8,2.3-3.4,4.7-5,7.2c-1.6,2.5-3.3,5-4.9,7.6
				c-6.4,10.2-12.6,20.6-17.3,28.4c-4.6,7.8-8,15.1-8,15.1L155.7,144.7z"/>
			<path class="st1" d="M145.2,146.9c0,0,9.9-21.6,20.7-44.3c1.4-2.8,2.7-5.7,4-8.5c1.3-2.8,2.6-5.5,4-8c2.8-5.1,5.9-9.6,9.5-12.4
				c1.8-1.4,3.7-2.5,5.4-3.2c1.7-0.8,3.4-1.3,4.7-1.6c2.7-0.6,4.4-0.6,4.4-0.6s-1.7-0.2-4.5,0.3c-2.8,0.4-6.8,1.5-10.8,4.2
				c-4,2.7-7.6,7.1-10.8,12c-1.6,2.5-3.2,5.1-4.7,7.8c-1.5,2.7-3.1,5.4-4.7,8.1c-12.5,21.7-26.7,48-26.7,48L145.2,146.9z"/>
			<path class="st1" d="M135.9,148.6c0,0,9.6-22.9,20.9-48.7c0.7-1.6,1.4-3.3,2.1-4.8c0.8-1.5,1.6-3.1,2.4-4.6c1.6-3,3.3-5.9,5-8.7
				c1.7-2.8,3.4-5.4,5.2-7.8c1.8-2.3,3.6-4.6,5.7-5.9c2.2-1.3,4.5-2.2,6.6-2.7c2.1-0.5,4-0.7,5.6-0.8c1.6-0.1,2.9,0,3.7,0
				c0.9,0,1.3,0.1,1.3,0.1s-0.5-0.1-1.3-0.2c-0.9-0.1-2.1-0.2-3.7-0.3c-1.6,0-3.6,0-5.8,0.4c-2.2,0.4-4.6,1.2-7,2.4
				c-2.4,1.4-4.4,3.5-6.4,5.8c-2,2.3-3.9,4.9-5.8,7.5c-1.9,2.7-3.8,5.5-5.6,8.5c-0.9,1.5-1.8,3-2.7,4.5c-0.9,1.6-1.6,3.1-2.5,4.7
				c-12.8,24.9-28.5,53.3-28.5,53.3L135.9,148.6z"/>
			<path class="st1" d="M126.3,151.2c0,0,2.7-3.6,7.1-13.9c4.3-10.3,10.1-24,15.8-37.9c0.7-1.7,1.4-3.5,2.1-5.2
				c0.7-1.8,1.2-3.5,1.9-5.2c1.3-3.3,2.8-6.6,4.5-9.5c1.7-2.9,3.6-5.6,5.7-7.9c2.1-2.3,4.4-4.1,6.8-5.3c1.2-0.6,2.5-1,3.7-1.4
				c1.2-0.4,2.4-0.8,3.5-1.1c2.2-0.6,4.2-1.1,5.8-1.4c3.3-0.6,5.2-0.7,5.2-0.7s-2-0.1-5.3,0.3c-1.7,0.2-3.7,0.5-6,1
				c-1.1,0.2-2.3,0.5-3.6,0.9c-1.3,0.3-2.6,0.6-3.9,1.2c-2.7,1-5.3,2.8-7.7,5.1c-2.4,2.2-4.5,4.9-6.5,7.8c-2,2.9-3.8,6.1-5.4,9.4
				c-0.8,1.7-1.5,3.5-2.3,5.1c-0.8,1.7-1.6,3.3-2.4,5c-6.6,13.3-13.3,26.5-18.4,36.4c-5.1,9.9-10.6,20.4-10.6,20.4L126.3,151.2z"/>
			<path class="st1" d="M116.9,154.8c0,0,3-5,6.4-15.8c1.7-5.4,3.7-11.7,5.9-18.4c1.1-3.4,2.2-6.8,3.3-10.4
				c1.1-3.5,2.2-7.2,3.4-10.6c1.2-3.4,2.7-6.9,4.3-10.1c1.5-3.3,3.2-6.5,4.8-9.5c1.7-3,3.4-5.9,5.2-8.5c0.9-1.3,1.9-2.5,2.8-3.5
				c1-1,2.2-1.8,3.3-2.5c2.4-1.4,4.7-2.4,6.8-3.3c2.1-0.9,4-1.5,5.6-2c1.6-0.5,2.8-0.8,3.7-1.1c0.9-0.2,1.3-0.3,1.3-0.3
				s-0.5,0-1.4,0.2c-0.9,0.1-2.2,0.4-3.8,0.8c-1.6,0.4-3.6,0.9-5.8,1.6c-2.2,0.7-4.7,1.6-7.3,2.8c-1.3,0.7-2.6,1.4-3.8,2.4
				c-1.2,1-2.2,2.2-3.3,3.4c-2.1,2.5-4.1,5.2-6,8.2c-1.9,2.9-3.8,6-5.6,9.3c-1.8,3.2-3.6,6.5-5.2,10c-1.6,3.6-2.9,7-4.3,10.4
				c-1.4,3.4-2.8,6.8-4.1,10c-2.6,6.5-5.1,12.6-7.2,17.8c-4.2,10.4-7.8,20.4-7.8,20.4L116.9,154.8z"/>
			<path class="st1" d="M108.3,157.5c0,0,3-3.8,5.5-12.5c2.5-8.7,5.9-20.2,9.3-31.7c0.9-2.9,1.8-5.7,2.6-8.6c0.9-2.8,1.8-5.5,2.9-8
				c2.1-5.1,4.4-9.7,6.8-13.4c1.2-1.9,2.4-3.5,3.5-4.8c0.6-0.7,1.2-1.3,1.7-1.9c0.6-0.5,1.1-1,1.5-1.5c1-0.8,1.8-1.4,2.4-1.8
				c0.6-0.4,0.9-0.6,0.9-0.6s-0.3,0.2-1,0.5c-0.6,0.3-1.5,0.8-2.6,1.6c-0.5,0.4-1.1,0.8-1.7,1.3c-0.6,0.5-1.2,1.1-1.9,1.7
				c-1.3,1.3-2.7,2.8-4,4.6c-2.8,3.5-5.5,8-8.1,13c-1.3,2.5-2.5,5.2-3.7,7.9c-1.1,2.7-2.2,5.5-3.4,8.3c-4.5,11.1-8.8,22.2-12.1,30.6
				c-3.3,8.4-6.3,17.5-6.3,17.5L108.3,157.5z"/>
			<path class="st1" d="M100.8,159.7c0,0,1.3-2.7,3.2-11.7c2-8.9,4.6-20.9,7.6-32.7c0.8-2.9,1.5-5.9,2.4-8.7
				c0.8-2.9,1.7-5.6,2.7-8.2c2.1-5.3,4-10.2,6.2-14c1.1-1.9,2.4-3.5,3.6-4.8c1.2-1.3,2.5-2.3,3.5-3c1.1-0.7,2-1.3,2.6-1.6
				c0.6-0.3,0.9-0.5,0.9-0.5s-0.3,0.2-1,0.4c-0.7,0.3-1.6,0.7-2.8,1.4c-1.1,0.7-2.5,1.5-3.9,2.7c-1.4,1.2-2.8,2.7-4.2,4.6
				c-2.7,3.7-5.1,8.5-7.7,13.5c-1.3,2.6-2.5,5.3-3.5,8.1c-1.1,2.8-2.1,5.6-3.2,8.5c-4.1,11.5-7.8,23-10.6,31.7
				c-2.7,8.7-5.8,18.5-5.8,18.5L100.8,159.7z"/>
			<path class="st1" d="M93.9,163c0,0,0.5-3.4,2-12.9c1.5-9.5,3.6-22.2,6-34.7c0.6-3.1,1.2-6.3,1.9-9.3c0.4-1.5,0.7-3,1.1-4.4
				c0.4-1.4,0.9-2.9,1.4-4.3c1.9-5.6,3.8-10.7,6-14.9c1.1-2.1,2.1-3.9,3.2-5.5c1-1.6,2.1-2.8,3-3.9c0.9-1,1.7-1.8,2.2-2.2
				c0.6-0.5,0.8-0.7,0.8-0.7s-0.3,0.2-0.9,0.7c-0.6,0.4-1.4,1.1-2.5,2c-1,0.9-2.2,2.1-3.4,3.6c-1.2,1.5-2.5,3.3-3.7,5.3
				c-2.5,4-5,9-7.3,14.4c-0.6,1.4-1.2,2.7-1.8,4.2c-0.6,1.5-1.1,3-1.6,4.5c-1,3-1.8,6.1-2.7,9.1c-3.5,12.3-6.6,24.7-8.9,33.9
				c-2.3,9.3-3.1,18.5-3.1,18.5L93.9,163z"/>
			<path class="st1" d="M86.6,165.9c0,0-0.4-2.5,0.6-11.4c1-8.9,2.5-20.7,4.3-32.4c0.5-2.9,0.9-5.9,1.5-8.7c0.3-1.4,0.5-2.8,0.8-4.2
				c0.3-1.4,0.6-2.8,0.9-4.1c0.3-1.3,0.6-2.6,1.1-3.8c0.4-1.2,0.9-2.4,1.3-3.6c0.9-2.3,1.8-4.5,2.6-6.6c0.8-2,1.6-3.9,2.4-5.4
				c0.8-1.6,1.6-2.9,2.4-3.9c0.7-1,1.4-1.8,1.9-2.3c0.5-0.5,0.7-0.8,0.7-0.8s-0.3,0.2-0.8,0.7c-0.5,0.5-1.2,1.1-2.1,2.1
				c-0.8,0.9-1.8,2.2-2.7,3.7c-0.9,1.5-1.9,3.3-2.9,5.2c-1,2-2,4.1-3.2,6.3c-1.1,2.2-2.3,4.8-3.1,7.4c-0.5,1.3-0.9,2.7-1.3,4
				c-0.4,1.4-0.8,2.8-1.2,4.2c-0.8,2.8-1.5,5.7-2.2,8.6c-2.8,11.5-5.3,23.2-7,31.9c-1.8,8.7-3.9,18.2-3.9,18.2L86.6,165.9z"/>
			<path class="st1" d="M96.7,80.8c0,0-0.3,0.3-0.8,0.7c-0.5,0.5-1.2,1.2-1.9,2.3c-1.6,2-3.6,5.2-5.6,9.2c-1,2-2,4.2-3,6.6
				c-0.5,1.2-1,2.4-1.4,3.7c-0.4,1.3-0.9,2.5-1.3,3.9c-0.8,2.8-1.6,5.6-2.3,8.5c-0.7,2.9-1.4,5.8-2.1,8.8c-2.7,11.8-5,23.7-6.6,32.6
				c-1.6,9-2.4,18.4-2.4,18.4l8.3-4.9c0,0,0.7-2.7,1.5-11.8c0.9-9.1,2.1-21.2,3.6-33.2c0.4-3,0.8-6,1.3-8.9c0.5-2.9,0.9-5.8,1.5-8.5
				c0.2-1.4,0.6-2.7,0.9-4c0.3-1.3,0.7-2.5,1.1-3.8c0.8-2.4,1.5-4.7,2.3-6.8c1.6-4.1,3.2-7.4,4.6-9.6c0.7-1.1,1.3-1.9,1.7-2.4
				C96.5,81.1,96.7,80.8,96.7,80.8z"/>
			<path class="st1" d="M70.1,176.4c0,0,1-4.8,1.2-14.5c0.2-9.8,0.5-22.8,1-35.7c0.1-3.2,0.3-6.5,0.4-9.7c0.2-3.2,0.3-6.3,0.6-9.2
				c0.4-3,0.6-6,1.1-8.6c0.5-2.6,1.4-4.9,2.5-7c1-2.1,2.2-3.9,3.2-5.5c1-1.6,2-2.9,2.8-4c1.6-2.2,2.5-3.5,2.5-3.5s-1,1.2-2.8,3.2
				c-0.9,1-2,2.3-3.2,3.8c-1.2,1.5-2.5,3.2-3.8,5.2c-1.3,2-2.5,4.4-3.3,7.1c-0.8,2.7-1.2,5.6-1.9,8.5c-0.6,3.1-1,6.1-1.5,9.3
				c-0.4,3.2-0.8,6.4-1.2,9.6c-1.6,12.8-3,25.6-4.1,35.3c-1,9.6-2,20.2-2,20.2L70.1,176.4z"/>
			<path class="st1" d="M62.4,181.4c0,0,0.8-5.4,0.6-14.7c-0.2-9.4-0.4-21.8-0.3-34.3c0-3.1,0.1-6.2,0.2-9.3c0.1-3,0.2-6,0.5-8.9
				c0.5-5.7,1.3-11,2.4-15.4c1.1-4.4,2.4-7.9,3.6-10.2c0.6-1.2,1.1-2,1.5-2.6c0.4-0.6,0.6-0.9,0.6-0.9s-0.2,0.3-0.7,0.8
				c-0.4,0.6-1,1.4-1.7,2.5c-1.4,2.2-3.1,5.6-4.6,10c-1.5,4.3-2.7,9.6-3.7,15.3c-0.5,2.8-0.9,5.9-1.3,8.9c-0.3,3-0.7,6.1-0.9,9.2
				c-1.1,12.4-1.9,24.7-2.5,34c-0.5,9.3-0.7,20.4-0.7,20.4L62.4,181.4z"/>
			<path class="st1" d="M58.3,184.2c0,0,0.5-2.5-0.1-12c-0.6-9.4-1.5-22-2.1-34.6c-0.2-3.1-0.3-6.3-0.4-9.3c0-0.7,0-1.5,0-2.2
				c0-0.8,0.1-1.5,0.1-2.2c0.1-1.5,0.2-2.9,0.3-4.4c0.4-5.8,1.1-11.1,1.8-15.7c0.3-2.3,0.7-4.3,1.1-6.2c0.4-1.8,0.8-3.4,1.2-4.7
				c0.4-1.3,0.7-2.3,1-2.9c0.3-0.7,0.4-1,0.4-1s-0.2,0.3-0.5,1c-0.4,0.6-0.8,1.6-1.3,2.8c-0.5,1.2-1.1,2.7-1.7,4.5
				c-0.6,1.8-1.2,3.8-1.8,6c-1.2,4.4-2.4,9.7-3.5,15.4c-0.3,1.4-0.5,2.9-0.8,4.4c-0.1,0.7-0.2,1.5-0.3,2.2c-0.1,0.8-0.2,1.6-0.2,2.4
				c-0.2,3.1-0.4,6.2-0.6,9.3c-0.6,12.5-1.1,25-1.5,34.3c-0.3,9.4,1.5,19.3,1.5,19.3L58.3,184.2z"/>
			<path class="st1" d="M349.7,157.3c0,0-1.6-0.7-4-1.5c-2.4-0.8-5.7-1.8-9-2.5c-3.3-0.8-6.7-1.4-9.2-1.9
				c-2.5-0.4-15.7-3.5-15.7-3.5l0.9,2.7c0,0,12.3,3.5,14.7,3.6c2.5,0.1,5.8,0.4,9.1,0.7c3.3,0.4,6.6,0.9,9.1,1.4
				C348.1,156.8,349.7,157.3,349.7,157.3z"/>
			<polygon class="st1" points="296.1,147.2 346.4,172.2 306.5,148.8 			"/>
			<path class="st1" d="M286.9,145.9c0,0,5.6,3.9,10.3,6.2c4.8,2.4,11.1,5.7,17.4,9.1c3.1,1.7,6.3,3.4,9.2,5.1
				c2.9,1.7,5.6,3.3,7.9,4.7c1.1,0.7,2.2,1.4,3.1,1.9c0.9,0.6,1.7,1.1,2.4,1.5c1.3,0.9,2.1,1.4,2.1,1.4s-0.7-0.5-2-1.5
				c-0.6-0.5-1.4-1.1-2.3-1.7c-0.9-0.6-1.9-1.4-3-2.2c-2.2-1.6-4.8-3.4-7.6-5.2c-2.8-1.9-5.8-3.8-8.9-5.8
				c-6.1-3.9-12.2-7.6-16.8-10.4c-4.6-2.7-7.3-3.2-7.3-3.2L286.9,145.9z"/>
			<path class="st1" d="M275.9,145.3c0,0,15.8,6.6,26.8,12.2c5.5,2.8,11,5.8,14.9,8.2c1,0.6,1.9,1.2,2.7,1.7c0.8,0.5,1.5,0.9,2,1.4
				c1.1,0.8,1.8,1.2,1.8,1.2s-0.6-0.5-1.7-1.4c-0.5-0.4-1.2-0.9-2-1.5c-0.8-0.6-1.6-1.2-2.6-1.9c-3.8-2.7-9.1-6.1-14.4-9.3
				c-10.7-6.5-22-11.5-22-11.5L275.9,145.3z"/>
			<path class="st1" d="M263.8,143.1c0,0,18.7,9.2,33.4,17.1c7.4,3.9,14.7,8,20,11.3c1.3,0.8,2.6,1.6,3.6,2.3c1.1,0.7,2,1.3,2.8,1.8
				c1.5,1.1,2.4,1.7,2.4,1.7s-0.8-0.6-2.3-1.8c-0.7-0.6-1.6-1.2-2.7-2c-1-0.8-2.2-1.6-3.5-2.5c-5.2-3.5-12.4-8-19.6-12.3
				c-14.4-8.6-26.6-15.3-26.6-15.3L263.8,143.1z"/>
			<polygon class="st1" points="252.3,142 329,183.5 262,142.9 			"/>
			<path class="st1" d="M230.2,140.5c0,0,26.7,14.5,48.4,27.3c5.4,3.2,10.8,6.4,15.8,9.5c2.5,1.6,4.9,3.1,7.2,4.5
				c2.3,1.5,4.4,2.8,6.4,4.1c2,1.3,3.8,2.5,5.3,3.6c1.6,1.1,2.9,2.1,4,2.9c1.1,0.8,1.9,1.6,2.5,2c0.6,0.5,0.9,0.7,0.9,0.7
				s-0.3-0.3-0.8-0.8c-0.6-0.5-1.3-1.2-2.4-2.1c-1.1-0.9-2.4-1.9-3.9-3.1c-1.5-1.1-3.3-2.4-5.2-3.9c-1.9-1.4-4-2.9-6.2-4.4
				c-2.2-1.5-4.6-3.2-7-4.8c-4.9-3.3-10.2-6.8-15.4-10.3c-21.1-13.8-41-24.8-41-24.8L230.2,140.5z"/>
			<path class="st1" d="M223.2,140.3c0,0,25.6,13.9,46.7,26.2c10.6,6.1,21.1,12.5,28.8,17.4c2,1.2,3.7,2.4,5.3,3.4
				c1.6,1,2.9,1.9,4,2.7c2.2,1.5,3.5,2.4,3.5,2.4s-1.2-0.9-3.4-2.5c-1.1-0.8-2.4-1.8-3.9-2.9c-1.5-1.1-3.2-2.4-5.1-3.7
				c-7.5-5.3-17.7-12.2-28.1-18.8c-20.6-13.4-38.9-24.4-38.9-24.4L223.2,140.3z"/>
			<path class="st1" d="M213.8,141c0,0,7.8,3.5,15.6,7.5c3.9,2,8.4,4.3,13.2,6.9c2.4,1.3,4.9,2.6,7.4,4c2.5,1.4,5.1,2.8,7.6,4.3
				c2.5,1.4,5,2.9,7.5,4.4c2.5,1.5,4.8,3,7.2,4.5c2.3,1.4,4.5,3,6.6,4.4c2.1,1.4,4,2.9,5.8,4.1c1.8,1.3,3.3,2.6,4.7,3.7
				c0.7,0.6,1.3,1.1,2,1.6c0.6,0.5,1.1,1,1.6,1.4c1.9,1.7,3,2.7,3,2.7s-1-1-2.9-2.9c-0.5-0.5-1-1-1.5-1.5c-0.6-0.5-1.2-1.1-1.9-1.7
				c-1.4-1.2-2.8-2.6-4.6-3.9c-1.7-1.4-3.6-2.9-5.6-4.4c-2-1.5-4.1-3.2-6.4-4.7c-2.3-1.6-4.6-3.2-7-4.8c-2.4-1.6-4.9-3.2-7.3-4.8
				c-2.5-1.6-5-3.1-7.4-4.7c-2.5-1.5-4.9-3-7.3-4.4c-4.7-2.8-9.2-5.4-13-7.5c-7.7-4.3-9.3-5-9.3-5L213.8,141z"/>
			<path class="st1" d="M205,141.1c0,0,8.7,4.2,16.8,8.6c8.1,4.4,18.9,10.4,29.5,16.7c2.7,1.6,5.3,3.2,7.9,4.8
				c2.6,1.6,5.1,3.2,7.6,4.7c2.5,1.5,4.8,3.1,7,4.6c2.2,1.5,4.3,2.9,6.2,4.3c0.9,0.7,1.9,1.3,2.7,1.9c0.8,0.6,1.6,1.3,2.4,1.8
				c1.5,1.2,2.8,2.1,3.8,3c2.1,1.8,3.3,2.8,3.3,2.8s-1.1-1.1-3.1-2.9c-1-1-2.2-2-3.7-3.2c-0.7-0.6-1.5-1.3-2.3-2
				c-0.8-0.7-1.7-1.4-2.6-2.1c-1.8-1.5-3.8-3-6-4.6c-2.1-1.6-4.4-3.3-6.8-5c-2.4-1.7-4.8-3.4-7.4-5.2c-2.5-1.8-5.1-3.5-7.7-5.2
				c-10.3-6.9-20.9-13.5-28.8-18.3c-7.9-4.9-9.5-5.8-9.5-5.8L205,141.1z"/>
			<path class="st1" d="M193.8,140.7c0,0,9.7,4.6,19.2,9.5c2.3,1.2,4.9,2.6,7.6,4c2.7,1.4,5.5,2.9,8.4,4.6c2.9,1.6,5.9,3.3,8.9,5
				c3,1.7,6.1,3.5,9.1,5.3c3.1,1.8,6.1,3.7,9,5.5c3,1.8,5.8,3.8,8.6,5.6c2.8,1.8,5.4,3.7,7.9,5.4c2.5,1.8,4.8,3.5,6.9,5.1
				c2.1,1.6,4,3.2,5.7,4.6c1.7,1.3,3.1,2.6,4.3,3.7c2.3,2.1,3.6,3.3,3.6,3.3s-1.3-1.2-3.5-3.4c-1.1-1.1-2.5-2.4-4.1-3.8
				c-1.7-1.4-3.5-3.1-5.6-4.8c-2.1-1.7-4.4-3.5-6.8-5.4c-2.5-1.8-5-3.8-7.8-5.7c-2.7-1.9-5.5-4-8.5-5.9c-2.9-1.9-5.9-4-8.9-5.9
				c-3-1.9-6-3.9-9-5.7c-3-1.9-5.9-3.6-8.8-5.4c-2.9-1.7-5.7-3.3-8.3-4.9c-2.7-1.5-5.2-2.9-7.5-4.3c-9.3-5.2-12.5-6.8-12.5-6.8
				L193.8,140.7z"/>
			<path class="st1" d="M185.8,141.5c0,0,10.3,4.7,19.5,9.7c4.6,2.5,10,5.4,15.6,8.7c2.8,1.6,5.7,3.4,8.7,5.2
				c1.5,0.9,2.9,1.8,4.4,2.8c1.5,0.9,2.9,1.9,4.4,2.9c2.9,1.9,5.7,4.1,8.5,6.1c2.8,2,5.7,4,8.4,5.8c5.5,3.7,10.8,6.9,15.3,9.6
				c9.1,5.4,15.3,8.6,15.3,8.6s-6.1-3.5-14.9-9.3c-4.4-2.9-9.5-6.3-14.8-10.2c-2.7-2-5.4-4-8.1-6.1c-2.7-2.1-5.5-4.4-8.3-6.5
				c-1.4-1.1-2.9-2.1-4.3-3.1c-1.4-1-2.9-2-4.3-3c-2.9-2-5.7-3.8-8.5-5.6c-5.6-3.6-10.9-6.8-15.4-9.5c-9.1-5.4-11.6-6.7-11.6-6.7
				L185.8,141.5z"/>
			<path class="st1" d="M178.3,142.5c0,0,9.1,4.1,18.6,9.1c4.7,2.5,10.2,5.5,16.1,8.7c2.9,1.7,5.9,3.4,8.9,5.2c3,1.8,6.1,3.7,9,5.7
				c6,4,11.8,8.2,17.2,12.2c2.7,2,5.3,4,7.8,5.8c2.5,1.8,4.8,3.6,7.1,5.1c4.6,2.8,8.6,5,11.3,6.5c2.8,1.5,4.3,2.3,4.3,2.3
				s-1.6-0.9-4.3-2.5c-2.7-1.6-6.6-3.9-11.1-6.9c-2.2-1.5-4.5-3.4-6.9-5.3c-2.4-1.9-5-4-7.6-6.1c-5.3-4.2-11-8.7-16.9-12.9
				c-3-2.1-5.9-4.2-8.9-6.1c-3-2-5.9-3.8-8.8-5.6c-5.8-3.5-11.2-6.7-15.9-9.4c-9.4-5.4-12.6-7-12.6-7L178.3,142.5z"/>
			<path class="st1" d="M169.4,143.5c0,0,8,3.4,15.3,7.1c7.2,3.6,16.9,8.6,26.4,13.7c2.4,1.3,4.8,2.6,7.1,3.8
				c2.3,1.3,4.6,2.6,6.8,3.8c4.4,2.5,8.5,4.9,12,7c1.8,1,3.3,2,4.7,2.9c1.4,0.9,2.6,1.6,3.6,2.3c2,1.3,3.1,2,3.1,2s-1.1-0.8-3-2.2
				c-1-0.7-2.1-1.6-3.5-2.5c-1.4-0.9-2.9-2-4.6-3.2c-3.4-2.3-7.4-4.9-11.7-7.7c-2.2-1.4-4.4-2.8-6.7-4.2c-2.3-1.4-4.6-2.8-6.9-4.3
				c-9.3-5.7-18.7-11.2-25.8-15.2c-7.1-4.1-9.3-5.5-9.3-5.5L169.4,143.5z"/>
			<path class="st1" d="M160.5,144.3c0,0,8.6,4.9,18.5,9.7c4.9,2.4,10.7,5.2,16.9,8.3c6.1,3.1,12.7,6.4,19.1,10
				c3.2,1.8,6.4,3.6,9.3,5.6c3,2,5.9,4.1,8.7,6.2c5.5,4.2,10.6,8.2,15.1,11.5c2.2,1.7,4.3,3.1,6.2,4.3c1.9,1.2,3.6,2.2,5.1,2.9
				c0.7,0.4,1.4,0.6,2,0.8c0.6,0.2,1.1,0.4,1.5,0.4c0.8,0.1,1.3,0.2,1.3,0.2s-0.4-0.1-1.3-0.3c-0.4-0.1-0.9-0.3-1.5-0.5
				c-0.6-0.2-1.2-0.5-1.9-0.9c-1.4-0.7-3.1-1.8-4.9-3.1c-1.8-1.3-3.8-2.9-6-4.6c-4.3-3.5-9.2-7.8-14.5-12.2
				c-2.7-2.2-5.5-4.5-8.5-6.7c-3-2.2-6.1-4.2-9.3-6.2c-6.3-3.9-12.7-7.6-18.8-11c-6-3.4-11.7-6.5-16.5-9.2
				c-9.7-5.3-12.7-6.6-12.7-6.6L160.5,144.3z"/>
			<path class="st1" d="M153.6,145.4c0,0,7.4,4.9,15.5,8.9c8.1,4.1,18.9,9.5,29.5,15.1c2.7,1.4,5.3,2.8,7.9,4.3
				c1.3,0.7,2.5,1.5,3.8,2.2c1.2,0.8,2.4,1.6,3.6,2.4c4.7,3.2,9,6.3,12.7,9c3.7,2.7,6.8,4.9,8.9,6.5c2.2,1.6,3.4,2.4,3.4,2.4
				s-1.2-0.9-3.3-2.6c-2.1-1.7-5-4.1-8.6-7c-3.5-2.9-7.7-6.3-12.3-9.7c-1.2-0.9-2.3-1.7-3.5-2.6c-1.2-0.9-2.5-1.7-3.7-2.5
				c-2.5-1.6-5.1-3.2-7.7-4.8c-10.4-6.3-20.9-12.4-28.8-16.9c-7.9-4.5-10.5-5.8-10.5-5.8L153.6,145.4z"/>
			<path class="st1" d="M145.2,146.9c0,0,7.3,4,15.6,8.2c4.2,2.1,9,4.6,14.2,7.4c2.6,1.4,5.2,2.9,7.9,4.4c2.7,1.5,5.4,3.1,8,4.8
				c2.6,1.6,5.3,3.4,7.8,5.1c2.5,1.7,5,3.5,7.4,5.2c4.8,3.5,9.1,6.9,12.9,9.7c1.9,1.4,3.7,2.7,5.3,3.8c1.6,1.1,3,2,4.3,2.6
				c0.6,0.3,1.2,0.6,1.6,0.8c0.5,0.2,0.9,0.4,1.2,0.5c0.7,0.2,1.1,0.4,1.1,0.4s-0.4-0.1-1-0.4c-0.3-0.1-0.8-0.3-1.2-0.6
				c-0.5-0.2-1-0.5-1.6-0.9c-1.2-0.7-2.6-1.6-4.1-2.8c-1.5-1.1-3.2-2.5-5.1-4c-3.6-3-7.8-6.6-12.5-10.4c-2.3-1.9-4.7-3.8-7.2-5.7
				c-2.5-1.9-5-3.7-7.7-5.6c-2.6-1.8-5.2-3.6-7.9-5.3c-2.6-1.7-5.2-3.3-7.7-4.9c-5.1-3.1-9.8-5.9-13.9-8.2c-8.2-4.7-10.8-6-10.8-6
				L145.2,146.9z"/>
			<path class="st1" d="M135.1,149.4c0,0,3.6,1.8,4.1,1.9c0.5,0.1,1.3,0.3,2.4,0.6c1,0.3,2.3,0.7,3.8,1.1c1.5,0.5,3.1,1,4.9,1.7
				c0.9,0.3,1.8,0.7,2.8,1.1c1,0.4,2,0.8,3,1.2c2,0.8,4.2,1.9,6.4,2.9c2.2,1.1,4.5,2.2,6.7,3.4c2.3,1.2,4.6,2.4,6.9,3.7
				c2.3,1.3,4.6,2.6,6.8,3.9c2.2,1.4,4.4,2.6,6.5,4c2.1,1.4,4.1,2.7,6,3.9c1.9,1.3,3.6,2.5,5.3,3.6c1.6,1.1,3.1,2.2,4.4,3.1
				c1.3,1,2.4,1.8,3.4,2.5c1.9,1.4,2.9,2.2,2.9,2.2s-1-0.9-2.8-2.4c-0.9-0.8-2-1.7-3.2-2.7c-1.2-1.1-2.6-2.2-4.2-3.4
				c-1.6-1.2-3.3-2.6-5-4c-1.8-1.4-3.8-2.8-5.7-4.3c-2-1.5-4.1-3-6.2-4.5c-2.1-1.5-4.4-3-6.6-4.5c-2.2-1.5-4.5-2.9-6.7-4.3
				c-2.2-1.4-4.5-2.6-6.6-3.9c-2.2-1.2-4.3-2.4-6.4-3.4c-1-0.5-2-1-3-1.5c-1-0.5-1.9-0.9-2.8-1.3c-1.8-0.9-3.5-1.6-5-2.2
				c-1.5-0.6-2.9-1.1-4-1.5c0,0,0.7,0.2,0,0c-0.6-0.2,0,0,0,0L135.1,149.4z"/>
			<path class="st1" d="M127.4,150.9c0,0,2.4,2,3,2.1c0.5,0.1,2.3,0.8,3.4,1c2,0.5,5,1.2,8.4,2.4c1.7,0.6,3.6,1.3,5.5,2.1
				c1.9,0.8,3.9,1.8,6,2.9c1,0.6,2,1.1,3,1.8c0.5,0.3,1,0.6,1.5,0.9c0.5,0.3,1,0.7,1.5,1c2,1.4,4.1,3,6.2,4.5
				c8.5,5.9,17.5,11.1,24.4,14.4c1.7,0.8,3.3,1.6,4.8,2.1c1.4,0.6,2.7,1.1,3.8,1.4c1.1,0.3,1.9,0.6,2.5,0.7c0.6,0.1,0.9,0.2,0.9,0.2
				s-0.3-0.1-0.9-0.3c-0.6-0.2-1.4-0.5-2.4-0.9c-1-0.4-2.2-1-3.6-1.7c-1.4-0.7-2.9-1.5-4.6-2.5c-6.6-3.9-15-9.7-22.9-16.2
				c-2-1.6-3.8-3.3-5.8-5c-0.5-0.4-1-0.8-1.5-1.3c-0.5-0.4-1-0.8-1.6-1.2c-1-0.8-2.1-1.5-3.1-2.2c-2.1-1.4-4.2-2.6-6.2-3.6
				c-2-1-4-2-5.8-2.7c-3.6-1.6-6.7-2.6-8.9-3.3c-1.1-0.3,0.6,0.2,0,0c-0.6-0.2,0,0,0,0L127.4,150.9z"/>
			<path class="st1" d="M118.7,154.3c0,0,3,2.1,4.9,2.7c1.9,0.6,4.7,1.5,8,2.6c3.3,1.1,7.1,2.5,11.2,4.1c2,0.8,4.1,1.7,6.2,2.6
				c2.1,1,4.2,2,6.2,3.1c2,1.1,4.1,2.4,6,3.6c2,1.3,3.9,2.5,5.7,3.8c3.7,2.5,7.2,4.9,10.4,6.6c1.6,0.9,3.1,1.6,4.4,2.2
				c1.3,0.6,2.5,1.1,3.5,1.4c1,0.4,1.7,0.6,2.3,0.8c0.5,0.2,0.8,0.3,0.8,0.3s-0.3-0.1-0.8-0.3c-0.5-0.2-1.3-0.5-2.2-0.9
				c-0.9-0.4-2.1-1-3.3-1.6c-1.3-0.7-2.7-1.5-4.2-2.5c-3-1.9-6.3-4.5-9.8-7.3c-1.8-1.4-3.6-2.8-5.5-4.2c-2-1.4-3.8-2.8-5.9-4.1
				c-2-1.3-4.2-2.5-6.2-3.7c-2.1-1.1-4.2-2.2-6.2-3.2c-4-2-7.9-3.7-11.2-5.1c-3.3-1.4-6.1-2.5-8-3.3l0,0L118.7,154.3z"/>
			<path class="st1" d="M112,155.6C112,155.6,108.6,152.9,112,155.6c0.4,0.1,4.5,2.9,5.4,3.1c1.7,0.3,4.2,0.9,7.1,1.7
				c1.5,0.4,3,0.9,4.7,1.5c1.7,0.6,3.4,1.2,5.2,2c1.8,0.7,3.6,1.6,5.4,2.5c0.9,0.4,1.8,0.9,2.7,1.5c0.9,0.5,1.8,1,2.7,1.6
				c3.5,2.2,6.8,4.9,10.1,7.2c3.3,2.4,6.5,4.3,9.4,5.7c2.8,1.4,5.2,2.6,6.9,3.3c1.7,0.7,2.7,1.2,2.7,1.2s-0.9-0.5-2.6-1.4
				c-1.6-0.9-3.9-2.2-6.7-3.8c-2.7-1.7-5.7-3.8-8.8-6.3c-3-2.5-6.1-5.6-9.7-8.1c-0.9-0.6-1.8-1.3-2.7-1.9c-0.9-0.6-1.8-1.2-2.7-1.7
				c-1.8-1.1-3.7-2.2-5.5-3.1c-1.8-0.9-3.6-1.8-5.3-2.5c-1.7-0.7-3.3-1.4-4.8-2c-3-1.1-5.6-1.9-7.4-2.4c0,0,0.5,0.1,0,0
				c-0.5-0.1,0,0,0,0L112,155.6z"/>
			<path class="st1" d="M105.1,158.5c0,0,2.5,1.7,4,2.2c1.6,0.5,3.8,1.2,6.5,2.1c2.7,0.9,5.8,2,9.1,3.3c1.7,0.6,3.3,1.3,5,2.1
				c0.8,0.4,1.7,0.8,2.5,1.2c0.9,0.4,1.7,0.9,2.5,1.3c3.2,1.9,6.4,4.2,9.6,6.1c1.6,0.9,3.1,1.8,4.7,2.5c1.5,0.7,3,1.4,4.3,1.9
				c1.4,0.5,2.6,0.9,3.7,1.3c1.1,0.3,2.1,0.6,2.9,0.8c1.6,0.4,2.5,0.6,2.5,0.6s-0.9-0.3-2.5-0.9c-0.8-0.3-1.7-0.7-2.8-1.1
				c-1.1-0.5-2.3-1-3.6-1.6c-1.3-0.6-2.7-1.4-4.1-2.2c-1.4-0.8-2.9-1.8-4.3-2.9c-2.9-2.1-5.8-4.7-9.2-7c-0.8-0.6-1.7-1.1-2.5-1.6
				c-0.9-0.5-1.7-1-2.6-1.5c-1.7-1-3.4-1.8-5-2.7c-3.3-1.6-6.4-3-9.1-4.2c-2.7-1.2-4.9-2.1-6.5-2.7c-1.6-0.6,0,0,0,0L105.1,158.5z"
				/>
			<path class="st1" d="M95.7,161.8C95.7,161.8,93.7,160,95.7,161.8C95.8,161.8,95.6,161.8,95.7,161.8c0.4,0,3.5,1.9,4.3,2
				c1.6,0.2,3.9,0.5,6.7,1.2c2.8,0.7,6,1.7,9.4,3.1c0.9,0.3,1.7,0.7,2.6,1.1c0.8,0.3,1.7,0.8,2.6,1.2c0.9,0.4,1.7,0.9,2.6,1.3
				c0.8,0.5,1.7,1,2.6,1.5c3.4,2.1,6.7,4.5,10,6.5c1.7,1,3.3,1.8,4.9,2.6c0.8,0.3,1.6,0.7,2.4,1c0.8,0.3,1.5,0.5,2.2,0.8
				c1.4,0.4,2.8,0.9,3.9,1.1c1.2,0.3,2.2,0.5,3.1,0.7c1.7,0.3,2.7,0.5,2.7,0.5s-1-0.3-2.6-0.7c-0.8-0.2-1.8-0.6-3-0.9
				c-1.2-0.3-2.4-0.9-3.8-1.4c-0.7-0.3-1.4-0.6-2.1-0.9c-0.7-0.4-1.5-0.7-2.2-1.1c-1.5-0.8-3-1.8-4.6-2.9c-3.1-2.1-6.1-4.8-9.5-7.2
				c-0.8-0.6-1.7-1.2-2.5-1.8c-0.9-0.6-1.8-1.2-2.6-1.7c-0.9-0.5-1.7-1-2.6-1.5c-0.9-0.5-1.7-0.9-2.6-1.4c-3.5-1.7-6.8-3.1-9.8-4.1
				c-2.9-1-5.5-1.6-7.3-1.9c-0.9-0.2,0.5,0.1,0,0c-0.3,0,0.6,0.1,0,0c-0.1,0,0,0,0,0L95.7,161.8z"/>
			<path class="st1" d="M87.3,165.1c0,0,3.7,2,5,2.3c1.3,0.3,3.2,0.7,5.5,1.3c2.3,0.6,4.9,1.3,7.7,2.2c2.8,0.9,5.8,1.8,8.8,2.9
				c3,1.1,6,2.2,8.7,3.4c1.4,0.6,2.7,1.1,4,1.7c1.2,0.6,2.4,1.1,3.5,1.7c1.1,0.5,2.1,1,2.9,1.5c0.9,0.5,1.6,0.9,2.2,1.2
				c1.2,0.7,1.9,1.1,1.9,1.1s-0.7-0.5-1.8-1.3c-0.6-0.4-1.3-0.9-2.1-1.5c-0.8-0.5-1.8-1.2-2.8-1.8c-1-0.7-2.2-1.4-3.3-2.1
				c-1.2-0.7-2.5-1.5-3.8-2.2c-2.7-1.5-5.5-3-8.5-4.5c-2.9-1.5-5.9-2.8-8.7-4c-2.8-1.2-5.4-2.3-7.7-3.2c-2.3-0.9-4.2-1.6-5.5-2.1
				c-1.4-0.5,0,0,0,0L87.3,165.1z"/>
			<path class="st1" d="M83.6,167.5c0,0,1.6,1.5,1.9,1.8c0.3,0.3,0.7,0.6,1.3,1.1c1.1,0.9,2.6,2.1,4.6,3.5c1.9,1.4,4.2,3,6.6,4.6
				c1.3,0.8,2.5,1.6,3.8,2.4c1.3,0.8,2.7,1.6,4,2.3c1.4,0.8,2.7,1.5,4.1,2.1c1.4,0.7,2.7,1.3,4,1.9c1.3,0.6,2.6,1.1,3.8,1.6
				c1.2,0.5,2.4,0.9,3.5,1.3c1.1,0.4,2.1,0.7,2.9,1c0.9,0.2,1.7,0.5,2.3,0.6c1.3,0.4,2,0.6,2,0.6s-0.7-0.3-1.9-0.8
				c-0.6-0.3-1.3-0.6-2.2-0.9c-0.8-0.4-1.8-0.9-2.8-1.4c-1-0.5-2.1-1.1-3.2-1.7c-1.1-0.6-2.3-1.3-3.5-2.1c-1.2-0.7-2.5-1.5-3.7-2.3
				c-1.2-0.8-2.5-1.7-3.7-2.6c-1.2-0.9-2.4-1.8-3.6-2.7c-1.2-0.9-2.3-1.9-3.4-2.7c-2.2-1.8-4.1-3.6-5.7-5.2
				c-1.6-1.6-2.9-2.9-3.8-3.8c-0.4-0.5-0.8-0.8-1-1.1c-0.2-0.3-0.3-0.4-0.3-0.4L83.6,167.5z"/>
			<path class="st1" d="M77.6,171.9c0,0,0.1,0.1,0.3,0.2c0.2,0.2,0.4,0.4,0.8,0.7c0.6,0.5,1.5,1.2,2.6,2c1.1,0.8,2.4,1.7,3.8,2.5
				c1.4,0.9,2.9,1.7,4.5,2.4c0.8,0.4,1.6,0.7,2.3,1.1c0.8,0.3,1.5,0.6,2.3,0.9c0.7,0.3,1.5,0.5,2.1,0.7c0.7,0.2,1.3,0.4,1.9,0.6
				c1.2,0.4,2.2,0.6,2.9,0.7c0.7,0.2,1.1,0.2,1.1,0.2s-0.4-0.2-1-0.5c-0.6-0.3-1.5-0.8-2.6-1.5c-0.5-0.3-1.1-0.7-1.7-1.1
				c-0.6-0.4-1.2-0.8-1.8-1.3c-0.6-0.5-1.2-0.9-1.8-1.4c-0.6-0.5-1.2-1-1.8-1.6c-1.2-1.1-2.3-2.2-3.3-3.3c-1-1.1-1.9-2.1-2.6-3
				c-0.7-0.9-1.3-1.7-1.6-2.2c-0.2-0.3-0.3-0.5-0.4-0.6c-0.1-0.1-0.1-0.2-0.1-0.2L77.6,171.9z"/>
			<path class="st1" d="M63,180.8c0,0,2.4,1.4,2.6,1.5c0.3,0.2,0.6,0.4,1,0.6c0.9,0.5,2.1,1.1,3.5,1.8c1.4,0.7,3.1,1.4,5,2
				c1.8,0.6,3.8,1.3,5.8,1.7c1,0.3,2,0.4,2.9,0.6c1,0.2,1.9,0.3,2.8,0.5c0.9,0.2,1.8,0.2,2.6,0.3c0.8,0.1,1.6,0.1,2.3,0.1
				c1.4,0.1,2.6,0,3.5,0c0.8,0,1.3-0.1,1.3-0.1s-0.5-0.1-1.3-0.3c-0.8-0.2-2-0.5-3.4-1c-0.7-0.2-1.4-0.5-2.2-0.8
				c-0.8-0.3-1.6-0.6-2.4-1c-0.8-0.4-1.7-0.7-2.5-1.2c-0.8-0.4-1.7-0.9-2.5-1.4c-1.7-0.9-3.2-2-4.7-3c-1.4-1-2.7-2-3.8-2.9
				c-1.1-0.9-1.9-1.7-2.4-2.2c-0.3-0.3-0.5-0.5-0.6-0.6c-0.1-0.1-0.2-0.2-0.2-0.2L63,180.8z"/>
			<path class="st1" d="M55.1,186.9c0,0,2,0.7,2.8,1.1c0.7,0.3,1.8,0.8,3,1.3c2.5,1.1,5.9,2.3,9.3,3.3c1.7,0.5,3.4,1,5,1.3
				c0.8,0.2,1.6,0.3,2.3,0.5c0.7,0.1,1.4,0.3,2.1,0.3c1.3,0.2,2.3,0.3,3.1,0.4c0.7,0.1,1.2,0.1,1.2,0.1s-0.4-0.1-1.1-0.4
				c-0.7-0.2-1.7-0.6-2.9-1.1c-0.6-0.2-1.2-0.5-1.9-0.9c-0.7-0.3-1.4-0.7-2.1-1c-1.4-0.7-2.9-1.6-4.4-2.5c-3-1.8-5.8-3.7-7.8-5.3
				c-1-0.8-1.8-1.4-2.4-1.9c-0.5-0.5-0.8-0.7-0.8-0.7L55.1,186.9z"/>
			<g>
				<path class="st1" d="M14.4,243.4c0,0,2.4-4.5,7.1-12.1c4.7-7.6,11.9-18.2,21.7-29.9c2.5-2.9,5.1-5.9,7.9-8.9
					c0.7-0.7,1.4-1.5,2.2-2.2l1.1-1.1l1.1-1c0.8-0.7,1.6-1.4,2.4-2.2l1.2-1.1l1.3-1c6.7-5.5,14.6-10.4,23.1-14.8
					c8.5-4.4,17.8-8.3,27.4-11.7c9.6-3.4,19.7-6.2,29.9-8.5c10.2-2.3,20.6-3.9,31-5.1c10.4-1.2,20.7-2,30.7-2.4
					c10-0.4,19.8-0.3,29,0.1c9.3,0.4,18,1,26.1,1.8c4.1,0.4,7.9,0.8,11.6,1.2c3.7,0.4,7.2,0.8,10.5,1.2c6.6,0.8,12.3,1.6,17.1,2.2
					c9.5,1.4,14.9,2.2,14.9,2.2l0.1-1.2c0,0-5.4-0.9-14.9-2.4c-4.7-0.7-10.5-1.6-17.1-2.5c-3.3-0.5-6.8-0.9-10.5-1.3
					c-3.7-0.5-7.6-0.9-11.7-1.3c-8.1-0.8-16.9-1.5-26.2-2c-9.3-0.5-19.1-0.6-29.2-0.3c-10.1,0.3-20.5,1-30.9,2.1
					c-5.2,0.5-10.5,1.2-15.7,2c-5.2,0.8-10.5,1.8-15.6,3c-10.3,2.3-20.5,5.2-30.2,8.5c-9.7,3.4-19.1,7.3-27.8,11.7
					c-8.7,4.5-16.7,9.4-23.6,15.1l-1.3,1l-1.2,1.1c-0.8,0.7-1.6,1.5-2.4,2.2l-1.2,1.1l-1.1,1.1c-0.7,0.8-1.5,1.5-2.2,2.3
					c-2.9,3-5.6,6-8.1,8.9c-5,5.9-9.2,11.6-12.9,16.7c-3.6,5.1-6.6,9.7-9,13.5c-4.8,7.7-7.2,12.3-7.2,12.3L14.4,243.4z"/>
			</g>
		</g>
	</g>
	<g class="st0">
		<g>
			<path class="st2" d="M345.3,147.5c-2.5-0.5-5-0.8-7.6-1.1c-2.5-0.3-5-0.6-7.6-0.8c-2.5-0.2-5.1-0.4-7.6-0.6
				c-1.3-0.1-2.6-0.1-3.9-0.1c-0.7,0-1.3,0-2,0.1l-1.1,0.1c-0.4,0.1-0.9,0.3-1.4,0.4l0,0l-5,2l5.6,2c3,1.1,6,2.3,9,3.5
				c3,1.2,6,2.5,9,3.9c3,1.4,5.9,2.8,8.8,4.3c0.7,0.4,1.4,0.8,2.2,1.2c0.7,0.4,1.4,0.8,2.1,1.2c0.7,0.4,1.4,0.8,2.1,1.3l2.1,1.4
				l-1.9-1.6c-0.6-0.5-1.3-1-2-1.5c-0.7-0.5-1.3-1-2-1.5c-0.7-0.5-1.4-1-2-1.4c-2.8-1.9-5.6-3.6-8.4-5.3c-2.9-1.7-5.7-3.3-8.7-4.9
				c-2.9-1.6-5.8-3.1-8.9-4.6l0.6,4l0,0c0.1,0,0.1-0.1,0.3-0.2l0.7-0.2c0.5-0.1,1.1-0.2,1.7-0.3c1.2-0.2,2.4-0.3,3.6-0.5
				c2.4-0.3,4.9-0.4,7.4-0.6c2.5-0.1,5-0.2,7.5-0.3C340.3,147.4,342.8,147.4,345.3,147.5z"/>
			<path class="st2" d="M306.5,146.7c0,0,1.2,0.8,2.4,0.4c1.2-0.4,1.8-0.5,3.9-1.1c2.1-0.6,4.6-1.2,7.3-1.8c2.7-0.6,5.6-1.2,8.5-1.6
				c1.5-0.2,2.9-0.4,4.4-0.5c1.5-0.2,2.9-0.2,4.3-0.3c1.4-0.1,2.8,0,4.1-0.1c1.3,0,2.5,0.1,3.7,0.2c1.1,0,2.2,0.3,3.1,0.4
				c0.5,0.1,0.9,0.1,1.3,0.2c0.4,0.1,0.8,0.2,1.1,0.3c1.3,0.3,2.1,0.5,2.1,0.5s-0.7-0.3-2-0.7c-0.3-0.1-0.7-0.2-1.1-0.4
				c-0.4-0.1-0.8-0.2-1.3-0.3c-0.9-0.2-2-0.5-3.1-0.7c-1.2-0.2-2.4-0.4-3.7-0.5c-1.3-0.1-2.7-0.3-4.2-0.3c-1.4,0-2.9-0.1-4.4-0.1
				c-1.5,0-3,0-4.6,0.1c-3.1,0.1-6.1,0.4-8.9,0.8c-2.8,0.3-5.5,0.7-7.7,1.1c-2.2,0.4-4.1,0.7-5.4,1c-1.3,0.3-4.8,1.9-4.8,1.9
				L306.5,146.7z"/>
			<path class="st2" d="M294.8,144.4c0,0,1.5,0.8,6.3-0.5c4.8-1.3,11.3-3,17.8-4.5c6.5-1.5,13.2-2.7,18.2-3.2
				c2.5-0.2,4.7-0.3,6.2-0.1c0.4,0,0.7,0.1,1,0.2c0.3,0.1,0.5,0.1,0.7,0.2c0.4,0.1,0.6,0.2,0.6,0.2s-0.2-0.1-0.6-0.3
				c-0.2-0.1-0.4-0.2-0.7-0.3c-0.3-0.1-0.6-0.2-1-0.2c-1.5-0.3-3.7-0.5-6.3-0.4c-5.2,0.1-12,0.8-18.7,1.7c-6.7,1-13.4,2.1-18.4,3.1
				c-5,0.9-11.7,2.5-11.7,2.5L294.8,144.4z"/>
			<path class="st2" d="M285.5,143.4c0,0,0.9,0.2,5.2-2.1c5.5-1.9,12.1-4.6,19.5-6.8c1.9-0.5,3.7-1.1,5.6-1.5
				c0.9-0.2,1.8-0.4,2.8-0.6c0.9-0.1,1.9-0.2,2.8-0.3c3.7-0.3,7.2-0.3,10.2-0.2c3,0.1,5.5,0.3,7.3,0.6c0.9,0.1,1.6,0.2,2,0.3
				c0.5,0.1,0.7,0.2,0.7,0.2s-0.2-0.1-0.7-0.2c-0.5-0.1-1.2-0.3-2-0.5c-1.8-0.3-4.3-0.7-7.3-1c-3-0.3-6.6-0.5-10.4-0.4
				c-1,0-1.9,0.1-2.9,0.2c-1,0.1-2,0.2-2.9,0.4c-1.9,0.3-3.9,0.8-5.8,1.2c-7.7,1.8-15.3,3.8-21,5.4c-5.7,1.6-12.5,4-12.5,4
				L285.5,143.4z"/>
			<path class="st2" d="M273.6,142.3c0,0,0,0,6.2-2.2c3.1-1.1,6.8-2.4,10.6-3.9c1.9-0.8,3.9-1.6,5.9-2.7c1.9-1.2,3.6-2.1,5.6-3
				c3.9-1.8,7.9-3.4,11.8-4.7c1.9-0.6,3.8-1.2,5.6-1.7c1.8-0.5,3.6-0.9,5.2-1.1c1.6-0.3,3.1-0.4,4.5-0.6c0.7,0,1.3,0,1.9-0.1
				c0.6,0,1.1,0.1,1.6,0.1c1,0,1.8,0.3,2.3,0.4c0.5,0.1,0.8,0.2,0.8,0.2s-0.3-0.1-0.8-0.2c-0.5-0.1-1.3-0.4-2.3-0.5
				c-0.5-0.1-1.1-0.2-1.7-0.2c-0.6,0-1.3-0.1-2-0.1c-1.4,0-3,0-4.6,0.2c-1.7,0.1-3.5,0.4-5.4,0.8c-1.9,0.3-3.9,0.8-5.9,1.3
				c-4,1-8.3,2.3-12.4,3.9c-2,0.8-4.2,1.7-6,2.7c-1.8,0.8-3.8,1.5-5.7,2.1c-3.9,1.2-7.6,2.2-10.8,3.1c-6.4,1.7-14.2,4-14.2,4
				L273.6,142.3z"/>
			<path class="st2" d="M261.8,140.4C261.8,140.4,261.3,140.7,261.8,140.4C262.3,140.1,260.9,140.9,261.8,140.4
				c1.9-1,2.8-1.4,6.3-2.7c0.9-0.3,1.8-0.6,2.7-0.9c0.5-0.2,1-0.3,1.6-0.5l0.8-0.2l0.9-0.3c2.3-0.8,4.5-1.8,6.8-2.8
				c2.3-1.1,4.5-2.2,6.8-3.5c2.3-1.2,4.6-2.6,6.8-3.8c4.4-2.4,9.3-4.3,14-5.7c2.3-0.7,4.7-1.2,6.9-1.6c2.2-0.4,4.4-0.6,6.4-0.7
				c1,0,2,0,2.9-0.1c0.9,0,1.8,0.1,2.6,0.1c1.7,0.1,3.1,0.4,4.3,0.5c1.2,0.2,2.1,0.5,2.7,0.6c0.6,0.1,1,0.2,1,0.2s-0.3-0.1-1-0.3
				c-0.6-0.2-1.5-0.5-2.7-0.9c-1.2-0.2-2.6-0.7-4.3-0.9c-0.8-0.1-1.7-0.2-2.7-0.4c-0.9-0.1-1.9-0.1-3-0.2c-2.1-0.1-4.3,0-6.6,0.2
				c-2.3,0.2-4.8,0.5-7.3,1c-5,1-10.2,2.5-15.1,4.6c-2.5,1.1-4.8,2.2-7.1,3.2c-2.3,1-4.7,1.9-6.9,2.8c-2.2,0.8-4.5,1.6-6.5,2.1
				l-0.7,0.2l-0.8,0.2c-0.5,0.1-1.1,0.2-1.6,0.3c-1.1,0.2-2.2,0.5-3.2,0.8c-2.3,0.8-4,2.1-6.2,3c-1.1,0.5-4.3,2.2-4.9,2.5
				c-0.6,0.3-3.3,1.9-3.3,1.9L261.8,140.4z"/>
			<path class="st2" d="M326.9,111.1c-1.8-0.4-3.7-0.7-5.5-0.8c-1.9-0.1-3.7-0.2-5.5-0.1c-1.8,0-3.7,0.2-5.5,0.4
				c-1.8,0.2-3.6,0.5-5.4,0.8c-1.8,0.3-3.6,0.7-5.3,1.1c-1.8,0.4-3.5,0.9-5.2,1.5c-1.7,0.6-3.4,1.3-5,2.1c-1.7,0.9-3,1.9-4.5,2.7
				c-6.1,3.4-12.6,6.1-19.2,8.7l-5,1.9c-1.7,0.6-3.4,1.3-5.1,2.1c-1.6,0.8-3.2,1.7-4.8,2.7c-1.6,1-3,2-4.5,3.3l0,0l-2.3,2.2l3.1,1.5
				c7,3.4,14,7,21,10.7c7,3.6,13.9,7.4,20.8,11.2c3.5,1.9,6.9,3.9,10.3,5.8l5.1,3c1.7,1,3.4,2,5.1,3.1c1.7,1,3.4,2,5,3.1
				c1.7,1.1,3.4,2.1,5,3.2l4.9,3.3l4.8,3.5l-4.7-3.7l-4.8-3.6c-1.6-1.2-3.2-2.3-4.9-3.5c-1.6-1.2-3.3-2.3-4.9-3.4
				c-1.6-1.1-3.3-2.2-5-3.3l-5-3.2c-3.4-2.1-6.7-4.3-10.1-6.3c-6.7-4.2-13.5-8.2-20.4-12.2c-6.8-4-13.7-7.9-20.7-11.7l0.8,3.8l0,0
				c1-1.1,2.4-2.2,3.8-3.1c1.4-1,2.8-1.9,4.3-2.7c1.5-0.8,3-1.6,4.6-2.3l4.9-2.2c6.5-3,12.9-6.1,18.9-9.9c1.5-0.9,3-2.1,4.4-2.9
				c1.5-0.9,3-1.6,4.6-2.3c1.6-0.7,3.3-1.3,5-1.8c1.7-0.5,3.4-1,5.1-1.4c1.7-0.4,3.5-0.8,5.3-1.1c1.8-0.3,3.6-0.5,5.4-0.7
				c1.8-0.2,3.6-0.2,5.5-0.2C323.2,110.6,325.1,110.8,326.9,111.1z"/>
			<path class="st2" d="M241.2,139.3C241.9,138.7,240.4,139.8,241.2,139.3c0.8-0.5,1.6-1.1,2.5-1.6c1.7-1,3.4-2,5.2-2.8
				c0.9-0.4,1.8-0.8,2.7-1.1l0.7-0.2l0.8-0.3c0.5-0.2,1-0.3,1.5-0.6l1.6-0.7l1.4-0.7c1-0.5,1.9-1,2.8-1.5c3.6-2,7.2-4.2,10.6-6.4
				c3.5-2.2,6.9-4.5,10.3-6.8l-0.1,0c5.2-2.9,10.6-5.7,16.1-8.2c1.4-0.6,2.8-1.2,4.2-1.8c0.7-0.3,1.4-0.6,2.1-0.8
				c0.7-0.3,1.4-0.5,2.1-0.8l2.2-0.7l2.2-0.6c0.7-0.2,1.5-0.3,2.3-0.5c0.8-0.1,1.5-0.1,2.3-0.2c-0.8,0-1.6,0-2.4,0.1
				c-0.8,0.1-1.6,0.2-2.3,0.3l-2.3,0.5l-2.2,0.6c-0.7,0.2-1.5,0.4-2.2,0.7c-0.7,0.2-1.5,0.5-2.2,0.7c-1.5,0.5-2.9,1-4.3,1.5
				c-5.7,2.1-11.3,4.5-16.9,7.1l0,0l-0.1,0c-3.5,2.1-7.1,4.1-10.7,6c-3.6,1.9-7.2,3.8-10.9,5.6c-0.9,0.4-1.8,0.9-2.8,1.2l-1.4,0.6
				l-1.3,0.5c-0.4,0.2-1,0.3-1.5,0.5l-0.7,0.2l-0.8,0.2c-1.1,0.3-2.1,0.6-3.1,1c-2,0.8-4,1.6-5.9,2.6c-1,0.5-1.9,1-2.8,1.5
				c-0.9,0.5-3.1,3.3-4,4L241.2,139.3z"/>
			<path class="st2" d="M232.2,138.4c0,0,4.1-1.3,11.5-6.2c1.8-1.2,3.8-2.6,5.9-4c2.1-1.5,4.2-3,6.4-4.8c2.1-1.9,4.2-3.4,6.6-5
				c2.4-1.6,4.9-3,7.5-4.4c2.6-1.4,5.2-2.8,7.8-4c2.6-1.3,5.2-2.5,7.7-3.5c2.5-1.1,5.1-2,7.5-2.8c2.4-0.8,4.8-1.2,7-1.7
				c4.4-0.9,8.1-1.8,10.7-2.1c1.3-0.2,2.4-0.2,3.1-0.1c0.7,0,1.1,0.1,1.1,0.1s-0.4-0.1-1.1-0.1c-0.7-0.1-1.8-0.1-3.1,0
				c-2.7,0.2-6.4,0.9-10.9,1.7c-2.2,0.4-4.7,0.7-7.2,1.4c-2.5,0.6-5.1,1.5-7.7,2.5c-2.6,0.9-5.3,2.1-8,3.2c-2.7,1.2-5.4,2.4-8,3.7
				c-2.7,1.3-5.3,2.7-7.8,4.2c-2.5,1.4-5.1,3.1-7.1,4.9c-2.1,1.6-4.3,3.1-6.4,4.4c-2.1,1.4-4.1,2.6-6,3.7
				c-7.5,4.5-16.2,9.1-16.2,9.1L232.2,138.4z"/>
			<path class="st2" d="M225.2,138.5L225.2,138.5c2.1-1.6,5.2-3.9,8.7-6.8c1.8-1.4,3.7-3,5.7-4.8c1.9-1.8,4-3.6,6.1-5.5
				c4.2-3.8,8.7-7.8,13.3-11.7c2.3-1.9,4.7-3.8,7-5.6c2.4-1.8,4.7-3.4,7.2-4.8c2.5-1.4,4.9-2.6,7.3-3.7c2.4-1.1,4.7-2.1,6.8-3
				c4.3-1.8,7.8-3.3,10.3-4.3c2.5-1.1,3.8-1.8,3.8-1.8s-1.4,0.6-4,1.5c-2.6,0.9-6.2,2.1-10.6,3.6c-2.2,0.7-4.6,1.6-7.1,2.5
				c-2.5,0.9-5.1,2-7.7,3.2c-2.7,1.2-5.2,2.8-7.8,4.4c-2.5,1.6-5.1,3.4-7.6,5.1c-5,3.5-9.8,7.2-14.3,10.8c-2.2,1.8-4.4,3.4-6.4,5
				c-2,1.5-4,3-5.9,4.2c-3.7,2.6-6.9,4.6-9.1,6.1c-2.2,1.4-4.3,5.1-4.3,5.1L225.2,138.5z"/>
			<path class="st2" d="M214.8,138.7c0,0-0.9,0.8,1.1-0.9c2-1.8,4.8-4.3,8.1-7.4c1.7-1.6,3.4-3.3,5.3-5.1c1.9-1.9,3.7-3.8,5.7-5.7
				c4.1-3.9,8.6-7.9,13.1-11.9c4.5-4,9.1-8,13.3-11.7c2.1-1.9,4.2-3.6,6.3-5c2.1-1.5,4.2-2.7,6.2-3.8c4-2.2,7.6-3.5,10.2-4.2
				c1.3-0.4,2.3-0.6,3.1-0.7c0.7-0.1,1.1-0.2,1.1-0.2s-0.4,0.1-1.1,0.2c-0.7,0.1-1.8,0.3-3.1,0.6c-2.7,0.6-6.4,1.7-10.6,3.7
				c-2.1,1-4.3,2.1-6.6,3.5c-2.2,1.3-4.6,3-6.8,4.7c-4.5,3.5-9.3,7.2-14.1,10.9c-4.8,3.7-9.5,7.5-13.9,11.1
				c-2.2,1.8-4.3,3.8-6.1,5.4c-1.9,1.7-3.8,3.3-5.5,4.7c-3.5,2.9-6.4,5.2-8.5,6.8c-2.1,1.6-4.8,4.3-4.8,4.3L214.8,138.7z"/>
			<path class="st2" d="M205.1,138.9c0,0,3.1-3.1,10.1-9.9c3.5-3.4,7.6-7.4,11.9-11.7c2.2-2.1,4.4-4.4,6.6-6.7
				c2.2-2.3,4.5-4.7,6.7-7.1c2.2-2.4,4.4-4.8,6.6-7.1c2.2-2.3,4.5-4.5,6.9-6.2c2.5-1.6,5.2-2.9,7.7-4.2c2.6-1.2,5-2.3,7.3-3.1
				c2.3-0.9,4.5-1.6,6.4-2.2c2-0.5,3.7-1,5.1-1.2c0.7-0.1,1.4-0.2,2-0.3c0.6-0.1,1.1-0.1,1.5-0.1c0.8,0,1.2,0,1.2,0s-0.4,0-1.2,0
				c-0.4,0-0.9,0-1.5,0c-0.6,0-1.2,0.1-2,0.2c-1.5,0.2-3.2,0.5-5.2,1c-2,0.5-4.2,1.1-6.6,1.9c-2.4,0.8-4.9,1.7-7.6,2.8
				c-2.6,1.1-5.4,2.3-8.1,3.9c-2.7,1.7-5.1,3.8-7.5,6c-2.4,2.2-4.7,4.5-7,6.8c-2.3,2.3-4.7,4.6-7,6.8c-2.3,2.2-4.6,4.3-6.9,6.3
				c-4.6,4.1-8.8,7.9-12.5,11.1c-7.3,6.5-14.6,13-14.6,13L205.1,138.9z"/>
			<path class="st2" d="M195.7,139.5c0,0,17.7-18.9,36.2-39.2c2.3-2.5,4.6-5.1,6.8-7.6c1.1-1.2,2.2-2.6,3.2-3.9
				c1-1.3,2.1-2.4,3.3-3.5c2.3-2.2,4.7-4.1,7.3-5.5c2.5-1.5,5.2-2.4,7.7-3.1c5.1-1.2,9.7-1,12.8-0.6c3.2,0.4,4.9,1,4.9,1
				s-1.8-0.6-4.9-1.2c-1.6-0.3-3.5-0.5-5.7-0.5c-2.2,0-4.7,0.1-7.3,0.7c-2.6,0.5-5.4,1.5-8,2.8c-2.7,1.4-5.3,3.2-7.7,5.3
				c-1.2,1.1-2.4,2.3-3.5,3.5c-1.1,1.3-2.1,2.5-3.3,3.7c-2.3,2.4-4.7,4.9-7.1,7.3c-19.3,19.4-40,39.9-40,39.9L195.7,139.5z"/>
			<path class="st2" d="M189,140c0,0,1-3.3,7.1-10.4c3.1-3.6,6.6-7.7,10.5-12.2c3.8-4.5,7.9-9.2,11.9-14.1c2-2.5,3.8-5.1,5.7-7.5
				c1.8-2.5,3.6-4.9,5.4-7.3c1.8-2.3,3.6-4.5,5.4-6.5c1.8-2,3.6-3.8,5.6-5c2-1.2,4-2,5.9-2.5c1.9-0.5,3.6-0.8,5-1
				c2.8-0.4,4.5-0.3,4.5-0.3s-1.7-0.2-4.5,0c-1.4,0.1-3.2,0.3-5.1,0.8c-1.9,0.5-4.1,1.1-6.2,2.3c-2.1,1.2-4.1,2.9-6,4.8
				c-1.9,1.9-3.8,4-5.8,6.3c-1.9,2.2-3.9,4.6-5.8,7c-2,2.4-3.9,4.9-6,7.1c-4.2,4.6-8.5,9.2-12.6,13.4c-4.1,4.3-7.8,8.2-11.1,11.6
				c-6.5,6.8-11.3,13.3-11.3,13.3L189,140z"/>
			<path class="st2" d="M178.6,140.2c0,0,2-2.8,7.6-10.7c5.6-7.8,13.2-18.2,21.1-28.2c2-2.5,4-5,6-7.4c1-1.2,2-2.4,3-3.5
				c1-1.1,2-2.2,3.1-3.3c4.2-4.3,7.9-8.6,11.6-11.5c1.9-1.5,3.8-2.5,5.7-3.1c1.9-0.7,3.6-0.9,5-1.2c1.4-0.2,2.6-0.3,3.4-0.3
				c0.8,0,1.2-0.1,1.2-0.1s-0.4,0-1.2,0c-0.8,0-1.9,0-3.4,0.1c-1.5,0.1-3.2,0.3-5.2,0.9c-2,0.5-4,1.5-6.1,2.9c-2,1.4-4,3.1-6.1,5
				c-2,1.9-4.2,3.8-6.4,5.9c-1.1,1-2.2,2.1-3.3,3.2c-1.1,1.1-2.2,2.2-3.3,3.4c-2.2,2.3-4.3,4.7-6.5,7.1c-8.5,9.6-16.7,19.5-22.8,27
				c-6.1,7.5-12.2,14.9-12.2,14.9L178.6,140.2z"/>
			<path class="st2" d="M168.9,142.3c0,0,2.5-4.5,7.2-12.4c4.7-7.8,11-18.3,17.5-28.6c1.6-2.6,3.2-5.2,4.9-7.6
				c1.7-2.4,3.5-4.7,5.4-6.8c1.9-2.1,3.8-4,5.9-5.5c2-1.6,4.2-2.9,6.2-3.9c4.1-2,7.9-3,10.6-3.5c2.7-0.5,4.3-0.6,4.3-0.6
				s-1.6,0-4.4,0.3c-1.4,0.2-3,0.5-4.9,0.9c-1.8,0.5-3.9,1.1-6.1,2c-2.2,0.9-4.4,2.1-6.6,3.6c-2.2,1.5-4.4,3.3-6.4,5.3
				c-2,2-4,4.3-5.9,6.6c-1.9,2.4-3.6,4.9-5.4,7.4c-7.1,9.9-13.9,20-19.1,27.5c-5.2,7.5-10.3,15.1-10.3,15.1L168.9,142.3z"/>
			<path class="st2" d="M159.4,142.6c0,0,1.3-2.7,5.3-10.9c4-8.2,9.4-19,15-29.7c1.4-2.7,2.8-5.3,4.3-7.9c1.4-2.6,2.9-5.1,4.4-7.5
				c1.5-2.3,3.1-4.6,4.6-6.6c1.5-2.1,3-4,4.6-5.6c1.5-1.6,3.1-2.9,4.7-3.8c1.5-0.9,3.1-1.5,4.4-1.7c0.7-0.2,1.3-0.2,1.8-0.3
				c0.5-0.1,1-0.1,1.4-0.1c0.7,0,1.1,0,1.1,0s-0.4,0-1.1-0.1c-0.4,0-0.8-0.1-1.4,0c-0.5,0-1.2,0-1.8,0.1c-1.4,0.2-3,0.6-4.7,1.4
				c-1.7,0.8-3.4,2.1-5.1,3.6c-1.7,1.5-3.4,3.3-5.1,5.3c-1.7,2-3.5,4-5.2,6.3c-1.8,2.3-3.4,4.7-5,7.2c-1.6,2.5-3.3,5-4.9,7.6
				c-6.4,10.2-12.6,20.6-17.3,28.4c-4.6,7.8-8,15.1-8,15.1L159.4,142.6z"/>
			<path class="st2" d="M149,144.9c0,0,9.9-21.6,20.7-44.3c1.4-2.8,2.7-5.7,4-8.5c1.3-2.8,2.6-5.5,4-8c2.8-5.1,5.9-9.6,9.5-12.4
				c1.8-1.4,3.7-2.5,5.4-3.2c1.7-0.8,3.4-1.3,4.7-1.6c2.7-0.6,4.4-0.6,4.4-0.6s-1.7-0.2-4.5,0.3c-2.8,0.4-6.8,1.5-10.8,4.2
				c-4,2.7-7.6,7.1-10.8,12c-1.6,2.5-3.2,5.1-4.7,7.8c-1.5,2.7-3.1,5.4-4.7,8.1c-12.5,21.7-26.7,48-26.7,48L149,144.9z"/>
			<path class="st2" d="M139.6,146.6c0,0,9.6-22.9,20.9-48.7c0.7-1.6,1.4-3.3,2.1-4.8c0.8-1.5,1.6-3.1,2.4-4.6c1.6-3,3.3-5.9,5-8.7
				c1.7-2.8,3.4-5.4,5.2-7.8c1.8-2.3,3.6-4.6,5.7-5.9c2.2-1.3,4.5-2.2,6.6-2.7c2.1-0.5,4-0.7,5.6-0.8c1.6-0.1,2.9,0,3.7,0
				c0.9,0,1.3,0.1,1.3,0.1s-0.5-0.1-1.3-0.2c-0.9-0.1-2.1-0.2-3.7-0.3c-1.6,0-3.6,0-5.8,0.4c-2.2,0.4-4.6,1.2-7,2.4
				c-2.4,1.4-4.4,3.5-6.4,5.8c-2,2.3-3.9,4.9-5.8,7.5c-1.9,2.7-3.8,5.5-5.6,8.5c-0.9,1.5-1.8,3-2.7,4.5c-0.9,1.6-1.6,3.1-2.5,4.7
				c-12.8,24.9-28.5,53.3-28.5,53.3L139.6,146.6z"/>
			<path class="st2" d="M130.1,149.1c0,0,2.7-3.6,7.1-13.9c4.3-10.3,10.1-24,15.8-37.9c0.7-1.7,1.4-3.5,2.1-5.2
				c0.7-1.8,1.2-3.5,1.9-5.2c1.3-3.3,2.8-6.6,4.5-9.5c1.7-2.9,3.6-5.6,5.7-7.9c2.1-2.3,4.4-4.1,6.8-5.3c1.2-0.6,2.5-1,3.7-1.4
				c1.2-0.4,2.4-0.8,3.5-1.1c2.2-0.6,4.2-1.1,5.8-1.4c3.3-0.6,5.2-0.7,5.2-0.7s-2-0.1-5.3,0.3c-1.7,0.2-3.7,0.5-6,1
				c-1.1,0.2-2.3,0.5-3.6,0.9c-1.3,0.3-2.6,0.6-3.9,1.2c-2.7,1-5.3,2.8-7.7,5.1c-2.4,2.2-4.5,4.9-6.5,7.8c-2,2.9-3.8,6.1-5.4,9.4
				c-0.8,1.7-1.5,3.5-2.3,5.1c-0.8,1.7-1.6,3.3-2.4,5c-6.6,13.3-13.3,26.5-18.4,36.4c-5.1,9.9-10.6,20.4-10.6,20.4L130.1,149.1z"/>
			<path class="st2" d="M120.7,152.8c0,0,3-5,6.4-15.8c1.7-5.4,3.7-11.7,5.9-18.4c1.1-3.4,2.2-6.8,3.3-10.4
				c1.1-3.5,2.2-7.2,3.4-10.6c1.2-3.4,2.7-6.9,4.3-10.1c1.5-3.3,3.2-6.5,4.8-9.5c1.7-3,3.4-5.9,5.2-8.5c0.9-1.3,1.9-2.5,2.8-3.5
				c1-1,2.2-1.8,3.3-2.5c2.4-1.4,4.7-2.4,6.8-3.3c2.1-0.9,4-1.5,5.6-2c1.6-0.5,2.8-0.8,3.7-1.1c0.9-0.2,1.3-0.3,1.3-0.3
				s-0.5,0-1.4,0.2c-0.9,0.1-2.2,0.4-3.8,0.8c-1.6,0.4-3.6,0.9-5.8,1.6c-2.2,0.7-4.7,1.6-7.3,2.8c-1.3,0.7-2.6,1.4-3.8,2.4
				c-1.2,1-2.2,2.2-3.3,3.4c-2.1,2.5-4.1,5.2-6,8.2c-1.9,2.9-3.8,6-5.6,9.3c-1.8,3.2-3.6,6.5-5.2,10c-1.6,3.6-2.9,7-4.3,10.4
				c-1.4,3.4-2.8,6.8-4.1,10c-2.6,6.5-5.1,12.6-7.2,17.8c-4.2,10.4-7.8,20.4-7.8,20.4L120.7,152.8z"/>
			<path class="st2" d="M112.1,155.5c0,0,3-3.8,5.5-12.5c2.5-8.7,5.9-20.2,9.3-31.7c0.9-2.9,1.8-5.7,2.6-8.6c0.9-2.8,1.8-5.5,2.9-8
				c2.1-5.1,4.4-9.7,6.8-13.4c1.2-1.9,2.4-3.5,3.5-4.8c0.6-0.7,1.2-1.3,1.7-1.9c0.6-0.5,1.1-1,1.5-1.5c1-0.8,1.8-1.4,2.4-1.8
				c0.6-0.4,0.9-0.6,0.9-0.6s-0.3,0.2-1,0.5c-0.6,0.3-1.5,0.8-2.6,1.6c-0.5,0.4-1.1,0.8-1.7,1.3c-0.6,0.5-1.2,1.1-1.9,1.7
				c-1.3,1.3-2.7,2.8-4,4.6c-2.8,3.5-5.5,8-8.1,13c-1.3,2.5-2.5,5.2-3.7,7.9c-1.1,2.7-2.2,5.5-3.4,8.3c-4.5,11.1-8.8,22.2-12.1,30.6
				c-3.3,8.4-6.3,17.5-6.3,17.5L112.1,155.5z"/>
			<path class="st2" d="M104.5,157.7c0,0,1.3-2.7,3.2-11.7c2-8.9,4.6-20.9,7.6-32.7c0.8-2.9,1.5-5.9,2.4-8.7
				c0.8-2.9,1.7-5.6,2.7-8.2c2.1-5.3,4-10.2,6.2-14c1.1-1.9,2.4-3.5,3.6-4.8c1.2-1.3,2.5-2.3,3.5-3c1.1-0.7,2-1.3,2.6-1.6
				c0.6-0.3,0.9-0.5,0.9-0.5s-0.3,0.2-1,0.4c-0.7,0.3-1.6,0.7-2.8,1.4c-1.1,0.7-2.5,1.5-3.9,2.7c-1.4,1.2-2.8,2.7-4.2,4.6
				c-2.7,3.7-5.1,8.5-7.7,13.5c-1.3,2.6-2.5,5.3-3.5,8.1c-1.1,2.8-2.1,5.6-3.2,8.5c-4.1,11.5-7.8,23-10.6,31.7
				c-2.7,8.7-5.8,18.5-5.8,18.5L104.5,157.7z"/>
			<path class="st2" d="M97.7,160.9c0,0,0.5-3.4,2-12.9c1.5-9.5,3.6-22.2,6-34.7c0.6-3.1,1.2-6.3,1.9-9.3c0.4-1.5,0.7-3,1.1-4.4
				c0.4-1.4,0.9-2.9,1.4-4.3c1.9-5.6,3.8-10.7,6-14.9c1.1-2.1,2.1-3.9,3.2-5.5c1-1.6,2.1-2.8,3-3.9c0.9-1,1.7-1.8,2.2-2.2
				c0.6-0.5,0.8-0.7,0.8-0.7s-0.3,0.2-0.9,0.7c-0.6,0.4-1.4,1.1-2.5,2c-1,0.9-2.2,2.1-3.4,3.6c-1.2,1.5-2.5,3.3-3.7,5.3
				c-2.5,4-5,9-7.3,14.4c-0.6,1.4-1.2,2.7-1.8,4.2c-0.6,1.5-1.1,3-1.6,4.5c-1,3-1.9,6.1-2.7,9.1c-3.5,12.3-6.6,24.7-8.9,33.9
				c-2.3,9.3-3.1,18.5-3.1,18.5L97.7,160.9z"/>
			<path class="st2" d="M90.3,163.9c0,0-0.4-2.5,0.6-11.4c1-8.9,2.5-20.7,4.3-32.4c0.5-2.9,0.9-5.9,1.5-8.7c0.3-1.4,0.5-2.8,0.8-4.2
				c0.3-1.4,0.6-2.8,0.9-4.1c0.3-1.3,0.6-2.6,1.1-3.8c0.4-1.2,0.9-2.4,1.3-3.6c0.9-2.3,1.8-4.5,2.6-6.6c0.8-2,1.6-3.9,2.4-5.4
				c0.8-1.6,1.6-2.9,2.4-3.9c0.7-1,1.4-1.8,1.9-2.3c0.5-0.5,0.7-0.8,0.7-0.8s-0.3,0.2-0.8,0.7c-0.5,0.5-1.2,1.1-2.1,2.1
				c-0.8,0.9-1.8,2.2-2.7,3.7c-0.9,1.5-1.9,3.3-2.9,5.2c-1,2-2,4.1-3.2,6.3c-1.1,2.2-2.3,4.8-3.1,7.4c-0.5,1.3-0.9,2.7-1.3,4
				c-0.4,1.4-0.8,2.8-1.2,4.2c-0.8,2.8-1.5,5.7-2.2,8.6c-2.8,11.5-5.3,23.2-7,31.9c-1.8,8.7-3.9,18.2-3.9,18.2L90.3,163.9z"/>
			<path class="st2" d="M100.5,78.8c0,0-0.3,0.3-0.8,0.7c-0.5,0.5-1.2,1.2-1.9,2.3c-1.6,2-3.6,5.2-5.6,9.2c-1,2-2,4.2-3,6.6
				c-0.5,1.2-1,2.4-1.4,3.7c-0.4,1.3-0.9,2.5-1.3,3.9c-0.8,2.8-1.6,5.6-2.3,8.5c-0.7,2.9-1.4,5.8-2.1,8.8c-2.7,11.8-5,23.7-6.6,32.6
				c-1.6,9-2.4,18.4-2.4,18.4l8.3-4.9c0,0,0.7-2.7,1.5-11.8c0.9-9.1,2.1-21.2,3.6-33.2c0.4-3,0.8-6,1.3-8.9c0.5-2.9,0.9-5.8,1.5-8.5
				c0.2-1.4,0.6-2.7,0.9-4c0.3-1.3,0.7-2.5,1.1-3.8c0.8-2.4,1.5-4.7,2.3-6.8c1.6-4.1,3.2-7.4,4.6-9.6c0.7-1.1,1.3-1.9,1.7-2.4
				C100.3,79.1,100.5,78.8,100.5,78.8z"/>
			<path class="st2" d="M73.9,174.3c0,0,1-4.8,1.2-14.5c0.2-9.8,0.5-22.8,1-35.7c0.1-3.2,0.3-6.5,0.4-9.7c0.2-3.2,0.3-6.3,0.6-9.2
				c0.4-3,0.6-6,1.1-8.6c0.5-2.6,1.4-4.9,2.5-7c1-2.1,2.2-3.9,3.2-5.5c1-1.6,2-2.9,2.8-4c1.6-2.2,2.5-3.5,2.5-3.5s-1,1.2-2.8,3.2
				c-0.9,1-2,2.3-3.2,3.8c-1.2,1.5-2.5,3.2-3.8,5.2c-1.3,2-2.5,4.4-3.3,7.1c-0.8,2.7-1.2,5.6-1.9,8.5c-0.6,3.1-1,6.1-1.5,9.3
				c-0.4,3.2-0.8,6.4-1.2,9.6c-1.6,12.8-3,25.6-4.1,35.3c-1,9.6-2,20.2-2,20.2L73.9,174.3z"/>
			<path class="st2" d="M66.1,179.4c0,0,0.8-5.4,0.6-14.7c-0.2-9.4-0.4-21.8-0.3-34.3c0-3.1,0.1-6.2,0.2-9.3c0.1-3,0.2-6,0.5-8.9
				c0.5-5.7,1.3-11,2.4-15.4c1.1-4.4,2.4-7.9,3.6-10.2c0.6-1.2,1.1-2,1.5-2.6c0.4-0.6,0.6-0.9,0.6-0.9s-0.2,0.3-0.7,0.8
				c-0.4,0.6-1,1.4-1.7,2.5c-1.4,2.2-3.1,5.6-4.6,10c-1.5,4.3-2.7,9.6-3.7,15.3c-0.5,2.8-0.9,5.9-1.3,8.9c-0.3,3-0.7,6.1-0.9,9.2
				c-1.1,12.4-1.9,24.7-2.5,34c-0.5,9.3-0.7,20.4-0.7,20.4L66.1,179.4z"/>
			<path class="st2" d="M62,182.2c0,0,0.5-2.5-0.1-12c-0.6-9.4-1.5-22-2.1-34.6c-0.2-3.1-0.3-6.3-0.4-9.3c0-0.7,0-1.5,0-2.2
				c0-0.8,0.1-1.5,0.1-2.2c0.1-1.5,0.2-2.9,0.3-4.4c0.4-5.8,1.1-11.1,1.8-15.7c0.3-2.3,0.7-4.3,1.1-6.2c0.4-1.8,0.8-3.4,1.2-4.7
				c0.4-1.3,0.7-2.3,1-2.9c0.3-0.7,0.4-1,0.4-1s-0.2,0.3-0.5,1c-0.4,0.6-0.8,1.6-1.3,2.8c-0.5,1.2-1.1,2.7-1.7,4.5
				c-0.6,1.8-1.2,3.8-1.8,6c-1.2,4.4-2.4,9.7-3.5,15.4c-0.3,1.4-0.5,2.9-0.8,4.4c-0.1,0.7-0.2,1.5-0.3,2.2c-0.1,0.8-0.2,1.6-0.2,2.4
				c-0.2,3.1-0.4,6.2-0.6,9.3c-0.6,12.5-1.1,25-1.5,34.3c-0.3,9.4,1.5,19.3,1.5,19.3L62,182.2z"/>
			<path class="st2" d="M353.5,155.3c0,0-1.6-0.7-4-1.5c-2.4-0.8-5.7-1.8-9-2.5c-3.3-0.8-6.7-1.4-9.2-1.9
				c-2.5-0.4-15.7-3.5-15.7-3.5l0.9,2.7c0,0,12.3,3.5,14.7,3.6c2.5,0.1,5.8,0.4,9.1,0.7c3.3,0.4,6.6,0.9,9.1,1.4
				C351.8,154.7,353.5,155.3,353.5,155.3z"/>
			<polygon class="st2" points="299.9,145.2 350.1,170.2 310.2,146.7 			"/>
			<path class="st2" d="M290.7,143.9c0,0,5.6,3.9,10.3,6.2c4.8,2.4,11.1,5.7,17.4,9.1c3.1,1.7,6.3,3.4,9.2,5.1
				c2.9,1.7,5.6,3.3,7.9,4.7c1.1,0.7,2.2,1.4,3.1,1.9c0.9,0.6,1.7,1.1,2.4,1.5c1.3,0.9,2.1,1.4,2.1,1.4s-0.7-0.5-2-1.5
				c-0.6-0.5-1.4-1.1-2.3-1.7c-0.9-0.6-1.9-1.4-3-2.2c-2.2-1.6-4.8-3.4-7.6-5.2c-2.8-1.9-5.8-3.8-8.9-5.8
				c-6.1-3.9-12.2-7.6-16.8-10.4c-4.6-2.7-7.3-3.2-7.3-3.2L290.7,143.9z"/>
			<path class="st2" d="M279.6,143.3c0,0,15.8,6.6,26.8,12.2c5.5,2.8,11,5.8,14.9,8.2c1,0.6,1.9,1.2,2.7,1.7c0.8,0.5,1.5,0.9,2,1.4
				c1.1,0.8,1.8,1.2,1.8,1.2s-0.6-0.5-1.7-1.4c-0.5-0.4-1.2-0.9-2-1.5c-0.8-0.6-1.6-1.2-2.6-1.9c-3.8-2.7-9.1-6.1-14.4-9.3
				c-10.7-6.5-22-11.5-22-11.5L279.6,143.3z"/>
			<path class="st2" d="M267.5,141c0,0,18.7,9.2,33.4,17.1c7.4,3.9,14.7,8,20,11.3c1.3,0.8,2.6,1.6,3.6,2.3c1.1,0.7,2,1.3,2.8,1.8
				c1.5,1.1,2.4,1.7,2.4,1.7s-0.8-0.6-2.3-1.8c-0.7-0.6-1.6-1.2-2.7-2c-1-0.8-2.2-1.6-3.5-2.5c-5.2-3.5-12.4-8-19.6-12.3
				c-14.4-8.6-26.6-15.3-26.6-15.3L267.5,141z"/>
			<polygon class="st2" points="256,139.9 332.7,181.4 265.8,140.8 			"/>
			<path class="st2" d="M233.9,138.5c0,0,26.7,14.5,48.4,27.3c5.4,3.2,10.8,6.4,15.8,9.5c2.5,1.6,4.9,3.1,7.2,4.5
				c2.3,1.5,4.4,2.8,6.4,4.1c2,1.3,3.8,2.5,5.3,3.6c1.6,1.1,2.9,2.1,4,2.9c1.1,0.8,1.9,1.6,2.5,2c0.6,0.5,0.9,0.7,0.9,0.7
				s-0.3-0.3-0.8-0.8c-0.6-0.5-1.3-1.2-2.4-2.1c-1.1-0.9-2.4-1.9-3.9-3.1c-1.5-1.1-3.3-2.4-5.2-3.9c-1.9-1.4-4-2.9-6.2-4.4
				c-2.2-1.5-4.6-3.2-7-4.8c-4.9-3.3-10.2-6.8-15.4-10.3c-21.1-13.8-41-24.8-41-24.8L233.9,138.5z"/>
			<path class="st2" d="M227,138.3c0,0,25.6,13.9,46.7,26.2c10.6,6.1,21.1,12.5,28.8,17.4c2,1.2,3.7,2.4,5.3,3.4
				c1.6,1,2.9,1.9,4,2.7c2.2,1.5,3.5,2.4,3.5,2.4s-1.2-0.9-3.4-2.5c-1.1-0.8-2.4-1.8-3.9-2.9c-1.5-1.1-3.2-2.4-5.1-3.7
				c-7.5-5.3-17.7-12.2-28.1-18.8C254.2,149,236,137.9,236,137.9L227,138.3z"/>
			<path class="st2" d="M217.5,138.9c0,0,7.8,3.5,15.6,7.5c3.9,2,8.4,4.3,13.2,6.9c2.4,1.3,4.9,2.6,7.4,4c2.5,1.4,5.1,2.8,7.6,4.3
				c2.5,1.4,5,2.9,7.5,4.4c2.5,1.5,4.8,3,7.2,4.5c2.3,1.4,4.5,3,6.6,4.4c2.1,1.4,4,2.9,5.8,4.1c1.8,1.3,3.3,2.6,4.7,3.7
				c0.7,0.6,1.3,1.1,2,1.6c0.6,0.5,1.1,1,1.6,1.4c1.9,1.7,3,2.7,3,2.7s-1-1-2.9-2.9c-0.5-0.5-1-1-1.5-1.5c-0.6-0.5-1.2-1.1-1.9-1.7
				c-1.4-1.2-2.8-2.6-4.6-3.9c-1.7-1.4-3.6-2.9-5.6-4.4c-2-1.5-4.1-3.2-6.4-4.7c-2.3-1.6-4.6-3.2-7-4.8c-2.4-1.6-4.9-3.2-7.3-4.8
				c-2.5-1.6-5-3.1-7.4-4.7c-2.5-1.5-4.9-3-7.3-4.4c-4.7-2.8-9.2-5.4-13-7.5c-7.7-4.3-9.3-5-9.3-5L217.5,138.9z"/>
			<path class="st2" d="M208.7,139.1c0,0,8.7,4.2,16.8,8.6c8.1,4.4,18.9,10.4,29.5,16.7c2.7,1.6,5.3,3.2,7.9,4.8
				c2.6,1.6,5.1,3.2,7.6,4.7c2.5,1.5,4.8,3.1,7,4.6c2.2,1.5,4.3,2.9,6.2,4.3c0.9,0.7,1.9,1.3,2.7,1.9c0.8,0.6,1.6,1.3,2.4,1.8
				c1.5,1.2,2.8,2.1,3.8,3c2.1,1.8,3.3,2.8,3.3,2.8s-1.1-1.1-3.1-2.9c-1-1-2.2-2-3.7-3.2c-0.7-0.6-1.5-1.3-2.3-2
				c-0.8-0.7-1.7-1.4-2.6-2.1c-1.8-1.5-3.8-3-6-4.6c-2.1-1.6-4.4-3.3-6.8-5c-2.4-1.7-4.8-3.4-7.4-5.2c-2.5-1.8-5.1-3.5-7.7-5.2
				c-10.3-6.9-20.9-13.5-28.8-18.3c-7.9-4.9-9.5-5.8-9.5-5.8L208.7,139.1z"/>
			<path class="st2" d="M197.5,138.7c0,0,9.7,4.6,19.2,9.5c2.3,1.2,4.9,2.6,7.6,4c2.7,1.4,5.5,2.9,8.4,4.6c2.9,1.6,5.9,3.3,8.9,5
				c3,1.7,6.1,3.5,9.1,5.3c3.1,1.8,6.1,3.7,9,5.5c3,1.8,5.8,3.8,8.6,5.6c2.8,1.8,5.4,3.7,7.9,5.4c2.5,1.8,4.8,3.5,6.9,5.1
				c2.1,1.6,4,3.2,5.7,4.6c1.7,1.3,3.1,2.6,4.3,3.7c2.3,2.1,3.6,3.3,3.6,3.3s-1.3-1.2-3.5-3.4c-1.1-1.1-2.5-2.4-4.1-3.8
				c-1.7-1.4-3.5-3.1-5.6-4.8c-2.1-1.7-4.4-3.5-6.8-5.4c-2.5-1.8-5-3.8-7.8-5.7c-2.7-1.9-5.5-4-8.5-5.9c-2.9-1.9-5.9-4-8.9-5.9
				c-3-1.9-6-3.9-9-5.7c-3-1.9-5.9-3.6-8.8-5.4c-2.9-1.7-5.7-3.3-8.3-4.9c-2.7-1.5-5.2-2.9-7.5-4.3c-9.3-5.2-12.5-6.8-12.5-6.8
				L197.5,138.7z"/>
			<path class="st2" d="M189.5,139.4c0,0,10.3,4.7,19.5,9.7c4.6,2.5,10,5.4,15.6,8.7c2.8,1.6,5.7,3.4,8.7,5.2
				c1.5,0.9,2.9,1.8,4.4,2.8c1.5,0.9,2.9,1.9,4.4,2.9c2.9,1.9,5.7,4.1,8.5,6.1c2.8,2,5.7,4,8.4,5.8c5.5,3.7,10.8,6.9,15.3,9.6
				c9.1,5.4,15.3,8.6,15.3,8.6s-6.1-3.5-14.9-9.3c-4.4-2.9-9.5-6.3-14.8-10.2c-2.7-2-5.4-4-8.1-6.1c-2.7-2.1-5.5-4.4-8.3-6.5
				c-1.4-1.1-2.9-2.1-4.3-3.1c-1.4-1-2.9-2-4.3-3c-2.9-2-5.7-3.8-8.5-5.6c-5.6-3.6-10.9-6.8-15.4-9.5c-9.1-5.4-11.6-6.7-11.6-6.7
				L189.5,139.4z"/>
			<path class="st2" d="M182.1,140.5c0,0,9.1,4.1,18.6,9.1c4.7,2.5,10.2,5.5,16.1,8.7c2.9,1.7,5.9,3.4,8.9,5.2c3,1.8,6.1,3.7,9,5.7
				c6,4,11.8,8.2,17.2,12.2c2.7,2,5.3,4,7.8,5.8c2.5,1.8,4.8,3.6,7.1,5.1c4.6,2.8,8.6,5,11.3,6.5c2.8,1.5,4.3,2.3,4.3,2.3
				s-1.6-0.9-4.3-2.5c-2.7-1.6-6.6-3.9-11.1-6.9c-2.2-1.5-4.5-3.4-6.9-5.3c-2.4-1.9-5-4-7.6-6.1c-5.3-4.2-11-8.7-16.9-12.9
				c-3-2.1-5.9-4.2-8.9-6.1c-3-2-5.9-3.8-8.8-5.6c-5.8-3.5-11.2-6.7-15.9-9.4c-9.4-5.4-12.6-7-12.6-7L182.1,140.5z"/>
			<path class="st2" d="M173.2,141.5c0,0,8,3.4,15.3,7.1c7.2,3.6,16.9,8.6,26.4,13.7c2.4,1.3,4.8,2.6,7.1,3.8
				c2.3,1.3,4.6,2.6,6.8,3.8c4.4,2.5,8.5,4.9,12,7c1.8,1,3.3,2,4.7,2.9c1.4,0.9,2.6,1.6,3.6,2.3c2,1.3,3.1,2,3.1,2s-1.1-0.8-3-2.2
				c-1-0.7-2.1-1.6-3.5-2.5c-1.4-0.9-2.9-2-4.6-3.2c-3.4-2.3-7.4-4.9-11.7-7.7c-2.2-1.4-4.4-2.8-6.7-4.2c-2.3-1.4-4.6-2.8-6.9-4.3
				c-9.3-5.7-18.7-11.2-25.8-15.2c-7.1-4.1-9.3-5.5-9.3-5.5L173.2,141.5z"/>
			<path class="st2" d="M164.3,142.3c0,0,8.6,4.9,18.5,9.7c4.9,2.4,10.7,5.2,16.9,8.3c6.1,3.1,12.7,6.4,19.1,10
				c3.2,1.8,6.4,3.6,9.3,5.6c3,2,5.9,4.1,8.7,6.2c5.5,4.2,10.6,8.2,15.1,11.5c2.2,1.7,4.3,3.1,6.2,4.3c1.9,1.2,3.6,2.2,5.1,2.9
				c0.7,0.4,1.4,0.6,2,0.8c0.6,0.2,1.1,0.4,1.5,0.4c0.8,0.1,1.3,0.2,1.3,0.2s-0.4-0.1-1.3-0.3c-0.4-0.1-0.9-0.3-1.5-0.5
				c-0.6-0.2-1.2-0.5-1.9-0.9c-1.4-0.7-3.1-1.8-4.9-3.1c-1.8-1.3-3.8-2.9-6-4.6c-4.3-3.5-9.2-7.8-14.5-12.2
				c-2.7-2.2-5.5-4.5-8.5-6.7c-3-2.2-6.1-4.2-9.3-6.2c-6.3-3.9-12.7-7.6-18.8-11c-6-3.4-11.7-6.5-16.5-9.2
				c-9.7-5.3-12.7-6.6-12.7-6.6L164.3,142.3z"/>
			<path class="st2" d="M157.3,143.4c0,0,7.4,4.9,15.5,8.9c8.1,4.1,18.9,9.5,29.5,15.1c2.7,1.4,5.3,2.8,7.9,4.3
				c1.3,0.7,2.5,1.5,3.8,2.2c1.2,0.8,2.4,1.6,3.6,2.4c4.7,3.2,9,6.3,12.7,9c3.7,2.7,6.8,4.9,8.9,6.5c2.2,1.6,3.4,2.4,3.4,2.4
				s-1.2-0.9-3.3-2.6c-2.1-1.7-5-4.1-8.6-7c-3.5-2.9-7.7-6.3-12.3-9.7c-1.2-0.9-2.3-1.7-3.5-2.6c-1.2-0.9-2.5-1.7-3.7-2.5
				c-2.5-1.6-5.1-3.2-7.7-4.8c-10.4-6.3-20.9-12.4-28.8-16.9c-7.9-4.5-10.5-5.8-10.5-5.8L157.3,143.4z"/>
			<path class="st2" d="M149,144.9c0,0,7.3,4,15.6,8.2c4.2,2.1,9,4.6,14.2,7.4c2.6,1.4,5.2,2.9,7.9,4.4c2.7,1.5,5.4,3.1,8,4.8
				c2.6,1.6,5.3,3.4,7.8,5.1c2.5,1.7,5,3.5,7.4,5.2c4.8,3.5,9.1,6.9,12.9,9.7c1.9,1.4,3.7,2.7,5.3,3.8c1.6,1.1,3,2,4.3,2.6
				c0.6,0.3,1.2,0.6,1.6,0.8c0.5,0.2,0.9,0.4,1.2,0.5c0.7,0.2,1.1,0.4,1.1,0.4s-0.4-0.1-1-0.4c-0.3-0.1-0.8-0.3-1.2-0.6
				c-0.5-0.2-1-0.5-1.6-0.9c-1.2-0.7-2.6-1.6-4.1-2.8c-1.5-1.1-3.2-2.5-5.1-4c-3.6-3-7.8-6.6-12.5-10.4c-2.3-1.9-4.7-3.8-7.2-5.7
				c-2.5-1.9-5-3.7-7.7-5.6c-2.6-1.8-5.2-3.6-7.9-5.3c-2.6-1.7-5.2-3.3-7.7-4.9c-5.1-3.1-9.8-5.9-13.9-8.2c-8.2-4.7-10.8-6-10.8-6
				L149,144.9z"/>
			<path class="st2" d="M138.9,147.4c0,0,3.6,1.8,4.1,1.9c0.5,0.1,1.3,0.3,2.4,0.6c1,0.3,2.3,0.7,3.8,1.1c1.5,0.5,3.1,1,4.9,1.7
				c0.9,0.3,1.8,0.7,2.8,1.1c1,0.4,2,0.8,3,1.2c2,0.8,4.2,1.9,6.4,2.9c2.2,1.1,4.5,2.2,6.7,3.4c2.3,1.2,4.6,2.4,6.9,3.7
				c2.3,1.3,4.6,2.6,6.8,3.9c2.2,1.4,4.4,2.6,6.5,4c2.1,1.4,4.1,2.7,6,3.9c1.9,1.3,3.6,2.5,5.3,3.6c1.6,1.1,3.1,2.2,4.4,3.1
				c1.3,1,2.4,1.8,3.4,2.5c1.9,1.4,2.9,2.2,2.9,2.2s-1-0.9-2.8-2.4c-0.9-0.8-2-1.7-3.2-2.7c-1.2-1.1-2.6-2.2-4.2-3.4
				c-1.6-1.2-3.3-2.6-5-4c-1.8-1.4-3.8-2.8-5.7-4.3c-2-1.5-4.1-3-6.2-4.5c-2.1-1.5-4.4-3-6.6-4.5c-2.2-1.5-4.5-2.9-6.7-4.3
				c-2.2-1.4-4.5-2.6-6.6-3.9c-2.2-1.2-4.3-2.4-6.4-3.4c-1-0.5-2-1-3-1.5c-1-0.5-1.9-0.9-2.8-1.3c-1.8-0.9-3.5-1.6-5-2.2
				c-1.5-0.6-2.9-1.1-4-1.5c0,0,0.7,0.2,0,0c-0.6-0.2,0,0,0,0L138.9,147.4z"/>
			<path class="st2" d="M131.2,148.8c0,0,2.4,2,3,2.1c0.5,0.1,2.3,0.8,3.4,1c2,0.5,5,1.2,8.4,2.4c1.7,0.6,3.6,1.3,5.5,2.1
				c1.9,0.8,3.9,1.8,6,2.9c1,0.6,2,1.1,3,1.8c0.5,0.3,1,0.6,1.5,0.9c0.5,0.3,1,0.7,1.5,1c2,1.4,4.1,3,6.2,4.5
				c8.5,5.9,17.5,11.1,24.4,14.4c1.7,0.8,3.3,1.6,4.8,2.1c1.4,0.6,2.7,1.1,3.8,1.4c1.1,0.3,1.9,0.6,2.5,0.7c0.6,0.1,0.9,0.2,0.9,0.2
				s-0.3-0.1-0.9-0.3c-0.6-0.2-1.4-0.5-2.4-0.9c-1-0.4-2.2-1-3.6-1.7c-1.4-0.7-2.9-1.5-4.6-2.5c-6.6-3.9-15-9.7-22.9-16.2
				c-2-1.6-3.8-3.3-5.8-5c-0.5-0.4-1-0.8-1.5-1.3c-0.5-0.4-1-0.8-1.6-1.2c-1-0.8-2.1-1.5-3.1-2.2c-2.1-1.4-4.2-2.6-6.2-3.6
				c-2-1-4-2-5.8-2.7c-3.6-1.6-6.7-2.6-8.9-3.3c-1.1-0.3,0.6,0.2,0,0c-0.6-0.2,0,0,0,0L131.2,148.8z"/>
			<path class="st2" d="M122.5,152.2c0,0,3,2.1,4.9,2.7c1.9,0.6,4.7,1.5,8,2.6c3.3,1.1,7.1,2.5,11.2,4.1c2,0.8,4.1,1.7,6.2,2.6
				c2.1,1,4.2,2,6.2,3.1c2,1.1,4.1,2.4,6,3.6c2,1.3,3.9,2.5,5.7,3.8c3.7,2.5,7.2,4.9,10.4,6.6c1.6,0.9,3.1,1.6,4.4,2.2
				c1.3,0.6,2.5,1.1,3.5,1.4c1,0.4,1.7,0.6,2.3,0.8c0.5,0.2,0.8,0.3,0.8,0.3s-0.3-0.1-0.8-0.3c-0.5-0.2-1.3-0.5-2.2-0.9
				c-0.9-0.4-2.1-1-3.3-1.6c-1.3-0.7-2.7-1.5-4.2-2.5c-3-1.9-6.3-4.5-9.8-7.3c-1.8-1.4-3.6-2.8-5.5-4.2c-2-1.4-3.8-2.8-5.9-4.1
				c-2-1.3-4.2-2.5-6.2-3.7c-2.1-1.1-4.2-2.2-6.2-3.2c-4-2-7.9-3.7-11.2-5.1c-3.3-1.4-6.1-2.5-8-3.3l0,0L122.5,152.2z"/>
			<path class="st2" d="M115.7,153.6C115.7,153.6,112.3,150.9,115.7,153.6c0.4,0.1,4.5,2.9,5.4,3.1c1.7,0.3,4.2,0.9,7.1,1.7
				c1.5,0.4,3,0.9,4.7,1.5c1.7,0.6,3.4,1.2,5.2,2c1.8,0.7,3.6,1.6,5.4,2.5c0.9,0.4,1.8,0.9,2.7,1.5c0.9,0.5,1.8,1,2.7,1.6
				c3.5,2.2,6.8,4.9,10.1,7.2c3.3,2.4,6.5,4.3,9.4,5.7c2.8,1.4,5.2,2.6,6.9,3.3c1.7,0.7,2.7,1.2,2.7,1.2s-0.9-0.5-2.6-1.4
				c-1.6-0.9-3.9-2.2-6.7-3.8c-2.7-1.7-5.7-3.8-8.8-6.3c-3-2.5-6.1-5.6-9.7-8.1c-0.9-0.6-1.8-1.3-2.7-1.9c-0.9-0.6-1.8-1.2-2.7-1.7
				c-1.8-1.1-3.7-2.2-5.5-3.1c-1.8-0.9-3.6-1.8-5.3-2.5c-1.7-0.7-3.3-1.4-4.8-2c-3-1.1-5.6-1.9-7.4-2.4c0,0,0.5,0.1,0,0
				c-0.5-0.1,0,0,0,0L115.7,153.6z"/>
			<path class="st2" d="M108.9,156.4c0,0,2.5,1.7,4,2.2c1.6,0.5,3.8,1.2,6.5,2.1c2.7,0.9,5.8,2,9.1,3.3c1.7,0.6,3.3,1.3,5,2.1
				c0.8,0.4,1.7,0.8,2.5,1.2c0.9,0.4,1.7,0.9,2.5,1.3c3.2,1.9,6.4,4.2,9.6,6.1c1.6,0.9,3.1,1.8,4.7,2.5c1.5,0.7,3,1.4,4.3,1.9
				c1.4,0.5,2.6,0.9,3.7,1.3c1.1,0.3,2.1,0.6,2.9,0.8c1.6,0.4,2.5,0.6,2.5,0.6s-0.9-0.3-2.5-0.9c-0.8-0.3-1.7-0.7-2.8-1.1
				c-1.1-0.5-2.3-1-3.6-1.6c-1.3-0.6-2.7-1.4-4.1-2.2c-1.4-0.8-2.9-1.8-4.3-2.9c-2.9-2.1-5.8-4.7-9.2-7c-0.8-0.6-1.7-1.1-2.5-1.6
				c-0.9-0.5-1.7-1-2.6-1.5c-1.7-1-3.4-1.8-5-2.7c-3.3-1.6-6.4-3-9.1-4.2c-2.7-1.2-4.9-2.1-6.5-2.7c-1.6-0.6,0,0,0,0L108.9,156.4z"
				/>
			<path class="st2" d="M99.5,159.8C99.5,159.8,97.4,157.9,99.5,159.8C99.6,159.8,99.3,159.8,99.5,159.8c0.4,0,3.5,1.9,4.3,2
				c1.6,0.2,3.9,0.5,6.7,1.2c2.8,0.7,6,1.7,9.4,3.1c0.9,0.3,1.7,0.7,2.6,1.1c0.8,0.3,1.7,0.8,2.6,1.2c0.9,0.4,1.7,0.9,2.6,1.3
				c0.8,0.5,1.7,1,2.6,1.5c3.4,2.1,6.7,4.5,10,6.5c1.7,1,3.3,1.8,4.9,2.6c0.8,0.3,1.6,0.7,2.4,1c0.8,0.3,1.5,0.5,2.2,0.8
				c1.4,0.4,2.8,0.9,3.9,1.1c1.2,0.3,2.2,0.5,3.1,0.7c1.7,0.3,2.7,0.5,2.7,0.5s-1-0.3-2.6-0.7c-0.8-0.2-1.8-0.6-3-0.9
				c-1.2-0.3-2.4-0.9-3.8-1.4c-0.7-0.3-1.4-0.6-2.1-0.9c-0.7-0.4-1.5-0.7-2.2-1.1c-1.5-0.8-3-1.8-4.6-2.9c-3.1-2.1-6.1-4.8-9.5-7.2
				c-0.8-0.6-1.7-1.2-2.5-1.8c-0.9-0.6-1.8-1.2-2.6-1.7c-0.9-0.5-1.7-1-2.6-1.5c-0.9-0.5-1.7-0.9-2.6-1.4c-3.5-1.7-6.8-3.1-9.8-4.1
				c-2.9-1-5.5-1.6-7.3-1.9c-0.9-0.2,0.5,0.1,0,0c-0.3,0,0.6,0.1,0,0c-0.1,0,0,0,0,0L99.5,159.8z"/>
			<path class="st2" d="M91.1,163.1c0,0,3.7,2,5,2.3c1.3,0.3,3.2,0.7,5.5,1.3c2.3,0.6,4.9,1.3,7.7,2.2c2.8,0.9,5.8,1.8,8.8,2.9
				c3,1.1,6,2.2,8.7,3.4c1.4,0.6,2.7,1.1,4,1.7c1.2,0.6,2.4,1.1,3.5,1.7c1.1,0.5,2.1,1,2.9,1.5c0.9,0.5,1.6,0.9,2.2,1.2
				c1.2,0.7,1.9,1.1,1.9,1.1s-0.7-0.5-1.8-1.3c-0.6-0.4-1.3-0.9-2.1-1.5c-0.8-0.5-1.8-1.2-2.8-1.8c-1-0.7-2.2-1.4-3.3-2.1
				c-1.2-0.7-2.5-1.5-3.8-2.2c-2.7-1.5-5.5-3-8.5-4.5c-2.9-1.5-5.9-2.8-8.7-4c-2.8-1.2-5.4-2.3-7.7-3.2c-2.3-0.9-4.2-1.6-5.5-2.1
				c-1.4-0.5,0,0,0,0L91.1,163.1z"/>
			<path class="st2" d="M87.4,165.4c0,0,1.6,1.5,1.9,1.8c0.3,0.3,0.7,0.6,1.3,1.1c1.1,0.9,2.6,2.1,4.6,3.5c1.9,1.4,4.2,3,6.6,4.6
				c1.3,0.8,2.5,1.6,3.8,2.4c1.3,0.8,2.7,1.6,4,2.3c1.4,0.8,2.7,1.5,4.1,2.1c1.4,0.7,2.7,1.3,4,1.9c1.3,0.6,2.6,1.1,3.8,1.6
				c1.2,0.5,2.4,0.9,3.5,1.3c1.1,0.4,2.1,0.7,2.9,1c0.9,0.2,1.7,0.5,2.3,0.6c1.3,0.4,2,0.6,2,0.6s-0.7-0.3-1.9-0.8
				c-0.6-0.3-1.3-0.6-2.2-0.9c-0.8-0.4-1.8-0.9-2.8-1.4c-1-0.5-2.1-1.1-3.2-1.7c-1.1-0.6-2.3-1.3-3.5-2.1c-1.2-0.7-2.5-1.5-3.7-2.3
				c-1.2-0.8-2.5-1.7-3.7-2.6c-1.2-0.9-2.4-1.8-3.6-2.7c-1.2-0.9-2.3-1.9-3.4-2.7c-2.2-1.8-4.1-3.6-5.7-5.2
				c-1.6-1.6-2.9-2.9-3.8-3.8c-0.4-0.5-0.8-0.8-1-1.1c-0.2-0.3-0.3-0.4-0.3-0.4L87.4,165.4z"/>
			<path class="st2" d="M81.4,169.8c0,0,0.1,0.1,0.3,0.2c0.2,0.2,0.4,0.4,0.8,0.7c0.6,0.5,1.5,1.2,2.6,2c1.1,0.8,2.4,1.7,3.8,2.5
				c1.4,0.9,2.9,1.7,4.5,2.4c0.8,0.4,1.6,0.7,2.3,1.1c0.8,0.3,1.5,0.6,2.3,0.9c0.7,0.3,1.5,0.5,2.1,0.7c0.7,0.2,1.3,0.4,1.9,0.6
				c1.2,0.4,2.2,0.6,2.9,0.7c0.7,0.2,1.1,0.2,1.1,0.2s-0.4-0.2-1-0.5c-0.6-0.3-1.5-0.8-2.6-1.5c-0.5-0.3-1.1-0.7-1.7-1.1
				c-0.6-0.4-1.2-0.8-1.8-1.3c-0.6-0.5-1.2-0.9-1.8-1.4c-0.6-0.5-1.2-1-1.8-1.6c-1.2-1.1-2.3-2.2-3.3-3.3c-1-1.1-1.9-2.1-2.6-3
				c-0.7-0.9-1.3-1.7-1.6-2.2c-0.2-0.3-0.3-0.5-0.4-0.6c-0.1-0.1-0.1-0.2-0.1-0.2L81.4,169.8z"/>
			<path class="st2" d="M66.7,178.7c0,0,2.4,1.4,2.6,1.5c0.3,0.2,0.6,0.4,1,0.6c0.9,0.5,2.1,1.1,3.5,1.8c1.4,0.7,3.1,1.4,5,2
				c1.8,0.6,3.8,1.3,5.8,1.7c1,0.3,2,0.4,2.9,0.6c1,0.2,1.9,0.3,2.8,0.5c0.9,0.2,1.8,0.2,2.6,0.3c0.8,0.1,1.6,0.1,2.3,0.1
				c1.4,0.1,2.6,0,3.5,0c0.8,0,1.3-0.1,1.3-0.1s-0.5-0.1-1.3-0.3c-0.8-0.2-2-0.5-3.4-1c-0.7-0.2-1.4-0.5-2.2-0.8
				c-0.8-0.3-1.6-0.6-2.4-1c-0.8-0.4-1.7-0.7-2.5-1.2c-0.8-0.4-1.7-0.9-2.5-1.4c-1.7-0.9-3.2-2-4.7-3c-1.4-1-2.7-2-3.8-2.9
				c-1.1-0.9-1.9-1.7-2.4-2.2c-0.3-0.3-0.5-0.5-0.6-0.6c-0.1-0.1-0.2-0.2-0.2-0.2L66.7,178.7z"/>
			<path class="st2" d="M58.9,184.9c0,0,2,0.7,2.8,1.1c0.7,0.3,1.8,0.8,3,1.3c2.5,1.1,5.9,2.3,9.3,3.3c1.7,0.5,3.4,1,5,1.3
				c0.8,0.2,1.6,0.3,2.3,0.5c0.7,0.1,1.4,0.3,2.1,0.3c1.3,0.2,2.3,0.3,3.1,0.4c0.7,0.1,1.2,0.1,1.2,0.1s-0.4-0.1-1.1-0.4
				c-0.7-0.2-1.7-0.6-2.9-1.1c-0.6-0.2-1.2-0.5-1.9-0.9c-0.7-0.3-1.4-0.7-2.1-1c-1.4-0.7-2.9-1.6-4.4-2.5c-3-1.8-5.8-3.7-7.8-5.3
				c-1-0.8-1.8-1.4-2.4-1.9c-0.5-0.5-0.8-0.7-0.8-0.7L58.9,184.9z"/>
			<g>
				<path class="st2" d="M18.1,241.4c0,0,2.4-4.5,7.1-12.1c4.7-7.6,11.9-18.2,21.7-29.9c2.5-2.9,5.1-5.9,7.9-8.9
					c0.7-0.7,1.4-1.5,2.2-2.2l1.1-1.1l1.1-1c0.8-0.7,1.6-1.4,2.4-2.2l1.2-1.1l1.3-1c6.7-5.5,14.6-10.4,23.1-14.8
					c8.5-4.4,17.8-8.3,27.4-11.7c9.6-3.4,19.7-6.2,29.9-8.5c10.2-2.3,20.6-3.9,31-5.1c10.4-1.2,20.7-2,30.7-2.4
					c10-0.4,19.8-0.3,29,0.1c9.3,0.4,18,1,26.1,1.8c4.1,0.4,7.9,0.8,11.6,1.2c3.7,0.4,7.2,0.8,10.5,1.2c6.6,0.8,12.3,1.6,17.1,2.2
					c9.5,1.4,14.9,2.2,14.9,2.2l0.1-1.2c0,0-5.4-0.9-14.9-2.4c-4.7-0.7-10.5-1.6-17.1-2.5c-3.3-0.5-6.8-0.9-10.5-1.3
					c-3.7-0.5-7.6-0.9-11.7-1.3c-8.1-0.8-16.9-1.5-26.2-2c-9.3-0.5-19.1-0.6-29.2-0.3c-10.1,0.3-20.5,1-30.9,2.1
					c-5.2,0.5-10.5,1.2-15.7,2c-5.2,0.8-10.5,1.8-15.6,3c-10.3,2.3-20.5,5.2-30.2,8.5c-9.7,3.4-19.1,7.3-27.8,11.7
					C77,169,69,173.9,62.1,179.6l-1.3,1l-1.2,1.1c-0.8,0.7-1.6,1.5-2.4,2.2L56,185l-1.1,1.1c-0.7,0.8-1.5,1.5-2.2,2.3
					c-2.9,3-5.6,6-8.1,8.9c-5,5.9-9.2,11.6-12.9,16.7c-3.6,5.1-6.6,9.7-9,13.5c-4.8,7.7-7.2,12.3-7.2,12.3L18.1,241.4z"/>
			</g>
		</g>
	</g>
</g>
<g class="st0">
	<path class="st3" d="M119,143.3c0.3-1.5-3.5-14.8-7.3-22.9c-3.9-8.1-8.4-23.6-3.9-23.8c4.6-0.3,6.6,15.8,7.2,17.4
		c0.6,1.6,9.1,18.8,10.7,19.6c1.7,0.8,3-0.1,8.9-5.1c5.9-4.9,8.4-4.3,5.5-8c-2.9-3.7-22.6-24.3-21.2-25.4c1.5-1.1,2.7,0,9.6,6.6
		c6.9,6.6,14.3,19.2,15.4,19.6c1.1,0.4,2.3,1.7,3.9-1.8c1.6-3.5,8.5-13.5,8-15.6c-0.5-2.1-18.9-12.8-21.2-13.6
		c-2.3-0.8-14.8-5.8-14-9.5c0.8-3.7,8.8,0.2,13.1,1.8c4.3,1.6,20.1,12.1,22,13.6c-0.2-4,1.6-18.1,2.5-19.4c-1.8-0.8-18.1-4.7-20-5
		c-1.9-0.3-13.4,0.6-12.2-2.8c1.2-3.4,9.4-2.7,10-2.8c0.6,0,17,5.9,19.7,6c2.7,0.1,4.9,1.6,4.1-2.6c-0.8-4.2-2-8.9-2.1-11.3
		c-0.1-2.4,0.3-11.4-1.5-11.1c-1.8,0.3-4.6,2.2-7.4,3.2c-2.8,1-18.4,3.6-19.1,2.4c-0.7-1.2,7.7-6.5,9-6.6c1.3-0.2,15.8,0,15.5-2.3
		c-0.4-2.2,0.1-18.5-2.5-23.2c-3,3.2-11.5,11.6-13.8,13.6c-2.2,2-10.3,9-11.6,7.5s1.3-7.6,3.8-9c2.5-1.4,14.1-9.8,14.1-19.1
		c-4.2-1.8-10.5-4.5-12.9-6c-2.4-1.6-9.8-4.8-11.1-4.4c-1.4,0.4-1.9,0.8-2.4,9.2c-0.4,8.4-2.7,21-6.3,19.9c-3.5-1.1,6-28.2,5.2-28.7
		c-0.8-0.5-5.1-1.8-6-2C109.7,1.8,99.4,0.3,98.7,2s-0.4,13.8,0.4,19.1c0.8,5.4,3,18.5-1.4,17.6c-4.4-0.9-4.8-13-4.8-14.9
		c0.1-1.9,5-21.1,2.8-22.3c-2.2-1.3-16.3,2.3-18.1,2.7C76,4.6,65.3,8.6,65.3,8.6s8.6,4,10.2,8.2c1.6,4.2,9.7,24.7,6.6,26.2
		c-3.1,1.4-8.8-14.8-11.7-17.9c-2.9-3.1-12-14.3-12-14.3s-19.6,8-18.4,16.4c4.8,3.5,18.6,9.9,20.8,11.4c2.2,1.5,10.9,9.2,10.4,11
		c-0.5,1.8-1.9,3.3-8.6-1.9c-6.7-5.2-29.5-17.9-29.5-17.9S20.2,44,19.4,51.9c1.6,1.5,14.2,0.7,15.6,1C36.3,53,58.7,58.1,55,63.5
		c-3,0.1-17-2-35.2-9.3c-0.8,2.6-1.5,9.8-3.3,12.4s-4.1,7.1-2.4,9.6c1.6,2.5,17.4,0.3,19.3,0.3c1.9,0.1,19.1-1.8,16.7,3
		c-2.4,4.9-37,3.2-37,3.2s-2.6,16.4,3.2,24.9c3-1.6,13.8-6,16.8-7.2c3-1.2,14-1.8,13.2,2.3c-0.7,4.1-3,5.5-6,6.2
		c-3,0.7-18.9,5-18.7,6.1c0.2,1.1,12.7,12.7,13.4,14c1.5,3,2.3,5.1,2.3,5.1s4.6,7.4,6,8.2c0.5-2.4,9.9-16.1,14.3-17.7
		c1.3,1.7,2,2.7,2,2.7s-11.8,11.6-14.2,17c3.4,3.5,5.4,7.6,19.8,9.4c0.2-2.5,3.7-21.1,4.7-21.4c1-0.3,2.5,0.8-1.9,20.8
		c4.2,0.7,22.3-0.3,23.4-2.1c1.1-1.9-0.7-11.9,0-16.9c0.6-5,2-26,6-25.3c4.1,0.7,3.9,6.7,4.1,10.4c0.3,3.7-4.1,24.8-2.8,26.5
		c1.3,1.7,3.6,3.5,3.6,3.5S118.7,144.8,119,143.3z M108.1,81c3.8,2.8,6,4.5,5.6,6.8c-0.4,2.4-4.4-0.5-8.2-3.3
		c-3.8-2.8-7.4-4.4-5.6-6.8C100.6,76.8,104.2,78.2,108.1,81z M117,64.4c3,0.5,5.3,1.9,5.1,3.1c-0.2,1.2-2.8,1.7-5.8,1.2
		c-3-0.5-5.3-1.9-5.1-3.1C111.4,64.4,114,63.9,117,64.4z M118.7,53.8c2.7,0.1,4.9,1.1,4.9,2.3c0,1.2-2.3,2.2-5,2.1
		c-2.7-0.1-4.9-1.1-4.9-2.3C113.8,54.6,116,53.7,118.7,53.8z M111.7,39.3c0.8,0.2,1.1,1.8,0.6,3.6c-0.5,1.8-1.5,3.1-2.3,2.9
		c-0.8-0.2-1.1-1.8-0.6-3.6C109.9,40.3,110.9,39.1,111.7,39.3z M97.5,45.1c2.5-0.8,3.5,2.1,4.5,5.6s0.6,6.7-0.8,7.2
		c-1.5,0.4-3.5-2.1-4.5-5.6S96.1,45.6,97.5,45.1z M83.9,54c3-2.2,4.9,0.8,7.5,4.3c2.6,3.5,4.1,6.8,1.9,8.4c-1.5,1.1-4.9-0.8-7.5-4.3
		C83.2,58.9,82.3,55.1,83.9,54z M67.5,68.9c1.3-3.5,4.5-2,8.6-0.5c4.1,1.5,7.2,3.4,6.2,6c-0.7,1.8-4.5,2-8.6,0.5
		C69.6,73.4,66.8,70.7,67.5,68.9z M59.5,83.6c1.3-3.5,4.5-2,8.6-0.5c4.1,1.5,7.5,5.5,6.6,8.1c-0.7,1.8-4.9-0.1-9-1.6
		C61.6,88.1,58.9,85.4,59.5,83.6z M57.3,103.4c-2.7,0.2-5-0.6-5.1-1.8c-0.1-1.2,2-2.4,4.8-2.6c2.7-0.2,5,0.6,5.1,1.8
		C62.1,102.1,60,103.2,57.3,103.4z M102.4,71.1c0.4-1.2,2.8-1.4,5.4-0.6c2.6,0.8,4.2,2.4,4,3.6c-0.4,2.5-2.8,1.4-5.4,0.6
		C103.8,73.9,102,72.3,102.4,71.1z M90.1,97.9c-1.5-0.3-2.8-3-2.8-6.7c0-3.7,1.3-6.6,2.8-6.6c2.6-0.1,3.2,2.9,3.2,6.6
		C93.3,94.9,95.2,98.9,90.1,97.9z M82.9,119.2c-1.2,0.1-2.4-2.8-2.7-6.4c-0.3-3.7,0.4-6.6,1.6-6.8c2-0.3,2.4,2.8,2.7,6.4
		C84.8,116.1,84.1,119.1,82.9,119.2z"/>
	<path class="st4" d="M120.6,142.1c0.3-1.5-3.5-14.8-7.3-22.9c-3.9-8.1-8.4-23.6-3.9-23.8c4.6-0.3,6.6,15.8,7.2,17.4
		c0.6,1.6,9.1,18.8,10.7,19.6c1.7,0.8,3-0.1,8.9-5.1c5.9-4.9,8.4-4.3,5.5-8c-2.9-3.7-22.6-24.3-21.2-25.4c1.5-1.1,2.7,0,9.6,6.6
		c6.9,6.6,14.3,19.2,15.4,19.6c1.1,0.4,2.3,1.7,3.9-1.8c1.6-3.5,8.5-13.5,8-15.6c-0.5-2.1-18.9-12.8-21.2-13.6
		c-2.3-0.8-14.8-5.8-14-9.5c0.8-3.7,8.8,0.2,13.1,1.8c4.3,1.6,20.1,12.1,22,13.6c-0.2-4,1.6-18.1,2.5-19.4c-1.8-0.8-18.1-4.7-20-5
		c-1.9-0.3-13.4,0.6-12.2-2.8c1.2-3.4,9.4-2.7,10-2.8c0.6,0,17,5.9,19.7,6c2.7,0.1,4.9,1.6,4.1-2.6c-0.8-4.2-2-8.9-2.1-11.3
		c-0.1-2.4,0.3-11.4-1.5-11.1c-1.8,0.3-4.6,2.2-7.4,3.2c-2.8,1-18.4,3.6-19.1,2.4c-0.7-1.2,7.7-6.5,9-6.6c1.3-0.2,15.8,0,15.5-2.3
		c-0.4-2.2,0.1-18.5-2.5-23.2c-3,3.2-11.5,11.6-13.8,13.6c-2.2,2-10.3,9-11.6,7.5s1.3-7.6,3.8-9c2.5-1.4,14.1-9.8,14.1-19.1
		c-4.2-1.8-10.5-4.5-12.9-6c-2.4-1.6-9.8-4.8-11.1-4.4c-1.4,0.4-1.9,0.8-2.4,9.2c-0.4,8.4-2.7,21-6.3,19.9c-3.5-1.1,6-28.2,5.2-28.7
		c-0.8-0.5-5.1-1.8-6-2c-0.9-0.1-11.3-1.6-11.9,0.1s-0.4,13.8,0.4,19.1c0.8,5.4,3,18.5-1.4,17.6c-4.4-0.9-4.8-13-4.8-14.9
		c0.1-1.9,5-21.1,2.8-22.3C95.3-1,81.1,2.6,79.4,3c-1.7,0.4-12.5,4.4-12.5,4.4s8.6,4,10.2,8.2c1.6,4.2,9.7,24.7,6.6,26.2
		C80.6,43.3,74.9,27,72,23.9C69.1,20.9,60,9.6,60,9.6s-19.6,8-18.4,16.4c4.8,3.5,18.6,9.9,20.8,11.4c2.2,1.5,10.9,9.2,10.4,11
		c-0.5,1.8-1.9,3.3-8.6-1.9c-6.7-5.2-29.5-17.9-29.5-17.9S21.8,42.9,21,50.7c1.6,1.5,14.2,0.7,15.6,1c1.4,0.2,23.8,5.3,20.1,10.7
		c-3,0.1-17-2-35.2-9.3c-0.8,2.6-1.5,9.8-3.3,12.4c-1.8,2.6-4.1,7.1-2.4,9.6c1.6,2.5,17.4,0.3,19.3,0.3c1.9,0.1,19.1-1.8,16.7,3
		c-2.4,4.9-37,3.2-37,3.2s-2.6,16.4,3.2,24.9c3-1.6,13.8-6,16.8-7.2c3-1.2,14-1.8,13.2,2.3c-0.7,4.1-3,5.5-6,6.2
		c-3,0.7-18.9,5-18.7,6.1c0.2,1.1,12.7,12.7,13.4,14c1.5,3,2.3,5.1,2.3,5.1s4.6,7.4,6,8.2c0.5-2.4,9.9-16.1,14.3-17.7
		c1.3,1.7,2,2.7,2,2.7s-11.8,11.6-14.2,17c3.4,3.5,5.4,7.6,19.8,9.4c0.2-2.5,3.7-21.1,4.7-21.4c1-0.3,2.5,0.8-1.9,20.8
		c4.2,0.7,22.3-0.3,23.4-2.1c1.1-1.9-0.7-11.9,0-16.9c0.6-5,2-26,6-25.3c4.1,0.7,3.9,6.7,4.1,10.4c0.3,3.7-4.1,24.8-2.8,26.5
		c1.3,1.7,3.6,3.5,3.6,3.5S120.3,143.6,120.6,142.1z M109.7,79.8c3.8,2.8,6,4.5,5.6,6.8c-0.4,2.4-4.4-0.5-8.2-3.3
		c-3.8-2.8-7.4-4.4-5.6-6.8C102.2,75.6,105.8,77,109.7,79.8z M118.6,63.2c3,0.5,5.3,1.9,5.1,3.1c-0.2,1.2-2.8,1.7-5.8,1.2
		c-3-0.5-5.3-1.9-5.1-3.1C113,63.3,115.6,62.7,118.6,63.2z M120.3,52.6c2.7,0.1,4.9,1.1,4.9,2.3c0,1.2-2.3,2.2-5,2.1
		c-2.7-0.1-4.9-1.1-4.9-2.3C115.4,53.5,117.6,52.5,120.3,52.6z M113.3,38.1c0.8,0.2,1.1,1.8,0.6,3.6c-0.5,1.8-1.5,3.1-2.3,2.9
		c-0.8-0.2-1.1-1.8-0.6-3.6C111.5,39.2,112.5,37.9,113.3,38.1z M99.1,44c2.5-0.8,3.5,2.1,4.5,5.6s0.6,6.7-0.8,7.2
		c-1.5,0.4-3.5-2.1-4.5-5.6C97.3,47.6,97.7,44.5,99.1,44z M85.5,52.8c3-2.2,4.9,0.8,7.5,4.3s4.1,6.8,1.9,8.4
		c-1.5,1.1-4.9-0.8-7.5-4.3C84.8,57.7,83.9,53.9,85.5,52.8z M69.1,67.8c1.3-3.5,4.5-2,8.6-0.5c4.1,1.5,7.2,3.4,6.2,6
		c-0.7,1.8-4.5,2-8.6,0.5C71.2,72.3,68.4,69.6,69.1,67.8z M61.1,82.4c1.3-3.5,4.5-2,8.6-0.5c4.1,1.5,7.5,5.5,6.6,8.1
		c-0.7,1.8-4.9-0.1-9-1.6C63.2,86.9,60.5,84.2,61.1,82.4z M58.9,102.3c-2.7,0.2-5-0.6-5.1-1.8c-0.1-1.2,2-2.4,4.8-2.6
		c2.7-0.2,5,0.6,5.1,1.8C63.7,100.9,61.6,102,58.9,102.3z M103.9,70c0.4-1.2,2.8-1.4,5.4-0.6c2.6,0.8,4.2,2.4,4,3.6
		c-0.4,2.5-2.8,1.4-5.4,0.6C105.4,72.7,103.6,71.1,103.9,70z M91.7,96.8c-1.5-0.3-2.8-3-2.8-6.7c0-3.7,1.3-6.6,2.8-6.6
		c2.6-0.1,3.2,2.9,3.2,6.6C94.9,93.7,96.8,97.8,91.7,96.8z M84.5,118c-1.2,0.1-2.4-2.8-2.7-6.4c-0.3-3.7,0.4-6.6,1.6-6.8
		c2-0.3,2.4,2.8,2.7,6.4C86.4,114.9,85.7,117.9,84.5,118z"/>
	<path class="st5" d="M0,156.2c0,0,7.1-5,17.7-12.8c5.3-3.9,11.4-8.5,17.8-13.5c3.2-2.5,6.5-5.2,9.9-7.9c3.3-2.7,6.7-5.5,10-8.4
		c1.7-1.4,3.3-2.9,4.9-4.3c1.6-1.5,3.2-3,4.7-4.4c3.1-3,6-6,8.8-9c2.8-3,5.5-5.9,8-8.7c2.5-2.8,4.8-5.5,7-8
		c8.5-10,13.8-16.9,13.8-16.9s-5.1,7.1-13.4,17.3c-2.1,2.6-4.3,5.3-6.7,8.2c-2.4,2.9-5,5.9-7.8,9c-2.7,3.1-5.6,6.2-8.6,9.3
		c-1.5,1.6-3.1,3.1-4.6,4.6c-1.6,1.5-3.2,3-4.8,4.5c-3.2,3-6.5,5.9-9.8,8.7c-3.3,2.8-6.5,5.5-9.7,8.2c-6.3,5.2-12.3,10-17.5,14.1
		C9.3,154,2.2,159.3,2.2,159.3L0,156.2z"/>
</g>
</svg>
