<?xml version="1.0" encoding="utf-8"?>
<!-- Generator: Adobe Illustrator 19.2.1, SVG Export Plug-In . SVG Version: 6.00 Build 0)  -->
<svg version="1.1" id="Layer_1" xmlns="http://www.w3.org/2000/svg" xmlns:xlink="http://www.w3.org/1999/xlink" x="0px" y="0px"
	 width="11.3px" height="9.9px" viewBox="0 0 11.3 9.9" style="enable-background:new 0 0 11.3 9.9;" xml:space="preserve">
<style type="text/css">
	.st0{fill:#1A8850;}
</style>
<g id="XMLID_51_">
	<path id="XMLID_53_" class="st0" d="M3.8,9.7c0,0.1,0,0.1,0.1,0.2c0.1,0,0.1,0,0.2,0L5.3,9L3.8,8.3L3.8,9.7L3.8,9.7z"/>
	<path id="XMLID_52_" class="st0" d="M11.2,0c0,0-0.1,0-0.1,0c0,0-0.1,0-0.1,0L0.2,5.3C0.1,5.4,0,5.5,0,5.6c0,0.1,0.1,0.2,0.2,0.3
		L3,7.3l5.7-4.7l-5,5l3.6,1.7c0,0,0.1,0,0.1,0c0,0,0.1,0,0.1,0c0.1,0,0.1-0.1,0.2-0.2l3.5-8.9C11.3,0.2,11.3,0.1,11.2,0z"/>
</g>
</svg>
