<?xml version="1.0" encoding="utf-8"?>
<!-- Generator: Adobe Illustrator 19.2.1, SVG Export Plug-In . SVG Version: 6.00 Build 0)  -->
<svg version="1.1" id="Layer_1" xmlns="http://www.w3.org/2000/svg" xmlns:xlink="http://www.w3.org/1999/xlink" x="0px" y="0px"
	 width="34.7px" height="35.3px" viewBox="0 0 34.7 35.3" style="enable-background:new 0 0 34.7 35.3;" xml:space="preserve">
<style type="text/css">
	.st0{fill:#85BD7E;}
	.st1{fill:#363D42;}
</style>
<g>
	<path class="st0" d="M4.8,24.7h1.8c0.3,0,0.7-0.2,0.8-0.5c0.2-0.3,0.2-0.6,0-0.9L6.6,21l0-0.1c-0.2-0.3-0.5-0.5-0.8-0.5l0,0
		c-0.4,0-0.7,0.2-0.8,0.5L4,23.3c-0.2,0.3-0.1,0.6,0,0.9C4.2,24.5,4.5,24.7,4.8,24.7z"/>
	<path class="st0" d="M14.9,21.7c0,1.7,1.2,3,2.8,3s2.8-1.4,2.8-3s-1.2-3-2.8-3S14.9,20,14.9,21.7z"/>
	<path class="st0" d="M31.6,18.3h-4.2c-0.6,0-1,0.5-1,1V24c0,0.6,0.5,1,1,1h4.2c0.6,0,1-0.5,1-1v-4.7C32.7,18.8,32.2,18.3,31.6,18.3
		z"/>
	<g>
		<path class="st1" d="M7.6,18.1C7.2,17.4,6.5,17,5.7,17c-0.8,0-1.5,0.4-1.9,1.1l-3.5,6c-0.4,0.7-0.4,1.5,0,2.2
			c0.4,0.7,1.1,1.1,1.9,1.1h7c0.8,0,1.5-0.4,1.9-1.1c0.4-0.7,0.4-1.5,0-2.2L7.6,18.1z M10.4,25.8c-0.2,0.4-0.7,0.7-1.2,0.7h-7
			c-0.5,0-0.9-0.3-1.2-0.7c-0.2-0.4-0.2-0.9,0-1.3l3.5-6c0.2-0.4,0.7-0.7,1.2-0.7s0.9,0.2,1.2,0.7l3.5,6
			C10.6,24.9,10.6,25.4,10.4,25.8z"/>
		<path class="st1" d="M34.7,28.3H0.6v3.9h2.5v3.1h3.3v-3.1h22.5v3.1h3.3v-3.1h2.5V28.3z M5.5,34.5H3.9v-2.2h1.6V34.5z M31.4,34.5
			h-1.6v-2.2h1.6V34.5z M33.9,31.4H1.5v-2.2h32.4V31.4z"/>
		<path class="st1" d="M23,21.4c0-3-2.4-5.4-5.4-5.4s-5.4,2.4-5.4,5.4V22c0,3,2.4,5.4,5.4,5.4S23,24.9,23,22V21.4z M22.2,22
			c0,2.5-2,4.5-4.5,4.5s-4.5-2-4.5-4.5v-0.6c0-2.5,2-4.5,4.5-4.5s4.5,2,4.5,4.5V22z"/>
		<path class="st1" d="M33.1,16h-7.4c-0.9,0-1.7,0.7-1.7,1.7v8c0,0.9,0.7,1.7,1.7,1.7h7.4c0.9,0,1.7-0.7,1.7-1.7v-8
			C34.7,16.8,34,16,33.1,16z M33.9,25.7c0,0.4-0.4,0.8-0.8,0.8h-7.4c-0.4,0-0.8-0.4-0.8-0.8v-8c0-0.4,0.4-0.8,0.8-0.8h7.4
			c0.4,0,0.8,0.4,0.8,0.8V25.7z"/>
		<path class="st1" d="M5.7,20.3c-0.3,0-0.7,0.2-0.8,0.5l-1.1,2.7c-0.2,0.3-0.2,0.6,0,0.9c0.2,0.3,0.5,0.5,0.8,0.5h2.1
			c0.3,0,0.7-0.2,0.8-0.5c0.2-0.3,0.2-0.6,0-0.9l-1.1-2.8C6.4,20.4,6.1,20.3,5.7,20.3z M4.5,24L5.7,21L6.9,24H4.5z"/>
		<path class="st1" d="M14.8,21.7c0,1.8,1.3,3.2,2.9,3.2s2.9-1.4,2.9-3.2c0-1.8-1.3-3.2-2.9-3.2S14.8,19.9,14.8,21.7z M19.7,21.7
			c0,1.3-0.9,2.3-2,2.3c-1.1,0-2-1-2-2.3c0-1.3,0.9-2.3,2-2.3C18.8,19.3,19.7,20.4,19.7,21.7z"/>
		<ellipse class="st1" cx="17.7" cy="21.7" rx="1" ry="0.7"/>
		<path class="st1" d="M31.8,17.9h-4.9c-0.6,0-1,0.5-1,1v5.5c0,0.6,0.5,1,1,1h4.9c0.6,0,1-0.5,1-1v-5.5
			C32.9,18.3,32.4,17.9,31.8,17.9z M32,24.6h-5.3v-5.9H32L32,24.6z"/>
		<path class="st1" d="M29.1,20.4c0.1-0.1,0.1-0.2,0.1-0.3s0-0.2-0.1-0.3c-0.1-0.1-0.2-0.1-0.3-0.1c-0.1,0-0.2,0-0.3,0.1l-0.6,0.6
			c-0.1,0.1-0.1,0.2-0.1,0.3s0,0.2,0.1,0.3c0.2,0.2,0.4,0.2,0.6,0L29.1,20.4z"/>
		<path class="st1" d="M29.2,23.2c0-0.1,0-0.2-0.1-0.3l-0.6-0.6c-0.1-0.1-0.2-0.1-0.3-0.1c-0.1,0-0.2,0-0.3,0.1
			c-0.1,0.1-0.1,0.2-0.1,0.3s0,0.2,0.1,0.3l0.6,0.6c0.2,0.2,0.4,0.2,0.6,0C29.1,23.4,29.2,23.3,29.2,23.2z"/>
		<path class="st1" d="M30.9,21.1c-0.1-0.1-0.2-0.1-0.3-0.1c-0.1,0-0.2,0-0.3,0.1l-0.6,0.6c-0.1,0.1-0.1,0.2-0.1,0.3
			c0,0.1,0,0.2,0.1,0.3l0,0c0.2,0.2,0.4,0.2,0.6,0l0.6-0.6c0.1-0.1,0.1-0.2,0.1-0.3S31,21.1,30.9,21.1z"/>
		<path class="st1" d="M33.8,6c0.2-0.1,0.4-0.3,0.3-0.5c0-0.1-0.1-0.2-0.2-0.3s-0.2-0.1-0.3,0l-16,4.9l13.9-9.3
			c0.2-0.1,0.3-0.4,0.1-0.6C31.5,0.1,31.4,0,31.3,0c-0.1,0-0.2,0-0.3,0.1L14.7,10.9l-6.6,2c-0.1,0-0.2,0.1-0.3,0.2
			c-0.1,0.1-0.1,0.2,0,0.3c0.1,0.2,0.3,0.4,0.5,0.3l3.9-1.2l-3.4,2.3c-0.2,0.1-0.3,0.4-0.1,0.6c0.1,0.2,0.4,0.2,0.6,0.1l5.8-3.9
			L33.8,6z"/>
	</g>
</g>
</svg>
